%TF.GenerationSoftware,KiCad,Pcbnew,5.1.6*%
%TF.CreationDate,2020-07-14T13:58:31+04:00*%
%TF.ProjectId,FC_more_vcas,46435f6d-6f72-4655-9f76-6361732e6b69,rev?*%
%TF.SameCoordinates,Original*%
%TF.FileFunction,Legend,Top*%
%TF.FilePolarity,Positive*%
%FSLAX46Y46*%
G04 Gerber Fmt 4.6, Leading zero omitted, Abs format (unit mm)*
G04 Created by KiCad (PCBNEW 5.1.6) date 2020-07-14 13:58:31*
%MOMM*%
%LPD*%
G01*
G04 APERTURE LIST*
%ADD10C,0.120000*%
%ADD11C,0.150000*%
G04 APERTURE END LIST*
D10*
%TO.C,INITIAL_CV1*%
X58120000Y-44340000D02*
X58120000Y-45170000D01*
X58120000Y-46790000D02*
X58120000Y-47320000D01*
X58120000Y-49690000D02*
X58120000Y-50870000D01*
X58120000Y-41130000D02*
X53400000Y-41130000D01*
X49590000Y-50870000D02*
X46530000Y-50870000D01*
X58120000Y-50880000D02*
X53400000Y-50880000D01*
X49590000Y-41130000D02*
X46530000Y-41130000D01*
X58120000Y-41130000D02*
X58120000Y-42620000D01*
X46530000Y-41130000D02*
X46530000Y-50870000D01*
%TO.C,INITIAL_CV2*%
X56470000Y-96870000D02*
X56470000Y-87130000D01*
X44880000Y-96870000D02*
X44880000Y-95380000D01*
X53410000Y-96870000D02*
X56470000Y-96870000D01*
X44880000Y-87120000D02*
X49600000Y-87120000D01*
X53410000Y-87130000D02*
X56470000Y-87130000D01*
X44880000Y-96870000D02*
X49600000Y-96870000D01*
X44880000Y-88310000D02*
X44880000Y-87130000D01*
X44880000Y-91210000D02*
X44880000Y-90680000D01*
X44880000Y-93660000D02*
X44880000Y-92830000D01*
%TO.C,INPUT_1*%
X42000000Y-22480000D02*
X42000000Y-32980000D01*
X51000000Y-22480000D02*
X51000000Y-32980000D01*
X51000000Y-32980000D02*
X47000000Y-32980000D01*
X46000000Y-32980000D02*
X42000000Y-32980000D01*
X51000000Y-22480000D02*
X46850000Y-22480000D01*
X46150000Y-22480000D02*
X42000000Y-22480000D01*
X48300000Y-26980000D02*
G75*
G03*
X48300000Y-26980000I-1800000J0D01*
G01*
X45440000Y-19500000D02*
X45440000Y-20300000D01*
X45440000Y-19500000D02*
X46300000Y-19500000D01*
%TO.C,INPUT_2*%
X47560000Y-118500000D02*
X46700000Y-118500000D01*
X47560000Y-118500000D02*
X47560000Y-117700000D01*
X48300000Y-111020000D02*
G75*
G03*
X48300000Y-111020000I-1800000J0D01*
G01*
X46850000Y-115520000D02*
X51000000Y-115520000D01*
X42000000Y-115520000D02*
X46150000Y-115520000D01*
X47000000Y-105020000D02*
X51000000Y-105020000D01*
X42000000Y-105020000D02*
X46000000Y-105020000D01*
X42000000Y-115520000D02*
X42000000Y-105020000D01*
X51000000Y-115520000D02*
X51000000Y-105020000D01*
%TO.C,J1*%
X23430000Y-22030000D02*
X20770000Y-22030000D01*
X23430000Y-37330000D02*
X23430000Y-22030000D01*
X20770000Y-37330000D02*
X20770000Y-22030000D01*
X23430000Y-37330000D02*
X20770000Y-37330000D01*
X23430000Y-38600000D02*
X23430000Y-39930000D01*
X23430000Y-39930000D02*
X22100000Y-39930000D01*
%TO.C,J2*%
X39480000Y-90130000D02*
X38150000Y-90130000D01*
X39480000Y-88800000D02*
X39480000Y-90130000D01*
X39480000Y-87530000D02*
X36820000Y-87530000D01*
X36820000Y-87530000D02*
X36820000Y-72230000D01*
X39480000Y-87530000D02*
X39480000Y-72230000D01*
X39480000Y-72230000D02*
X36820000Y-72230000D01*
%TO.C,IN_CV_1*%
X51000000Y-69520000D02*
X51000000Y-59020000D01*
X42000000Y-69520000D02*
X42000000Y-59020000D01*
X42000000Y-59020000D02*
X46000000Y-59020000D01*
X47000000Y-59020000D02*
X51000000Y-59020000D01*
X42000000Y-69520000D02*
X46150000Y-69520000D01*
X46850000Y-69520000D02*
X51000000Y-69520000D01*
X48300000Y-65020000D02*
G75*
G03*
X48300000Y-65020000I-1800000J0D01*
G01*
X47560000Y-72500000D02*
X47560000Y-71700000D01*
X47560000Y-72500000D02*
X46700000Y-72500000D01*
%TO.C,IN_CV_2*%
X55440000Y-65500000D02*
X56300000Y-65500000D01*
X55440000Y-65500000D02*
X55440000Y-66300000D01*
X58300000Y-72980000D02*
G75*
G03*
X58300000Y-72980000I-1800000J0D01*
G01*
X56150000Y-68480000D02*
X52000000Y-68480000D01*
X61000000Y-68480000D02*
X56850000Y-68480000D01*
X56000000Y-78980000D02*
X52000000Y-78980000D01*
X61000000Y-78980000D02*
X57000000Y-78980000D01*
X61000000Y-68480000D02*
X61000000Y-78980000D01*
X52000000Y-68480000D02*
X52000000Y-78980000D01*
%TO.C,OUTPUT_1*%
X52000000Y-22480000D02*
X52000000Y-32980000D01*
X61000000Y-22480000D02*
X61000000Y-32980000D01*
X61000000Y-32980000D02*
X57000000Y-32980000D01*
X56000000Y-32980000D02*
X52000000Y-32980000D01*
X61000000Y-22480000D02*
X56850000Y-22480000D01*
X56150000Y-22480000D02*
X52000000Y-22480000D01*
X58300000Y-26980000D02*
G75*
G03*
X58300000Y-26980000I-1800000J0D01*
G01*
X55440000Y-19500000D02*
X55440000Y-20300000D01*
X55440000Y-19500000D02*
X56300000Y-19500000D01*
%TO.C,OUTPUT_2*%
X57560000Y-118500000D02*
X56700000Y-118500000D01*
X57560000Y-118500000D02*
X57560000Y-117700000D01*
X58300000Y-111020000D02*
G75*
G03*
X58300000Y-111020000I-1800000J0D01*
G01*
X56850000Y-115520000D02*
X61000000Y-115520000D01*
X52000000Y-115520000D02*
X56150000Y-115520000D01*
X57000000Y-105020000D02*
X61000000Y-105020000D01*
X52000000Y-105020000D02*
X56000000Y-105020000D01*
X52000000Y-115520000D02*
X52000000Y-105020000D01*
X61000000Y-115520000D02*
X61000000Y-105020000D01*
%TO.C,Q1*%
X36940000Y-47920000D02*
X38400000Y-47920000D01*
X36940000Y-51080000D02*
X39100000Y-51080000D01*
X36940000Y-51080000D02*
X36940000Y-50150000D01*
X36940000Y-47920000D02*
X36940000Y-48850000D01*
%TO.C,Q2*%
X23960000Y-51080000D02*
X23960000Y-50150000D01*
X23960000Y-47920000D02*
X23960000Y-48850000D01*
X23960000Y-47920000D02*
X21800000Y-47920000D01*
X23960000Y-51080000D02*
X22500000Y-51080000D01*
%TO.C,R1*%
X33061252Y-42710000D02*
X32538748Y-42710000D01*
X33061252Y-41290000D02*
X32538748Y-41290000D01*
%TO.C,R2*%
X27438748Y-42710000D02*
X27961252Y-42710000D01*
X27438748Y-41290000D02*
X27961252Y-41290000D01*
%TO.C,R5*%
X23438748Y-41290000D02*
X23961252Y-41290000D01*
X23438748Y-42710000D02*
X23961252Y-42710000D01*
%TO.C,R6*%
X37061252Y-41290000D02*
X36538748Y-41290000D01*
X37061252Y-42710000D02*
X36538748Y-42710000D01*
%TO.C,R7*%
X22438748Y-55310000D02*
X22961252Y-55310000D01*
X22438748Y-53890000D02*
X22961252Y-53890000D01*
%TO.C,R8*%
X38061252Y-55310000D02*
X37538748Y-55310000D01*
X38061252Y-53890000D02*
X37538748Y-53890000D01*
%TO.C,R9*%
X33938748Y-87210000D02*
X34461252Y-87210000D01*
X33938748Y-85790000D02*
X34461252Y-85790000D01*
%TO.C,R10*%
X26961252Y-32790000D02*
X26438748Y-32790000D01*
X26961252Y-34210000D02*
X26438748Y-34210000D01*
%TO.C,R11*%
X22438748Y-63990000D02*
X22961252Y-63990000D01*
X22438748Y-65410000D02*
X22961252Y-65410000D01*
%TO.C,R12*%
X38036252Y-65510000D02*
X37513748Y-65510000D01*
X38036252Y-64090000D02*
X37513748Y-64090000D01*
%TO.C,INITIAL_CV1*%
D11*
X48600000Y-46452380D02*
X48600000Y-45452380D01*
X49076190Y-46452380D02*
X49076190Y-45452380D01*
X49647619Y-46452380D01*
X49647619Y-45452380D01*
X50123809Y-46452380D02*
X50123809Y-45452380D01*
X50457142Y-45452380D02*
X51028571Y-45452380D01*
X50742857Y-46452380D02*
X50742857Y-45452380D01*
X51361904Y-46452380D02*
X51361904Y-45452380D01*
X51790476Y-46166666D02*
X52266666Y-46166666D01*
X51695238Y-46452380D02*
X52028571Y-45452380D01*
X52361904Y-46452380D01*
X53171428Y-46452380D02*
X52695238Y-46452380D01*
X52695238Y-45452380D01*
X53266666Y-46547619D02*
X54028571Y-46547619D01*
X54838095Y-46357142D02*
X54790476Y-46404761D01*
X54647619Y-46452380D01*
X54552380Y-46452380D01*
X54409523Y-46404761D01*
X54314285Y-46309523D01*
X54266666Y-46214285D01*
X54219047Y-46023809D01*
X54219047Y-45880952D01*
X54266666Y-45690476D01*
X54314285Y-45595238D01*
X54409523Y-45500000D01*
X54552380Y-45452380D01*
X54647619Y-45452380D01*
X54790476Y-45500000D01*
X54838095Y-45547619D01*
X55123809Y-45452380D02*
X55457142Y-46452380D01*
X55790476Y-45452380D01*
X56647619Y-46452380D02*
X56076190Y-46452380D01*
X56361904Y-46452380D02*
X56361904Y-45452380D01*
X56266666Y-45595238D01*
X56171428Y-45690476D01*
X56076190Y-45738095D01*
%TO.C,INITIAL_CV2*%
X46600000Y-92552380D02*
X46600000Y-91552380D01*
X47076190Y-92552380D02*
X47076190Y-91552380D01*
X47647619Y-92552380D01*
X47647619Y-91552380D01*
X48123809Y-92552380D02*
X48123809Y-91552380D01*
X48457142Y-91552380D02*
X49028571Y-91552380D01*
X48742857Y-92552380D02*
X48742857Y-91552380D01*
X49361904Y-92552380D02*
X49361904Y-91552380D01*
X49790476Y-92266666D02*
X50266666Y-92266666D01*
X49695238Y-92552380D02*
X50028571Y-91552380D01*
X50361904Y-92552380D01*
X51171428Y-92552380D02*
X50695238Y-92552380D01*
X50695238Y-91552380D01*
X51266666Y-92647619D02*
X52028571Y-92647619D01*
X52838095Y-92457142D02*
X52790476Y-92504761D01*
X52647619Y-92552380D01*
X52552380Y-92552380D01*
X52409523Y-92504761D01*
X52314285Y-92409523D01*
X52266666Y-92314285D01*
X52219047Y-92123809D01*
X52219047Y-91980952D01*
X52266666Y-91790476D01*
X52314285Y-91695238D01*
X52409523Y-91600000D01*
X52552380Y-91552380D01*
X52647619Y-91552380D01*
X52790476Y-91600000D01*
X52838095Y-91647619D01*
X53123809Y-91552380D02*
X53457142Y-92552380D01*
X53790476Y-91552380D01*
X54076190Y-91647619D02*
X54123809Y-91600000D01*
X54219047Y-91552380D01*
X54457142Y-91552380D01*
X54552380Y-91600000D01*
X54600000Y-91647619D01*
X54647619Y-91742857D01*
X54647619Y-91838095D01*
X54600000Y-91980952D01*
X54028571Y-92552380D01*
X54647619Y-92552380D01*
%TO.C,INPUT_1*%
X43714285Y-27352380D02*
X43714285Y-26352380D01*
X44190476Y-27352380D02*
X44190476Y-26352380D01*
X44761904Y-27352380D01*
X44761904Y-26352380D01*
X45238095Y-27352380D02*
X45238095Y-26352380D01*
X45619047Y-26352380D01*
X45714285Y-26400000D01*
X45761904Y-26447619D01*
X45809523Y-26542857D01*
X45809523Y-26685714D01*
X45761904Y-26780952D01*
X45714285Y-26828571D01*
X45619047Y-26876190D01*
X45238095Y-26876190D01*
X46238095Y-26352380D02*
X46238095Y-27161904D01*
X46285714Y-27257142D01*
X46333333Y-27304761D01*
X46428571Y-27352380D01*
X46619047Y-27352380D01*
X46714285Y-27304761D01*
X46761904Y-27257142D01*
X46809523Y-27161904D01*
X46809523Y-26352380D01*
X47142857Y-26352380D02*
X47714285Y-26352380D01*
X47428571Y-27352380D02*
X47428571Y-26352380D01*
X47809523Y-27447619D02*
X48571428Y-27447619D01*
X49333333Y-27352380D02*
X48761904Y-27352380D01*
X49047619Y-27352380D02*
X49047619Y-26352380D01*
X48952380Y-26495238D01*
X48857142Y-26590476D01*
X48761904Y-26638095D01*
%TO.C,INPUT_2*%
X43714285Y-111552380D02*
X43714285Y-110552380D01*
X44190476Y-111552380D02*
X44190476Y-110552380D01*
X44761904Y-111552380D01*
X44761904Y-110552380D01*
X45238095Y-111552380D02*
X45238095Y-110552380D01*
X45619047Y-110552380D01*
X45714285Y-110600000D01*
X45761904Y-110647619D01*
X45809523Y-110742857D01*
X45809523Y-110885714D01*
X45761904Y-110980952D01*
X45714285Y-111028571D01*
X45619047Y-111076190D01*
X45238095Y-111076190D01*
X46238095Y-110552380D02*
X46238095Y-111361904D01*
X46285714Y-111457142D01*
X46333333Y-111504761D01*
X46428571Y-111552380D01*
X46619047Y-111552380D01*
X46714285Y-111504761D01*
X46761904Y-111457142D01*
X46809523Y-111361904D01*
X46809523Y-110552380D01*
X47142857Y-110552380D02*
X47714285Y-110552380D01*
X47428571Y-111552380D02*
X47428571Y-110552380D01*
X47809523Y-111647619D02*
X48571428Y-111647619D01*
X48761904Y-110647619D02*
X48809523Y-110600000D01*
X48904761Y-110552380D01*
X49142857Y-110552380D01*
X49238095Y-110600000D01*
X49285714Y-110647619D01*
X49333333Y-110742857D01*
X49333333Y-110838095D01*
X49285714Y-110980952D01*
X48714285Y-111552380D01*
X49333333Y-111552380D01*
%TO.C,J1*%
X21766666Y-40382380D02*
X21766666Y-41096666D01*
X21719047Y-41239523D01*
X21623809Y-41334761D01*
X21480952Y-41382380D01*
X21385714Y-41382380D01*
X22766666Y-41382380D02*
X22195238Y-41382380D01*
X22480952Y-41382380D02*
X22480952Y-40382380D01*
X22385714Y-40525238D01*
X22290476Y-40620476D01*
X22195238Y-40668095D01*
%TO.C,J2*%
X37816666Y-90582380D02*
X37816666Y-91296666D01*
X37769047Y-91439523D01*
X37673809Y-91534761D01*
X37530952Y-91582380D01*
X37435714Y-91582380D01*
X38245238Y-90677619D02*
X38292857Y-90630000D01*
X38388095Y-90582380D01*
X38626190Y-90582380D01*
X38721428Y-90630000D01*
X38769047Y-90677619D01*
X38816666Y-90772857D01*
X38816666Y-90868095D01*
X38769047Y-91010952D01*
X38197619Y-91582380D01*
X38816666Y-91582380D01*
%TO.C,IN_CV_1*%
X43909523Y-65552380D02*
X43909523Y-64552380D01*
X44385714Y-65552380D02*
X44385714Y-64552380D01*
X44957142Y-65552380D01*
X44957142Y-64552380D01*
X45195238Y-65647619D02*
X45957142Y-65647619D01*
X46766666Y-65457142D02*
X46719047Y-65504761D01*
X46576190Y-65552380D01*
X46480952Y-65552380D01*
X46338095Y-65504761D01*
X46242857Y-65409523D01*
X46195238Y-65314285D01*
X46147619Y-65123809D01*
X46147619Y-64980952D01*
X46195238Y-64790476D01*
X46242857Y-64695238D01*
X46338095Y-64600000D01*
X46480952Y-64552380D01*
X46576190Y-64552380D01*
X46719047Y-64600000D01*
X46766666Y-64647619D01*
X47052380Y-64552380D02*
X47385714Y-65552380D01*
X47719047Y-64552380D01*
X47814285Y-65647619D02*
X48576190Y-65647619D01*
X49338095Y-65552380D02*
X48766666Y-65552380D01*
X49052380Y-65552380D02*
X49052380Y-64552380D01*
X48957142Y-64695238D01*
X48861904Y-64790476D01*
X48766666Y-64838095D01*
%TO.C,IN_CV_2*%
X53809523Y-73432380D02*
X53809523Y-72432380D01*
X54285714Y-73432380D02*
X54285714Y-72432380D01*
X54857142Y-73432380D01*
X54857142Y-72432380D01*
X55095238Y-73527619D02*
X55857142Y-73527619D01*
X56666666Y-73337142D02*
X56619047Y-73384761D01*
X56476190Y-73432380D01*
X56380952Y-73432380D01*
X56238095Y-73384761D01*
X56142857Y-73289523D01*
X56095238Y-73194285D01*
X56047619Y-73003809D01*
X56047619Y-72860952D01*
X56095238Y-72670476D01*
X56142857Y-72575238D01*
X56238095Y-72480000D01*
X56380952Y-72432380D01*
X56476190Y-72432380D01*
X56619047Y-72480000D01*
X56666666Y-72527619D01*
X56952380Y-72432380D02*
X57285714Y-73432380D01*
X57619047Y-72432380D01*
X57714285Y-73527619D02*
X58476190Y-73527619D01*
X58666666Y-72527619D02*
X58714285Y-72480000D01*
X58809523Y-72432380D01*
X59047619Y-72432380D01*
X59142857Y-72480000D01*
X59190476Y-72527619D01*
X59238095Y-72622857D01*
X59238095Y-72718095D01*
X59190476Y-72860952D01*
X58619047Y-73432380D01*
X59238095Y-73432380D01*
%TO.C,OUTPUT_1*%
X53338095Y-26252380D02*
X53528571Y-26252380D01*
X53623809Y-26300000D01*
X53719047Y-26395238D01*
X53766666Y-26585714D01*
X53766666Y-26919047D01*
X53719047Y-27109523D01*
X53623809Y-27204761D01*
X53528571Y-27252380D01*
X53338095Y-27252380D01*
X53242857Y-27204761D01*
X53147619Y-27109523D01*
X53100000Y-26919047D01*
X53100000Y-26585714D01*
X53147619Y-26395238D01*
X53242857Y-26300000D01*
X53338095Y-26252380D01*
X54195238Y-26252380D02*
X54195238Y-27061904D01*
X54242857Y-27157142D01*
X54290476Y-27204761D01*
X54385714Y-27252380D01*
X54576190Y-27252380D01*
X54671428Y-27204761D01*
X54719047Y-27157142D01*
X54766666Y-27061904D01*
X54766666Y-26252380D01*
X55100000Y-26252380D02*
X55671428Y-26252380D01*
X55385714Y-27252380D02*
X55385714Y-26252380D01*
X56004761Y-27252380D02*
X56004761Y-26252380D01*
X56385714Y-26252380D01*
X56480952Y-26300000D01*
X56528571Y-26347619D01*
X56576190Y-26442857D01*
X56576190Y-26585714D01*
X56528571Y-26680952D01*
X56480952Y-26728571D01*
X56385714Y-26776190D01*
X56004761Y-26776190D01*
X57004761Y-26252380D02*
X57004761Y-27061904D01*
X57052380Y-27157142D01*
X57100000Y-27204761D01*
X57195238Y-27252380D01*
X57385714Y-27252380D01*
X57480952Y-27204761D01*
X57528571Y-27157142D01*
X57576190Y-27061904D01*
X57576190Y-26252380D01*
X57909523Y-26252380D02*
X58480952Y-26252380D01*
X58195238Y-27252380D02*
X58195238Y-26252380D01*
X58576190Y-27347619D02*
X59338095Y-27347619D01*
X60100000Y-27252380D02*
X59528571Y-27252380D01*
X59814285Y-27252380D02*
X59814285Y-26252380D01*
X59719047Y-26395238D01*
X59623809Y-26490476D01*
X59528571Y-26538095D01*
%TO.C,OUTPUT_2*%
X53038095Y-110552380D02*
X53228571Y-110552380D01*
X53323809Y-110600000D01*
X53419047Y-110695238D01*
X53466666Y-110885714D01*
X53466666Y-111219047D01*
X53419047Y-111409523D01*
X53323809Y-111504761D01*
X53228571Y-111552380D01*
X53038095Y-111552380D01*
X52942857Y-111504761D01*
X52847619Y-111409523D01*
X52800000Y-111219047D01*
X52800000Y-110885714D01*
X52847619Y-110695238D01*
X52942857Y-110600000D01*
X53038095Y-110552380D01*
X53895238Y-110552380D02*
X53895238Y-111361904D01*
X53942857Y-111457142D01*
X53990476Y-111504761D01*
X54085714Y-111552380D01*
X54276190Y-111552380D01*
X54371428Y-111504761D01*
X54419047Y-111457142D01*
X54466666Y-111361904D01*
X54466666Y-110552380D01*
X54800000Y-110552380D02*
X55371428Y-110552380D01*
X55085714Y-111552380D02*
X55085714Y-110552380D01*
X55704761Y-111552380D02*
X55704761Y-110552380D01*
X56085714Y-110552380D01*
X56180952Y-110600000D01*
X56228571Y-110647619D01*
X56276190Y-110742857D01*
X56276190Y-110885714D01*
X56228571Y-110980952D01*
X56180952Y-111028571D01*
X56085714Y-111076190D01*
X55704761Y-111076190D01*
X56704761Y-110552380D02*
X56704761Y-111361904D01*
X56752380Y-111457142D01*
X56800000Y-111504761D01*
X56895238Y-111552380D01*
X57085714Y-111552380D01*
X57180952Y-111504761D01*
X57228571Y-111457142D01*
X57276190Y-111361904D01*
X57276190Y-110552380D01*
X57609523Y-110552380D02*
X58180952Y-110552380D01*
X57895238Y-111552380D02*
X57895238Y-110552380D01*
X58276190Y-111647619D02*
X59038095Y-111647619D01*
X59228571Y-110647619D02*
X59276190Y-110600000D01*
X59371428Y-110552380D01*
X59609523Y-110552380D01*
X59704761Y-110600000D01*
X59752380Y-110647619D01*
X59800000Y-110742857D01*
X59800000Y-110838095D01*
X59752380Y-110980952D01*
X59180952Y-111552380D01*
X59800000Y-111552380D01*
%TO.C,Q1*%
X37604761Y-52547619D02*
X37509523Y-52500000D01*
X37414285Y-52404761D01*
X37271428Y-52261904D01*
X37176190Y-52214285D01*
X37080952Y-52214285D01*
X37128571Y-52452380D02*
X37033333Y-52404761D01*
X36938095Y-52309523D01*
X36890476Y-52119047D01*
X36890476Y-51785714D01*
X36938095Y-51595238D01*
X37033333Y-51500000D01*
X37128571Y-51452380D01*
X37319047Y-51452380D01*
X37414285Y-51500000D01*
X37509523Y-51595238D01*
X37557142Y-51785714D01*
X37557142Y-52119047D01*
X37509523Y-52309523D01*
X37414285Y-52404761D01*
X37319047Y-52452380D01*
X37128571Y-52452380D01*
X38509523Y-52452380D02*
X37938095Y-52452380D01*
X38223809Y-52452380D02*
X38223809Y-51452380D01*
X38128571Y-51595238D01*
X38033333Y-51690476D01*
X37938095Y-51738095D01*
%TO.C,Q2*%
X22904761Y-52547619D02*
X22809523Y-52500000D01*
X22714285Y-52404761D01*
X22571428Y-52261904D01*
X22476190Y-52214285D01*
X22380952Y-52214285D01*
X22428571Y-52452380D02*
X22333333Y-52404761D01*
X22238095Y-52309523D01*
X22190476Y-52119047D01*
X22190476Y-51785714D01*
X22238095Y-51595238D01*
X22333333Y-51500000D01*
X22428571Y-51452380D01*
X22619047Y-51452380D01*
X22714285Y-51500000D01*
X22809523Y-51595238D01*
X22857142Y-51785714D01*
X22857142Y-52119047D01*
X22809523Y-52309523D01*
X22714285Y-52404761D01*
X22619047Y-52452380D01*
X22428571Y-52452380D01*
X23238095Y-51547619D02*
X23285714Y-51500000D01*
X23380952Y-51452380D01*
X23619047Y-51452380D01*
X23714285Y-51500000D01*
X23761904Y-51547619D01*
X23809523Y-51642857D01*
X23809523Y-51738095D01*
X23761904Y-51880952D01*
X23190476Y-52452380D01*
X23809523Y-52452380D01*
%TO.C,R1*%
X32633333Y-44102380D02*
X32300000Y-43626190D01*
X32061904Y-44102380D02*
X32061904Y-43102380D01*
X32442857Y-43102380D01*
X32538095Y-43150000D01*
X32585714Y-43197619D01*
X32633333Y-43292857D01*
X32633333Y-43435714D01*
X32585714Y-43530952D01*
X32538095Y-43578571D01*
X32442857Y-43626190D01*
X32061904Y-43626190D01*
X33585714Y-44102380D02*
X33014285Y-44102380D01*
X33300000Y-44102380D02*
X33300000Y-43102380D01*
X33204761Y-43245238D01*
X33109523Y-43340476D01*
X33014285Y-43388095D01*
%TO.C,R2*%
X27533333Y-44052380D02*
X27200000Y-43576190D01*
X26961904Y-44052380D02*
X26961904Y-43052380D01*
X27342857Y-43052380D01*
X27438095Y-43100000D01*
X27485714Y-43147619D01*
X27533333Y-43242857D01*
X27533333Y-43385714D01*
X27485714Y-43480952D01*
X27438095Y-43528571D01*
X27342857Y-43576190D01*
X26961904Y-43576190D01*
X27914285Y-43147619D02*
X27961904Y-43100000D01*
X28057142Y-43052380D01*
X28295238Y-43052380D01*
X28390476Y-43100000D01*
X28438095Y-43147619D01*
X28485714Y-43242857D01*
X28485714Y-43338095D01*
X28438095Y-43480952D01*
X27866666Y-44052380D01*
X28485714Y-44052380D01*
%TO.C,R5*%
X23633333Y-44152380D02*
X23300000Y-43676190D01*
X23061904Y-44152380D02*
X23061904Y-43152380D01*
X23442857Y-43152380D01*
X23538095Y-43200000D01*
X23585714Y-43247619D01*
X23633333Y-43342857D01*
X23633333Y-43485714D01*
X23585714Y-43580952D01*
X23538095Y-43628571D01*
X23442857Y-43676190D01*
X23061904Y-43676190D01*
X24538095Y-43152380D02*
X24061904Y-43152380D01*
X24014285Y-43628571D01*
X24061904Y-43580952D01*
X24157142Y-43533333D01*
X24395238Y-43533333D01*
X24490476Y-43580952D01*
X24538095Y-43628571D01*
X24585714Y-43723809D01*
X24585714Y-43961904D01*
X24538095Y-44057142D01*
X24490476Y-44104761D01*
X24395238Y-44152380D01*
X24157142Y-44152380D01*
X24061904Y-44104761D01*
X24014285Y-44057142D01*
%TO.C,R6*%
X36633333Y-44102380D02*
X36300000Y-43626190D01*
X36061904Y-44102380D02*
X36061904Y-43102380D01*
X36442857Y-43102380D01*
X36538095Y-43150000D01*
X36585714Y-43197619D01*
X36633333Y-43292857D01*
X36633333Y-43435714D01*
X36585714Y-43530952D01*
X36538095Y-43578571D01*
X36442857Y-43626190D01*
X36061904Y-43626190D01*
X37490476Y-43102380D02*
X37300000Y-43102380D01*
X37204761Y-43150000D01*
X37157142Y-43197619D01*
X37061904Y-43340476D01*
X37014285Y-43530952D01*
X37014285Y-43911904D01*
X37061904Y-44007142D01*
X37109523Y-44054761D01*
X37204761Y-44102380D01*
X37395238Y-44102380D01*
X37490476Y-44054761D01*
X37538095Y-44007142D01*
X37585714Y-43911904D01*
X37585714Y-43673809D01*
X37538095Y-43578571D01*
X37490476Y-43530952D01*
X37395238Y-43483333D01*
X37204761Y-43483333D01*
X37109523Y-43530952D01*
X37061904Y-43578571D01*
X37014285Y-43673809D01*
%TO.C,R7*%
X22633333Y-56952380D02*
X22300000Y-56476190D01*
X22061904Y-56952380D02*
X22061904Y-55952380D01*
X22442857Y-55952380D01*
X22538095Y-56000000D01*
X22585714Y-56047619D01*
X22633333Y-56142857D01*
X22633333Y-56285714D01*
X22585714Y-56380952D01*
X22538095Y-56428571D01*
X22442857Y-56476190D01*
X22061904Y-56476190D01*
X22966666Y-55952380D02*
X23633333Y-55952380D01*
X23204761Y-56952380D01*
%TO.C,R8*%
X37633333Y-56852380D02*
X37300000Y-56376190D01*
X37061904Y-56852380D02*
X37061904Y-55852380D01*
X37442857Y-55852380D01*
X37538095Y-55900000D01*
X37585714Y-55947619D01*
X37633333Y-56042857D01*
X37633333Y-56185714D01*
X37585714Y-56280952D01*
X37538095Y-56328571D01*
X37442857Y-56376190D01*
X37061904Y-56376190D01*
X38204761Y-56280952D02*
X38109523Y-56233333D01*
X38061904Y-56185714D01*
X38014285Y-56090476D01*
X38014285Y-56042857D01*
X38061904Y-55947619D01*
X38109523Y-55900000D01*
X38204761Y-55852380D01*
X38395238Y-55852380D01*
X38490476Y-55900000D01*
X38538095Y-55947619D01*
X38585714Y-56042857D01*
X38585714Y-56090476D01*
X38538095Y-56185714D01*
X38490476Y-56233333D01*
X38395238Y-56280952D01*
X38204761Y-56280952D01*
X38109523Y-56328571D01*
X38061904Y-56376190D01*
X38014285Y-56471428D01*
X38014285Y-56661904D01*
X38061904Y-56757142D01*
X38109523Y-56804761D01*
X38204761Y-56852380D01*
X38395238Y-56852380D01*
X38490476Y-56804761D01*
X38538095Y-56757142D01*
X38585714Y-56661904D01*
X38585714Y-56471428D01*
X38538095Y-56376190D01*
X38490476Y-56328571D01*
X38395238Y-56280952D01*
%TO.C,R9*%
X34033333Y-85302380D02*
X33700000Y-84826190D01*
X33461904Y-85302380D02*
X33461904Y-84302380D01*
X33842857Y-84302380D01*
X33938095Y-84350000D01*
X33985714Y-84397619D01*
X34033333Y-84492857D01*
X34033333Y-84635714D01*
X33985714Y-84730952D01*
X33938095Y-84778571D01*
X33842857Y-84826190D01*
X33461904Y-84826190D01*
X34509523Y-85302380D02*
X34700000Y-85302380D01*
X34795238Y-85254761D01*
X34842857Y-85207142D01*
X34938095Y-85064285D01*
X34985714Y-84873809D01*
X34985714Y-84492857D01*
X34938095Y-84397619D01*
X34890476Y-84350000D01*
X34795238Y-84302380D01*
X34604761Y-84302380D01*
X34509523Y-84350000D01*
X34461904Y-84397619D01*
X34414285Y-84492857D01*
X34414285Y-84730952D01*
X34461904Y-84826190D01*
X34509523Y-84873809D01*
X34604761Y-84921428D01*
X34795238Y-84921428D01*
X34890476Y-84873809D01*
X34938095Y-84826190D01*
X34985714Y-84730952D01*
%TO.C,R10*%
X26057142Y-35602380D02*
X25723809Y-35126190D01*
X25485714Y-35602380D02*
X25485714Y-34602380D01*
X25866666Y-34602380D01*
X25961904Y-34650000D01*
X26009523Y-34697619D01*
X26057142Y-34792857D01*
X26057142Y-34935714D01*
X26009523Y-35030952D01*
X25961904Y-35078571D01*
X25866666Y-35126190D01*
X25485714Y-35126190D01*
X27009523Y-35602380D02*
X26438095Y-35602380D01*
X26723809Y-35602380D02*
X26723809Y-34602380D01*
X26628571Y-34745238D01*
X26533333Y-34840476D01*
X26438095Y-34888095D01*
X27628571Y-34602380D02*
X27723809Y-34602380D01*
X27819047Y-34650000D01*
X27866666Y-34697619D01*
X27914285Y-34792857D01*
X27961904Y-34983333D01*
X27961904Y-35221428D01*
X27914285Y-35411904D01*
X27866666Y-35507142D01*
X27819047Y-35554761D01*
X27723809Y-35602380D01*
X27628571Y-35602380D01*
X27533333Y-35554761D01*
X27485714Y-35507142D01*
X27438095Y-35411904D01*
X27390476Y-35221428D01*
X27390476Y-34983333D01*
X27438095Y-34792857D01*
X27485714Y-34697619D01*
X27533333Y-34650000D01*
X27628571Y-34602380D01*
%TO.C,R11*%
X22057142Y-66952380D02*
X21723809Y-66476190D01*
X21485714Y-66952380D02*
X21485714Y-65952380D01*
X21866666Y-65952380D01*
X21961904Y-66000000D01*
X22009523Y-66047619D01*
X22057142Y-66142857D01*
X22057142Y-66285714D01*
X22009523Y-66380952D01*
X21961904Y-66428571D01*
X21866666Y-66476190D01*
X21485714Y-66476190D01*
X23009523Y-66952380D02*
X22438095Y-66952380D01*
X22723809Y-66952380D02*
X22723809Y-65952380D01*
X22628571Y-66095238D01*
X22533333Y-66190476D01*
X22438095Y-66238095D01*
X23961904Y-66952380D02*
X23390476Y-66952380D01*
X23676190Y-66952380D02*
X23676190Y-65952380D01*
X23580952Y-66095238D01*
X23485714Y-66190476D01*
X23390476Y-66238095D01*
%TO.C,R12*%
X37132142Y-66902380D02*
X36798809Y-66426190D01*
X36560714Y-66902380D02*
X36560714Y-65902380D01*
X36941666Y-65902380D01*
X37036904Y-65950000D01*
X37084523Y-65997619D01*
X37132142Y-66092857D01*
X37132142Y-66235714D01*
X37084523Y-66330952D01*
X37036904Y-66378571D01*
X36941666Y-66426190D01*
X36560714Y-66426190D01*
X38084523Y-66902380D02*
X37513095Y-66902380D01*
X37798809Y-66902380D02*
X37798809Y-65902380D01*
X37703571Y-66045238D01*
X37608333Y-66140476D01*
X37513095Y-66188095D01*
X38465476Y-65997619D02*
X38513095Y-65950000D01*
X38608333Y-65902380D01*
X38846428Y-65902380D01*
X38941666Y-65950000D01*
X38989285Y-65997619D01*
X39036904Y-66092857D01*
X39036904Y-66188095D01*
X38989285Y-66330952D01*
X38417857Y-66902380D01*
X39036904Y-66902380D01*
%TD*%
M02*
