%TF.GenerationSoftware,KiCad,Pcbnew,5.1.6*%
%TF.CreationDate,2020-07-14T13:58:31+04:00*%
%TF.ProjectId,FC_more_vcas,46435f6d-6f72-4655-9f76-6361732e6b69,rev?*%
%TF.SameCoordinates,Original*%
%TF.FileFunction,Copper,L1,Top*%
%TF.FilePolarity,Positive*%
%FSLAX46Y46*%
G04 Gerber Fmt 4.6, Leading zero omitted, Abs format (unit mm)*
G04 Created by KiCad (PCBNEW 5.1.6) date 2020-07-14 13:58:31*
%MOMM*%
%LPD*%
G01*
G04 APERTURE LIST*
%TA.AperFunction,ComponentPad*%
%ADD10C,1.440000*%
%TD*%
%TA.AperFunction,ComponentPad*%
%ADD11C,1.600000*%
%TD*%
%TA.AperFunction,ComponentPad*%
%ADD12R,1.600000X1.600000*%
%TD*%
%TA.AperFunction,ComponentPad*%
%ADD13O,3.240000X2.720000*%
%TD*%
%TA.AperFunction,ComponentPad*%
%ADD14C,1.800000*%
%TD*%
%TA.AperFunction,ComponentPad*%
%ADD15R,1.800000X1.800000*%
%TD*%
%TA.AperFunction,ComponentPad*%
%ADD16C,2.130000*%
%TD*%
%TA.AperFunction,ComponentPad*%
%ADD17R,1.930000X1.830000*%
%TD*%
%TA.AperFunction,ComponentPad*%
%ADD18R,1.700000X1.700000*%
%TD*%
%TA.AperFunction,ComponentPad*%
%ADD19O,1.700000X1.700000*%
%TD*%
%TA.AperFunction,SMDPad,CuDef*%
%ADD20R,0.900000X0.800000*%
%TD*%
%TA.AperFunction,ComponentPad*%
%ADD21R,2.400000X1.600000*%
%TD*%
%TA.AperFunction,ComponentPad*%
%ADD22O,2.400000X1.600000*%
%TD*%
%TA.AperFunction,ViaPad*%
%ADD23C,0.800000*%
%TD*%
%TA.AperFunction,Conductor*%
%ADD24C,0.500000*%
%TD*%
%TA.AperFunction,Conductor*%
%ADD25C,0.300000*%
%TD*%
%TA.AperFunction,Conductor*%
%ADD26C,0.254000*%
%TD*%
G04 APERTURE END LIST*
D10*
%TO.P,BIAS1,1*%
%TO.N,+12V*%
X27700000Y-39000000D03*
%TO.P,BIAS1,2*%
%TO.N,Net-(BIAS1-Pad2)*%
X30240000Y-39000000D03*
%TO.P,BIAS1,3*%
%TO.N,-12V*%
X32780000Y-39000000D03*
%TD*%
%TO.P,BIAS2,3*%
%TO.N,-12V*%
X32780000Y-45000000D03*
%TO.P,BIAS2,2*%
%TO.N,Net-(BIAS2-Pad2)*%
X30240000Y-45000000D03*
%TO.P,BIAS2,1*%
%TO.N,+12V*%
X27700000Y-45000000D03*
%TD*%
D11*
%TO.P,C1,2*%
%TO.N,/IN_1_PNL*%
X48500000Y-37500000D03*
D12*
%TO.P,C1,1*%
%TO.N,Net-(C1-Pad1)*%
X48500000Y-35000000D03*
%TD*%
%TO.P,C2,1*%
%TO.N,/OUT_1_PNL*%
X54500000Y-37500000D03*
D11*
%TO.P,C2,2*%
%TO.N,Net-(C2-Pad2)*%
X54500000Y-35000000D03*
%TD*%
D12*
%TO.P,C3,1*%
%TO.N,/OUT_2_PNL*%
X54500000Y-101000000D03*
D11*
%TO.P,C3,2*%
%TO.N,Net-(C3-Pad2)*%
X54500000Y-103500000D03*
%TD*%
%TO.P,C4,2*%
%TO.N,/IN_2_PNL*%
X48500000Y-101000000D03*
D12*
%TO.P,C4,1*%
%TO.N,Net-(C4-Pad1)*%
X48500000Y-103500000D03*
%TD*%
%TO.P,C5,1*%
%TO.N,+12V*%
X23200000Y-92500000D03*
D11*
%TO.P,C5,2*%
%TO.N,GND*%
X25700000Y-92500000D03*
%TD*%
%TO.P,C6,2*%
%TO.N,-12V*%
X33200000Y-92500000D03*
D12*
%TO.P,C6,1*%
%TO.N,GND*%
X30700000Y-92500000D03*
%TD*%
D13*
%TO.P,INITIAL_CV1,*%
%TO.N,/GND_PNL*%
X51500000Y-50800000D03*
X51500000Y-41200000D03*
D14*
%TO.P,INITIAL_CV1,3*%
%TO.N,/POS_PNL*%
X59000000Y-43500000D03*
%TO.P,INITIAL_CV1,2*%
%TO.N,Net-(INITIAL_CV1-Pad2)*%
X59000000Y-46000000D03*
D15*
%TO.P,INITIAL_CV1,1*%
%TO.N,/NEG_PNL*%
X59000000Y-48500000D03*
%TD*%
%TO.P,INITIAL_CV2,1*%
%TO.N,/NEG_PNL*%
X44000000Y-89500000D03*
D14*
%TO.P,INITIAL_CV2,2*%
%TO.N,Net-(INITIAL_CV2-Pad2)*%
X44000000Y-92000000D03*
%TO.P,INITIAL_CV2,3*%
%TO.N,/POS_PNL*%
X44000000Y-94500000D03*
D13*
%TO.P,INITIAL_CV2,*%
%TO.N,/GND_PNL*%
X51500000Y-96800000D03*
X51500000Y-87200000D03*
%TD*%
D16*
%TO.P,INPUT_1,TN*%
%TO.N,Net-(INPUT_1-PadTN)*%
X46500000Y-23600000D03*
D17*
%TO.P,INPUT_1,S*%
%TO.N,/GND_PNL*%
X46500000Y-20500000D03*
D16*
%TO.P,INPUT_1,T*%
%TO.N,Net-(INPUT_1-PadT)*%
X46500000Y-31900000D03*
%TD*%
%TO.P,INPUT_2,T*%
%TO.N,Net-(INPUT_2-PadT)*%
X46500000Y-106100000D03*
D17*
%TO.P,INPUT_2,S*%
%TO.N,/GND_PNL*%
X46500000Y-117500000D03*
D16*
%TO.P,INPUT_2,TN*%
%TO.N,Net-(INPUT_2-PadTN)*%
X46500000Y-114400000D03*
%TD*%
D18*
%TO.P,J1,1*%
%TO.N,GND*%
X22100000Y-38600000D03*
D19*
%TO.P,J1,2*%
%TO.N,/IN_1*%
X22100000Y-36060000D03*
%TO.P,J1,3*%
%TO.N,/OUT_1*%
X22100000Y-33520000D03*
%TO.P,J1,4*%
%TO.N,/CV_1*%
X22100000Y-30980000D03*
%TO.P,J1,5*%
%TO.N,+12V*%
X22100000Y-28440000D03*
%TO.P,J1,6*%
%TO.N,-12V*%
X22100000Y-25900000D03*
%TO.P,J1,7*%
%TO.N,GND*%
X22100000Y-23360000D03*
%TD*%
%TO.P,J2,7*%
%TO.N,GND*%
X38150000Y-73560000D03*
%TO.P,J2,6*%
%TO.N,-12V*%
X38150000Y-76100000D03*
%TO.P,J2,5*%
%TO.N,+12V*%
X38150000Y-78640000D03*
%TO.P,J2,4*%
%TO.N,/CV_2*%
X38150000Y-81180000D03*
%TO.P,J2,3*%
%TO.N,/IN_2*%
X38150000Y-83720000D03*
%TO.P,J2,2*%
%TO.N,/OUT_2*%
X38150000Y-86260000D03*
D18*
%TO.P,J2,1*%
%TO.N,GND*%
X38150000Y-88800000D03*
%TD*%
%TO.P,J3,1*%
%TO.N,/GND_PNL*%
X43500000Y-51500000D03*
D19*
%TO.P,J3,2*%
%TO.N,/NEG_PNL*%
X43500000Y-48960000D03*
%TO.P,J3,3*%
%TO.N,/POS_PNL*%
X43500000Y-46420000D03*
%TO.P,J3,4*%
%TO.N,/CV1_PNL*%
X43500000Y-43880000D03*
%TO.P,J3,5*%
%TO.N,/OUT_1_PNL*%
X43500000Y-41340000D03*
%TO.P,J3,6*%
%TO.N,/IN_1_PNL*%
X43500000Y-38800000D03*
%TO.P,J3,7*%
%TO.N,/GND_PNL*%
X43500000Y-36260000D03*
%TD*%
D18*
%TO.P,J4,1*%
%TO.N,/GND_PNL*%
X59500000Y-86500000D03*
D19*
%TO.P,J4,2*%
%TO.N,/NEG_PNL*%
X59500000Y-89040000D03*
%TO.P,J4,3*%
%TO.N,/POS_PNL*%
X59500000Y-91580000D03*
%TO.P,J4,4*%
%TO.N,/CV2_PNL*%
X59500000Y-94120000D03*
%TO.P,J4,5*%
%TO.N,/IN_2_PNL*%
X59500000Y-96660000D03*
%TO.P,J4,6*%
%TO.N,/OUT_2_PNL*%
X59500000Y-99200000D03*
%TO.P,J4,7*%
%TO.N,/GND_PNL*%
X59500000Y-101740000D03*
%TD*%
D18*
%TO.P,J5,1*%
%TO.N,+12V*%
X23200000Y-101000000D03*
D19*
%TO.P,J5,2*%
X23200000Y-103540000D03*
%TO.P,J5,3*%
%TO.N,GND*%
X25740000Y-101000000D03*
%TO.P,J5,4*%
X25740000Y-103540000D03*
%TO.P,J5,5*%
X28280000Y-101000000D03*
%TO.P,J5,6*%
X28280000Y-103540000D03*
%TO.P,J5,7*%
X30820000Y-101000000D03*
%TO.P,J5,8*%
X30820000Y-103540000D03*
%TO.P,J5,9*%
%TO.N,-12V*%
X33360000Y-101000000D03*
%TO.P,J5,10*%
X33360000Y-103540000D03*
%TD*%
D16*
%TO.P,IN_CV_1,TN*%
%TO.N,Net-(IN_CV_1-PadTN)*%
X46500000Y-68400000D03*
D17*
%TO.P,IN_CV_1,S*%
%TO.N,/GND_PNL*%
X46500000Y-71500000D03*
D16*
%TO.P,IN_CV_1,T*%
%TO.N,Net-(IN_CV_1-PadT)*%
X46500000Y-60100000D03*
%TD*%
%TO.P,IN_CV_2,T*%
%TO.N,Net-(IN_CV_2-PadT)*%
X56500000Y-77900000D03*
D17*
%TO.P,IN_CV_2,S*%
%TO.N,/GND_PNL*%
X56500000Y-66500000D03*
D16*
%TO.P,IN_CV_2,TN*%
%TO.N,Net-(IN_CV_2-PadTN)*%
X56500000Y-69600000D03*
%TD*%
%TO.P,OUTPUT_1,TN*%
%TO.N,Net-(OUTPUT_1-PadTN)*%
X56500000Y-23600000D03*
D17*
%TO.P,OUTPUT_1,S*%
%TO.N,/GND_PNL*%
X56500000Y-20500000D03*
D16*
%TO.P,OUTPUT_1,T*%
%TO.N,Net-(OUTPUT_1-PadT)*%
X56500000Y-31900000D03*
%TD*%
%TO.P,OUTPUT_2,T*%
%TO.N,Net-(OUTPUT_2-PadT)*%
X56500000Y-106100000D03*
D17*
%TO.P,OUTPUT_2,S*%
%TO.N,/GND_PNL*%
X56500000Y-117500000D03*
D16*
%TO.P,OUTPUT_2,TN*%
%TO.N,Net-(OUTPUT_2-PadTN)*%
X56500000Y-114400000D03*
%TD*%
D20*
%TO.P,Q1,3*%
%TO.N,Net-(Q1-Pad3)*%
X36700000Y-49500000D03*
%TO.P,Q1,2*%
%TO.N,GND*%
X38700000Y-48550000D03*
%TO.P,Q1,1*%
%TO.N,/CV_1*%
X38700000Y-50450000D03*
%TD*%
%TO.P,Q2,1*%
%TO.N,/CV_2*%
X22200000Y-48550000D03*
%TO.P,Q2,2*%
%TO.N,GND*%
X22200000Y-50450000D03*
%TO.P,Q2,3*%
%TO.N,Net-(Q2-Pad3)*%
X24200000Y-49500000D03*
%TD*%
%TO.P,R1,1*%
%TO.N,Net-(R1-Pad1)*%
%TA.AperFunction,SMDPad,CuDef*%
G36*
G01*
X34400000Y-41549999D02*
X34400000Y-42450001D01*
G75*
G02*
X34150001Y-42700000I-249999J0D01*
G01*
X33499999Y-42700000D01*
G75*
G02*
X33250000Y-42450001I0J249999D01*
G01*
X33250000Y-41549999D01*
G75*
G02*
X33499999Y-41300000I249999J0D01*
G01*
X34150001Y-41300000D01*
G75*
G02*
X34400000Y-41549999I0J-249999D01*
G01*
G37*
%TD.AperFunction*%
%TO.P,R1,2*%
%TO.N,Net-(BIAS1-Pad2)*%
%TA.AperFunction,SMDPad,CuDef*%
G36*
G01*
X32350000Y-41549999D02*
X32350000Y-42450001D01*
G75*
G02*
X32100001Y-42700000I-249999J0D01*
G01*
X31449999Y-42700000D01*
G75*
G02*
X31200000Y-42450001I0J249999D01*
G01*
X31200000Y-41549999D01*
G75*
G02*
X31449999Y-41300000I249999J0D01*
G01*
X32100001Y-41300000D01*
G75*
G02*
X32350000Y-41549999I0J-249999D01*
G01*
G37*
%TD.AperFunction*%
%TD*%
%TO.P,R2,2*%
%TO.N,Net-(BIAS2-Pad2)*%
%TA.AperFunction,SMDPad,CuDef*%
G36*
G01*
X28150000Y-42450001D02*
X28150000Y-41549999D01*
G75*
G02*
X28399999Y-41300000I249999J0D01*
G01*
X29050001Y-41300000D01*
G75*
G02*
X29300000Y-41549999I0J-249999D01*
G01*
X29300000Y-42450001D01*
G75*
G02*
X29050001Y-42700000I-249999J0D01*
G01*
X28399999Y-42700000D01*
G75*
G02*
X28150000Y-42450001I0J249999D01*
G01*
G37*
%TD.AperFunction*%
%TO.P,R2,1*%
%TO.N,Net-(R2-Pad1)*%
%TA.AperFunction,SMDPad,CuDef*%
G36*
G01*
X26100000Y-42450001D02*
X26100000Y-41549999D01*
G75*
G02*
X26349999Y-41300000I249999J0D01*
G01*
X27000001Y-41300000D01*
G75*
G02*
X27250000Y-41549999I0J-249999D01*
G01*
X27250000Y-42450001D01*
G75*
G02*
X27000001Y-42700000I-249999J0D01*
G01*
X26349999Y-42700000D01*
G75*
G02*
X26100000Y-42450001I0J249999D01*
G01*
G37*
%TD.AperFunction*%
%TD*%
%TO.P,R5,1*%
%TO.N,GND*%
%TA.AperFunction,SMDPad,CuDef*%
G36*
G01*
X22100000Y-42450001D02*
X22100000Y-41549999D01*
G75*
G02*
X22349999Y-41300000I249999J0D01*
G01*
X23000001Y-41300000D01*
G75*
G02*
X23250000Y-41549999I0J-249999D01*
G01*
X23250000Y-42450001D01*
G75*
G02*
X23000001Y-42700000I-249999J0D01*
G01*
X22349999Y-42700000D01*
G75*
G02*
X22100000Y-42450001I0J249999D01*
G01*
G37*
%TD.AperFunction*%
%TO.P,R5,2*%
%TO.N,Net-(R2-Pad1)*%
%TA.AperFunction,SMDPad,CuDef*%
G36*
G01*
X24150000Y-42450001D02*
X24150000Y-41549999D01*
G75*
G02*
X24399999Y-41300000I249999J0D01*
G01*
X25050001Y-41300000D01*
G75*
G02*
X25300000Y-41549999I0J-249999D01*
G01*
X25300000Y-42450001D01*
G75*
G02*
X25050001Y-42700000I-249999J0D01*
G01*
X24399999Y-42700000D01*
G75*
G02*
X24150000Y-42450001I0J249999D01*
G01*
G37*
%TD.AperFunction*%
%TD*%
%TO.P,R6,2*%
%TO.N,Net-(R1-Pad1)*%
%TA.AperFunction,SMDPad,CuDef*%
G36*
G01*
X36350000Y-41549999D02*
X36350000Y-42450001D01*
G75*
G02*
X36100001Y-42700000I-249999J0D01*
G01*
X35449999Y-42700000D01*
G75*
G02*
X35200000Y-42450001I0J249999D01*
G01*
X35200000Y-41549999D01*
G75*
G02*
X35449999Y-41300000I249999J0D01*
G01*
X36100001Y-41300000D01*
G75*
G02*
X36350000Y-41549999I0J-249999D01*
G01*
G37*
%TD.AperFunction*%
%TO.P,R6,1*%
%TO.N,GND*%
%TA.AperFunction,SMDPad,CuDef*%
G36*
G01*
X38400000Y-41549999D02*
X38400000Y-42450001D01*
G75*
G02*
X38150001Y-42700000I-249999J0D01*
G01*
X37499999Y-42700000D01*
G75*
G02*
X37250000Y-42450001I0J249999D01*
G01*
X37250000Y-41549999D01*
G75*
G02*
X37499999Y-41300000I249999J0D01*
G01*
X38150001Y-41300000D01*
G75*
G02*
X38400000Y-41549999I0J-249999D01*
G01*
G37*
%TD.AperFunction*%
%TD*%
%TO.P,R7,2*%
%TO.N,/IN_2*%
%TA.AperFunction,SMDPad,CuDef*%
G36*
G01*
X23150000Y-55050001D02*
X23150000Y-54149999D01*
G75*
G02*
X23399999Y-53900000I249999J0D01*
G01*
X24050001Y-53900000D01*
G75*
G02*
X24300000Y-54149999I0J-249999D01*
G01*
X24300000Y-55050001D01*
G75*
G02*
X24050001Y-55300000I-249999J0D01*
G01*
X23399999Y-55300000D01*
G75*
G02*
X23150000Y-55050001I0J249999D01*
G01*
G37*
%TD.AperFunction*%
%TO.P,R7,1*%
%TO.N,GND*%
%TA.AperFunction,SMDPad,CuDef*%
G36*
G01*
X21100000Y-55050001D02*
X21100000Y-54149999D01*
G75*
G02*
X21349999Y-53900000I249999J0D01*
G01*
X22000001Y-53900000D01*
G75*
G02*
X22250000Y-54149999I0J-249999D01*
G01*
X22250000Y-55050001D01*
G75*
G02*
X22000001Y-55300000I-249999J0D01*
G01*
X21349999Y-55300000D01*
G75*
G02*
X21100000Y-55050001I0J249999D01*
G01*
G37*
%TD.AperFunction*%
%TD*%
%TO.P,R8,1*%
%TO.N,GND*%
%TA.AperFunction,SMDPad,CuDef*%
G36*
G01*
X39400000Y-54149999D02*
X39400000Y-55050001D01*
G75*
G02*
X39150001Y-55300000I-249999J0D01*
G01*
X38499999Y-55300000D01*
G75*
G02*
X38250000Y-55050001I0J249999D01*
G01*
X38250000Y-54149999D01*
G75*
G02*
X38499999Y-53900000I249999J0D01*
G01*
X39150001Y-53900000D01*
G75*
G02*
X39400000Y-54149999I0J-249999D01*
G01*
G37*
%TD.AperFunction*%
%TO.P,R8,2*%
%TO.N,/IN_1*%
%TA.AperFunction,SMDPad,CuDef*%
G36*
G01*
X37350000Y-54149999D02*
X37350000Y-55050001D01*
G75*
G02*
X37100001Y-55300000I-249999J0D01*
G01*
X36449999Y-55300000D01*
G75*
G02*
X36200000Y-55050001I0J249999D01*
G01*
X36200000Y-54149999D01*
G75*
G02*
X36449999Y-53900000I249999J0D01*
G01*
X37100001Y-53900000D01*
G75*
G02*
X37350000Y-54149999I0J-249999D01*
G01*
G37*
%TD.AperFunction*%
%TD*%
%TO.P,R9,2*%
%TO.N,/OUT_2*%
%TA.AperFunction,SMDPad,CuDef*%
G36*
G01*
X34650000Y-86950001D02*
X34650000Y-86049999D01*
G75*
G02*
X34899999Y-85800000I249999J0D01*
G01*
X35550001Y-85800000D01*
G75*
G02*
X35800000Y-86049999I0J-249999D01*
G01*
X35800000Y-86950001D01*
G75*
G02*
X35550001Y-87200000I-249999J0D01*
G01*
X34899999Y-87200000D01*
G75*
G02*
X34650000Y-86950001I0J249999D01*
G01*
G37*
%TD.AperFunction*%
%TO.P,R9,1*%
%TO.N,-12V*%
%TA.AperFunction,SMDPad,CuDef*%
G36*
G01*
X32600000Y-86950001D02*
X32600000Y-86049999D01*
G75*
G02*
X32849999Y-85800000I249999J0D01*
G01*
X33500001Y-85800000D01*
G75*
G02*
X33750000Y-86049999I0J-249999D01*
G01*
X33750000Y-86950001D01*
G75*
G02*
X33500001Y-87200000I-249999J0D01*
G01*
X32849999Y-87200000D01*
G75*
G02*
X32600000Y-86950001I0J249999D01*
G01*
G37*
%TD.AperFunction*%
%TD*%
%TO.P,R10,2*%
%TO.N,/OUT_1*%
%TA.AperFunction,SMDPad,CuDef*%
G36*
G01*
X26250000Y-33049999D02*
X26250000Y-33950001D01*
G75*
G02*
X26000001Y-34200000I-249999J0D01*
G01*
X25349999Y-34200000D01*
G75*
G02*
X25100000Y-33950001I0J249999D01*
G01*
X25100000Y-33049999D01*
G75*
G02*
X25349999Y-32800000I249999J0D01*
G01*
X26000001Y-32800000D01*
G75*
G02*
X26250000Y-33049999I0J-249999D01*
G01*
G37*
%TD.AperFunction*%
%TO.P,R10,1*%
%TO.N,-12V*%
%TA.AperFunction,SMDPad,CuDef*%
G36*
G01*
X28300000Y-33049999D02*
X28300000Y-33950001D01*
G75*
G02*
X28050001Y-34200000I-249999J0D01*
G01*
X27399999Y-34200000D01*
G75*
G02*
X27150000Y-33950001I0J249999D01*
G01*
X27150000Y-33049999D01*
G75*
G02*
X27399999Y-32800000I249999J0D01*
G01*
X28050001Y-32800000D01*
G75*
G02*
X28300000Y-33049999I0J-249999D01*
G01*
G37*
%TD.AperFunction*%
%TD*%
%TO.P,R11,1*%
%TO.N,GND*%
%TA.AperFunction,SMDPad,CuDef*%
G36*
G01*
X21100000Y-65150001D02*
X21100000Y-64249999D01*
G75*
G02*
X21349999Y-64000000I249999J0D01*
G01*
X22000001Y-64000000D01*
G75*
G02*
X22250000Y-64249999I0J-249999D01*
G01*
X22250000Y-65150001D01*
G75*
G02*
X22000001Y-65400000I-249999J0D01*
G01*
X21349999Y-65400000D01*
G75*
G02*
X21100000Y-65150001I0J249999D01*
G01*
G37*
%TD.AperFunction*%
%TO.P,R11,2*%
%TO.N,Net-(R11-Pad2)*%
%TA.AperFunction,SMDPad,CuDef*%
G36*
G01*
X23150000Y-65150001D02*
X23150000Y-64249999D01*
G75*
G02*
X23399999Y-64000000I249999J0D01*
G01*
X24050001Y-64000000D01*
G75*
G02*
X24300000Y-64249999I0J-249999D01*
G01*
X24300000Y-65150001D01*
G75*
G02*
X24050001Y-65400000I-249999J0D01*
G01*
X23399999Y-65400000D01*
G75*
G02*
X23150000Y-65150001I0J249999D01*
G01*
G37*
%TD.AperFunction*%
%TD*%
%TO.P,R12,1*%
%TO.N,GND*%
%TA.AperFunction,SMDPad,CuDef*%
G36*
G01*
X39375000Y-64349999D02*
X39375000Y-65250001D01*
G75*
G02*
X39125001Y-65500000I-249999J0D01*
G01*
X38474999Y-65500000D01*
G75*
G02*
X38225000Y-65250001I0J249999D01*
G01*
X38225000Y-64349999D01*
G75*
G02*
X38474999Y-64100000I249999J0D01*
G01*
X39125001Y-64100000D01*
G75*
G02*
X39375000Y-64349999I0J-249999D01*
G01*
G37*
%TD.AperFunction*%
%TO.P,R12,2*%
%TO.N,Net-(R12-Pad2)*%
%TA.AperFunction,SMDPad,CuDef*%
G36*
G01*
X37325000Y-64349999D02*
X37325000Y-65250001D01*
G75*
G02*
X37075001Y-65500000I-249999J0D01*
G01*
X36424999Y-65500000D01*
G75*
G02*
X36175000Y-65250001I0J249999D01*
G01*
X36175000Y-64349999D01*
G75*
G02*
X36424999Y-64100000I249999J0D01*
G01*
X37075001Y-64100000D01*
G75*
G02*
X37325000Y-64349999I0J-249999D01*
G01*
G37*
%TD.AperFunction*%
%TD*%
D21*
%TO.P,U1,1*%
%TO.N,Net-(Q1-Pad3)*%
X34200000Y-49500000D03*
D22*
%TO.P,U1,9*%
%TO.N,/OUT_2*%
X26580000Y-67280000D03*
%TO.P,U1,2*%
%TO.N,Net-(U1-Pad2)*%
X34200000Y-52040000D03*
%TO.P,U1,10*%
%TO.N,Net-(R11-Pad2)*%
X26580000Y-64740000D03*
%TO.P,U1,3*%
%TO.N,/IN_1*%
X34200000Y-54580000D03*
%TO.P,U1,11*%
%TO.N,+12V*%
X26580000Y-62200000D03*
%TO.P,U1,4*%
%TO.N,Net-(R1-Pad1)*%
X34200000Y-57120000D03*
%TO.P,U1,12*%
%TO.N,Net-(R11-Pad2)*%
X26580000Y-59660000D03*
%TO.P,U1,5*%
%TO.N,Net-(R12-Pad2)*%
X34200000Y-59660000D03*
%TO.P,U1,13*%
%TO.N,Net-(R2-Pad1)*%
X26580000Y-57120000D03*
%TO.P,U1,6*%
%TO.N,-12V*%
X34200000Y-62200000D03*
%TO.P,U1,14*%
%TO.N,/IN_2*%
X26580000Y-54580000D03*
%TO.P,U1,7*%
%TO.N,Net-(R12-Pad2)*%
X34200000Y-64740000D03*
%TO.P,U1,15*%
%TO.N,Net-(U1-Pad15)*%
X26580000Y-52040000D03*
%TO.P,U1,8*%
%TO.N,/OUT_1*%
X34200000Y-67280000D03*
%TO.P,U1,16*%
%TO.N,Net-(Q2-Pad3)*%
X26580000Y-49500000D03*
%TD*%
D23*
%TO.N,GND*%
X37700000Y-45000000D03*
X24700000Y-45000000D03*
X31100000Y-62300000D03*
%TO.N,/CV_1*%
X38700000Y-50500000D03*
%TO.N,/CV_2*%
X22200000Y-48550000D03*
%TO.N,Net-(R1-Pad1)*%
X35775000Y-42000000D03*
%TO.N,Net-(R2-Pad1)*%
X24725000Y-42000000D03*
%TD*%
D24*
%TO.N,+12V*%
X23200000Y-103540000D02*
X23200000Y-92500000D01*
X28419999Y-60360001D02*
X26580000Y-62200000D01*
X28419999Y-45719999D02*
X28419999Y-60360001D01*
X27700000Y-45000000D02*
X28419999Y-45719999D01*
X28230010Y-63850010D02*
X26580000Y-62200000D01*
X28230010Y-87469990D02*
X28230010Y-63850010D01*
X23200000Y-92500000D02*
X28230010Y-87469990D01*
X20799999Y-39810001D02*
X21489998Y-40500000D01*
X20799999Y-29740001D02*
X20799999Y-39810001D01*
X22100000Y-28440000D02*
X20799999Y-29740001D01*
X27700000Y-40500000D02*
X27700000Y-45000000D01*
X21489998Y-40500000D02*
X27700000Y-40500000D01*
X27700000Y-39000000D02*
X27700000Y-40500000D01*
D25*
%TO.N,Net-(BIAS1-Pad2)*%
X30240000Y-40465000D02*
X31775000Y-42000000D01*
X30240000Y-39000000D02*
X30240000Y-40465000D01*
D24*
%TO.N,-12V*%
X33360000Y-92660000D02*
X33200000Y-92500000D01*
X33360000Y-103540000D02*
X33360000Y-92660000D01*
X32780000Y-39000000D02*
X32780000Y-45000000D01*
X32549990Y-45230010D02*
X32780000Y-45000000D01*
X32549990Y-60549990D02*
X32549990Y-45230010D01*
X34200000Y-62200000D02*
X32549990Y-60549990D01*
X34200000Y-62500000D02*
X34200000Y-62200000D01*
X32400001Y-64299999D02*
X34200000Y-62500000D01*
X33200000Y-92500000D02*
X32400001Y-91700001D01*
X27780000Y-33555000D02*
X27725000Y-33500000D01*
X32780000Y-39000000D02*
X32780000Y-33555000D01*
X32700000Y-86500000D02*
X32400001Y-86799999D01*
X33175000Y-86500000D02*
X32700000Y-86500000D01*
X32400001Y-91700001D02*
X32400001Y-86799999D01*
X32725000Y-33500000D02*
X32780000Y-33555000D01*
X27725000Y-33500000D02*
X32725000Y-33500000D01*
X38150000Y-76100000D02*
X32600000Y-76100000D01*
X32600000Y-76100000D02*
X32400001Y-76299999D01*
X32400001Y-76299999D02*
X32400001Y-64299999D01*
X32400001Y-86799999D02*
X32400001Y-76299999D01*
X25125000Y-25900000D02*
X32725000Y-33500000D01*
X22100000Y-25900000D02*
X25125000Y-25900000D01*
D25*
%TO.N,Net-(BIAS2-Pad2)*%
X28725000Y-43485000D02*
X30240000Y-45000000D01*
X28725000Y-42000000D02*
X28725000Y-43485000D01*
D24*
%TO.N,/POS_PNL*%
X59000000Y-43500000D02*
X60500000Y-45000000D01*
X60500000Y-49610002D02*
X51500000Y-58610002D01*
X60500000Y-45000000D02*
X60500000Y-49610002D01*
X51500000Y-58610002D02*
X51500000Y-79500000D01*
X51500000Y-79500000D02*
X42500000Y-88500000D01*
X42500000Y-93000000D02*
X44000000Y-94500000D01*
X42500000Y-88500000D02*
X42500000Y-93000000D01*
X58120010Y-90200010D02*
X59500000Y-91580000D01*
X45500000Y-90200010D02*
X58120010Y-90200010D01*
X45500000Y-93000000D02*
X45500000Y-90200010D01*
X44000000Y-94500000D02*
X45500000Y-93000000D01*
X44879990Y-47799990D02*
X43500000Y-46420000D01*
X57500000Y-45000000D02*
X57500000Y-47799990D01*
X57500000Y-47799990D02*
X44879990Y-47799990D01*
X59000000Y-43500000D02*
X57500000Y-45000000D01*
%TO.N,/NEG_PNL*%
X43960000Y-48500000D02*
X43500000Y-48960000D01*
X59000000Y-48500000D02*
X43960000Y-48500000D01*
X59040000Y-89500000D02*
X59500000Y-89040000D01*
X44000000Y-89500000D02*
X59040000Y-89500000D01*
D25*
%TO.N,/OUT_1*%
X25655000Y-33520000D02*
X25675000Y-33500000D01*
X22100000Y-33520000D02*
X25655000Y-33520000D01*
%TO.N,/IN_1*%
X36755000Y-54580000D02*
X36775000Y-54600000D01*
X34200000Y-54580000D02*
X36755000Y-54580000D01*
%TO.N,/IN_2*%
X26560000Y-54600000D02*
X26580000Y-54580000D01*
X23725000Y-54600000D02*
X26560000Y-54600000D01*
%TO.N,/OUT_2*%
X35465000Y-86260000D02*
X35225000Y-86500000D01*
X38150000Y-86260000D02*
X35465000Y-86260000D01*
%TO.N,Net-(Q1-Pad3)*%
X34200000Y-49500000D02*
X36700000Y-49500000D01*
%TO.N,Net-(Q2-Pad3)*%
X24200000Y-49500000D02*
X26580000Y-49500000D01*
%TO.N,Net-(R1-Pad1)*%
X33825000Y-42000000D02*
X35775000Y-42000000D01*
X35775000Y-42000000D02*
X35775000Y-42000000D01*
%TO.N,Net-(R2-Pad1)*%
X26675000Y-42000000D02*
X24725000Y-42000000D01*
X24725000Y-42000000D02*
X24725000Y-42000000D01*
%TO.N,Net-(R11-Pad2)*%
X26540000Y-64700000D02*
X26580000Y-64740000D01*
X23725000Y-64700000D02*
X26540000Y-64700000D01*
X23725000Y-62515000D02*
X26580000Y-59660000D01*
X23725000Y-64700000D02*
X23725000Y-62515000D01*
%TO.N,Net-(R12-Pad2)*%
X36690000Y-64740000D02*
X36750000Y-64800000D01*
X34200000Y-64740000D02*
X36690000Y-64740000D01*
X36750000Y-62210000D02*
X34200000Y-59660000D01*
X36750000Y-64800000D02*
X36750000Y-62210000D01*
%TO.N,Net-(INPUT_2-PadT)*%
X46600000Y-106000000D02*
X46500000Y-106100000D01*
%TD*%
D26*
%TO.N,/GND_PNL*%
G36*
X58029461Y-91361040D02*
G01*
X58015000Y-91433740D01*
X58015000Y-91726260D01*
X58072068Y-92013158D01*
X58184010Y-92283411D01*
X58346525Y-92526632D01*
X58553368Y-92733475D01*
X58727760Y-92850000D01*
X58553368Y-92966525D01*
X58346525Y-93173368D01*
X58184010Y-93416589D01*
X58072068Y-93686842D01*
X58015000Y-93973740D01*
X58015000Y-94266260D01*
X58072068Y-94553158D01*
X58184010Y-94823411D01*
X58346525Y-95066632D01*
X58553368Y-95273475D01*
X58727760Y-95390000D01*
X58553368Y-95506525D01*
X58346525Y-95713368D01*
X58184010Y-95956589D01*
X58072068Y-96226842D01*
X58015000Y-96513740D01*
X58015000Y-96806260D01*
X58072068Y-97093158D01*
X58184010Y-97363411D01*
X58346525Y-97606632D01*
X58553368Y-97813475D01*
X58727760Y-97930000D01*
X58553368Y-98046525D01*
X58346525Y-98253368D01*
X58184010Y-98496589D01*
X58072068Y-98766842D01*
X58015000Y-99053740D01*
X58015000Y-99346260D01*
X58072068Y-99633158D01*
X58184010Y-99903411D01*
X58346525Y-100146632D01*
X58553368Y-100353475D01*
X58735534Y-100475195D01*
X58618645Y-100544822D01*
X58402412Y-100739731D01*
X58228359Y-100973080D01*
X58103175Y-101235901D01*
X58058524Y-101383110D01*
X58179845Y-101613000D01*
X59373000Y-101613000D01*
X59373000Y-101593000D01*
X59627000Y-101593000D01*
X59627000Y-101613000D01*
X59647000Y-101613000D01*
X59647000Y-101867000D01*
X59627000Y-101867000D01*
X59627000Y-103060814D01*
X59856891Y-103181481D01*
X60131252Y-103084157D01*
X60381355Y-102935178D01*
X60597588Y-102740269D01*
X60771641Y-102506920D01*
X60840000Y-102363401D01*
X60840000Y-118340000D01*
X58102706Y-118340000D01*
X58100000Y-117785750D01*
X57941250Y-117627000D01*
X56627000Y-117627000D01*
X56627000Y-117647000D01*
X56373000Y-117647000D01*
X56373000Y-117627000D01*
X55058750Y-117627000D01*
X54900000Y-117785750D01*
X54897294Y-118340000D01*
X48102706Y-118340000D01*
X48100000Y-117785750D01*
X47941250Y-117627000D01*
X46627000Y-117627000D01*
X46627000Y-117647000D01*
X46373000Y-117647000D01*
X46373000Y-117627000D01*
X45058750Y-117627000D01*
X44900000Y-117785750D01*
X44897294Y-118340000D01*
X42160000Y-118340000D01*
X42160000Y-114232565D01*
X44800000Y-114232565D01*
X44800000Y-114567435D01*
X44865330Y-114895872D01*
X44993479Y-115205252D01*
X45179523Y-115483687D01*
X45416313Y-115720477D01*
X45694748Y-115906521D01*
X45795140Y-115948105D01*
X45535000Y-115946928D01*
X45410518Y-115959188D01*
X45290820Y-115995498D01*
X45180506Y-116054463D01*
X45083815Y-116133815D01*
X45004463Y-116230506D01*
X44945498Y-116340820D01*
X44909188Y-116460518D01*
X44896928Y-116585000D01*
X44900000Y-117214250D01*
X45058750Y-117373000D01*
X46373000Y-117373000D01*
X46373000Y-117353000D01*
X46627000Y-117353000D01*
X46627000Y-117373000D01*
X47941250Y-117373000D01*
X48100000Y-117214250D01*
X48103072Y-116585000D01*
X48090812Y-116460518D01*
X48054502Y-116340820D01*
X47995537Y-116230506D01*
X47916185Y-116133815D01*
X47819494Y-116054463D01*
X47709180Y-115995498D01*
X47589482Y-115959188D01*
X47465000Y-115946928D01*
X47204860Y-115948105D01*
X47305252Y-115906521D01*
X47583687Y-115720477D01*
X47820477Y-115483687D01*
X48006521Y-115205252D01*
X48134670Y-114895872D01*
X48200000Y-114567435D01*
X48200000Y-114232565D01*
X54800000Y-114232565D01*
X54800000Y-114567435D01*
X54865330Y-114895872D01*
X54993479Y-115205252D01*
X55179523Y-115483687D01*
X55416313Y-115720477D01*
X55694748Y-115906521D01*
X55795140Y-115948105D01*
X55535000Y-115946928D01*
X55410518Y-115959188D01*
X55290820Y-115995498D01*
X55180506Y-116054463D01*
X55083815Y-116133815D01*
X55004463Y-116230506D01*
X54945498Y-116340820D01*
X54909188Y-116460518D01*
X54896928Y-116585000D01*
X54900000Y-117214250D01*
X55058750Y-117373000D01*
X56373000Y-117373000D01*
X56373000Y-117353000D01*
X56627000Y-117353000D01*
X56627000Y-117373000D01*
X57941250Y-117373000D01*
X58100000Y-117214250D01*
X58103072Y-116585000D01*
X58090812Y-116460518D01*
X58054502Y-116340820D01*
X57995537Y-116230506D01*
X57916185Y-116133815D01*
X57819494Y-116054463D01*
X57709180Y-115995498D01*
X57589482Y-115959188D01*
X57465000Y-115946928D01*
X57204860Y-115948105D01*
X57305252Y-115906521D01*
X57583687Y-115720477D01*
X57820477Y-115483687D01*
X58006521Y-115205252D01*
X58134670Y-114895872D01*
X58200000Y-114567435D01*
X58200000Y-114232565D01*
X58134670Y-113904128D01*
X58006521Y-113594748D01*
X57820477Y-113316313D01*
X57583687Y-113079523D01*
X57305252Y-112893479D01*
X56995872Y-112765330D01*
X56667435Y-112700000D01*
X56332565Y-112700000D01*
X56004128Y-112765330D01*
X55694748Y-112893479D01*
X55416313Y-113079523D01*
X55179523Y-113316313D01*
X54993479Y-113594748D01*
X54865330Y-113904128D01*
X54800000Y-114232565D01*
X48200000Y-114232565D01*
X48134670Y-113904128D01*
X48006521Y-113594748D01*
X47820477Y-113316313D01*
X47583687Y-113079523D01*
X47305252Y-112893479D01*
X46995872Y-112765330D01*
X46667435Y-112700000D01*
X46332565Y-112700000D01*
X46004128Y-112765330D01*
X45694748Y-112893479D01*
X45416313Y-113079523D01*
X45179523Y-113316313D01*
X44993479Y-113594748D01*
X44865330Y-113904128D01*
X44800000Y-114232565D01*
X42160000Y-114232565D01*
X42160000Y-105932565D01*
X44800000Y-105932565D01*
X44800000Y-106267435D01*
X44865330Y-106595872D01*
X44993479Y-106905252D01*
X45179523Y-107183687D01*
X45416313Y-107420477D01*
X45694748Y-107606521D01*
X46004128Y-107734670D01*
X46332565Y-107800000D01*
X46667435Y-107800000D01*
X46995872Y-107734670D01*
X47305252Y-107606521D01*
X47583687Y-107420477D01*
X47820477Y-107183687D01*
X48006521Y-106905252D01*
X48134670Y-106595872D01*
X48200000Y-106267435D01*
X48200000Y-105932565D01*
X54800000Y-105932565D01*
X54800000Y-106267435D01*
X54865330Y-106595872D01*
X54993479Y-106905252D01*
X55179523Y-107183687D01*
X55416313Y-107420477D01*
X55694748Y-107606521D01*
X56004128Y-107734670D01*
X56332565Y-107800000D01*
X56667435Y-107800000D01*
X56995872Y-107734670D01*
X57305252Y-107606521D01*
X57583687Y-107420477D01*
X57820477Y-107183687D01*
X58006521Y-106905252D01*
X58134670Y-106595872D01*
X58200000Y-106267435D01*
X58200000Y-105932565D01*
X58134670Y-105604128D01*
X58006521Y-105294748D01*
X57820477Y-105016313D01*
X57583687Y-104779523D01*
X57305252Y-104593479D01*
X56995872Y-104465330D01*
X56667435Y-104400000D01*
X56332565Y-104400000D01*
X56004128Y-104465330D01*
X55694748Y-104593479D01*
X55416313Y-104779523D01*
X55179523Y-105016313D01*
X54993479Y-105294748D01*
X54865330Y-105604128D01*
X54800000Y-105932565D01*
X48200000Y-105932565D01*
X48134670Y-105604128D01*
X48006521Y-105294748D01*
X47820477Y-105016313D01*
X47742236Y-104938072D01*
X49300000Y-104938072D01*
X49424482Y-104925812D01*
X49544180Y-104889502D01*
X49654494Y-104830537D01*
X49751185Y-104751185D01*
X49830537Y-104654494D01*
X49889502Y-104544180D01*
X49925812Y-104424482D01*
X49938072Y-104300000D01*
X49938072Y-102700000D01*
X49925812Y-102575518D01*
X49889502Y-102455820D01*
X49830537Y-102345506D01*
X49751185Y-102248815D01*
X49654494Y-102169463D01*
X49544180Y-102110498D01*
X49448057Y-102081339D01*
X49614637Y-101914759D01*
X49771680Y-101679727D01*
X49879853Y-101418574D01*
X49935000Y-101141335D01*
X49935000Y-100858665D01*
X49879853Y-100581426D01*
X49771680Y-100320273D01*
X49691317Y-100200000D01*
X53061928Y-100200000D01*
X53061928Y-101800000D01*
X53074188Y-101924482D01*
X53110498Y-102044180D01*
X53169463Y-102154494D01*
X53248815Y-102251185D01*
X53345506Y-102330537D01*
X53455820Y-102389502D01*
X53551943Y-102418661D01*
X53385363Y-102585241D01*
X53228320Y-102820273D01*
X53120147Y-103081426D01*
X53065000Y-103358665D01*
X53065000Y-103641335D01*
X53120147Y-103918574D01*
X53228320Y-104179727D01*
X53385363Y-104414759D01*
X53585241Y-104614637D01*
X53820273Y-104771680D01*
X54081426Y-104879853D01*
X54358665Y-104935000D01*
X54641335Y-104935000D01*
X54918574Y-104879853D01*
X55179727Y-104771680D01*
X55414759Y-104614637D01*
X55614637Y-104414759D01*
X55771680Y-104179727D01*
X55879853Y-103918574D01*
X55935000Y-103641335D01*
X55935000Y-103358665D01*
X55879853Y-103081426D01*
X55771680Y-102820273D01*
X55614637Y-102585241D01*
X55448057Y-102418661D01*
X55544180Y-102389502D01*
X55654494Y-102330537D01*
X55751185Y-102251185D01*
X55830537Y-102154494D01*
X55861327Y-102096890D01*
X58058524Y-102096890D01*
X58103175Y-102244099D01*
X58228359Y-102506920D01*
X58402412Y-102740269D01*
X58618645Y-102935178D01*
X58868748Y-103084157D01*
X59143109Y-103181481D01*
X59373000Y-103060814D01*
X59373000Y-101867000D01*
X58179845Y-101867000D01*
X58058524Y-102096890D01*
X55861327Y-102096890D01*
X55889502Y-102044180D01*
X55925812Y-101924482D01*
X55938072Y-101800000D01*
X55938072Y-100200000D01*
X55925812Y-100075518D01*
X55889502Y-99955820D01*
X55830537Y-99845506D01*
X55751185Y-99748815D01*
X55654494Y-99669463D01*
X55544180Y-99610498D01*
X55424482Y-99574188D01*
X55300000Y-99561928D01*
X53700000Y-99561928D01*
X53575518Y-99574188D01*
X53455820Y-99610498D01*
X53345506Y-99669463D01*
X53248815Y-99748815D01*
X53169463Y-99845506D01*
X53110498Y-99955820D01*
X53074188Y-100075518D01*
X53061928Y-100200000D01*
X49691317Y-100200000D01*
X49614637Y-100085241D01*
X49414759Y-99885363D01*
X49179727Y-99728320D01*
X48918574Y-99620147D01*
X48641335Y-99565000D01*
X48358665Y-99565000D01*
X48081426Y-99620147D01*
X47820273Y-99728320D01*
X47585241Y-99885363D01*
X47385363Y-100085241D01*
X47228320Y-100320273D01*
X47120147Y-100581426D01*
X47065000Y-100858665D01*
X47065000Y-101141335D01*
X47120147Y-101418574D01*
X47228320Y-101679727D01*
X47385363Y-101914759D01*
X47551943Y-102081339D01*
X47455820Y-102110498D01*
X47345506Y-102169463D01*
X47248815Y-102248815D01*
X47169463Y-102345506D01*
X47110498Y-102455820D01*
X47074188Y-102575518D01*
X47061928Y-102700000D01*
X47061928Y-104300000D01*
X47074188Y-104424482D01*
X47099614Y-104508301D01*
X46995872Y-104465330D01*
X46667435Y-104400000D01*
X46332565Y-104400000D01*
X46004128Y-104465330D01*
X45694748Y-104593479D01*
X45416313Y-104779523D01*
X45179523Y-105016313D01*
X44993479Y-105294748D01*
X44865330Y-105604128D01*
X44800000Y-105932565D01*
X42160000Y-105932565D01*
X42160000Y-97236890D01*
X49293425Y-97236890D01*
X49348260Y-97446122D01*
X49510661Y-97802767D01*
X49739520Y-98120876D01*
X50026041Y-98388225D01*
X50359214Y-98594539D01*
X50726235Y-98731890D01*
X51113000Y-98795000D01*
X51373000Y-98795000D01*
X51373000Y-96927000D01*
X51627000Y-96927000D01*
X51627000Y-98795000D01*
X51887000Y-98795000D01*
X52273765Y-98731890D01*
X52640786Y-98594539D01*
X52973959Y-98388225D01*
X53260480Y-98120876D01*
X53489339Y-97802767D01*
X53651740Y-97446122D01*
X53706575Y-97236890D01*
X53591853Y-96927000D01*
X51627000Y-96927000D01*
X51373000Y-96927000D01*
X49408147Y-96927000D01*
X49293425Y-97236890D01*
X42160000Y-97236890D01*
X42160000Y-96363110D01*
X49293425Y-96363110D01*
X49408147Y-96673000D01*
X51373000Y-96673000D01*
X51373000Y-94805000D01*
X51627000Y-94805000D01*
X51627000Y-96673000D01*
X53591853Y-96673000D01*
X53706575Y-96363110D01*
X53651740Y-96153878D01*
X53489339Y-95797233D01*
X53260480Y-95479124D01*
X52973959Y-95211775D01*
X52640786Y-95005461D01*
X52273765Y-94868110D01*
X51887000Y-94805000D01*
X51627000Y-94805000D01*
X51373000Y-94805000D01*
X51113000Y-94805000D01*
X50726235Y-94868110D01*
X50359214Y-95005461D01*
X50026041Y-95211775D01*
X49739520Y-95479124D01*
X49510661Y-95797233D01*
X49348260Y-96153878D01*
X49293425Y-96363110D01*
X42160000Y-96363110D01*
X42159999Y-93911577D01*
X42486940Y-94238518D01*
X42465000Y-94348816D01*
X42465000Y-94651184D01*
X42523989Y-94947743D01*
X42639701Y-95227095D01*
X42807688Y-95478505D01*
X43021495Y-95692312D01*
X43272905Y-95860299D01*
X43552257Y-95976011D01*
X43848816Y-96035000D01*
X44151184Y-96035000D01*
X44447743Y-95976011D01*
X44727095Y-95860299D01*
X44978505Y-95692312D01*
X45192312Y-95478505D01*
X45360299Y-95227095D01*
X45476011Y-94947743D01*
X45535000Y-94651184D01*
X45535000Y-94348816D01*
X45513060Y-94238518D01*
X46095050Y-93656529D01*
X46128817Y-93628817D01*
X46156533Y-93595046D01*
X46239410Y-93494060D01*
X46239411Y-93494059D01*
X46321589Y-93340313D01*
X46372195Y-93173490D01*
X46385000Y-93043477D01*
X46385000Y-93043467D01*
X46389281Y-93000001D01*
X46385000Y-92956535D01*
X46385000Y-91085010D01*
X57753432Y-91085010D01*
X58029461Y-91361040D01*
G37*
X58029461Y-91361040D02*
X58015000Y-91433740D01*
X58015000Y-91726260D01*
X58072068Y-92013158D01*
X58184010Y-92283411D01*
X58346525Y-92526632D01*
X58553368Y-92733475D01*
X58727760Y-92850000D01*
X58553368Y-92966525D01*
X58346525Y-93173368D01*
X58184010Y-93416589D01*
X58072068Y-93686842D01*
X58015000Y-93973740D01*
X58015000Y-94266260D01*
X58072068Y-94553158D01*
X58184010Y-94823411D01*
X58346525Y-95066632D01*
X58553368Y-95273475D01*
X58727760Y-95390000D01*
X58553368Y-95506525D01*
X58346525Y-95713368D01*
X58184010Y-95956589D01*
X58072068Y-96226842D01*
X58015000Y-96513740D01*
X58015000Y-96806260D01*
X58072068Y-97093158D01*
X58184010Y-97363411D01*
X58346525Y-97606632D01*
X58553368Y-97813475D01*
X58727760Y-97930000D01*
X58553368Y-98046525D01*
X58346525Y-98253368D01*
X58184010Y-98496589D01*
X58072068Y-98766842D01*
X58015000Y-99053740D01*
X58015000Y-99346260D01*
X58072068Y-99633158D01*
X58184010Y-99903411D01*
X58346525Y-100146632D01*
X58553368Y-100353475D01*
X58735534Y-100475195D01*
X58618645Y-100544822D01*
X58402412Y-100739731D01*
X58228359Y-100973080D01*
X58103175Y-101235901D01*
X58058524Y-101383110D01*
X58179845Y-101613000D01*
X59373000Y-101613000D01*
X59373000Y-101593000D01*
X59627000Y-101593000D01*
X59627000Y-101613000D01*
X59647000Y-101613000D01*
X59647000Y-101867000D01*
X59627000Y-101867000D01*
X59627000Y-103060814D01*
X59856891Y-103181481D01*
X60131252Y-103084157D01*
X60381355Y-102935178D01*
X60597588Y-102740269D01*
X60771641Y-102506920D01*
X60840000Y-102363401D01*
X60840000Y-118340000D01*
X58102706Y-118340000D01*
X58100000Y-117785750D01*
X57941250Y-117627000D01*
X56627000Y-117627000D01*
X56627000Y-117647000D01*
X56373000Y-117647000D01*
X56373000Y-117627000D01*
X55058750Y-117627000D01*
X54900000Y-117785750D01*
X54897294Y-118340000D01*
X48102706Y-118340000D01*
X48100000Y-117785750D01*
X47941250Y-117627000D01*
X46627000Y-117627000D01*
X46627000Y-117647000D01*
X46373000Y-117647000D01*
X46373000Y-117627000D01*
X45058750Y-117627000D01*
X44900000Y-117785750D01*
X44897294Y-118340000D01*
X42160000Y-118340000D01*
X42160000Y-114232565D01*
X44800000Y-114232565D01*
X44800000Y-114567435D01*
X44865330Y-114895872D01*
X44993479Y-115205252D01*
X45179523Y-115483687D01*
X45416313Y-115720477D01*
X45694748Y-115906521D01*
X45795140Y-115948105D01*
X45535000Y-115946928D01*
X45410518Y-115959188D01*
X45290820Y-115995498D01*
X45180506Y-116054463D01*
X45083815Y-116133815D01*
X45004463Y-116230506D01*
X44945498Y-116340820D01*
X44909188Y-116460518D01*
X44896928Y-116585000D01*
X44900000Y-117214250D01*
X45058750Y-117373000D01*
X46373000Y-117373000D01*
X46373000Y-117353000D01*
X46627000Y-117353000D01*
X46627000Y-117373000D01*
X47941250Y-117373000D01*
X48100000Y-117214250D01*
X48103072Y-116585000D01*
X48090812Y-116460518D01*
X48054502Y-116340820D01*
X47995537Y-116230506D01*
X47916185Y-116133815D01*
X47819494Y-116054463D01*
X47709180Y-115995498D01*
X47589482Y-115959188D01*
X47465000Y-115946928D01*
X47204860Y-115948105D01*
X47305252Y-115906521D01*
X47583687Y-115720477D01*
X47820477Y-115483687D01*
X48006521Y-115205252D01*
X48134670Y-114895872D01*
X48200000Y-114567435D01*
X48200000Y-114232565D01*
X54800000Y-114232565D01*
X54800000Y-114567435D01*
X54865330Y-114895872D01*
X54993479Y-115205252D01*
X55179523Y-115483687D01*
X55416313Y-115720477D01*
X55694748Y-115906521D01*
X55795140Y-115948105D01*
X55535000Y-115946928D01*
X55410518Y-115959188D01*
X55290820Y-115995498D01*
X55180506Y-116054463D01*
X55083815Y-116133815D01*
X55004463Y-116230506D01*
X54945498Y-116340820D01*
X54909188Y-116460518D01*
X54896928Y-116585000D01*
X54900000Y-117214250D01*
X55058750Y-117373000D01*
X56373000Y-117373000D01*
X56373000Y-117353000D01*
X56627000Y-117353000D01*
X56627000Y-117373000D01*
X57941250Y-117373000D01*
X58100000Y-117214250D01*
X58103072Y-116585000D01*
X58090812Y-116460518D01*
X58054502Y-116340820D01*
X57995537Y-116230506D01*
X57916185Y-116133815D01*
X57819494Y-116054463D01*
X57709180Y-115995498D01*
X57589482Y-115959188D01*
X57465000Y-115946928D01*
X57204860Y-115948105D01*
X57305252Y-115906521D01*
X57583687Y-115720477D01*
X57820477Y-115483687D01*
X58006521Y-115205252D01*
X58134670Y-114895872D01*
X58200000Y-114567435D01*
X58200000Y-114232565D01*
X58134670Y-113904128D01*
X58006521Y-113594748D01*
X57820477Y-113316313D01*
X57583687Y-113079523D01*
X57305252Y-112893479D01*
X56995872Y-112765330D01*
X56667435Y-112700000D01*
X56332565Y-112700000D01*
X56004128Y-112765330D01*
X55694748Y-112893479D01*
X55416313Y-113079523D01*
X55179523Y-113316313D01*
X54993479Y-113594748D01*
X54865330Y-113904128D01*
X54800000Y-114232565D01*
X48200000Y-114232565D01*
X48134670Y-113904128D01*
X48006521Y-113594748D01*
X47820477Y-113316313D01*
X47583687Y-113079523D01*
X47305252Y-112893479D01*
X46995872Y-112765330D01*
X46667435Y-112700000D01*
X46332565Y-112700000D01*
X46004128Y-112765330D01*
X45694748Y-112893479D01*
X45416313Y-113079523D01*
X45179523Y-113316313D01*
X44993479Y-113594748D01*
X44865330Y-113904128D01*
X44800000Y-114232565D01*
X42160000Y-114232565D01*
X42160000Y-105932565D01*
X44800000Y-105932565D01*
X44800000Y-106267435D01*
X44865330Y-106595872D01*
X44993479Y-106905252D01*
X45179523Y-107183687D01*
X45416313Y-107420477D01*
X45694748Y-107606521D01*
X46004128Y-107734670D01*
X46332565Y-107800000D01*
X46667435Y-107800000D01*
X46995872Y-107734670D01*
X47305252Y-107606521D01*
X47583687Y-107420477D01*
X47820477Y-107183687D01*
X48006521Y-106905252D01*
X48134670Y-106595872D01*
X48200000Y-106267435D01*
X48200000Y-105932565D01*
X54800000Y-105932565D01*
X54800000Y-106267435D01*
X54865330Y-106595872D01*
X54993479Y-106905252D01*
X55179523Y-107183687D01*
X55416313Y-107420477D01*
X55694748Y-107606521D01*
X56004128Y-107734670D01*
X56332565Y-107800000D01*
X56667435Y-107800000D01*
X56995872Y-107734670D01*
X57305252Y-107606521D01*
X57583687Y-107420477D01*
X57820477Y-107183687D01*
X58006521Y-106905252D01*
X58134670Y-106595872D01*
X58200000Y-106267435D01*
X58200000Y-105932565D01*
X58134670Y-105604128D01*
X58006521Y-105294748D01*
X57820477Y-105016313D01*
X57583687Y-104779523D01*
X57305252Y-104593479D01*
X56995872Y-104465330D01*
X56667435Y-104400000D01*
X56332565Y-104400000D01*
X56004128Y-104465330D01*
X55694748Y-104593479D01*
X55416313Y-104779523D01*
X55179523Y-105016313D01*
X54993479Y-105294748D01*
X54865330Y-105604128D01*
X54800000Y-105932565D01*
X48200000Y-105932565D01*
X48134670Y-105604128D01*
X48006521Y-105294748D01*
X47820477Y-105016313D01*
X47742236Y-104938072D01*
X49300000Y-104938072D01*
X49424482Y-104925812D01*
X49544180Y-104889502D01*
X49654494Y-104830537D01*
X49751185Y-104751185D01*
X49830537Y-104654494D01*
X49889502Y-104544180D01*
X49925812Y-104424482D01*
X49938072Y-104300000D01*
X49938072Y-102700000D01*
X49925812Y-102575518D01*
X49889502Y-102455820D01*
X49830537Y-102345506D01*
X49751185Y-102248815D01*
X49654494Y-102169463D01*
X49544180Y-102110498D01*
X49448057Y-102081339D01*
X49614637Y-101914759D01*
X49771680Y-101679727D01*
X49879853Y-101418574D01*
X49935000Y-101141335D01*
X49935000Y-100858665D01*
X49879853Y-100581426D01*
X49771680Y-100320273D01*
X49691317Y-100200000D01*
X53061928Y-100200000D01*
X53061928Y-101800000D01*
X53074188Y-101924482D01*
X53110498Y-102044180D01*
X53169463Y-102154494D01*
X53248815Y-102251185D01*
X53345506Y-102330537D01*
X53455820Y-102389502D01*
X53551943Y-102418661D01*
X53385363Y-102585241D01*
X53228320Y-102820273D01*
X53120147Y-103081426D01*
X53065000Y-103358665D01*
X53065000Y-103641335D01*
X53120147Y-103918574D01*
X53228320Y-104179727D01*
X53385363Y-104414759D01*
X53585241Y-104614637D01*
X53820273Y-104771680D01*
X54081426Y-104879853D01*
X54358665Y-104935000D01*
X54641335Y-104935000D01*
X54918574Y-104879853D01*
X55179727Y-104771680D01*
X55414759Y-104614637D01*
X55614637Y-104414759D01*
X55771680Y-104179727D01*
X55879853Y-103918574D01*
X55935000Y-103641335D01*
X55935000Y-103358665D01*
X55879853Y-103081426D01*
X55771680Y-102820273D01*
X55614637Y-102585241D01*
X55448057Y-102418661D01*
X55544180Y-102389502D01*
X55654494Y-102330537D01*
X55751185Y-102251185D01*
X55830537Y-102154494D01*
X55861327Y-102096890D01*
X58058524Y-102096890D01*
X58103175Y-102244099D01*
X58228359Y-102506920D01*
X58402412Y-102740269D01*
X58618645Y-102935178D01*
X58868748Y-103084157D01*
X59143109Y-103181481D01*
X59373000Y-103060814D01*
X59373000Y-101867000D01*
X58179845Y-101867000D01*
X58058524Y-102096890D01*
X55861327Y-102096890D01*
X55889502Y-102044180D01*
X55925812Y-101924482D01*
X55938072Y-101800000D01*
X55938072Y-100200000D01*
X55925812Y-100075518D01*
X55889502Y-99955820D01*
X55830537Y-99845506D01*
X55751185Y-99748815D01*
X55654494Y-99669463D01*
X55544180Y-99610498D01*
X55424482Y-99574188D01*
X55300000Y-99561928D01*
X53700000Y-99561928D01*
X53575518Y-99574188D01*
X53455820Y-99610498D01*
X53345506Y-99669463D01*
X53248815Y-99748815D01*
X53169463Y-99845506D01*
X53110498Y-99955820D01*
X53074188Y-100075518D01*
X53061928Y-100200000D01*
X49691317Y-100200000D01*
X49614637Y-100085241D01*
X49414759Y-99885363D01*
X49179727Y-99728320D01*
X48918574Y-99620147D01*
X48641335Y-99565000D01*
X48358665Y-99565000D01*
X48081426Y-99620147D01*
X47820273Y-99728320D01*
X47585241Y-99885363D01*
X47385363Y-100085241D01*
X47228320Y-100320273D01*
X47120147Y-100581426D01*
X47065000Y-100858665D01*
X47065000Y-101141335D01*
X47120147Y-101418574D01*
X47228320Y-101679727D01*
X47385363Y-101914759D01*
X47551943Y-102081339D01*
X47455820Y-102110498D01*
X47345506Y-102169463D01*
X47248815Y-102248815D01*
X47169463Y-102345506D01*
X47110498Y-102455820D01*
X47074188Y-102575518D01*
X47061928Y-102700000D01*
X47061928Y-104300000D01*
X47074188Y-104424482D01*
X47099614Y-104508301D01*
X46995872Y-104465330D01*
X46667435Y-104400000D01*
X46332565Y-104400000D01*
X46004128Y-104465330D01*
X45694748Y-104593479D01*
X45416313Y-104779523D01*
X45179523Y-105016313D01*
X44993479Y-105294748D01*
X44865330Y-105604128D01*
X44800000Y-105932565D01*
X42160000Y-105932565D01*
X42160000Y-97236890D01*
X49293425Y-97236890D01*
X49348260Y-97446122D01*
X49510661Y-97802767D01*
X49739520Y-98120876D01*
X50026041Y-98388225D01*
X50359214Y-98594539D01*
X50726235Y-98731890D01*
X51113000Y-98795000D01*
X51373000Y-98795000D01*
X51373000Y-96927000D01*
X51627000Y-96927000D01*
X51627000Y-98795000D01*
X51887000Y-98795000D01*
X52273765Y-98731890D01*
X52640786Y-98594539D01*
X52973959Y-98388225D01*
X53260480Y-98120876D01*
X53489339Y-97802767D01*
X53651740Y-97446122D01*
X53706575Y-97236890D01*
X53591853Y-96927000D01*
X51627000Y-96927000D01*
X51373000Y-96927000D01*
X49408147Y-96927000D01*
X49293425Y-97236890D01*
X42160000Y-97236890D01*
X42160000Y-96363110D01*
X49293425Y-96363110D01*
X49408147Y-96673000D01*
X51373000Y-96673000D01*
X51373000Y-94805000D01*
X51627000Y-94805000D01*
X51627000Y-96673000D01*
X53591853Y-96673000D01*
X53706575Y-96363110D01*
X53651740Y-96153878D01*
X53489339Y-95797233D01*
X53260480Y-95479124D01*
X52973959Y-95211775D01*
X52640786Y-95005461D01*
X52273765Y-94868110D01*
X51887000Y-94805000D01*
X51627000Y-94805000D01*
X51373000Y-94805000D01*
X51113000Y-94805000D01*
X50726235Y-94868110D01*
X50359214Y-95005461D01*
X50026041Y-95211775D01*
X49739520Y-95479124D01*
X49510661Y-95797233D01*
X49348260Y-96153878D01*
X49293425Y-96363110D01*
X42160000Y-96363110D01*
X42159999Y-93911577D01*
X42486940Y-94238518D01*
X42465000Y-94348816D01*
X42465000Y-94651184D01*
X42523989Y-94947743D01*
X42639701Y-95227095D01*
X42807688Y-95478505D01*
X43021495Y-95692312D01*
X43272905Y-95860299D01*
X43552257Y-95976011D01*
X43848816Y-96035000D01*
X44151184Y-96035000D01*
X44447743Y-95976011D01*
X44727095Y-95860299D01*
X44978505Y-95692312D01*
X45192312Y-95478505D01*
X45360299Y-95227095D01*
X45476011Y-94947743D01*
X45535000Y-94651184D01*
X45535000Y-94348816D01*
X45513060Y-94238518D01*
X46095050Y-93656529D01*
X46128817Y-93628817D01*
X46156533Y-93595046D01*
X46239410Y-93494060D01*
X46239411Y-93494059D01*
X46321589Y-93340313D01*
X46372195Y-93173490D01*
X46385000Y-93043477D01*
X46385000Y-93043467D01*
X46389281Y-93000001D01*
X46385000Y-92956535D01*
X46385000Y-91085010D01*
X57753432Y-91085010D01*
X58029461Y-91361040D01*
G36*
X60840000Y-85246112D02*
G01*
X60801185Y-85198815D01*
X60704494Y-85119463D01*
X60594180Y-85060498D01*
X60474482Y-85024188D01*
X60350000Y-85011928D01*
X59785750Y-85015000D01*
X59627000Y-85173750D01*
X59627000Y-86373000D01*
X59647000Y-86373000D01*
X59647000Y-86627000D01*
X59627000Y-86627000D01*
X59627000Y-86647000D01*
X59373000Y-86647000D01*
X59373000Y-86627000D01*
X58173750Y-86627000D01*
X58015000Y-86785750D01*
X58011928Y-87350000D01*
X58024188Y-87474482D01*
X58060498Y-87594180D01*
X58119463Y-87704494D01*
X58198815Y-87801185D01*
X58295506Y-87880537D01*
X58405820Y-87939502D01*
X58478380Y-87961513D01*
X58346525Y-88093368D01*
X58184010Y-88336589D01*
X58072068Y-88606842D01*
X58070445Y-88615000D01*
X53159606Y-88615000D01*
X53260480Y-88520876D01*
X53489339Y-88202767D01*
X53651740Y-87846122D01*
X53706575Y-87636890D01*
X53591853Y-87327000D01*
X51627000Y-87327000D01*
X51627000Y-87347000D01*
X51373000Y-87347000D01*
X51373000Y-87327000D01*
X49408147Y-87327000D01*
X49293425Y-87636890D01*
X49348260Y-87846122D01*
X49510661Y-88202767D01*
X49739520Y-88520876D01*
X49840394Y-88615000D01*
X45538072Y-88615000D01*
X45538072Y-88600000D01*
X45525812Y-88475518D01*
X45489502Y-88355820D01*
X45430537Y-88245506D01*
X45351185Y-88148815D01*
X45254494Y-88069463D01*
X45144180Y-88010498D01*
X45024482Y-87974188D01*
X44900000Y-87961928D01*
X44289650Y-87961928D01*
X45488468Y-86763110D01*
X49293425Y-86763110D01*
X49408147Y-87073000D01*
X51373000Y-87073000D01*
X51373000Y-85205000D01*
X51627000Y-85205000D01*
X51627000Y-87073000D01*
X53591853Y-87073000D01*
X53706575Y-86763110D01*
X53651740Y-86553878D01*
X53489339Y-86197233D01*
X53260480Y-85879124D01*
X53014926Y-85650000D01*
X58011928Y-85650000D01*
X58015000Y-86214250D01*
X58173750Y-86373000D01*
X59373000Y-86373000D01*
X59373000Y-85173750D01*
X59214250Y-85015000D01*
X58650000Y-85011928D01*
X58525518Y-85024188D01*
X58405820Y-85060498D01*
X58295506Y-85119463D01*
X58198815Y-85198815D01*
X58119463Y-85295506D01*
X58060498Y-85405820D01*
X58024188Y-85525518D01*
X58011928Y-85650000D01*
X53014926Y-85650000D01*
X52973959Y-85611775D01*
X52640786Y-85405461D01*
X52273765Y-85268110D01*
X51887000Y-85205000D01*
X51627000Y-85205000D01*
X51373000Y-85205000D01*
X51113000Y-85205000D01*
X50726235Y-85268110D01*
X50359214Y-85405461D01*
X50026041Y-85611775D01*
X49739520Y-85879124D01*
X49510661Y-86197233D01*
X49348260Y-86553878D01*
X49293425Y-86763110D01*
X45488468Y-86763110D01*
X52095049Y-80156530D01*
X52128817Y-80128817D01*
X52239411Y-79994059D01*
X52321589Y-79840313D01*
X52372195Y-79673490D01*
X52385000Y-79543477D01*
X52385000Y-79543467D01*
X52389281Y-79500001D01*
X52385000Y-79456534D01*
X52385000Y-77732565D01*
X54800000Y-77732565D01*
X54800000Y-78067435D01*
X54865330Y-78395872D01*
X54993479Y-78705252D01*
X55179523Y-78983687D01*
X55416313Y-79220477D01*
X55694748Y-79406521D01*
X56004128Y-79534670D01*
X56332565Y-79600000D01*
X56667435Y-79600000D01*
X56995872Y-79534670D01*
X57305252Y-79406521D01*
X57583687Y-79220477D01*
X57820477Y-78983687D01*
X58006521Y-78705252D01*
X58134670Y-78395872D01*
X58200000Y-78067435D01*
X58200000Y-77732565D01*
X58134670Y-77404128D01*
X58006521Y-77094748D01*
X57820477Y-76816313D01*
X57583687Y-76579523D01*
X57305252Y-76393479D01*
X56995872Y-76265330D01*
X56667435Y-76200000D01*
X56332565Y-76200000D01*
X56004128Y-76265330D01*
X55694748Y-76393479D01*
X55416313Y-76579523D01*
X55179523Y-76816313D01*
X54993479Y-77094748D01*
X54865330Y-77404128D01*
X54800000Y-77732565D01*
X52385000Y-77732565D01*
X52385000Y-69432565D01*
X54800000Y-69432565D01*
X54800000Y-69767435D01*
X54865330Y-70095872D01*
X54993479Y-70405252D01*
X55179523Y-70683687D01*
X55416313Y-70920477D01*
X55694748Y-71106521D01*
X56004128Y-71234670D01*
X56332565Y-71300000D01*
X56667435Y-71300000D01*
X56995872Y-71234670D01*
X57305252Y-71106521D01*
X57583687Y-70920477D01*
X57820477Y-70683687D01*
X58006521Y-70405252D01*
X58134670Y-70095872D01*
X58200000Y-69767435D01*
X58200000Y-69432565D01*
X58134670Y-69104128D01*
X58006521Y-68794748D01*
X57820477Y-68516313D01*
X57583687Y-68279523D01*
X57305252Y-68093479D01*
X57204860Y-68051895D01*
X57465000Y-68053072D01*
X57589482Y-68040812D01*
X57709180Y-68004502D01*
X57819494Y-67945537D01*
X57916185Y-67866185D01*
X57995537Y-67769494D01*
X58054502Y-67659180D01*
X58090812Y-67539482D01*
X58103072Y-67415000D01*
X58100000Y-66785750D01*
X57941250Y-66627000D01*
X56627000Y-66627000D01*
X56627000Y-66647000D01*
X56373000Y-66647000D01*
X56373000Y-66627000D01*
X55058750Y-66627000D01*
X54900000Y-66785750D01*
X54896928Y-67415000D01*
X54909188Y-67539482D01*
X54945498Y-67659180D01*
X55004463Y-67769494D01*
X55083815Y-67866185D01*
X55180506Y-67945537D01*
X55290820Y-68004502D01*
X55410518Y-68040812D01*
X55535000Y-68053072D01*
X55795140Y-68051895D01*
X55694748Y-68093479D01*
X55416313Y-68279523D01*
X55179523Y-68516313D01*
X54993479Y-68794748D01*
X54865330Y-69104128D01*
X54800000Y-69432565D01*
X52385000Y-69432565D01*
X52385000Y-65585000D01*
X54896928Y-65585000D01*
X54900000Y-66214250D01*
X55058750Y-66373000D01*
X56373000Y-66373000D01*
X56373000Y-65108750D01*
X56627000Y-65108750D01*
X56627000Y-66373000D01*
X57941250Y-66373000D01*
X58100000Y-66214250D01*
X58103072Y-65585000D01*
X58090812Y-65460518D01*
X58054502Y-65340820D01*
X57995537Y-65230506D01*
X57916185Y-65133815D01*
X57819494Y-65054463D01*
X57709180Y-64995498D01*
X57589482Y-64959188D01*
X57465000Y-64946928D01*
X56785750Y-64950000D01*
X56627000Y-65108750D01*
X56373000Y-65108750D01*
X56214250Y-64950000D01*
X55535000Y-64946928D01*
X55410518Y-64959188D01*
X55290820Y-64995498D01*
X55180506Y-65054463D01*
X55083815Y-65133815D01*
X55004463Y-65230506D01*
X54945498Y-65340820D01*
X54909188Y-65460518D01*
X54896928Y-65585000D01*
X52385000Y-65585000D01*
X52385000Y-58976580D01*
X60840001Y-50521580D01*
X60840000Y-85246112D01*
G37*
X60840000Y-85246112D02*
X60801185Y-85198815D01*
X60704494Y-85119463D01*
X60594180Y-85060498D01*
X60474482Y-85024188D01*
X60350000Y-85011928D01*
X59785750Y-85015000D01*
X59627000Y-85173750D01*
X59627000Y-86373000D01*
X59647000Y-86373000D01*
X59647000Y-86627000D01*
X59627000Y-86627000D01*
X59627000Y-86647000D01*
X59373000Y-86647000D01*
X59373000Y-86627000D01*
X58173750Y-86627000D01*
X58015000Y-86785750D01*
X58011928Y-87350000D01*
X58024188Y-87474482D01*
X58060498Y-87594180D01*
X58119463Y-87704494D01*
X58198815Y-87801185D01*
X58295506Y-87880537D01*
X58405820Y-87939502D01*
X58478380Y-87961513D01*
X58346525Y-88093368D01*
X58184010Y-88336589D01*
X58072068Y-88606842D01*
X58070445Y-88615000D01*
X53159606Y-88615000D01*
X53260480Y-88520876D01*
X53489339Y-88202767D01*
X53651740Y-87846122D01*
X53706575Y-87636890D01*
X53591853Y-87327000D01*
X51627000Y-87327000D01*
X51627000Y-87347000D01*
X51373000Y-87347000D01*
X51373000Y-87327000D01*
X49408147Y-87327000D01*
X49293425Y-87636890D01*
X49348260Y-87846122D01*
X49510661Y-88202767D01*
X49739520Y-88520876D01*
X49840394Y-88615000D01*
X45538072Y-88615000D01*
X45538072Y-88600000D01*
X45525812Y-88475518D01*
X45489502Y-88355820D01*
X45430537Y-88245506D01*
X45351185Y-88148815D01*
X45254494Y-88069463D01*
X45144180Y-88010498D01*
X45024482Y-87974188D01*
X44900000Y-87961928D01*
X44289650Y-87961928D01*
X45488468Y-86763110D01*
X49293425Y-86763110D01*
X49408147Y-87073000D01*
X51373000Y-87073000D01*
X51373000Y-85205000D01*
X51627000Y-85205000D01*
X51627000Y-87073000D01*
X53591853Y-87073000D01*
X53706575Y-86763110D01*
X53651740Y-86553878D01*
X53489339Y-86197233D01*
X53260480Y-85879124D01*
X53014926Y-85650000D01*
X58011928Y-85650000D01*
X58015000Y-86214250D01*
X58173750Y-86373000D01*
X59373000Y-86373000D01*
X59373000Y-85173750D01*
X59214250Y-85015000D01*
X58650000Y-85011928D01*
X58525518Y-85024188D01*
X58405820Y-85060498D01*
X58295506Y-85119463D01*
X58198815Y-85198815D01*
X58119463Y-85295506D01*
X58060498Y-85405820D01*
X58024188Y-85525518D01*
X58011928Y-85650000D01*
X53014926Y-85650000D01*
X52973959Y-85611775D01*
X52640786Y-85405461D01*
X52273765Y-85268110D01*
X51887000Y-85205000D01*
X51627000Y-85205000D01*
X51373000Y-85205000D01*
X51113000Y-85205000D01*
X50726235Y-85268110D01*
X50359214Y-85405461D01*
X50026041Y-85611775D01*
X49739520Y-85879124D01*
X49510661Y-86197233D01*
X49348260Y-86553878D01*
X49293425Y-86763110D01*
X45488468Y-86763110D01*
X52095049Y-80156530D01*
X52128817Y-80128817D01*
X52239411Y-79994059D01*
X52321589Y-79840313D01*
X52372195Y-79673490D01*
X52385000Y-79543477D01*
X52385000Y-79543467D01*
X52389281Y-79500001D01*
X52385000Y-79456534D01*
X52385000Y-77732565D01*
X54800000Y-77732565D01*
X54800000Y-78067435D01*
X54865330Y-78395872D01*
X54993479Y-78705252D01*
X55179523Y-78983687D01*
X55416313Y-79220477D01*
X55694748Y-79406521D01*
X56004128Y-79534670D01*
X56332565Y-79600000D01*
X56667435Y-79600000D01*
X56995872Y-79534670D01*
X57305252Y-79406521D01*
X57583687Y-79220477D01*
X57820477Y-78983687D01*
X58006521Y-78705252D01*
X58134670Y-78395872D01*
X58200000Y-78067435D01*
X58200000Y-77732565D01*
X58134670Y-77404128D01*
X58006521Y-77094748D01*
X57820477Y-76816313D01*
X57583687Y-76579523D01*
X57305252Y-76393479D01*
X56995872Y-76265330D01*
X56667435Y-76200000D01*
X56332565Y-76200000D01*
X56004128Y-76265330D01*
X55694748Y-76393479D01*
X55416313Y-76579523D01*
X55179523Y-76816313D01*
X54993479Y-77094748D01*
X54865330Y-77404128D01*
X54800000Y-77732565D01*
X52385000Y-77732565D01*
X52385000Y-69432565D01*
X54800000Y-69432565D01*
X54800000Y-69767435D01*
X54865330Y-70095872D01*
X54993479Y-70405252D01*
X55179523Y-70683687D01*
X55416313Y-70920477D01*
X55694748Y-71106521D01*
X56004128Y-71234670D01*
X56332565Y-71300000D01*
X56667435Y-71300000D01*
X56995872Y-71234670D01*
X57305252Y-71106521D01*
X57583687Y-70920477D01*
X57820477Y-70683687D01*
X58006521Y-70405252D01*
X58134670Y-70095872D01*
X58200000Y-69767435D01*
X58200000Y-69432565D01*
X58134670Y-69104128D01*
X58006521Y-68794748D01*
X57820477Y-68516313D01*
X57583687Y-68279523D01*
X57305252Y-68093479D01*
X57204860Y-68051895D01*
X57465000Y-68053072D01*
X57589482Y-68040812D01*
X57709180Y-68004502D01*
X57819494Y-67945537D01*
X57916185Y-67866185D01*
X57995537Y-67769494D01*
X58054502Y-67659180D01*
X58090812Y-67539482D01*
X58103072Y-67415000D01*
X58100000Y-66785750D01*
X57941250Y-66627000D01*
X56627000Y-66627000D01*
X56627000Y-66647000D01*
X56373000Y-66647000D01*
X56373000Y-66627000D01*
X55058750Y-66627000D01*
X54900000Y-66785750D01*
X54896928Y-67415000D01*
X54909188Y-67539482D01*
X54945498Y-67659180D01*
X55004463Y-67769494D01*
X55083815Y-67866185D01*
X55180506Y-67945537D01*
X55290820Y-68004502D01*
X55410518Y-68040812D01*
X55535000Y-68053072D01*
X55795140Y-68051895D01*
X55694748Y-68093479D01*
X55416313Y-68279523D01*
X55179523Y-68516313D01*
X54993479Y-68794748D01*
X54865330Y-69104128D01*
X54800000Y-69432565D01*
X52385000Y-69432565D01*
X52385000Y-65585000D01*
X54896928Y-65585000D01*
X54900000Y-66214250D01*
X55058750Y-66373000D01*
X56373000Y-66373000D01*
X56373000Y-65108750D01*
X56627000Y-65108750D01*
X56627000Y-66373000D01*
X57941250Y-66373000D01*
X58100000Y-66214250D01*
X58103072Y-65585000D01*
X58090812Y-65460518D01*
X58054502Y-65340820D01*
X57995537Y-65230506D01*
X57916185Y-65133815D01*
X57819494Y-65054463D01*
X57709180Y-64995498D01*
X57589482Y-64959188D01*
X57465000Y-64946928D01*
X56785750Y-64950000D01*
X56627000Y-65108750D01*
X56373000Y-65108750D01*
X56214250Y-64950000D01*
X55535000Y-64946928D01*
X55410518Y-64959188D01*
X55290820Y-64995498D01*
X55180506Y-65054463D01*
X55083815Y-65133815D01*
X55004463Y-65230506D01*
X54945498Y-65340820D01*
X54909188Y-65460518D01*
X54896928Y-65585000D01*
X52385000Y-65585000D01*
X52385000Y-58976580D01*
X60840001Y-50521580D01*
X60840000Y-85246112D01*
G36*
X49739520Y-49479124D02*
G01*
X49510661Y-49797233D01*
X49348260Y-50153878D01*
X49293425Y-50363110D01*
X49408147Y-50673000D01*
X51373000Y-50673000D01*
X51373000Y-50653000D01*
X51627000Y-50653000D01*
X51627000Y-50673000D01*
X53591853Y-50673000D01*
X53706575Y-50363110D01*
X53651740Y-50153878D01*
X53489339Y-49797233D01*
X53260480Y-49479124D01*
X53159606Y-49385000D01*
X57461928Y-49385000D01*
X57461928Y-49400000D01*
X57474188Y-49524482D01*
X57510498Y-49644180D01*
X57569463Y-49754494D01*
X57648815Y-49851185D01*
X57745506Y-49930537D01*
X57855820Y-49989502D01*
X57975518Y-50025812D01*
X58100000Y-50038072D01*
X58820351Y-50038072D01*
X50904956Y-57953468D01*
X50871183Y-57981185D01*
X50760589Y-58115944D01*
X50678411Y-58269690D01*
X50648936Y-58366854D01*
X50634299Y-58415107D01*
X50627805Y-58436513D01*
X50615000Y-58566526D01*
X50615000Y-58566533D01*
X50610719Y-58610002D01*
X50615000Y-58653471D01*
X50615001Y-79133420D01*
X42159999Y-87588423D01*
X42159999Y-72415000D01*
X44896928Y-72415000D01*
X44909188Y-72539482D01*
X44945498Y-72659180D01*
X45004463Y-72769494D01*
X45083815Y-72866185D01*
X45180506Y-72945537D01*
X45290820Y-73004502D01*
X45410518Y-73040812D01*
X45535000Y-73053072D01*
X46214250Y-73050000D01*
X46373000Y-72891250D01*
X46373000Y-71627000D01*
X46627000Y-71627000D01*
X46627000Y-72891250D01*
X46785750Y-73050000D01*
X47465000Y-73053072D01*
X47589482Y-73040812D01*
X47709180Y-73004502D01*
X47819494Y-72945537D01*
X47916185Y-72866185D01*
X47995537Y-72769494D01*
X48054502Y-72659180D01*
X48090812Y-72539482D01*
X48103072Y-72415000D01*
X48100000Y-71785750D01*
X47941250Y-71627000D01*
X46627000Y-71627000D01*
X46373000Y-71627000D01*
X45058750Y-71627000D01*
X44900000Y-71785750D01*
X44896928Y-72415000D01*
X42159999Y-72415000D01*
X42159998Y-69467581D01*
X42156781Y-69434918D01*
X42156781Y-69425818D01*
X42155817Y-69416653D01*
X42140588Y-69280890D01*
X42128163Y-69222438D01*
X42127000Y-69216564D01*
X42127000Y-68232565D01*
X44800000Y-68232565D01*
X44800000Y-68567435D01*
X44865330Y-68895872D01*
X44993479Y-69205252D01*
X45179523Y-69483687D01*
X45416313Y-69720477D01*
X45694748Y-69906521D01*
X45795140Y-69948105D01*
X45535000Y-69946928D01*
X45410518Y-69959188D01*
X45290820Y-69995498D01*
X45180506Y-70054463D01*
X45083815Y-70133815D01*
X45004463Y-70230506D01*
X44945498Y-70340820D01*
X44909188Y-70460518D01*
X44896928Y-70585000D01*
X44900000Y-71214250D01*
X45058750Y-71373000D01*
X46373000Y-71373000D01*
X46373000Y-71353000D01*
X46627000Y-71353000D01*
X46627000Y-71373000D01*
X47941250Y-71373000D01*
X48100000Y-71214250D01*
X48103072Y-70585000D01*
X48090812Y-70460518D01*
X48054502Y-70340820D01*
X47995537Y-70230506D01*
X47916185Y-70133815D01*
X47819494Y-70054463D01*
X47709180Y-69995498D01*
X47589482Y-69959188D01*
X47465000Y-69946928D01*
X47204860Y-69948105D01*
X47305252Y-69906521D01*
X47583687Y-69720477D01*
X47820477Y-69483687D01*
X48006521Y-69205252D01*
X48134670Y-68895872D01*
X48200000Y-68567435D01*
X48200000Y-68232565D01*
X48134670Y-67904128D01*
X48006521Y-67594748D01*
X47820477Y-67316313D01*
X47583687Y-67079523D01*
X47305252Y-66893479D01*
X46995872Y-66765330D01*
X46667435Y-66700000D01*
X46332565Y-66700000D01*
X46004128Y-66765330D01*
X45694748Y-66893479D01*
X45416313Y-67079523D01*
X45179523Y-67316313D01*
X44993479Y-67594748D01*
X44865330Y-67904128D01*
X44800000Y-68232565D01*
X42127000Y-68232565D01*
X42127000Y-59932565D01*
X44800000Y-59932565D01*
X44800000Y-60267435D01*
X44865330Y-60595872D01*
X44993479Y-60905252D01*
X45179523Y-61183687D01*
X45416313Y-61420477D01*
X45694748Y-61606521D01*
X46004128Y-61734670D01*
X46332565Y-61800000D01*
X46667435Y-61800000D01*
X46995872Y-61734670D01*
X47305252Y-61606521D01*
X47583687Y-61420477D01*
X47820477Y-61183687D01*
X48006521Y-60905252D01*
X48134670Y-60595872D01*
X48200000Y-60267435D01*
X48200000Y-59932565D01*
X48134670Y-59604128D01*
X48006521Y-59294748D01*
X47820477Y-59016313D01*
X47583687Y-58779523D01*
X47305252Y-58593479D01*
X46995872Y-58465330D01*
X46667435Y-58400000D01*
X46332565Y-58400000D01*
X46004128Y-58465330D01*
X45694748Y-58593479D01*
X45416313Y-58779523D01*
X45179523Y-59016313D01*
X44993479Y-59294748D01*
X44865330Y-59604128D01*
X44800000Y-59932565D01*
X42127000Y-59932565D01*
X42127000Y-59283795D01*
X42130114Y-59268068D01*
X42142556Y-59209532D01*
X42143519Y-59200367D01*
X42156850Y-59064403D01*
X42156850Y-59064402D01*
X42160000Y-59032419D01*
X42160000Y-52753889D01*
X42198815Y-52801185D01*
X42295506Y-52880537D01*
X42405820Y-52939502D01*
X42525518Y-52975812D01*
X42650000Y-52988072D01*
X43214250Y-52985000D01*
X43373000Y-52826250D01*
X43373000Y-51627000D01*
X43627000Y-51627000D01*
X43627000Y-52826250D01*
X43785750Y-52985000D01*
X44350000Y-52988072D01*
X44474482Y-52975812D01*
X44594180Y-52939502D01*
X44704494Y-52880537D01*
X44801185Y-52801185D01*
X44880537Y-52704494D01*
X44939502Y-52594180D01*
X44975812Y-52474482D01*
X44988072Y-52350000D01*
X44985000Y-51785750D01*
X44826250Y-51627000D01*
X43627000Y-51627000D01*
X43373000Y-51627000D01*
X43353000Y-51627000D01*
X43353000Y-51373000D01*
X43373000Y-51373000D01*
X43373000Y-51353000D01*
X43627000Y-51353000D01*
X43627000Y-51373000D01*
X44826250Y-51373000D01*
X44962360Y-51236890D01*
X49293425Y-51236890D01*
X49348260Y-51446122D01*
X49510661Y-51802767D01*
X49739520Y-52120876D01*
X50026041Y-52388225D01*
X50359214Y-52594539D01*
X50726235Y-52731890D01*
X51113000Y-52795000D01*
X51373000Y-52795000D01*
X51373000Y-50927000D01*
X51627000Y-50927000D01*
X51627000Y-52795000D01*
X51887000Y-52795000D01*
X52273765Y-52731890D01*
X52640786Y-52594539D01*
X52973959Y-52388225D01*
X53260480Y-52120876D01*
X53489339Y-51802767D01*
X53651740Y-51446122D01*
X53706575Y-51236890D01*
X53591853Y-50927000D01*
X51627000Y-50927000D01*
X51373000Y-50927000D01*
X49408147Y-50927000D01*
X49293425Y-51236890D01*
X44962360Y-51236890D01*
X44985000Y-51214250D01*
X44988072Y-50650000D01*
X44975812Y-50525518D01*
X44939502Y-50405820D01*
X44880537Y-50295506D01*
X44801185Y-50198815D01*
X44704494Y-50119463D01*
X44594180Y-50060498D01*
X44521620Y-50038487D01*
X44653475Y-49906632D01*
X44815990Y-49663411D01*
X44927932Y-49393158D01*
X44929555Y-49385000D01*
X49840394Y-49385000D01*
X49739520Y-49479124D01*
G37*
X49739520Y-49479124D02*
X49510661Y-49797233D01*
X49348260Y-50153878D01*
X49293425Y-50363110D01*
X49408147Y-50673000D01*
X51373000Y-50673000D01*
X51373000Y-50653000D01*
X51627000Y-50653000D01*
X51627000Y-50673000D01*
X53591853Y-50673000D01*
X53706575Y-50363110D01*
X53651740Y-50153878D01*
X53489339Y-49797233D01*
X53260480Y-49479124D01*
X53159606Y-49385000D01*
X57461928Y-49385000D01*
X57461928Y-49400000D01*
X57474188Y-49524482D01*
X57510498Y-49644180D01*
X57569463Y-49754494D01*
X57648815Y-49851185D01*
X57745506Y-49930537D01*
X57855820Y-49989502D01*
X57975518Y-50025812D01*
X58100000Y-50038072D01*
X58820351Y-50038072D01*
X50904956Y-57953468D01*
X50871183Y-57981185D01*
X50760589Y-58115944D01*
X50678411Y-58269690D01*
X50648936Y-58366854D01*
X50634299Y-58415107D01*
X50627805Y-58436513D01*
X50615000Y-58566526D01*
X50615000Y-58566533D01*
X50610719Y-58610002D01*
X50615000Y-58653471D01*
X50615001Y-79133420D01*
X42159999Y-87588423D01*
X42159999Y-72415000D01*
X44896928Y-72415000D01*
X44909188Y-72539482D01*
X44945498Y-72659180D01*
X45004463Y-72769494D01*
X45083815Y-72866185D01*
X45180506Y-72945537D01*
X45290820Y-73004502D01*
X45410518Y-73040812D01*
X45535000Y-73053072D01*
X46214250Y-73050000D01*
X46373000Y-72891250D01*
X46373000Y-71627000D01*
X46627000Y-71627000D01*
X46627000Y-72891250D01*
X46785750Y-73050000D01*
X47465000Y-73053072D01*
X47589482Y-73040812D01*
X47709180Y-73004502D01*
X47819494Y-72945537D01*
X47916185Y-72866185D01*
X47995537Y-72769494D01*
X48054502Y-72659180D01*
X48090812Y-72539482D01*
X48103072Y-72415000D01*
X48100000Y-71785750D01*
X47941250Y-71627000D01*
X46627000Y-71627000D01*
X46373000Y-71627000D01*
X45058750Y-71627000D01*
X44900000Y-71785750D01*
X44896928Y-72415000D01*
X42159999Y-72415000D01*
X42159998Y-69467581D01*
X42156781Y-69434918D01*
X42156781Y-69425818D01*
X42155817Y-69416653D01*
X42140588Y-69280890D01*
X42128163Y-69222438D01*
X42127000Y-69216564D01*
X42127000Y-68232565D01*
X44800000Y-68232565D01*
X44800000Y-68567435D01*
X44865330Y-68895872D01*
X44993479Y-69205252D01*
X45179523Y-69483687D01*
X45416313Y-69720477D01*
X45694748Y-69906521D01*
X45795140Y-69948105D01*
X45535000Y-69946928D01*
X45410518Y-69959188D01*
X45290820Y-69995498D01*
X45180506Y-70054463D01*
X45083815Y-70133815D01*
X45004463Y-70230506D01*
X44945498Y-70340820D01*
X44909188Y-70460518D01*
X44896928Y-70585000D01*
X44900000Y-71214250D01*
X45058750Y-71373000D01*
X46373000Y-71373000D01*
X46373000Y-71353000D01*
X46627000Y-71353000D01*
X46627000Y-71373000D01*
X47941250Y-71373000D01*
X48100000Y-71214250D01*
X48103072Y-70585000D01*
X48090812Y-70460518D01*
X48054502Y-70340820D01*
X47995537Y-70230506D01*
X47916185Y-70133815D01*
X47819494Y-70054463D01*
X47709180Y-69995498D01*
X47589482Y-69959188D01*
X47465000Y-69946928D01*
X47204860Y-69948105D01*
X47305252Y-69906521D01*
X47583687Y-69720477D01*
X47820477Y-69483687D01*
X48006521Y-69205252D01*
X48134670Y-68895872D01*
X48200000Y-68567435D01*
X48200000Y-68232565D01*
X48134670Y-67904128D01*
X48006521Y-67594748D01*
X47820477Y-67316313D01*
X47583687Y-67079523D01*
X47305252Y-66893479D01*
X46995872Y-66765330D01*
X46667435Y-66700000D01*
X46332565Y-66700000D01*
X46004128Y-66765330D01*
X45694748Y-66893479D01*
X45416313Y-67079523D01*
X45179523Y-67316313D01*
X44993479Y-67594748D01*
X44865330Y-67904128D01*
X44800000Y-68232565D01*
X42127000Y-68232565D01*
X42127000Y-59932565D01*
X44800000Y-59932565D01*
X44800000Y-60267435D01*
X44865330Y-60595872D01*
X44993479Y-60905252D01*
X45179523Y-61183687D01*
X45416313Y-61420477D01*
X45694748Y-61606521D01*
X46004128Y-61734670D01*
X46332565Y-61800000D01*
X46667435Y-61800000D01*
X46995872Y-61734670D01*
X47305252Y-61606521D01*
X47583687Y-61420477D01*
X47820477Y-61183687D01*
X48006521Y-60905252D01*
X48134670Y-60595872D01*
X48200000Y-60267435D01*
X48200000Y-59932565D01*
X48134670Y-59604128D01*
X48006521Y-59294748D01*
X47820477Y-59016313D01*
X47583687Y-58779523D01*
X47305252Y-58593479D01*
X46995872Y-58465330D01*
X46667435Y-58400000D01*
X46332565Y-58400000D01*
X46004128Y-58465330D01*
X45694748Y-58593479D01*
X45416313Y-58779523D01*
X45179523Y-59016313D01*
X44993479Y-59294748D01*
X44865330Y-59604128D01*
X44800000Y-59932565D01*
X42127000Y-59932565D01*
X42127000Y-59283795D01*
X42130114Y-59268068D01*
X42142556Y-59209532D01*
X42143519Y-59200367D01*
X42156850Y-59064403D01*
X42156850Y-59064402D01*
X42160000Y-59032419D01*
X42160000Y-52753889D01*
X42198815Y-52801185D01*
X42295506Y-52880537D01*
X42405820Y-52939502D01*
X42525518Y-52975812D01*
X42650000Y-52988072D01*
X43214250Y-52985000D01*
X43373000Y-52826250D01*
X43373000Y-51627000D01*
X43627000Y-51627000D01*
X43627000Y-52826250D01*
X43785750Y-52985000D01*
X44350000Y-52988072D01*
X44474482Y-52975812D01*
X44594180Y-52939502D01*
X44704494Y-52880537D01*
X44801185Y-52801185D01*
X44880537Y-52704494D01*
X44939502Y-52594180D01*
X44975812Y-52474482D01*
X44988072Y-52350000D01*
X44985000Y-51785750D01*
X44826250Y-51627000D01*
X43627000Y-51627000D01*
X43373000Y-51627000D01*
X43353000Y-51627000D01*
X43353000Y-51373000D01*
X43373000Y-51373000D01*
X43373000Y-51353000D01*
X43627000Y-51353000D01*
X43627000Y-51373000D01*
X44826250Y-51373000D01*
X44962360Y-51236890D01*
X49293425Y-51236890D01*
X49348260Y-51446122D01*
X49510661Y-51802767D01*
X49739520Y-52120876D01*
X50026041Y-52388225D01*
X50359214Y-52594539D01*
X50726235Y-52731890D01*
X51113000Y-52795000D01*
X51373000Y-52795000D01*
X51373000Y-50927000D01*
X51627000Y-50927000D01*
X51627000Y-52795000D01*
X51887000Y-52795000D01*
X52273765Y-52731890D01*
X52640786Y-52594539D01*
X52973959Y-52388225D01*
X53260480Y-52120876D01*
X53489339Y-51802767D01*
X53651740Y-51446122D01*
X53706575Y-51236890D01*
X53591853Y-50927000D01*
X51627000Y-50927000D01*
X51373000Y-50927000D01*
X49408147Y-50927000D01*
X49293425Y-51236890D01*
X44962360Y-51236890D01*
X44985000Y-51214250D01*
X44988072Y-50650000D01*
X44975812Y-50525518D01*
X44939502Y-50405820D01*
X44880537Y-50295506D01*
X44801185Y-50198815D01*
X44704494Y-50119463D01*
X44594180Y-50060498D01*
X44521620Y-50038487D01*
X44653475Y-49906632D01*
X44815990Y-49663411D01*
X44927932Y-49393158D01*
X44929555Y-49385000D01*
X49840394Y-49385000D01*
X49739520Y-49479124D01*
G36*
X44900000Y-20214250D02*
G01*
X45058750Y-20373000D01*
X46373000Y-20373000D01*
X46373000Y-20353000D01*
X46627000Y-20353000D01*
X46627000Y-20373000D01*
X47941250Y-20373000D01*
X48100000Y-20214250D01*
X48102706Y-19660000D01*
X54897294Y-19660000D01*
X54900000Y-20214250D01*
X55058750Y-20373000D01*
X56373000Y-20373000D01*
X56373000Y-20353000D01*
X56627000Y-20353000D01*
X56627000Y-20373000D01*
X57941250Y-20373000D01*
X58100000Y-20214250D01*
X58102706Y-19660000D01*
X60840001Y-19660000D01*
X60840001Y-44088422D01*
X60513060Y-43761482D01*
X60535000Y-43651184D01*
X60535000Y-43348816D01*
X60476011Y-43052257D01*
X60360299Y-42772905D01*
X60192312Y-42521495D01*
X59978505Y-42307688D01*
X59727095Y-42139701D01*
X59447743Y-42023989D01*
X59151184Y-41965000D01*
X58848816Y-41965000D01*
X58552257Y-42023989D01*
X58272905Y-42139701D01*
X58021495Y-42307688D01*
X57807688Y-42521495D01*
X57639701Y-42772905D01*
X57523989Y-43052257D01*
X57465000Y-43348816D01*
X57465000Y-43651184D01*
X57486940Y-43761482D01*
X56904956Y-44343466D01*
X56871183Y-44371183D01*
X56760589Y-44505942D01*
X56678411Y-44659688D01*
X56643157Y-44775904D01*
X56627806Y-44826509D01*
X56627805Y-44826511D01*
X56615000Y-44956524D01*
X56615000Y-44956531D01*
X56610719Y-45000000D01*
X56615000Y-45043469D01*
X56615001Y-46914990D01*
X45246569Y-46914990D01*
X44970539Y-46638960D01*
X44985000Y-46566260D01*
X44985000Y-46273740D01*
X44927932Y-45986842D01*
X44815990Y-45716589D01*
X44653475Y-45473368D01*
X44446632Y-45266525D01*
X44272240Y-45150000D01*
X44446632Y-45033475D01*
X44653475Y-44826632D01*
X44815990Y-44583411D01*
X44927932Y-44313158D01*
X44985000Y-44026260D01*
X44985000Y-43733740D01*
X44927932Y-43446842D01*
X44815990Y-43176589D01*
X44653475Y-42933368D01*
X44446632Y-42726525D01*
X44272240Y-42610000D01*
X44446632Y-42493475D01*
X44653475Y-42286632D01*
X44815990Y-42043411D01*
X44927932Y-41773158D01*
X44955037Y-41636890D01*
X49293425Y-41636890D01*
X49348260Y-41846122D01*
X49510661Y-42202767D01*
X49739520Y-42520876D01*
X50026041Y-42788225D01*
X50359214Y-42994539D01*
X50726235Y-43131890D01*
X51113000Y-43195000D01*
X51373000Y-43195000D01*
X51373000Y-41327000D01*
X51627000Y-41327000D01*
X51627000Y-43195000D01*
X51887000Y-43195000D01*
X52273765Y-43131890D01*
X52640786Y-42994539D01*
X52973959Y-42788225D01*
X53260480Y-42520876D01*
X53489339Y-42202767D01*
X53651740Y-41846122D01*
X53706575Y-41636890D01*
X53591853Y-41327000D01*
X51627000Y-41327000D01*
X51373000Y-41327000D01*
X49408147Y-41327000D01*
X49293425Y-41636890D01*
X44955037Y-41636890D01*
X44985000Y-41486260D01*
X44985000Y-41193740D01*
X44927932Y-40906842D01*
X44868397Y-40763110D01*
X49293425Y-40763110D01*
X49408147Y-41073000D01*
X51373000Y-41073000D01*
X51373000Y-39205000D01*
X51627000Y-39205000D01*
X51627000Y-41073000D01*
X53591853Y-41073000D01*
X53706575Y-40763110D01*
X53651740Y-40553878D01*
X53489339Y-40197233D01*
X53260480Y-39879124D01*
X52973959Y-39611775D01*
X52640786Y-39405461D01*
X52273765Y-39268110D01*
X51887000Y-39205000D01*
X51627000Y-39205000D01*
X51373000Y-39205000D01*
X51113000Y-39205000D01*
X50726235Y-39268110D01*
X50359214Y-39405461D01*
X50026041Y-39611775D01*
X49739520Y-39879124D01*
X49510661Y-40197233D01*
X49348260Y-40553878D01*
X49293425Y-40763110D01*
X44868397Y-40763110D01*
X44815990Y-40636589D01*
X44653475Y-40393368D01*
X44446632Y-40186525D01*
X44272240Y-40070000D01*
X44446632Y-39953475D01*
X44653475Y-39746632D01*
X44815990Y-39503411D01*
X44927932Y-39233158D01*
X44985000Y-38946260D01*
X44985000Y-38653740D01*
X44927932Y-38366842D01*
X44815990Y-38096589D01*
X44653475Y-37853368D01*
X44446632Y-37646525D01*
X44264466Y-37524805D01*
X44381355Y-37455178D01*
X44597588Y-37260269D01*
X44771641Y-37026920D01*
X44896825Y-36764099D01*
X44941476Y-36616890D01*
X44820155Y-36387000D01*
X43627000Y-36387000D01*
X43627000Y-36407000D01*
X43373000Y-36407000D01*
X43373000Y-36387000D01*
X43353000Y-36387000D01*
X43353000Y-36133000D01*
X43373000Y-36133000D01*
X43373000Y-34939186D01*
X43627000Y-34939186D01*
X43627000Y-36133000D01*
X44820155Y-36133000D01*
X44941476Y-35903110D01*
X44896825Y-35755901D01*
X44771641Y-35493080D01*
X44597588Y-35259731D01*
X44381355Y-35064822D01*
X44131252Y-34915843D01*
X43856891Y-34818519D01*
X43627000Y-34939186D01*
X43373000Y-34939186D01*
X43143109Y-34818519D01*
X42868748Y-34915843D01*
X42618645Y-35064822D01*
X42402412Y-35259731D01*
X42228359Y-35493080D01*
X42160000Y-35636598D01*
X42160000Y-34200000D01*
X47061928Y-34200000D01*
X47061928Y-35800000D01*
X47074188Y-35924482D01*
X47110498Y-36044180D01*
X47169463Y-36154494D01*
X47248815Y-36251185D01*
X47345506Y-36330537D01*
X47455820Y-36389502D01*
X47551943Y-36418661D01*
X47385363Y-36585241D01*
X47228320Y-36820273D01*
X47120147Y-37081426D01*
X47065000Y-37358665D01*
X47065000Y-37641335D01*
X47120147Y-37918574D01*
X47228320Y-38179727D01*
X47385363Y-38414759D01*
X47585241Y-38614637D01*
X47820273Y-38771680D01*
X48081426Y-38879853D01*
X48358665Y-38935000D01*
X48641335Y-38935000D01*
X48918574Y-38879853D01*
X49179727Y-38771680D01*
X49414759Y-38614637D01*
X49614637Y-38414759D01*
X49771680Y-38179727D01*
X49879853Y-37918574D01*
X49935000Y-37641335D01*
X49935000Y-37358665D01*
X49879853Y-37081426D01*
X49771680Y-36820273D01*
X49691317Y-36700000D01*
X53061928Y-36700000D01*
X53061928Y-38300000D01*
X53074188Y-38424482D01*
X53110498Y-38544180D01*
X53169463Y-38654494D01*
X53248815Y-38751185D01*
X53345506Y-38830537D01*
X53455820Y-38889502D01*
X53575518Y-38925812D01*
X53700000Y-38938072D01*
X55300000Y-38938072D01*
X55424482Y-38925812D01*
X55544180Y-38889502D01*
X55654494Y-38830537D01*
X55751185Y-38751185D01*
X55830537Y-38654494D01*
X55889502Y-38544180D01*
X55925812Y-38424482D01*
X55938072Y-38300000D01*
X55938072Y-36700000D01*
X55925812Y-36575518D01*
X55889502Y-36455820D01*
X55830537Y-36345506D01*
X55751185Y-36248815D01*
X55654494Y-36169463D01*
X55544180Y-36110498D01*
X55448057Y-36081339D01*
X55614637Y-35914759D01*
X55771680Y-35679727D01*
X55879853Y-35418574D01*
X55935000Y-35141335D01*
X55935000Y-34858665D01*
X55879853Y-34581426D01*
X55771680Y-34320273D01*
X55614637Y-34085241D01*
X55414759Y-33885363D01*
X55179727Y-33728320D01*
X54918574Y-33620147D01*
X54641335Y-33565000D01*
X54358665Y-33565000D01*
X54081426Y-33620147D01*
X53820273Y-33728320D01*
X53585241Y-33885363D01*
X53385363Y-34085241D01*
X53228320Y-34320273D01*
X53120147Y-34581426D01*
X53065000Y-34858665D01*
X53065000Y-35141335D01*
X53120147Y-35418574D01*
X53228320Y-35679727D01*
X53385363Y-35914759D01*
X53551943Y-36081339D01*
X53455820Y-36110498D01*
X53345506Y-36169463D01*
X53248815Y-36248815D01*
X53169463Y-36345506D01*
X53110498Y-36455820D01*
X53074188Y-36575518D01*
X53061928Y-36700000D01*
X49691317Y-36700000D01*
X49614637Y-36585241D01*
X49448057Y-36418661D01*
X49544180Y-36389502D01*
X49654494Y-36330537D01*
X49751185Y-36251185D01*
X49830537Y-36154494D01*
X49889502Y-36044180D01*
X49925812Y-35924482D01*
X49938072Y-35800000D01*
X49938072Y-34200000D01*
X49925812Y-34075518D01*
X49889502Y-33955820D01*
X49830537Y-33845506D01*
X49751185Y-33748815D01*
X49654494Y-33669463D01*
X49544180Y-33610498D01*
X49424482Y-33574188D01*
X49300000Y-33561928D01*
X47700000Y-33561928D01*
X47575518Y-33574188D01*
X47455820Y-33610498D01*
X47345506Y-33669463D01*
X47248815Y-33748815D01*
X47169463Y-33845506D01*
X47110498Y-33955820D01*
X47074188Y-34075518D01*
X47061928Y-34200000D01*
X42160000Y-34200000D01*
X42160000Y-31732565D01*
X44800000Y-31732565D01*
X44800000Y-32067435D01*
X44865330Y-32395872D01*
X44993479Y-32705252D01*
X45179523Y-32983687D01*
X45416313Y-33220477D01*
X45694748Y-33406521D01*
X46004128Y-33534670D01*
X46332565Y-33600000D01*
X46667435Y-33600000D01*
X46995872Y-33534670D01*
X47305252Y-33406521D01*
X47583687Y-33220477D01*
X47820477Y-32983687D01*
X48006521Y-32705252D01*
X48134670Y-32395872D01*
X48200000Y-32067435D01*
X48200000Y-31732565D01*
X54800000Y-31732565D01*
X54800000Y-32067435D01*
X54865330Y-32395872D01*
X54993479Y-32705252D01*
X55179523Y-32983687D01*
X55416313Y-33220477D01*
X55694748Y-33406521D01*
X56004128Y-33534670D01*
X56332565Y-33600000D01*
X56667435Y-33600000D01*
X56995872Y-33534670D01*
X57305252Y-33406521D01*
X57583687Y-33220477D01*
X57820477Y-32983687D01*
X58006521Y-32705252D01*
X58134670Y-32395872D01*
X58200000Y-32067435D01*
X58200000Y-31732565D01*
X58134670Y-31404128D01*
X58006521Y-31094748D01*
X57820477Y-30816313D01*
X57583687Y-30579523D01*
X57305252Y-30393479D01*
X56995872Y-30265330D01*
X56667435Y-30200000D01*
X56332565Y-30200000D01*
X56004128Y-30265330D01*
X55694748Y-30393479D01*
X55416313Y-30579523D01*
X55179523Y-30816313D01*
X54993479Y-31094748D01*
X54865330Y-31404128D01*
X54800000Y-31732565D01*
X48200000Y-31732565D01*
X48134670Y-31404128D01*
X48006521Y-31094748D01*
X47820477Y-30816313D01*
X47583687Y-30579523D01*
X47305252Y-30393479D01*
X46995872Y-30265330D01*
X46667435Y-30200000D01*
X46332565Y-30200000D01*
X46004128Y-30265330D01*
X45694748Y-30393479D01*
X45416313Y-30579523D01*
X45179523Y-30816313D01*
X44993479Y-31094748D01*
X44865330Y-31404128D01*
X44800000Y-31732565D01*
X42160000Y-31732565D01*
X42160000Y-23432565D01*
X44800000Y-23432565D01*
X44800000Y-23767435D01*
X44865330Y-24095872D01*
X44993479Y-24405252D01*
X45179523Y-24683687D01*
X45416313Y-24920477D01*
X45694748Y-25106521D01*
X46004128Y-25234670D01*
X46332565Y-25300000D01*
X46667435Y-25300000D01*
X46995872Y-25234670D01*
X47305252Y-25106521D01*
X47583687Y-24920477D01*
X47820477Y-24683687D01*
X48006521Y-24405252D01*
X48134670Y-24095872D01*
X48200000Y-23767435D01*
X48200000Y-23432565D01*
X54800000Y-23432565D01*
X54800000Y-23767435D01*
X54865330Y-24095872D01*
X54993479Y-24405252D01*
X55179523Y-24683687D01*
X55416313Y-24920477D01*
X55694748Y-25106521D01*
X56004128Y-25234670D01*
X56332565Y-25300000D01*
X56667435Y-25300000D01*
X56995872Y-25234670D01*
X57305252Y-25106521D01*
X57583687Y-24920477D01*
X57820477Y-24683687D01*
X58006521Y-24405252D01*
X58134670Y-24095872D01*
X58200000Y-23767435D01*
X58200000Y-23432565D01*
X58134670Y-23104128D01*
X58006521Y-22794748D01*
X57820477Y-22516313D01*
X57583687Y-22279523D01*
X57305252Y-22093479D01*
X57204860Y-22051895D01*
X57465000Y-22053072D01*
X57589482Y-22040812D01*
X57709180Y-22004502D01*
X57819494Y-21945537D01*
X57916185Y-21866185D01*
X57995537Y-21769494D01*
X58054502Y-21659180D01*
X58090812Y-21539482D01*
X58103072Y-21415000D01*
X58100000Y-20785750D01*
X57941250Y-20627000D01*
X56627000Y-20627000D01*
X56627000Y-20647000D01*
X56373000Y-20647000D01*
X56373000Y-20627000D01*
X55058750Y-20627000D01*
X54900000Y-20785750D01*
X54896928Y-21415000D01*
X54909188Y-21539482D01*
X54945498Y-21659180D01*
X55004463Y-21769494D01*
X55083815Y-21866185D01*
X55180506Y-21945537D01*
X55290820Y-22004502D01*
X55410518Y-22040812D01*
X55535000Y-22053072D01*
X55795140Y-22051895D01*
X55694748Y-22093479D01*
X55416313Y-22279523D01*
X55179523Y-22516313D01*
X54993479Y-22794748D01*
X54865330Y-23104128D01*
X54800000Y-23432565D01*
X48200000Y-23432565D01*
X48134670Y-23104128D01*
X48006521Y-22794748D01*
X47820477Y-22516313D01*
X47583687Y-22279523D01*
X47305252Y-22093479D01*
X47204860Y-22051895D01*
X47465000Y-22053072D01*
X47589482Y-22040812D01*
X47709180Y-22004502D01*
X47819494Y-21945537D01*
X47916185Y-21866185D01*
X47995537Y-21769494D01*
X48054502Y-21659180D01*
X48090812Y-21539482D01*
X48103072Y-21415000D01*
X48100000Y-20785750D01*
X47941250Y-20627000D01*
X46627000Y-20627000D01*
X46627000Y-20647000D01*
X46373000Y-20647000D01*
X46373000Y-20627000D01*
X45058750Y-20627000D01*
X44900000Y-20785750D01*
X44896928Y-21415000D01*
X44909188Y-21539482D01*
X44945498Y-21659180D01*
X45004463Y-21769494D01*
X45083815Y-21866185D01*
X45180506Y-21945537D01*
X45290820Y-22004502D01*
X45410518Y-22040812D01*
X45535000Y-22053072D01*
X45795140Y-22051895D01*
X45694748Y-22093479D01*
X45416313Y-22279523D01*
X45179523Y-22516313D01*
X44993479Y-22794748D01*
X44865330Y-23104128D01*
X44800000Y-23432565D01*
X42160000Y-23432565D01*
X42160000Y-19660000D01*
X44897294Y-19660000D01*
X44900000Y-20214250D01*
G37*
X44900000Y-20214250D02*
X45058750Y-20373000D01*
X46373000Y-20373000D01*
X46373000Y-20353000D01*
X46627000Y-20353000D01*
X46627000Y-20373000D01*
X47941250Y-20373000D01*
X48100000Y-20214250D01*
X48102706Y-19660000D01*
X54897294Y-19660000D01*
X54900000Y-20214250D01*
X55058750Y-20373000D01*
X56373000Y-20373000D01*
X56373000Y-20353000D01*
X56627000Y-20353000D01*
X56627000Y-20373000D01*
X57941250Y-20373000D01*
X58100000Y-20214250D01*
X58102706Y-19660000D01*
X60840001Y-19660000D01*
X60840001Y-44088422D01*
X60513060Y-43761482D01*
X60535000Y-43651184D01*
X60535000Y-43348816D01*
X60476011Y-43052257D01*
X60360299Y-42772905D01*
X60192312Y-42521495D01*
X59978505Y-42307688D01*
X59727095Y-42139701D01*
X59447743Y-42023989D01*
X59151184Y-41965000D01*
X58848816Y-41965000D01*
X58552257Y-42023989D01*
X58272905Y-42139701D01*
X58021495Y-42307688D01*
X57807688Y-42521495D01*
X57639701Y-42772905D01*
X57523989Y-43052257D01*
X57465000Y-43348816D01*
X57465000Y-43651184D01*
X57486940Y-43761482D01*
X56904956Y-44343466D01*
X56871183Y-44371183D01*
X56760589Y-44505942D01*
X56678411Y-44659688D01*
X56643157Y-44775904D01*
X56627806Y-44826509D01*
X56627805Y-44826511D01*
X56615000Y-44956524D01*
X56615000Y-44956531D01*
X56610719Y-45000000D01*
X56615000Y-45043469D01*
X56615001Y-46914990D01*
X45246569Y-46914990D01*
X44970539Y-46638960D01*
X44985000Y-46566260D01*
X44985000Y-46273740D01*
X44927932Y-45986842D01*
X44815990Y-45716589D01*
X44653475Y-45473368D01*
X44446632Y-45266525D01*
X44272240Y-45150000D01*
X44446632Y-45033475D01*
X44653475Y-44826632D01*
X44815990Y-44583411D01*
X44927932Y-44313158D01*
X44985000Y-44026260D01*
X44985000Y-43733740D01*
X44927932Y-43446842D01*
X44815990Y-43176589D01*
X44653475Y-42933368D01*
X44446632Y-42726525D01*
X44272240Y-42610000D01*
X44446632Y-42493475D01*
X44653475Y-42286632D01*
X44815990Y-42043411D01*
X44927932Y-41773158D01*
X44955037Y-41636890D01*
X49293425Y-41636890D01*
X49348260Y-41846122D01*
X49510661Y-42202767D01*
X49739520Y-42520876D01*
X50026041Y-42788225D01*
X50359214Y-42994539D01*
X50726235Y-43131890D01*
X51113000Y-43195000D01*
X51373000Y-43195000D01*
X51373000Y-41327000D01*
X51627000Y-41327000D01*
X51627000Y-43195000D01*
X51887000Y-43195000D01*
X52273765Y-43131890D01*
X52640786Y-42994539D01*
X52973959Y-42788225D01*
X53260480Y-42520876D01*
X53489339Y-42202767D01*
X53651740Y-41846122D01*
X53706575Y-41636890D01*
X53591853Y-41327000D01*
X51627000Y-41327000D01*
X51373000Y-41327000D01*
X49408147Y-41327000D01*
X49293425Y-41636890D01*
X44955037Y-41636890D01*
X44985000Y-41486260D01*
X44985000Y-41193740D01*
X44927932Y-40906842D01*
X44868397Y-40763110D01*
X49293425Y-40763110D01*
X49408147Y-41073000D01*
X51373000Y-41073000D01*
X51373000Y-39205000D01*
X51627000Y-39205000D01*
X51627000Y-41073000D01*
X53591853Y-41073000D01*
X53706575Y-40763110D01*
X53651740Y-40553878D01*
X53489339Y-40197233D01*
X53260480Y-39879124D01*
X52973959Y-39611775D01*
X52640786Y-39405461D01*
X52273765Y-39268110D01*
X51887000Y-39205000D01*
X51627000Y-39205000D01*
X51373000Y-39205000D01*
X51113000Y-39205000D01*
X50726235Y-39268110D01*
X50359214Y-39405461D01*
X50026041Y-39611775D01*
X49739520Y-39879124D01*
X49510661Y-40197233D01*
X49348260Y-40553878D01*
X49293425Y-40763110D01*
X44868397Y-40763110D01*
X44815990Y-40636589D01*
X44653475Y-40393368D01*
X44446632Y-40186525D01*
X44272240Y-40070000D01*
X44446632Y-39953475D01*
X44653475Y-39746632D01*
X44815990Y-39503411D01*
X44927932Y-39233158D01*
X44985000Y-38946260D01*
X44985000Y-38653740D01*
X44927932Y-38366842D01*
X44815990Y-38096589D01*
X44653475Y-37853368D01*
X44446632Y-37646525D01*
X44264466Y-37524805D01*
X44381355Y-37455178D01*
X44597588Y-37260269D01*
X44771641Y-37026920D01*
X44896825Y-36764099D01*
X44941476Y-36616890D01*
X44820155Y-36387000D01*
X43627000Y-36387000D01*
X43627000Y-36407000D01*
X43373000Y-36407000D01*
X43373000Y-36387000D01*
X43353000Y-36387000D01*
X43353000Y-36133000D01*
X43373000Y-36133000D01*
X43373000Y-34939186D01*
X43627000Y-34939186D01*
X43627000Y-36133000D01*
X44820155Y-36133000D01*
X44941476Y-35903110D01*
X44896825Y-35755901D01*
X44771641Y-35493080D01*
X44597588Y-35259731D01*
X44381355Y-35064822D01*
X44131252Y-34915843D01*
X43856891Y-34818519D01*
X43627000Y-34939186D01*
X43373000Y-34939186D01*
X43143109Y-34818519D01*
X42868748Y-34915843D01*
X42618645Y-35064822D01*
X42402412Y-35259731D01*
X42228359Y-35493080D01*
X42160000Y-35636598D01*
X42160000Y-34200000D01*
X47061928Y-34200000D01*
X47061928Y-35800000D01*
X47074188Y-35924482D01*
X47110498Y-36044180D01*
X47169463Y-36154494D01*
X47248815Y-36251185D01*
X47345506Y-36330537D01*
X47455820Y-36389502D01*
X47551943Y-36418661D01*
X47385363Y-36585241D01*
X47228320Y-36820273D01*
X47120147Y-37081426D01*
X47065000Y-37358665D01*
X47065000Y-37641335D01*
X47120147Y-37918574D01*
X47228320Y-38179727D01*
X47385363Y-38414759D01*
X47585241Y-38614637D01*
X47820273Y-38771680D01*
X48081426Y-38879853D01*
X48358665Y-38935000D01*
X48641335Y-38935000D01*
X48918574Y-38879853D01*
X49179727Y-38771680D01*
X49414759Y-38614637D01*
X49614637Y-38414759D01*
X49771680Y-38179727D01*
X49879853Y-37918574D01*
X49935000Y-37641335D01*
X49935000Y-37358665D01*
X49879853Y-37081426D01*
X49771680Y-36820273D01*
X49691317Y-36700000D01*
X53061928Y-36700000D01*
X53061928Y-38300000D01*
X53074188Y-38424482D01*
X53110498Y-38544180D01*
X53169463Y-38654494D01*
X53248815Y-38751185D01*
X53345506Y-38830537D01*
X53455820Y-38889502D01*
X53575518Y-38925812D01*
X53700000Y-38938072D01*
X55300000Y-38938072D01*
X55424482Y-38925812D01*
X55544180Y-38889502D01*
X55654494Y-38830537D01*
X55751185Y-38751185D01*
X55830537Y-38654494D01*
X55889502Y-38544180D01*
X55925812Y-38424482D01*
X55938072Y-38300000D01*
X55938072Y-36700000D01*
X55925812Y-36575518D01*
X55889502Y-36455820D01*
X55830537Y-36345506D01*
X55751185Y-36248815D01*
X55654494Y-36169463D01*
X55544180Y-36110498D01*
X55448057Y-36081339D01*
X55614637Y-35914759D01*
X55771680Y-35679727D01*
X55879853Y-35418574D01*
X55935000Y-35141335D01*
X55935000Y-34858665D01*
X55879853Y-34581426D01*
X55771680Y-34320273D01*
X55614637Y-34085241D01*
X55414759Y-33885363D01*
X55179727Y-33728320D01*
X54918574Y-33620147D01*
X54641335Y-33565000D01*
X54358665Y-33565000D01*
X54081426Y-33620147D01*
X53820273Y-33728320D01*
X53585241Y-33885363D01*
X53385363Y-34085241D01*
X53228320Y-34320273D01*
X53120147Y-34581426D01*
X53065000Y-34858665D01*
X53065000Y-35141335D01*
X53120147Y-35418574D01*
X53228320Y-35679727D01*
X53385363Y-35914759D01*
X53551943Y-36081339D01*
X53455820Y-36110498D01*
X53345506Y-36169463D01*
X53248815Y-36248815D01*
X53169463Y-36345506D01*
X53110498Y-36455820D01*
X53074188Y-36575518D01*
X53061928Y-36700000D01*
X49691317Y-36700000D01*
X49614637Y-36585241D01*
X49448057Y-36418661D01*
X49544180Y-36389502D01*
X49654494Y-36330537D01*
X49751185Y-36251185D01*
X49830537Y-36154494D01*
X49889502Y-36044180D01*
X49925812Y-35924482D01*
X49938072Y-35800000D01*
X49938072Y-34200000D01*
X49925812Y-34075518D01*
X49889502Y-33955820D01*
X49830537Y-33845506D01*
X49751185Y-33748815D01*
X49654494Y-33669463D01*
X49544180Y-33610498D01*
X49424482Y-33574188D01*
X49300000Y-33561928D01*
X47700000Y-33561928D01*
X47575518Y-33574188D01*
X47455820Y-33610498D01*
X47345506Y-33669463D01*
X47248815Y-33748815D01*
X47169463Y-33845506D01*
X47110498Y-33955820D01*
X47074188Y-34075518D01*
X47061928Y-34200000D01*
X42160000Y-34200000D01*
X42160000Y-31732565D01*
X44800000Y-31732565D01*
X44800000Y-32067435D01*
X44865330Y-32395872D01*
X44993479Y-32705252D01*
X45179523Y-32983687D01*
X45416313Y-33220477D01*
X45694748Y-33406521D01*
X46004128Y-33534670D01*
X46332565Y-33600000D01*
X46667435Y-33600000D01*
X46995872Y-33534670D01*
X47305252Y-33406521D01*
X47583687Y-33220477D01*
X47820477Y-32983687D01*
X48006521Y-32705252D01*
X48134670Y-32395872D01*
X48200000Y-32067435D01*
X48200000Y-31732565D01*
X54800000Y-31732565D01*
X54800000Y-32067435D01*
X54865330Y-32395872D01*
X54993479Y-32705252D01*
X55179523Y-32983687D01*
X55416313Y-33220477D01*
X55694748Y-33406521D01*
X56004128Y-33534670D01*
X56332565Y-33600000D01*
X56667435Y-33600000D01*
X56995872Y-33534670D01*
X57305252Y-33406521D01*
X57583687Y-33220477D01*
X57820477Y-32983687D01*
X58006521Y-32705252D01*
X58134670Y-32395872D01*
X58200000Y-32067435D01*
X58200000Y-31732565D01*
X58134670Y-31404128D01*
X58006521Y-31094748D01*
X57820477Y-30816313D01*
X57583687Y-30579523D01*
X57305252Y-30393479D01*
X56995872Y-30265330D01*
X56667435Y-30200000D01*
X56332565Y-30200000D01*
X56004128Y-30265330D01*
X55694748Y-30393479D01*
X55416313Y-30579523D01*
X55179523Y-30816313D01*
X54993479Y-31094748D01*
X54865330Y-31404128D01*
X54800000Y-31732565D01*
X48200000Y-31732565D01*
X48134670Y-31404128D01*
X48006521Y-31094748D01*
X47820477Y-30816313D01*
X47583687Y-30579523D01*
X47305252Y-30393479D01*
X46995872Y-30265330D01*
X46667435Y-30200000D01*
X46332565Y-30200000D01*
X46004128Y-30265330D01*
X45694748Y-30393479D01*
X45416313Y-30579523D01*
X45179523Y-30816313D01*
X44993479Y-31094748D01*
X44865330Y-31404128D01*
X44800000Y-31732565D01*
X42160000Y-31732565D01*
X42160000Y-23432565D01*
X44800000Y-23432565D01*
X44800000Y-23767435D01*
X44865330Y-24095872D01*
X44993479Y-24405252D01*
X45179523Y-24683687D01*
X45416313Y-24920477D01*
X45694748Y-25106521D01*
X46004128Y-25234670D01*
X46332565Y-25300000D01*
X46667435Y-25300000D01*
X46995872Y-25234670D01*
X47305252Y-25106521D01*
X47583687Y-24920477D01*
X47820477Y-24683687D01*
X48006521Y-24405252D01*
X48134670Y-24095872D01*
X48200000Y-23767435D01*
X48200000Y-23432565D01*
X54800000Y-23432565D01*
X54800000Y-23767435D01*
X54865330Y-24095872D01*
X54993479Y-24405252D01*
X55179523Y-24683687D01*
X55416313Y-24920477D01*
X55694748Y-25106521D01*
X56004128Y-25234670D01*
X56332565Y-25300000D01*
X56667435Y-25300000D01*
X56995872Y-25234670D01*
X57305252Y-25106521D01*
X57583687Y-24920477D01*
X57820477Y-24683687D01*
X58006521Y-24405252D01*
X58134670Y-24095872D01*
X58200000Y-23767435D01*
X58200000Y-23432565D01*
X58134670Y-23104128D01*
X58006521Y-22794748D01*
X57820477Y-22516313D01*
X57583687Y-22279523D01*
X57305252Y-22093479D01*
X57204860Y-22051895D01*
X57465000Y-22053072D01*
X57589482Y-22040812D01*
X57709180Y-22004502D01*
X57819494Y-21945537D01*
X57916185Y-21866185D01*
X57995537Y-21769494D01*
X58054502Y-21659180D01*
X58090812Y-21539482D01*
X58103072Y-21415000D01*
X58100000Y-20785750D01*
X57941250Y-20627000D01*
X56627000Y-20627000D01*
X56627000Y-20647000D01*
X56373000Y-20647000D01*
X56373000Y-20627000D01*
X55058750Y-20627000D01*
X54900000Y-20785750D01*
X54896928Y-21415000D01*
X54909188Y-21539482D01*
X54945498Y-21659180D01*
X55004463Y-21769494D01*
X55083815Y-21866185D01*
X55180506Y-21945537D01*
X55290820Y-22004502D01*
X55410518Y-22040812D01*
X55535000Y-22053072D01*
X55795140Y-22051895D01*
X55694748Y-22093479D01*
X55416313Y-22279523D01*
X55179523Y-22516313D01*
X54993479Y-22794748D01*
X54865330Y-23104128D01*
X54800000Y-23432565D01*
X48200000Y-23432565D01*
X48134670Y-23104128D01*
X48006521Y-22794748D01*
X47820477Y-22516313D01*
X47583687Y-22279523D01*
X47305252Y-22093479D01*
X47204860Y-22051895D01*
X47465000Y-22053072D01*
X47589482Y-22040812D01*
X47709180Y-22004502D01*
X47819494Y-21945537D01*
X47916185Y-21866185D01*
X47995537Y-21769494D01*
X48054502Y-21659180D01*
X48090812Y-21539482D01*
X48103072Y-21415000D01*
X48100000Y-20785750D01*
X47941250Y-20627000D01*
X46627000Y-20627000D01*
X46627000Y-20647000D01*
X46373000Y-20647000D01*
X46373000Y-20627000D01*
X45058750Y-20627000D01*
X44900000Y-20785750D01*
X44896928Y-21415000D01*
X44909188Y-21539482D01*
X44945498Y-21659180D01*
X45004463Y-21769494D01*
X45083815Y-21866185D01*
X45180506Y-21945537D01*
X45290820Y-22004502D01*
X45410518Y-22040812D01*
X45535000Y-22053072D01*
X45795140Y-22051895D01*
X45694748Y-22093479D01*
X45416313Y-22279523D01*
X45179523Y-22516313D01*
X44993479Y-22794748D01*
X44865330Y-23104128D01*
X44800000Y-23432565D01*
X42160000Y-23432565D01*
X42160000Y-19660000D01*
X44897294Y-19660000D01*
X44900000Y-20214250D01*
%TO.N,GND*%
G36*
X20833468Y-41095049D02*
G01*
X20861181Y-41128817D01*
X20894949Y-41156530D01*
X20894951Y-41156532D01*
X20966194Y-41215000D01*
X20995939Y-41239411D01*
X21149685Y-41321589D01*
X21265901Y-41356843D01*
X21316507Y-41372195D01*
X21331304Y-41373652D01*
X21446521Y-41385000D01*
X21446529Y-41385000D01*
X21462570Y-41386580D01*
X21465000Y-41714250D01*
X21623750Y-41873000D01*
X22548000Y-41873000D01*
X22548000Y-41853000D01*
X22802000Y-41853000D01*
X22802000Y-41873000D01*
X22822000Y-41873000D01*
X22822000Y-42127000D01*
X22802000Y-42127000D01*
X22802000Y-43176250D01*
X22960750Y-43335000D01*
X23250000Y-43338072D01*
X23374482Y-43325812D01*
X23494180Y-43289502D01*
X23604494Y-43230537D01*
X23701185Y-43151185D01*
X23766658Y-43071406D01*
X23772038Y-43077962D01*
X23906613Y-43188405D01*
X24060149Y-43270472D01*
X24226745Y-43321008D01*
X24399999Y-43338072D01*
X25050001Y-43338072D01*
X25223255Y-43321008D01*
X25389851Y-43270472D01*
X25543387Y-43188405D01*
X25677962Y-43077962D01*
X25700000Y-43051109D01*
X25722038Y-43077962D01*
X25856613Y-43188405D01*
X26010149Y-43270472D01*
X26176745Y-43321008D01*
X26349999Y-43338072D01*
X26815001Y-43338072D01*
X26815001Y-43968740D01*
X26647503Y-44136238D01*
X26499215Y-44358167D01*
X26397072Y-44604761D01*
X26345000Y-44866544D01*
X26345000Y-45133456D01*
X26397072Y-45395239D01*
X26499215Y-45641833D01*
X26647503Y-45863762D01*
X26836238Y-46052497D01*
X27058167Y-46200785D01*
X27304761Y-46302928D01*
X27534999Y-46348725D01*
X27534999Y-48169524D01*
X27531808Y-48167818D01*
X27261309Y-48085764D01*
X27050492Y-48065000D01*
X26109508Y-48065000D01*
X25898691Y-48085764D01*
X25628192Y-48167818D01*
X25378899Y-48301068D01*
X25160392Y-48480392D01*
X25053970Y-48610067D01*
X25004494Y-48569463D01*
X24894180Y-48510498D01*
X24774482Y-48474188D01*
X24650000Y-48461928D01*
X23750000Y-48461928D01*
X23625518Y-48474188D01*
X23505820Y-48510498D01*
X23395506Y-48569463D01*
X23298815Y-48648815D01*
X23288072Y-48661905D01*
X23288072Y-48150000D01*
X23275812Y-48025518D01*
X23239502Y-47905820D01*
X23180537Y-47795506D01*
X23101185Y-47698815D01*
X23004494Y-47619463D01*
X22894180Y-47560498D01*
X22774482Y-47524188D01*
X22650000Y-47511928D01*
X21750000Y-47511928D01*
X21625518Y-47524188D01*
X21505820Y-47560498D01*
X21395506Y-47619463D01*
X21298815Y-47698815D01*
X21219463Y-47795506D01*
X21160498Y-47905820D01*
X21124188Y-48025518D01*
X21111928Y-48150000D01*
X21111928Y-48950000D01*
X21124188Y-49074482D01*
X21160498Y-49194180D01*
X21219463Y-49304494D01*
X21298815Y-49401185D01*
X21395506Y-49480537D01*
X21431918Y-49500000D01*
X21395506Y-49519463D01*
X21298815Y-49598815D01*
X21219463Y-49695506D01*
X21160498Y-49805820D01*
X21124188Y-49925518D01*
X21111928Y-50050000D01*
X21115000Y-50164250D01*
X21273750Y-50323000D01*
X22073000Y-50323000D01*
X22073000Y-50303000D01*
X22327000Y-50303000D01*
X22327000Y-50323000D01*
X23126250Y-50323000D01*
X23210857Y-50238393D01*
X23219463Y-50254494D01*
X23298815Y-50351185D01*
X23395506Y-50430537D01*
X23505820Y-50489502D01*
X23625518Y-50525812D01*
X23750000Y-50538072D01*
X24650000Y-50538072D01*
X24774482Y-50525812D01*
X24894180Y-50489502D01*
X25004494Y-50430537D01*
X25053970Y-50389933D01*
X25160392Y-50519608D01*
X25378899Y-50698932D01*
X25511858Y-50770000D01*
X25378899Y-50841068D01*
X25160392Y-51020392D01*
X24981068Y-51238899D01*
X24847818Y-51488192D01*
X24765764Y-51758691D01*
X24738057Y-52040000D01*
X24765764Y-52321309D01*
X24847818Y-52591808D01*
X24981068Y-52841101D01*
X25160392Y-53059608D01*
X25378899Y-53238932D01*
X25511858Y-53310000D01*
X25378899Y-53381068D01*
X25160392Y-53560392D01*
X24981068Y-53778899D01*
X24961772Y-53815000D01*
X24871944Y-53815000D01*
X24870472Y-53810149D01*
X24788405Y-53656613D01*
X24677962Y-53522038D01*
X24543387Y-53411595D01*
X24389851Y-53329528D01*
X24223255Y-53278992D01*
X24050001Y-53261928D01*
X23399999Y-53261928D01*
X23226745Y-53278992D01*
X23060149Y-53329528D01*
X22906613Y-53411595D01*
X22772038Y-53522038D01*
X22766658Y-53528594D01*
X22701185Y-53448815D01*
X22604494Y-53369463D01*
X22494180Y-53310498D01*
X22374482Y-53274188D01*
X22250000Y-53261928D01*
X21960750Y-53265000D01*
X21802000Y-53423750D01*
X21802000Y-54473000D01*
X21822000Y-54473000D01*
X21822000Y-54727000D01*
X21802000Y-54727000D01*
X21802000Y-55776250D01*
X21960750Y-55935000D01*
X22250000Y-55938072D01*
X22374482Y-55925812D01*
X22494180Y-55889502D01*
X22604494Y-55830537D01*
X22701185Y-55751185D01*
X22766658Y-55671406D01*
X22772038Y-55677962D01*
X22906613Y-55788405D01*
X23060149Y-55870472D01*
X23226745Y-55921008D01*
X23399999Y-55938072D01*
X24050001Y-55938072D01*
X24223255Y-55921008D01*
X24389851Y-55870472D01*
X24543387Y-55788405D01*
X24677962Y-55677962D01*
X24788405Y-55543387D01*
X24870472Y-55389851D01*
X24871944Y-55385000D01*
X24984268Y-55385000D01*
X25160392Y-55599608D01*
X25378899Y-55778932D01*
X25511858Y-55850000D01*
X25378899Y-55921068D01*
X25160392Y-56100392D01*
X24981068Y-56318899D01*
X24847818Y-56568192D01*
X24765764Y-56838691D01*
X24738057Y-57120000D01*
X24765764Y-57401309D01*
X24847818Y-57671808D01*
X24981068Y-57921101D01*
X25160392Y-58139608D01*
X25378899Y-58318932D01*
X25511858Y-58390000D01*
X25378899Y-58461068D01*
X25160392Y-58640392D01*
X24981068Y-58858899D01*
X24847818Y-59108192D01*
X24765764Y-59378691D01*
X24738057Y-59660000D01*
X24765764Y-59941309D01*
X24847818Y-60211808D01*
X24872276Y-60257567D01*
X23197185Y-61932658D01*
X23167237Y-61957236D01*
X23142659Y-61987184D01*
X23142655Y-61987188D01*
X23127265Y-62005941D01*
X23069139Y-62076767D01*
X23030177Y-62149660D01*
X22996246Y-62213141D01*
X22951359Y-62361114D01*
X22936203Y-62515000D01*
X22940001Y-62553563D01*
X22940001Y-63493749D01*
X22906613Y-63511595D01*
X22772038Y-63622038D01*
X22766658Y-63628594D01*
X22701185Y-63548815D01*
X22604494Y-63469463D01*
X22494180Y-63410498D01*
X22374482Y-63374188D01*
X22250000Y-63361928D01*
X21960750Y-63365000D01*
X21802000Y-63523750D01*
X21802000Y-64573000D01*
X21822000Y-64573000D01*
X21822000Y-64827000D01*
X21802000Y-64827000D01*
X21802000Y-65876250D01*
X21960750Y-66035000D01*
X22250000Y-66038072D01*
X22374482Y-66025812D01*
X22494180Y-65989502D01*
X22604494Y-65930537D01*
X22701185Y-65851185D01*
X22766658Y-65771406D01*
X22772038Y-65777962D01*
X22906613Y-65888405D01*
X23060149Y-65970472D01*
X23226745Y-66021008D01*
X23399999Y-66038072D01*
X24050001Y-66038072D01*
X24223255Y-66021008D01*
X24389851Y-65970472D01*
X24543387Y-65888405D01*
X24677962Y-65777962D01*
X24788405Y-65643387D01*
X24870472Y-65489851D01*
X24871944Y-65485000D01*
X24951081Y-65485000D01*
X24981068Y-65541101D01*
X25160392Y-65759608D01*
X25378899Y-65938932D01*
X25511858Y-66010000D01*
X25378899Y-66081068D01*
X25160392Y-66260392D01*
X24981068Y-66478899D01*
X24847818Y-66728192D01*
X24765764Y-66998691D01*
X24738057Y-67280000D01*
X24765764Y-67561309D01*
X24847818Y-67831808D01*
X24981068Y-68081101D01*
X25160392Y-68299608D01*
X25378899Y-68478932D01*
X25628192Y-68612182D01*
X25898691Y-68694236D01*
X26109508Y-68715000D01*
X27050492Y-68715000D01*
X27261309Y-68694236D01*
X27345011Y-68668846D01*
X27345010Y-87103411D01*
X23386494Y-91061928D01*
X22400000Y-91061928D01*
X22275518Y-91074188D01*
X22155820Y-91110498D01*
X22045506Y-91169463D01*
X21948815Y-91248815D01*
X21869463Y-91345506D01*
X21810498Y-91455820D01*
X21774188Y-91575518D01*
X21761928Y-91700000D01*
X21761928Y-93300000D01*
X21774188Y-93424482D01*
X21810498Y-93544180D01*
X21869463Y-93654494D01*
X21948815Y-93751185D01*
X22045506Y-93830537D01*
X22155820Y-93889502D01*
X22275518Y-93925812D01*
X22315001Y-93929701D01*
X22315000Y-99515375D01*
X22225518Y-99524188D01*
X22105820Y-99560498D01*
X21995506Y-99619463D01*
X21898815Y-99698815D01*
X21819463Y-99795506D01*
X21760498Y-99905820D01*
X21724188Y-100025518D01*
X21711928Y-100150000D01*
X21711928Y-101850000D01*
X21724188Y-101974482D01*
X21760498Y-102094180D01*
X21819463Y-102204494D01*
X21898815Y-102301185D01*
X21995506Y-102380537D01*
X22105820Y-102439502D01*
X22178380Y-102461513D01*
X22046525Y-102593368D01*
X21884010Y-102836589D01*
X21772068Y-103106842D01*
X21715000Y-103393740D01*
X21715000Y-103686260D01*
X21772068Y-103973158D01*
X21884010Y-104243411D01*
X22046525Y-104486632D01*
X22253368Y-104693475D01*
X22496589Y-104855990D01*
X22766842Y-104967932D01*
X23053740Y-105025000D01*
X23346260Y-105025000D01*
X23633158Y-104967932D01*
X23903411Y-104855990D01*
X24146632Y-104693475D01*
X24353475Y-104486632D01*
X24475195Y-104304466D01*
X24544822Y-104421355D01*
X24739731Y-104637588D01*
X24973080Y-104811641D01*
X25235901Y-104936825D01*
X25383110Y-104981476D01*
X25613000Y-104860155D01*
X25613000Y-103667000D01*
X25867000Y-103667000D01*
X25867000Y-104860155D01*
X26096890Y-104981476D01*
X26244099Y-104936825D01*
X26506920Y-104811641D01*
X26740269Y-104637588D01*
X26935178Y-104421355D01*
X27010000Y-104295745D01*
X27084822Y-104421355D01*
X27279731Y-104637588D01*
X27513080Y-104811641D01*
X27775901Y-104936825D01*
X27923110Y-104981476D01*
X28153000Y-104860155D01*
X28153000Y-103667000D01*
X28407000Y-103667000D01*
X28407000Y-104860155D01*
X28636890Y-104981476D01*
X28784099Y-104936825D01*
X29046920Y-104811641D01*
X29280269Y-104637588D01*
X29475178Y-104421355D01*
X29550000Y-104295745D01*
X29624822Y-104421355D01*
X29819731Y-104637588D01*
X30053080Y-104811641D01*
X30315901Y-104936825D01*
X30463110Y-104981476D01*
X30693000Y-104860155D01*
X30693000Y-103667000D01*
X28407000Y-103667000D01*
X28153000Y-103667000D01*
X25867000Y-103667000D01*
X25613000Y-103667000D01*
X25593000Y-103667000D01*
X25593000Y-103413000D01*
X25613000Y-103413000D01*
X25613000Y-101127000D01*
X25867000Y-101127000D01*
X25867000Y-103413000D01*
X28153000Y-103413000D01*
X28153000Y-101127000D01*
X28407000Y-101127000D01*
X28407000Y-103413000D01*
X30693000Y-103413000D01*
X30693000Y-101127000D01*
X28407000Y-101127000D01*
X28153000Y-101127000D01*
X25867000Y-101127000D01*
X25613000Y-101127000D01*
X25593000Y-101127000D01*
X25593000Y-100873000D01*
X25613000Y-100873000D01*
X25613000Y-99679845D01*
X25867000Y-99679845D01*
X25867000Y-100873000D01*
X28153000Y-100873000D01*
X28153000Y-99679845D01*
X28407000Y-99679845D01*
X28407000Y-100873000D01*
X30693000Y-100873000D01*
X30693000Y-99679845D01*
X30463110Y-99558524D01*
X30315901Y-99603175D01*
X30053080Y-99728359D01*
X29819731Y-99902412D01*
X29624822Y-100118645D01*
X29550000Y-100244255D01*
X29475178Y-100118645D01*
X29280269Y-99902412D01*
X29046920Y-99728359D01*
X28784099Y-99603175D01*
X28636890Y-99558524D01*
X28407000Y-99679845D01*
X28153000Y-99679845D01*
X27923110Y-99558524D01*
X27775901Y-99603175D01*
X27513080Y-99728359D01*
X27279731Y-99902412D01*
X27084822Y-100118645D01*
X27010000Y-100244255D01*
X26935178Y-100118645D01*
X26740269Y-99902412D01*
X26506920Y-99728359D01*
X26244099Y-99603175D01*
X26096890Y-99558524D01*
X25867000Y-99679845D01*
X25613000Y-99679845D01*
X25383110Y-99558524D01*
X25235901Y-99603175D01*
X24973080Y-99728359D01*
X24739731Y-99902412D01*
X24663966Y-99986466D01*
X24639502Y-99905820D01*
X24580537Y-99795506D01*
X24501185Y-99698815D01*
X24404494Y-99619463D01*
X24294180Y-99560498D01*
X24174482Y-99524188D01*
X24085000Y-99515375D01*
X24085000Y-93929701D01*
X24124482Y-93925812D01*
X24244180Y-93889502D01*
X24354494Y-93830537D01*
X24451185Y-93751185D01*
X24530537Y-93654494D01*
X24589502Y-93544180D01*
X24605117Y-93492702D01*
X24886903Y-93492702D01*
X24958486Y-93736671D01*
X25213996Y-93857571D01*
X25488184Y-93926300D01*
X25770512Y-93940217D01*
X26050130Y-93898787D01*
X26316292Y-93803603D01*
X26441514Y-93736671D01*
X26513097Y-93492702D01*
X25700000Y-92679605D01*
X24886903Y-93492702D01*
X24605117Y-93492702D01*
X24625812Y-93424482D01*
X24638072Y-93300000D01*
X24638072Y-93292785D01*
X24707298Y-93313097D01*
X25520395Y-92500000D01*
X25879605Y-92500000D01*
X26692702Y-93313097D01*
X26737339Y-93300000D01*
X29261928Y-93300000D01*
X29274188Y-93424482D01*
X29310498Y-93544180D01*
X29369463Y-93654494D01*
X29448815Y-93751185D01*
X29545506Y-93830537D01*
X29655820Y-93889502D01*
X29775518Y-93925812D01*
X29900000Y-93938072D01*
X30414250Y-93935000D01*
X30573000Y-93776250D01*
X30573000Y-92627000D01*
X29423750Y-92627000D01*
X29265000Y-92785750D01*
X29261928Y-93300000D01*
X26737339Y-93300000D01*
X26936671Y-93241514D01*
X27057571Y-92986004D01*
X27126300Y-92711816D01*
X27140217Y-92429488D01*
X27098787Y-92149870D01*
X27003603Y-91883708D01*
X26936671Y-91758486D01*
X26737340Y-91700000D01*
X29261928Y-91700000D01*
X29265000Y-92214250D01*
X29423750Y-92373000D01*
X30573000Y-92373000D01*
X30573000Y-91223750D01*
X30414250Y-91065000D01*
X29900000Y-91061928D01*
X29775518Y-91074188D01*
X29655820Y-91110498D01*
X29545506Y-91169463D01*
X29448815Y-91248815D01*
X29369463Y-91345506D01*
X29310498Y-91455820D01*
X29274188Y-91575518D01*
X29261928Y-91700000D01*
X26737340Y-91700000D01*
X26692702Y-91686903D01*
X25879605Y-92500000D01*
X25520395Y-92500000D01*
X25506253Y-92485858D01*
X25685858Y-92306253D01*
X25700000Y-92320395D01*
X26513097Y-91507298D01*
X26441514Y-91263329D01*
X26186004Y-91142429D01*
X25911816Y-91073700D01*
X25879473Y-91072106D01*
X28825061Y-88126518D01*
X28858827Y-88098807D01*
X28969421Y-87964049D01*
X29051599Y-87810303D01*
X29102205Y-87643480D01*
X29115010Y-87513467D01*
X29115010Y-87513457D01*
X29119291Y-87469991D01*
X29115010Y-87426525D01*
X29115010Y-63893479D01*
X29119291Y-63850010D01*
X29115010Y-63806541D01*
X29115010Y-63806533D01*
X29102205Y-63676520D01*
X29063466Y-63548815D01*
X29051599Y-63509696D01*
X28969421Y-63355951D01*
X28886542Y-63254963D01*
X28886540Y-63254961D01*
X28858827Y-63221193D01*
X28825059Y-63193480D01*
X28328754Y-62697176D01*
X28394236Y-62481309D01*
X28421943Y-62200000D01*
X28394236Y-61918691D01*
X28328754Y-61702824D01*
X29015048Y-61016531D01*
X29048816Y-60988818D01*
X29159410Y-60854060D01*
X29229206Y-60723480D01*
X29241588Y-60700315D01*
X29292194Y-60533491D01*
X29304999Y-60403478D01*
X29304999Y-60403470D01*
X29309280Y-60360001D01*
X29304999Y-60316532D01*
X29304999Y-45981258D01*
X29376238Y-46052497D01*
X29598167Y-46200785D01*
X29844761Y-46302928D01*
X30106544Y-46355000D01*
X30373456Y-46355000D01*
X30635239Y-46302928D01*
X30881833Y-46200785D01*
X31103762Y-46052497D01*
X31292497Y-45863762D01*
X31440785Y-45641833D01*
X31510000Y-45474734D01*
X31579215Y-45641833D01*
X31664991Y-45770206D01*
X31664990Y-60506521D01*
X31660709Y-60549990D01*
X31664990Y-60593459D01*
X31664990Y-60593466D01*
X31677795Y-60723479D01*
X31728401Y-60890302D01*
X31810579Y-61044048D01*
X31921173Y-61178807D01*
X31954946Y-61206524D01*
X32451246Y-61702824D01*
X32385764Y-61918691D01*
X32358057Y-62200000D01*
X32385764Y-62481309D01*
X32467818Y-62751808D01*
X32547514Y-62900908D01*
X31804952Y-63643470D01*
X31771185Y-63671182D01*
X31743472Y-63704950D01*
X31743469Y-63704953D01*
X31660591Y-63805940D01*
X31578413Y-63959686D01*
X31527806Y-64126509D01*
X31510720Y-64299999D01*
X31515002Y-64343478D01*
X31515001Y-76256530D01*
X31510720Y-76299999D01*
X31515001Y-76343468D01*
X31515001Y-76343475D01*
X31515002Y-76343485D01*
X31515001Y-86756530D01*
X31510720Y-86799999D01*
X31515001Y-86843468D01*
X31515001Y-86843475D01*
X31515002Y-86843485D01*
X31515001Y-91063405D01*
X31500000Y-91061928D01*
X30985750Y-91065000D01*
X30827000Y-91223750D01*
X30827000Y-92373000D01*
X30847000Y-92373000D01*
X30847000Y-92627000D01*
X30827000Y-92627000D01*
X30827000Y-93776250D01*
X30985750Y-93935000D01*
X31500000Y-93938072D01*
X31624482Y-93925812D01*
X31744180Y-93889502D01*
X31854494Y-93830537D01*
X31951185Y-93751185D01*
X32030537Y-93654494D01*
X32089502Y-93544180D01*
X32118661Y-93448057D01*
X32285241Y-93614637D01*
X32475001Y-93741430D01*
X32475000Y-99805344D01*
X32413368Y-99846525D01*
X32206525Y-100053368D01*
X32084805Y-100235534D01*
X32015178Y-100118645D01*
X31820269Y-99902412D01*
X31586920Y-99728359D01*
X31324099Y-99603175D01*
X31176890Y-99558524D01*
X30947000Y-99679845D01*
X30947000Y-100873000D01*
X30967000Y-100873000D01*
X30967000Y-101127000D01*
X30947000Y-101127000D01*
X30947000Y-103413000D01*
X30967000Y-103413000D01*
X30967000Y-103667000D01*
X30947000Y-103667000D01*
X30947000Y-104860155D01*
X31176890Y-104981476D01*
X31324099Y-104936825D01*
X31586920Y-104811641D01*
X31820269Y-104637588D01*
X32015178Y-104421355D01*
X32084805Y-104304466D01*
X32206525Y-104486632D01*
X32413368Y-104693475D01*
X32656589Y-104855990D01*
X32926842Y-104967932D01*
X33213740Y-105025000D01*
X33506260Y-105025000D01*
X33793158Y-104967932D01*
X34063411Y-104855990D01*
X34306632Y-104693475D01*
X34513475Y-104486632D01*
X34675990Y-104243411D01*
X34787932Y-103973158D01*
X34845000Y-103686260D01*
X34845000Y-103393740D01*
X34787932Y-103106842D01*
X34675990Y-102836589D01*
X34513475Y-102593368D01*
X34306632Y-102386525D01*
X34245000Y-102345344D01*
X34245000Y-102194656D01*
X34306632Y-102153475D01*
X34513475Y-101946632D01*
X34675990Y-101703411D01*
X34787932Y-101433158D01*
X34845000Y-101146260D01*
X34845000Y-100853740D01*
X34787932Y-100566842D01*
X34675990Y-100296589D01*
X34513475Y-100053368D01*
X34306632Y-99846525D01*
X34245000Y-99805344D01*
X34245000Y-93484396D01*
X34314637Y-93414759D01*
X34471680Y-93179727D01*
X34579853Y-92918574D01*
X34635000Y-92641335D01*
X34635000Y-92358665D01*
X34579853Y-92081426D01*
X34471680Y-91820273D01*
X34314637Y-91585241D01*
X34114759Y-91385363D01*
X33879727Y-91228320D01*
X33618574Y-91120147D01*
X33341335Y-91065000D01*
X33285001Y-91065000D01*
X33285001Y-89650000D01*
X36661928Y-89650000D01*
X36674188Y-89774482D01*
X36710498Y-89894180D01*
X36769463Y-90004494D01*
X36848815Y-90101185D01*
X36945506Y-90180537D01*
X37055820Y-90239502D01*
X37175518Y-90275812D01*
X37300000Y-90288072D01*
X37864250Y-90285000D01*
X38023000Y-90126250D01*
X38023000Y-88927000D01*
X36823750Y-88927000D01*
X36665000Y-89085750D01*
X36661928Y-89650000D01*
X33285001Y-89650000D01*
X33285001Y-87838072D01*
X33500001Y-87838072D01*
X33673255Y-87821008D01*
X33839851Y-87770472D01*
X33993387Y-87688405D01*
X34127962Y-87577962D01*
X34200000Y-87490184D01*
X34272038Y-87577962D01*
X34406613Y-87688405D01*
X34560149Y-87770472D01*
X34726745Y-87821008D01*
X34899999Y-87838072D01*
X35550001Y-87838072D01*
X35723255Y-87821008D01*
X35889851Y-87770472D01*
X36043387Y-87688405D01*
X36177962Y-87577962D01*
X36288405Y-87443387D01*
X36370472Y-87289851D01*
X36421008Y-87123255D01*
X36428715Y-87045000D01*
X36888526Y-87045000D01*
X36996525Y-87206632D01*
X37128380Y-87338487D01*
X37055820Y-87360498D01*
X36945506Y-87419463D01*
X36848815Y-87498815D01*
X36769463Y-87595506D01*
X36710498Y-87705820D01*
X36674188Y-87825518D01*
X36661928Y-87950000D01*
X36665000Y-88514250D01*
X36823750Y-88673000D01*
X38023000Y-88673000D01*
X38023000Y-88653000D01*
X38277000Y-88653000D01*
X38277000Y-88673000D01*
X38297000Y-88673000D01*
X38297000Y-88927000D01*
X38277000Y-88927000D01*
X38277000Y-90126250D01*
X38435750Y-90285000D01*
X39000000Y-90288072D01*
X39124482Y-90275812D01*
X39244180Y-90239502D01*
X39354494Y-90180537D01*
X39440001Y-90110364D01*
X39440000Y-105440000D01*
X20760000Y-105440000D01*
X20760000Y-65938284D01*
X20855820Y-65989502D01*
X20975518Y-66025812D01*
X21100000Y-66038072D01*
X21389250Y-66035000D01*
X21548000Y-65876250D01*
X21548000Y-64827000D01*
X21528000Y-64827000D01*
X21528000Y-64573000D01*
X21548000Y-64573000D01*
X21548000Y-63523750D01*
X21389250Y-63365000D01*
X21100000Y-63361928D01*
X20975518Y-63374188D01*
X20855820Y-63410498D01*
X20760000Y-63461716D01*
X20760000Y-55838284D01*
X20855820Y-55889502D01*
X20975518Y-55925812D01*
X21100000Y-55938072D01*
X21389250Y-55935000D01*
X21548000Y-55776250D01*
X21548000Y-54727000D01*
X21528000Y-54727000D01*
X21528000Y-54473000D01*
X21548000Y-54473000D01*
X21548000Y-53423750D01*
X21389250Y-53265000D01*
X21100000Y-53261928D01*
X20975518Y-53274188D01*
X20855820Y-53310498D01*
X20760000Y-53361716D01*
X20760000Y-50850000D01*
X21111928Y-50850000D01*
X21124188Y-50974482D01*
X21160498Y-51094180D01*
X21219463Y-51204494D01*
X21298815Y-51301185D01*
X21395506Y-51380537D01*
X21505820Y-51439502D01*
X21625518Y-51475812D01*
X21750000Y-51488072D01*
X21914250Y-51485000D01*
X22073000Y-51326250D01*
X22073000Y-50577000D01*
X22327000Y-50577000D01*
X22327000Y-51326250D01*
X22485750Y-51485000D01*
X22650000Y-51488072D01*
X22774482Y-51475812D01*
X22894180Y-51439502D01*
X23004494Y-51380537D01*
X23101185Y-51301185D01*
X23180537Y-51204494D01*
X23239502Y-51094180D01*
X23275812Y-50974482D01*
X23288072Y-50850000D01*
X23285000Y-50735750D01*
X23126250Y-50577000D01*
X22327000Y-50577000D01*
X22073000Y-50577000D01*
X21273750Y-50577000D01*
X21115000Y-50735750D01*
X21111928Y-50850000D01*
X20760000Y-50850000D01*
X20760000Y-42700000D01*
X21461928Y-42700000D01*
X21474188Y-42824482D01*
X21510498Y-42944180D01*
X21569463Y-43054494D01*
X21648815Y-43151185D01*
X21745506Y-43230537D01*
X21855820Y-43289502D01*
X21975518Y-43325812D01*
X22100000Y-43338072D01*
X22389250Y-43335000D01*
X22548000Y-43176250D01*
X22548000Y-42127000D01*
X21623750Y-42127000D01*
X21465000Y-42285750D01*
X21461928Y-42700000D01*
X20760000Y-42700000D01*
X20760000Y-41021581D01*
X20833468Y-41095049D01*
G37*
X20833468Y-41095049D02*
X20861181Y-41128817D01*
X20894949Y-41156530D01*
X20894951Y-41156532D01*
X20966194Y-41215000D01*
X20995939Y-41239411D01*
X21149685Y-41321589D01*
X21265901Y-41356843D01*
X21316507Y-41372195D01*
X21331304Y-41373652D01*
X21446521Y-41385000D01*
X21446529Y-41385000D01*
X21462570Y-41386580D01*
X21465000Y-41714250D01*
X21623750Y-41873000D01*
X22548000Y-41873000D01*
X22548000Y-41853000D01*
X22802000Y-41853000D01*
X22802000Y-41873000D01*
X22822000Y-41873000D01*
X22822000Y-42127000D01*
X22802000Y-42127000D01*
X22802000Y-43176250D01*
X22960750Y-43335000D01*
X23250000Y-43338072D01*
X23374482Y-43325812D01*
X23494180Y-43289502D01*
X23604494Y-43230537D01*
X23701185Y-43151185D01*
X23766658Y-43071406D01*
X23772038Y-43077962D01*
X23906613Y-43188405D01*
X24060149Y-43270472D01*
X24226745Y-43321008D01*
X24399999Y-43338072D01*
X25050001Y-43338072D01*
X25223255Y-43321008D01*
X25389851Y-43270472D01*
X25543387Y-43188405D01*
X25677962Y-43077962D01*
X25700000Y-43051109D01*
X25722038Y-43077962D01*
X25856613Y-43188405D01*
X26010149Y-43270472D01*
X26176745Y-43321008D01*
X26349999Y-43338072D01*
X26815001Y-43338072D01*
X26815001Y-43968740D01*
X26647503Y-44136238D01*
X26499215Y-44358167D01*
X26397072Y-44604761D01*
X26345000Y-44866544D01*
X26345000Y-45133456D01*
X26397072Y-45395239D01*
X26499215Y-45641833D01*
X26647503Y-45863762D01*
X26836238Y-46052497D01*
X27058167Y-46200785D01*
X27304761Y-46302928D01*
X27534999Y-46348725D01*
X27534999Y-48169524D01*
X27531808Y-48167818D01*
X27261309Y-48085764D01*
X27050492Y-48065000D01*
X26109508Y-48065000D01*
X25898691Y-48085764D01*
X25628192Y-48167818D01*
X25378899Y-48301068D01*
X25160392Y-48480392D01*
X25053970Y-48610067D01*
X25004494Y-48569463D01*
X24894180Y-48510498D01*
X24774482Y-48474188D01*
X24650000Y-48461928D01*
X23750000Y-48461928D01*
X23625518Y-48474188D01*
X23505820Y-48510498D01*
X23395506Y-48569463D01*
X23298815Y-48648815D01*
X23288072Y-48661905D01*
X23288072Y-48150000D01*
X23275812Y-48025518D01*
X23239502Y-47905820D01*
X23180537Y-47795506D01*
X23101185Y-47698815D01*
X23004494Y-47619463D01*
X22894180Y-47560498D01*
X22774482Y-47524188D01*
X22650000Y-47511928D01*
X21750000Y-47511928D01*
X21625518Y-47524188D01*
X21505820Y-47560498D01*
X21395506Y-47619463D01*
X21298815Y-47698815D01*
X21219463Y-47795506D01*
X21160498Y-47905820D01*
X21124188Y-48025518D01*
X21111928Y-48150000D01*
X21111928Y-48950000D01*
X21124188Y-49074482D01*
X21160498Y-49194180D01*
X21219463Y-49304494D01*
X21298815Y-49401185D01*
X21395506Y-49480537D01*
X21431918Y-49500000D01*
X21395506Y-49519463D01*
X21298815Y-49598815D01*
X21219463Y-49695506D01*
X21160498Y-49805820D01*
X21124188Y-49925518D01*
X21111928Y-50050000D01*
X21115000Y-50164250D01*
X21273750Y-50323000D01*
X22073000Y-50323000D01*
X22073000Y-50303000D01*
X22327000Y-50303000D01*
X22327000Y-50323000D01*
X23126250Y-50323000D01*
X23210857Y-50238393D01*
X23219463Y-50254494D01*
X23298815Y-50351185D01*
X23395506Y-50430537D01*
X23505820Y-50489502D01*
X23625518Y-50525812D01*
X23750000Y-50538072D01*
X24650000Y-50538072D01*
X24774482Y-50525812D01*
X24894180Y-50489502D01*
X25004494Y-50430537D01*
X25053970Y-50389933D01*
X25160392Y-50519608D01*
X25378899Y-50698932D01*
X25511858Y-50770000D01*
X25378899Y-50841068D01*
X25160392Y-51020392D01*
X24981068Y-51238899D01*
X24847818Y-51488192D01*
X24765764Y-51758691D01*
X24738057Y-52040000D01*
X24765764Y-52321309D01*
X24847818Y-52591808D01*
X24981068Y-52841101D01*
X25160392Y-53059608D01*
X25378899Y-53238932D01*
X25511858Y-53310000D01*
X25378899Y-53381068D01*
X25160392Y-53560392D01*
X24981068Y-53778899D01*
X24961772Y-53815000D01*
X24871944Y-53815000D01*
X24870472Y-53810149D01*
X24788405Y-53656613D01*
X24677962Y-53522038D01*
X24543387Y-53411595D01*
X24389851Y-53329528D01*
X24223255Y-53278992D01*
X24050001Y-53261928D01*
X23399999Y-53261928D01*
X23226745Y-53278992D01*
X23060149Y-53329528D01*
X22906613Y-53411595D01*
X22772038Y-53522038D01*
X22766658Y-53528594D01*
X22701185Y-53448815D01*
X22604494Y-53369463D01*
X22494180Y-53310498D01*
X22374482Y-53274188D01*
X22250000Y-53261928D01*
X21960750Y-53265000D01*
X21802000Y-53423750D01*
X21802000Y-54473000D01*
X21822000Y-54473000D01*
X21822000Y-54727000D01*
X21802000Y-54727000D01*
X21802000Y-55776250D01*
X21960750Y-55935000D01*
X22250000Y-55938072D01*
X22374482Y-55925812D01*
X22494180Y-55889502D01*
X22604494Y-55830537D01*
X22701185Y-55751185D01*
X22766658Y-55671406D01*
X22772038Y-55677962D01*
X22906613Y-55788405D01*
X23060149Y-55870472D01*
X23226745Y-55921008D01*
X23399999Y-55938072D01*
X24050001Y-55938072D01*
X24223255Y-55921008D01*
X24389851Y-55870472D01*
X24543387Y-55788405D01*
X24677962Y-55677962D01*
X24788405Y-55543387D01*
X24870472Y-55389851D01*
X24871944Y-55385000D01*
X24984268Y-55385000D01*
X25160392Y-55599608D01*
X25378899Y-55778932D01*
X25511858Y-55850000D01*
X25378899Y-55921068D01*
X25160392Y-56100392D01*
X24981068Y-56318899D01*
X24847818Y-56568192D01*
X24765764Y-56838691D01*
X24738057Y-57120000D01*
X24765764Y-57401309D01*
X24847818Y-57671808D01*
X24981068Y-57921101D01*
X25160392Y-58139608D01*
X25378899Y-58318932D01*
X25511858Y-58390000D01*
X25378899Y-58461068D01*
X25160392Y-58640392D01*
X24981068Y-58858899D01*
X24847818Y-59108192D01*
X24765764Y-59378691D01*
X24738057Y-59660000D01*
X24765764Y-59941309D01*
X24847818Y-60211808D01*
X24872276Y-60257567D01*
X23197185Y-61932658D01*
X23167237Y-61957236D01*
X23142659Y-61987184D01*
X23142655Y-61987188D01*
X23127265Y-62005941D01*
X23069139Y-62076767D01*
X23030177Y-62149660D01*
X22996246Y-62213141D01*
X22951359Y-62361114D01*
X22936203Y-62515000D01*
X22940001Y-62553563D01*
X22940001Y-63493749D01*
X22906613Y-63511595D01*
X22772038Y-63622038D01*
X22766658Y-63628594D01*
X22701185Y-63548815D01*
X22604494Y-63469463D01*
X22494180Y-63410498D01*
X22374482Y-63374188D01*
X22250000Y-63361928D01*
X21960750Y-63365000D01*
X21802000Y-63523750D01*
X21802000Y-64573000D01*
X21822000Y-64573000D01*
X21822000Y-64827000D01*
X21802000Y-64827000D01*
X21802000Y-65876250D01*
X21960750Y-66035000D01*
X22250000Y-66038072D01*
X22374482Y-66025812D01*
X22494180Y-65989502D01*
X22604494Y-65930537D01*
X22701185Y-65851185D01*
X22766658Y-65771406D01*
X22772038Y-65777962D01*
X22906613Y-65888405D01*
X23060149Y-65970472D01*
X23226745Y-66021008D01*
X23399999Y-66038072D01*
X24050001Y-66038072D01*
X24223255Y-66021008D01*
X24389851Y-65970472D01*
X24543387Y-65888405D01*
X24677962Y-65777962D01*
X24788405Y-65643387D01*
X24870472Y-65489851D01*
X24871944Y-65485000D01*
X24951081Y-65485000D01*
X24981068Y-65541101D01*
X25160392Y-65759608D01*
X25378899Y-65938932D01*
X25511858Y-66010000D01*
X25378899Y-66081068D01*
X25160392Y-66260392D01*
X24981068Y-66478899D01*
X24847818Y-66728192D01*
X24765764Y-66998691D01*
X24738057Y-67280000D01*
X24765764Y-67561309D01*
X24847818Y-67831808D01*
X24981068Y-68081101D01*
X25160392Y-68299608D01*
X25378899Y-68478932D01*
X25628192Y-68612182D01*
X25898691Y-68694236D01*
X26109508Y-68715000D01*
X27050492Y-68715000D01*
X27261309Y-68694236D01*
X27345011Y-68668846D01*
X27345010Y-87103411D01*
X23386494Y-91061928D01*
X22400000Y-91061928D01*
X22275518Y-91074188D01*
X22155820Y-91110498D01*
X22045506Y-91169463D01*
X21948815Y-91248815D01*
X21869463Y-91345506D01*
X21810498Y-91455820D01*
X21774188Y-91575518D01*
X21761928Y-91700000D01*
X21761928Y-93300000D01*
X21774188Y-93424482D01*
X21810498Y-93544180D01*
X21869463Y-93654494D01*
X21948815Y-93751185D01*
X22045506Y-93830537D01*
X22155820Y-93889502D01*
X22275518Y-93925812D01*
X22315001Y-93929701D01*
X22315000Y-99515375D01*
X22225518Y-99524188D01*
X22105820Y-99560498D01*
X21995506Y-99619463D01*
X21898815Y-99698815D01*
X21819463Y-99795506D01*
X21760498Y-99905820D01*
X21724188Y-100025518D01*
X21711928Y-100150000D01*
X21711928Y-101850000D01*
X21724188Y-101974482D01*
X21760498Y-102094180D01*
X21819463Y-102204494D01*
X21898815Y-102301185D01*
X21995506Y-102380537D01*
X22105820Y-102439502D01*
X22178380Y-102461513D01*
X22046525Y-102593368D01*
X21884010Y-102836589D01*
X21772068Y-103106842D01*
X21715000Y-103393740D01*
X21715000Y-103686260D01*
X21772068Y-103973158D01*
X21884010Y-104243411D01*
X22046525Y-104486632D01*
X22253368Y-104693475D01*
X22496589Y-104855990D01*
X22766842Y-104967932D01*
X23053740Y-105025000D01*
X23346260Y-105025000D01*
X23633158Y-104967932D01*
X23903411Y-104855990D01*
X24146632Y-104693475D01*
X24353475Y-104486632D01*
X24475195Y-104304466D01*
X24544822Y-104421355D01*
X24739731Y-104637588D01*
X24973080Y-104811641D01*
X25235901Y-104936825D01*
X25383110Y-104981476D01*
X25613000Y-104860155D01*
X25613000Y-103667000D01*
X25867000Y-103667000D01*
X25867000Y-104860155D01*
X26096890Y-104981476D01*
X26244099Y-104936825D01*
X26506920Y-104811641D01*
X26740269Y-104637588D01*
X26935178Y-104421355D01*
X27010000Y-104295745D01*
X27084822Y-104421355D01*
X27279731Y-104637588D01*
X27513080Y-104811641D01*
X27775901Y-104936825D01*
X27923110Y-104981476D01*
X28153000Y-104860155D01*
X28153000Y-103667000D01*
X28407000Y-103667000D01*
X28407000Y-104860155D01*
X28636890Y-104981476D01*
X28784099Y-104936825D01*
X29046920Y-104811641D01*
X29280269Y-104637588D01*
X29475178Y-104421355D01*
X29550000Y-104295745D01*
X29624822Y-104421355D01*
X29819731Y-104637588D01*
X30053080Y-104811641D01*
X30315901Y-104936825D01*
X30463110Y-104981476D01*
X30693000Y-104860155D01*
X30693000Y-103667000D01*
X28407000Y-103667000D01*
X28153000Y-103667000D01*
X25867000Y-103667000D01*
X25613000Y-103667000D01*
X25593000Y-103667000D01*
X25593000Y-103413000D01*
X25613000Y-103413000D01*
X25613000Y-101127000D01*
X25867000Y-101127000D01*
X25867000Y-103413000D01*
X28153000Y-103413000D01*
X28153000Y-101127000D01*
X28407000Y-101127000D01*
X28407000Y-103413000D01*
X30693000Y-103413000D01*
X30693000Y-101127000D01*
X28407000Y-101127000D01*
X28153000Y-101127000D01*
X25867000Y-101127000D01*
X25613000Y-101127000D01*
X25593000Y-101127000D01*
X25593000Y-100873000D01*
X25613000Y-100873000D01*
X25613000Y-99679845D01*
X25867000Y-99679845D01*
X25867000Y-100873000D01*
X28153000Y-100873000D01*
X28153000Y-99679845D01*
X28407000Y-99679845D01*
X28407000Y-100873000D01*
X30693000Y-100873000D01*
X30693000Y-99679845D01*
X30463110Y-99558524D01*
X30315901Y-99603175D01*
X30053080Y-99728359D01*
X29819731Y-99902412D01*
X29624822Y-100118645D01*
X29550000Y-100244255D01*
X29475178Y-100118645D01*
X29280269Y-99902412D01*
X29046920Y-99728359D01*
X28784099Y-99603175D01*
X28636890Y-99558524D01*
X28407000Y-99679845D01*
X28153000Y-99679845D01*
X27923110Y-99558524D01*
X27775901Y-99603175D01*
X27513080Y-99728359D01*
X27279731Y-99902412D01*
X27084822Y-100118645D01*
X27010000Y-100244255D01*
X26935178Y-100118645D01*
X26740269Y-99902412D01*
X26506920Y-99728359D01*
X26244099Y-99603175D01*
X26096890Y-99558524D01*
X25867000Y-99679845D01*
X25613000Y-99679845D01*
X25383110Y-99558524D01*
X25235901Y-99603175D01*
X24973080Y-99728359D01*
X24739731Y-99902412D01*
X24663966Y-99986466D01*
X24639502Y-99905820D01*
X24580537Y-99795506D01*
X24501185Y-99698815D01*
X24404494Y-99619463D01*
X24294180Y-99560498D01*
X24174482Y-99524188D01*
X24085000Y-99515375D01*
X24085000Y-93929701D01*
X24124482Y-93925812D01*
X24244180Y-93889502D01*
X24354494Y-93830537D01*
X24451185Y-93751185D01*
X24530537Y-93654494D01*
X24589502Y-93544180D01*
X24605117Y-93492702D01*
X24886903Y-93492702D01*
X24958486Y-93736671D01*
X25213996Y-93857571D01*
X25488184Y-93926300D01*
X25770512Y-93940217D01*
X26050130Y-93898787D01*
X26316292Y-93803603D01*
X26441514Y-93736671D01*
X26513097Y-93492702D01*
X25700000Y-92679605D01*
X24886903Y-93492702D01*
X24605117Y-93492702D01*
X24625812Y-93424482D01*
X24638072Y-93300000D01*
X24638072Y-93292785D01*
X24707298Y-93313097D01*
X25520395Y-92500000D01*
X25879605Y-92500000D01*
X26692702Y-93313097D01*
X26737339Y-93300000D01*
X29261928Y-93300000D01*
X29274188Y-93424482D01*
X29310498Y-93544180D01*
X29369463Y-93654494D01*
X29448815Y-93751185D01*
X29545506Y-93830537D01*
X29655820Y-93889502D01*
X29775518Y-93925812D01*
X29900000Y-93938072D01*
X30414250Y-93935000D01*
X30573000Y-93776250D01*
X30573000Y-92627000D01*
X29423750Y-92627000D01*
X29265000Y-92785750D01*
X29261928Y-93300000D01*
X26737339Y-93300000D01*
X26936671Y-93241514D01*
X27057571Y-92986004D01*
X27126300Y-92711816D01*
X27140217Y-92429488D01*
X27098787Y-92149870D01*
X27003603Y-91883708D01*
X26936671Y-91758486D01*
X26737340Y-91700000D01*
X29261928Y-91700000D01*
X29265000Y-92214250D01*
X29423750Y-92373000D01*
X30573000Y-92373000D01*
X30573000Y-91223750D01*
X30414250Y-91065000D01*
X29900000Y-91061928D01*
X29775518Y-91074188D01*
X29655820Y-91110498D01*
X29545506Y-91169463D01*
X29448815Y-91248815D01*
X29369463Y-91345506D01*
X29310498Y-91455820D01*
X29274188Y-91575518D01*
X29261928Y-91700000D01*
X26737340Y-91700000D01*
X26692702Y-91686903D01*
X25879605Y-92500000D01*
X25520395Y-92500000D01*
X25506253Y-92485858D01*
X25685858Y-92306253D01*
X25700000Y-92320395D01*
X26513097Y-91507298D01*
X26441514Y-91263329D01*
X26186004Y-91142429D01*
X25911816Y-91073700D01*
X25879473Y-91072106D01*
X28825061Y-88126518D01*
X28858827Y-88098807D01*
X28969421Y-87964049D01*
X29051599Y-87810303D01*
X29102205Y-87643480D01*
X29115010Y-87513467D01*
X29115010Y-87513457D01*
X29119291Y-87469991D01*
X29115010Y-87426525D01*
X29115010Y-63893479D01*
X29119291Y-63850010D01*
X29115010Y-63806541D01*
X29115010Y-63806533D01*
X29102205Y-63676520D01*
X29063466Y-63548815D01*
X29051599Y-63509696D01*
X28969421Y-63355951D01*
X28886542Y-63254963D01*
X28886540Y-63254961D01*
X28858827Y-63221193D01*
X28825059Y-63193480D01*
X28328754Y-62697176D01*
X28394236Y-62481309D01*
X28421943Y-62200000D01*
X28394236Y-61918691D01*
X28328754Y-61702824D01*
X29015048Y-61016531D01*
X29048816Y-60988818D01*
X29159410Y-60854060D01*
X29229206Y-60723480D01*
X29241588Y-60700315D01*
X29292194Y-60533491D01*
X29304999Y-60403478D01*
X29304999Y-60403470D01*
X29309280Y-60360001D01*
X29304999Y-60316532D01*
X29304999Y-45981258D01*
X29376238Y-46052497D01*
X29598167Y-46200785D01*
X29844761Y-46302928D01*
X30106544Y-46355000D01*
X30373456Y-46355000D01*
X30635239Y-46302928D01*
X30881833Y-46200785D01*
X31103762Y-46052497D01*
X31292497Y-45863762D01*
X31440785Y-45641833D01*
X31510000Y-45474734D01*
X31579215Y-45641833D01*
X31664991Y-45770206D01*
X31664990Y-60506521D01*
X31660709Y-60549990D01*
X31664990Y-60593459D01*
X31664990Y-60593466D01*
X31677795Y-60723479D01*
X31728401Y-60890302D01*
X31810579Y-61044048D01*
X31921173Y-61178807D01*
X31954946Y-61206524D01*
X32451246Y-61702824D01*
X32385764Y-61918691D01*
X32358057Y-62200000D01*
X32385764Y-62481309D01*
X32467818Y-62751808D01*
X32547514Y-62900908D01*
X31804952Y-63643470D01*
X31771185Y-63671182D01*
X31743472Y-63704950D01*
X31743469Y-63704953D01*
X31660591Y-63805940D01*
X31578413Y-63959686D01*
X31527806Y-64126509D01*
X31510720Y-64299999D01*
X31515002Y-64343478D01*
X31515001Y-76256530D01*
X31510720Y-76299999D01*
X31515001Y-76343468D01*
X31515001Y-76343475D01*
X31515002Y-76343485D01*
X31515001Y-86756530D01*
X31510720Y-86799999D01*
X31515001Y-86843468D01*
X31515001Y-86843475D01*
X31515002Y-86843485D01*
X31515001Y-91063405D01*
X31500000Y-91061928D01*
X30985750Y-91065000D01*
X30827000Y-91223750D01*
X30827000Y-92373000D01*
X30847000Y-92373000D01*
X30847000Y-92627000D01*
X30827000Y-92627000D01*
X30827000Y-93776250D01*
X30985750Y-93935000D01*
X31500000Y-93938072D01*
X31624482Y-93925812D01*
X31744180Y-93889502D01*
X31854494Y-93830537D01*
X31951185Y-93751185D01*
X32030537Y-93654494D01*
X32089502Y-93544180D01*
X32118661Y-93448057D01*
X32285241Y-93614637D01*
X32475001Y-93741430D01*
X32475000Y-99805344D01*
X32413368Y-99846525D01*
X32206525Y-100053368D01*
X32084805Y-100235534D01*
X32015178Y-100118645D01*
X31820269Y-99902412D01*
X31586920Y-99728359D01*
X31324099Y-99603175D01*
X31176890Y-99558524D01*
X30947000Y-99679845D01*
X30947000Y-100873000D01*
X30967000Y-100873000D01*
X30967000Y-101127000D01*
X30947000Y-101127000D01*
X30947000Y-103413000D01*
X30967000Y-103413000D01*
X30967000Y-103667000D01*
X30947000Y-103667000D01*
X30947000Y-104860155D01*
X31176890Y-104981476D01*
X31324099Y-104936825D01*
X31586920Y-104811641D01*
X31820269Y-104637588D01*
X32015178Y-104421355D01*
X32084805Y-104304466D01*
X32206525Y-104486632D01*
X32413368Y-104693475D01*
X32656589Y-104855990D01*
X32926842Y-104967932D01*
X33213740Y-105025000D01*
X33506260Y-105025000D01*
X33793158Y-104967932D01*
X34063411Y-104855990D01*
X34306632Y-104693475D01*
X34513475Y-104486632D01*
X34675990Y-104243411D01*
X34787932Y-103973158D01*
X34845000Y-103686260D01*
X34845000Y-103393740D01*
X34787932Y-103106842D01*
X34675990Y-102836589D01*
X34513475Y-102593368D01*
X34306632Y-102386525D01*
X34245000Y-102345344D01*
X34245000Y-102194656D01*
X34306632Y-102153475D01*
X34513475Y-101946632D01*
X34675990Y-101703411D01*
X34787932Y-101433158D01*
X34845000Y-101146260D01*
X34845000Y-100853740D01*
X34787932Y-100566842D01*
X34675990Y-100296589D01*
X34513475Y-100053368D01*
X34306632Y-99846525D01*
X34245000Y-99805344D01*
X34245000Y-93484396D01*
X34314637Y-93414759D01*
X34471680Y-93179727D01*
X34579853Y-92918574D01*
X34635000Y-92641335D01*
X34635000Y-92358665D01*
X34579853Y-92081426D01*
X34471680Y-91820273D01*
X34314637Y-91585241D01*
X34114759Y-91385363D01*
X33879727Y-91228320D01*
X33618574Y-91120147D01*
X33341335Y-91065000D01*
X33285001Y-91065000D01*
X33285001Y-89650000D01*
X36661928Y-89650000D01*
X36674188Y-89774482D01*
X36710498Y-89894180D01*
X36769463Y-90004494D01*
X36848815Y-90101185D01*
X36945506Y-90180537D01*
X37055820Y-90239502D01*
X37175518Y-90275812D01*
X37300000Y-90288072D01*
X37864250Y-90285000D01*
X38023000Y-90126250D01*
X38023000Y-88927000D01*
X36823750Y-88927000D01*
X36665000Y-89085750D01*
X36661928Y-89650000D01*
X33285001Y-89650000D01*
X33285001Y-87838072D01*
X33500001Y-87838072D01*
X33673255Y-87821008D01*
X33839851Y-87770472D01*
X33993387Y-87688405D01*
X34127962Y-87577962D01*
X34200000Y-87490184D01*
X34272038Y-87577962D01*
X34406613Y-87688405D01*
X34560149Y-87770472D01*
X34726745Y-87821008D01*
X34899999Y-87838072D01*
X35550001Y-87838072D01*
X35723255Y-87821008D01*
X35889851Y-87770472D01*
X36043387Y-87688405D01*
X36177962Y-87577962D01*
X36288405Y-87443387D01*
X36370472Y-87289851D01*
X36421008Y-87123255D01*
X36428715Y-87045000D01*
X36888526Y-87045000D01*
X36996525Y-87206632D01*
X37128380Y-87338487D01*
X37055820Y-87360498D01*
X36945506Y-87419463D01*
X36848815Y-87498815D01*
X36769463Y-87595506D01*
X36710498Y-87705820D01*
X36674188Y-87825518D01*
X36661928Y-87950000D01*
X36665000Y-88514250D01*
X36823750Y-88673000D01*
X38023000Y-88673000D01*
X38023000Y-88653000D01*
X38277000Y-88653000D01*
X38277000Y-88673000D01*
X38297000Y-88673000D01*
X38297000Y-88927000D01*
X38277000Y-88927000D01*
X38277000Y-90126250D01*
X38435750Y-90285000D01*
X39000000Y-90288072D01*
X39124482Y-90275812D01*
X39244180Y-90239502D01*
X39354494Y-90180537D01*
X39440001Y-90110364D01*
X39440000Y-105440000D01*
X20760000Y-105440000D01*
X20760000Y-65938284D01*
X20855820Y-65989502D01*
X20975518Y-66025812D01*
X21100000Y-66038072D01*
X21389250Y-66035000D01*
X21548000Y-65876250D01*
X21548000Y-64827000D01*
X21528000Y-64827000D01*
X21528000Y-64573000D01*
X21548000Y-64573000D01*
X21548000Y-63523750D01*
X21389250Y-63365000D01*
X21100000Y-63361928D01*
X20975518Y-63374188D01*
X20855820Y-63410498D01*
X20760000Y-63461716D01*
X20760000Y-55838284D01*
X20855820Y-55889502D01*
X20975518Y-55925812D01*
X21100000Y-55938072D01*
X21389250Y-55935000D01*
X21548000Y-55776250D01*
X21548000Y-54727000D01*
X21528000Y-54727000D01*
X21528000Y-54473000D01*
X21548000Y-54473000D01*
X21548000Y-53423750D01*
X21389250Y-53265000D01*
X21100000Y-53261928D01*
X20975518Y-53274188D01*
X20855820Y-53310498D01*
X20760000Y-53361716D01*
X20760000Y-50850000D01*
X21111928Y-50850000D01*
X21124188Y-50974482D01*
X21160498Y-51094180D01*
X21219463Y-51204494D01*
X21298815Y-51301185D01*
X21395506Y-51380537D01*
X21505820Y-51439502D01*
X21625518Y-51475812D01*
X21750000Y-51488072D01*
X21914250Y-51485000D01*
X22073000Y-51326250D01*
X22073000Y-50577000D01*
X22327000Y-50577000D01*
X22327000Y-51326250D01*
X22485750Y-51485000D01*
X22650000Y-51488072D01*
X22774482Y-51475812D01*
X22894180Y-51439502D01*
X23004494Y-51380537D01*
X23101185Y-51301185D01*
X23180537Y-51204494D01*
X23239502Y-51094180D01*
X23275812Y-50974482D01*
X23288072Y-50850000D01*
X23285000Y-50735750D01*
X23126250Y-50577000D01*
X22327000Y-50577000D01*
X22073000Y-50577000D01*
X21273750Y-50577000D01*
X21115000Y-50735750D01*
X21111928Y-50850000D01*
X20760000Y-50850000D01*
X20760000Y-42700000D01*
X21461928Y-42700000D01*
X21474188Y-42824482D01*
X21510498Y-42944180D01*
X21569463Y-43054494D01*
X21648815Y-43151185D01*
X21745506Y-43230537D01*
X21855820Y-43289502D01*
X21975518Y-43325812D01*
X22100000Y-43338072D01*
X22389250Y-43335000D01*
X22548000Y-43176250D01*
X22548000Y-42127000D01*
X21623750Y-42127000D01*
X21465000Y-42285750D01*
X21461928Y-42700000D01*
X20760000Y-42700000D01*
X20760000Y-41021581D01*
X20833468Y-41095049D01*
G36*
X37611928Y-50850000D02*
G01*
X37624188Y-50974482D01*
X37660498Y-51094180D01*
X37719463Y-51204494D01*
X37798815Y-51301185D01*
X37895506Y-51380537D01*
X38005820Y-51439502D01*
X38125518Y-51475812D01*
X38250000Y-51488072D01*
X38380831Y-51488072D01*
X38398102Y-51495226D01*
X38598061Y-51535000D01*
X38801939Y-51535000D01*
X39001898Y-51495226D01*
X39019169Y-51488072D01*
X39150000Y-51488072D01*
X39274482Y-51475812D01*
X39394180Y-51439502D01*
X39440001Y-51415010D01*
X39440001Y-53265868D01*
X39400000Y-53261928D01*
X39110750Y-53265000D01*
X38952000Y-53423750D01*
X38952000Y-54473000D01*
X38972000Y-54473000D01*
X38972000Y-54727000D01*
X38952000Y-54727000D01*
X38952000Y-55776250D01*
X39110750Y-55935000D01*
X39400000Y-55938072D01*
X39440001Y-55934132D01*
X39440001Y-59032419D01*
X39443218Y-59065082D01*
X39443218Y-59074182D01*
X39444182Y-59083346D01*
X39459410Y-59219110D01*
X39471849Y-59277631D01*
X39473000Y-59283444D01*
X39473000Y-63471580D01*
X39375000Y-63461928D01*
X39085750Y-63465000D01*
X38927000Y-63623750D01*
X38927000Y-64673000D01*
X38947000Y-64673000D01*
X38947000Y-64927000D01*
X38927000Y-64927000D01*
X38927000Y-65976250D01*
X39085750Y-66135000D01*
X39375000Y-66138072D01*
X39473000Y-66128420D01*
X39473000Y-69216210D01*
X39469887Y-69231932D01*
X39457445Y-69290468D01*
X39456482Y-69299633D01*
X39443151Y-69435597D01*
X39443151Y-69435608D01*
X39440002Y-69467581D01*
X39440002Y-72831628D01*
X39421641Y-72793080D01*
X39247588Y-72559731D01*
X39031355Y-72364822D01*
X38781252Y-72215843D01*
X38506891Y-72118519D01*
X38277000Y-72239186D01*
X38277000Y-73433000D01*
X38297000Y-73433000D01*
X38297000Y-73687000D01*
X38277000Y-73687000D01*
X38277000Y-73707000D01*
X38023000Y-73707000D01*
X38023000Y-73687000D01*
X36829845Y-73687000D01*
X36708524Y-73916890D01*
X36753175Y-74064099D01*
X36878359Y-74326920D01*
X37052412Y-74560269D01*
X37268645Y-74755178D01*
X37385534Y-74824805D01*
X37203368Y-74946525D01*
X36996525Y-75153368D01*
X36955344Y-75215000D01*
X33285001Y-75215000D01*
X33285001Y-73203110D01*
X36708524Y-73203110D01*
X36829845Y-73433000D01*
X38023000Y-73433000D01*
X38023000Y-72239186D01*
X37793109Y-72118519D01*
X37518748Y-72215843D01*
X37268645Y-72364822D01*
X37052412Y-72559731D01*
X36878359Y-72793080D01*
X36753175Y-73055901D01*
X36708524Y-73203110D01*
X33285001Y-73203110D01*
X33285001Y-68623348D01*
X33518691Y-68694236D01*
X33729508Y-68715000D01*
X34670492Y-68715000D01*
X34881309Y-68694236D01*
X35151808Y-68612182D01*
X35401101Y-68478932D01*
X35619608Y-68299608D01*
X35798932Y-68081101D01*
X35932182Y-67831808D01*
X36014236Y-67561309D01*
X36041943Y-67280000D01*
X36014236Y-66998691D01*
X35932182Y-66728192D01*
X35798932Y-66478899D01*
X35619608Y-66260392D01*
X35401101Y-66081068D01*
X35268142Y-66010000D01*
X35401101Y-65938932D01*
X35619608Y-65759608D01*
X35665425Y-65703780D01*
X35686595Y-65743387D01*
X35797038Y-65877962D01*
X35931613Y-65988405D01*
X36085149Y-66070472D01*
X36251745Y-66121008D01*
X36424999Y-66138072D01*
X37075001Y-66138072D01*
X37248255Y-66121008D01*
X37414851Y-66070472D01*
X37568387Y-65988405D01*
X37702962Y-65877962D01*
X37708342Y-65871406D01*
X37773815Y-65951185D01*
X37870506Y-66030537D01*
X37980820Y-66089502D01*
X38100518Y-66125812D01*
X38225000Y-66138072D01*
X38514250Y-66135000D01*
X38673000Y-65976250D01*
X38673000Y-64927000D01*
X38653000Y-64927000D01*
X38653000Y-64673000D01*
X38673000Y-64673000D01*
X38673000Y-63623750D01*
X38514250Y-63465000D01*
X38225000Y-63461928D01*
X38100518Y-63474188D01*
X37980820Y-63510498D01*
X37870506Y-63569463D01*
X37773815Y-63648815D01*
X37708342Y-63728594D01*
X37702962Y-63722038D01*
X37568387Y-63611595D01*
X37535000Y-63593749D01*
X37535000Y-62248556D01*
X37538797Y-62210000D01*
X37535000Y-62171444D01*
X37535000Y-62171439D01*
X37531020Y-62131026D01*
X37523642Y-62056113D01*
X37478754Y-61908140D01*
X37459000Y-61871183D01*
X37405862Y-61771767D01*
X37307764Y-61652236D01*
X37277810Y-61627653D01*
X35907724Y-60257567D01*
X35932182Y-60211808D01*
X36014236Y-59941309D01*
X36041943Y-59660000D01*
X36014236Y-59378691D01*
X35932182Y-59108192D01*
X35798932Y-58858899D01*
X35619608Y-58640392D01*
X35401101Y-58461068D01*
X35268142Y-58390000D01*
X35401101Y-58318932D01*
X35619608Y-58139608D01*
X35798932Y-57921101D01*
X35932182Y-57671808D01*
X36014236Y-57401309D01*
X36041943Y-57120000D01*
X36014236Y-56838691D01*
X35932182Y-56568192D01*
X35798932Y-56318899D01*
X35619608Y-56100392D01*
X35401101Y-55921068D01*
X35268142Y-55850000D01*
X35401101Y-55778932D01*
X35619608Y-55599608D01*
X35693512Y-55509556D01*
X35711595Y-55543387D01*
X35822038Y-55677962D01*
X35956613Y-55788405D01*
X36110149Y-55870472D01*
X36276745Y-55921008D01*
X36449999Y-55938072D01*
X37100001Y-55938072D01*
X37273255Y-55921008D01*
X37439851Y-55870472D01*
X37593387Y-55788405D01*
X37727962Y-55677962D01*
X37733342Y-55671406D01*
X37798815Y-55751185D01*
X37895506Y-55830537D01*
X38005820Y-55889502D01*
X38125518Y-55925812D01*
X38250000Y-55938072D01*
X38539250Y-55935000D01*
X38698000Y-55776250D01*
X38698000Y-54727000D01*
X38678000Y-54727000D01*
X38678000Y-54473000D01*
X38698000Y-54473000D01*
X38698000Y-53423750D01*
X38539250Y-53265000D01*
X38250000Y-53261928D01*
X38125518Y-53274188D01*
X38005820Y-53310498D01*
X37895506Y-53369463D01*
X37798815Y-53448815D01*
X37733342Y-53528594D01*
X37727962Y-53522038D01*
X37593387Y-53411595D01*
X37439851Y-53329528D01*
X37273255Y-53278992D01*
X37100001Y-53261928D01*
X36449999Y-53261928D01*
X36276745Y-53278992D01*
X36110149Y-53329528D01*
X35956613Y-53411595D01*
X35822038Y-53522038D01*
X35711595Y-53656613D01*
X35706459Y-53666221D01*
X35619608Y-53560392D01*
X35401101Y-53381068D01*
X35268142Y-53310000D01*
X35401101Y-53238932D01*
X35619608Y-53059608D01*
X35798932Y-52841101D01*
X35932182Y-52591808D01*
X36014236Y-52321309D01*
X36041943Y-52040000D01*
X36014236Y-51758691D01*
X35932182Y-51488192D01*
X35798932Y-51238899D01*
X35619608Y-51020392D01*
X35506518Y-50927581D01*
X35524482Y-50925812D01*
X35644180Y-50889502D01*
X35754494Y-50830537D01*
X35851185Y-50751185D01*
X35930537Y-50654494D01*
X35989502Y-50544180D01*
X36006066Y-50489577D01*
X36125518Y-50525812D01*
X36250000Y-50538072D01*
X37150000Y-50538072D01*
X37274482Y-50525812D01*
X37394180Y-50489502D01*
X37504494Y-50430537D01*
X37601185Y-50351185D01*
X37611928Y-50338095D01*
X37611928Y-50850000D01*
G37*
X37611928Y-50850000D02*
X37624188Y-50974482D01*
X37660498Y-51094180D01*
X37719463Y-51204494D01*
X37798815Y-51301185D01*
X37895506Y-51380537D01*
X38005820Y-51439502D01*
X38125518Y-51475812D01*
X38250000Y-51488072D01*
X38380831Y-51488072D01*
X38398102Y-51495226D01*
X38598061Y-51535000D01*
X38801939Y-51535000D01*
X39001898Y-51495226D01*
X39019169Y-51488072D01*
X39150000Y-51488072D01*
X39274482Y-51475812D01*
X39394180Y-51439502D01*
X39440001Y-51415010D01*
X39440001Y-53265868D01*
X39400000Y-53261928D01*
X39110750Y-53265000D01*
X38952000Y-53423750D01*
X38952000Y-54473000D01*
X38972000Y-54473000D01*
X38972000Y-54727000D01*
X38952000Y-54727000D01*
X38952000Y-55776250D01*
X39110750Y-55935000D01*
X39400000Y-55938072D01*
X39440001Y-55934132D01*
X39440001Y-59032419D01*
X39443218Y-59065082D01*
X39443218Y-59074182D01*
X39444182Y-59083346D01*
X39459410Y-59219110D01*
X39471849Y-59277631D01*
X39473000Y-59283444D01*
X39473000Y-63471580D01*
X39375000Y-63461928D01*
X39085750Y-63465000D01*
X38927000Y-63623750D01*
X38927000Y-64673000D01*
X38947000Y-64673000D01*
X38947000Y-64927000D01*
X38927000Y-64927000D01*
X38927000Y-65976250D01*
X39085750Y-66135000D01*
X39375000Y-66138072D01*
X39473000Y-66128420D01*
X39473000Y-69216210D01*
X39469887Y-69231932D01*
X39457445Y-69290468D01*
X39456482Y-69299633D01*
X39443151Y-69435597D01*
X39443151Y-69435608D01*
X39440002Y-69467581D01*
X39440002Y-72831628D01*
X39421641Y-72793080D01*
X39247588Y-72559731D01*
X39031355Y-72364822D01*
X38781252Y-72215843D01*
X38506891Y-72118519D01*
X38277000Y-72239186D01*
X38277000Y-73433000D01*
X38297000Y-73433000D01*
X38297000Y-73687000D01*
X38277000Y-73687000D01*
X38277000Y-73707000D01*
X38023000Y-73707000D01*
X38023000Y-73687000D01*
X36829845Y-73687000D01*
X36708524Y-73916890D01*
X36753175Y-74064099D01*
X36878359Y-74326920D01*
X37052412Y-74560269D01*
X37268645Y-74755178D01*
X37385534Y-74824805D01*
X37203368Y-74946525D01*
X36996525Y-75153368D01*
X36955344Y-75215000D01*
X33285001Y-75215000D01*
X33285001Y-73203110D01*
X36708524Y-73203110D01*
X36829845Y-73433000D01*
X38023000Y-73433000D01*
X38023000Y-72239186D01*
X37793109Y-72118519D01*
X37518748Y-72215843D01*
X37268645Y-72364822D01*
X37052412Y-72559731D01*
X36878359Y-72793080D01*
X36753175Y-73055901D01*
X36708524Y-73203110D01*
X33285001Y-73203110D01*
X33285001Y-68623348D01*
X33518691Y-68694236D01*
X33729508Y-68715000D01*
X34670492Y-68715000D01*
X34881309Y-68694236D01*
X35151808Y-68612182D01*
X35401101Y-68478932D01*
X35619608Y-68299608D01*
X35798932Y-68081101D01*
X35932182Y-67831808D01*
X36014236Y-67561309D01*
X36041943Y-67280000D01*
X36014236Y-66998691D01*
X35932182Y-66728192D01*
X35798932Y-66478899D01*
X35619608Y-66260392D01*
X35401101Y-66081068D01*
X35268142Y-66010000D01*
X35401101Y-65938932D01*
X35619608Y-65759608D01*
X35665425Y-65703780D01*
X35686595Y-65743387D01*
X35797038Y-65877962D01*
X35931613Y-65988405D01*
X36085149Y-66070472D01*
X36251745Y-66121008D01*
X36424999Y-66138072D01*
X37075001Y-66138072D01*
X37248255Y-66121008D01*
X37414851Y-66070472D01*
X37568387Y-65988405D01*
X37702962Y-65877962D01*
X37708342Y-65871406D01*
X37773815Y-65951185D01*
X37870506Y-66030537D01*
X37980820Y-66089502D01*
X38100518Y-66125812D01*
X38225000Y-66138072D01*
X38514250Y-66135000D01*
X38673000Y-65976250D01*
X38673000Y-64927000D01*
X38653000Y-64927000D01*
X38653000Y-64673000D01*
X38673000Y-64673000D01*
X38673000Y-63623750D01*
X38514250Y-63465000D01*
X38225000Y-63461928D01*
X38100518Y-63474188D01*
X37980820Y-63510498D01*
X37870506Y-63569463D01*
X37773815Y-63648815D01*
X37708342Y-63728594D01*
X37702962Y-63722038D01*
X37568387Y-63611595D01*
X37535000Y-63593749D01*
X37535000Y-62248556D01*
X37538797Y-62210000D01*
X37535000Y-62171444D01*
X37535000Y-62171439D01*
X37531020Y-62131026D01*
X37523642Y-62056113D01*
X37478754Y-61908140D01*
X37459000Y-61871183D01*
X37405862Y-61771767D01*
X37307764Y-61652236D01*
X37277810Y-61627653D01*
X35907724Y-60257567D01*
X35932182Y-60211808D01*
X36014236Y-59941309D01*
X36041943Y-59660000D01*
X36014236Y-59378691D01*
X35932182Y-59108192D01*
X35798932Y-58858899D01*
X35619608Y-58640392D01*
X35401101Y-58461068D01*
X35268142Y-58390000D01*
X35401101Y-58318932D01*
X35619608Y-58139608D01*
X35798932Y-57921101D01*
X35932182Y-57671808D01*
X36014236Y-57401309D01*
X36041943Y-57120000D01*
X36014236Y-56838691D01*
X35932182Y-56568192D01*
X35798932Y-56318899D01*
X35619608Y-56100392D01*
X35401101Y-55921068D01*
X35268142Y-55850000D01*
X35401101Y-55778932D01*
X35619608Y-55599608D01*
X35693512Y-55509556D01*
X35711595Y-55543387D01*
X35822038Y-55677962D01*
X35956613Y-55788405D01*
X36110149Y-55870472D01*
X36276745Y-55921008D01*
X36449999Y-55938072D01*
X37100001Y-55938072D01*
X37273255Y-55921008D01*
X37439851Y-55870472D01*
X37593387Y-55788405D01*
X37727962Y-55677962D01*
X37733342Y-55671406D01*
X37798815Y-55751185D01*
X37895506Y-55830537D01*
X38005820Y-55889502D01*
X38125518Y-55925812D01*
X38250000Y-55938072D01*
X38539250Y-55935000D01*
X38698000Y-55776250D01*
X38698000Y-54727000D01*
X38678000Y-54727000D01*
X38678000Y-54473000D01*
X38698000Y-54473000D01*
X38698000Y-53423750D01*
X38539250Y-53265000D01*
X38250000Y-53261928D01*
X38125518Y-53274188D01*
X38005820Y-53310498D01*
X37895506Y-53369463D01*
X37798815Y-53448815D01*
X37733342Y-53528594D01*
X37727962Y-53522038D01*
X37593387Y-53411595D01*
X37439851Y-53329528D01*
X37273255Y-53278992D01*
X37100001Y-53261928D01*
X36449999Y-53261928D01*
X36276745Y-53278992D01*
X36110149Y-53329528D01*
X35956613Y-53411595D01*
X35822038Y-53522038D01*
X35711595Y-53656613D01*
X35706459Y-53666221D01*
X35619608Y-53560392D01*
X35401101Y-53381068D01*
X35268142Y-53310000D01*
X35401101Y-53238932D01*
X35619608Y-53059608D01*
X35798932Y-52841101D01*
X35932182Y-52591808D01*
X36014236Y-52321309D01*
X36041943Y-52040000D01*
X36014236Y-51758691D01*
X35932182Y-51488192D01*
X35798932Y-51238899D01*
X35619608Y-51020392D01*
X35506518Y-50927581D01*
X35524482Y-50925812D01*
X35644180Y-50889502D01*
X35754494Y-50830537D01*
X35851185Y-50751185D01*
X35930537Y-50654494D01*
X35989502Y-50544180D01*
X36006066Y-50489577D01*
X36125518Y-50525812D01*
X36250000Y-50538072D01*
X37150000Y-50538072D01*
X37274482Y-50525812D01*
X37394180Y-50489502D01*
X37504494Y-50430537D01*
X37601185Y-50351185D01*
X37611928Y-50338095D01*
X37611928Y-50850000D01*
G36*
X39440001Y-47584990D02*
G01*
X39394180Y-47560498D01*
X39274482Y-47524188D01*
X39150000Y-47511928D01*
X38985750Y-47515000D01*
X38827000Y-47673750D01*
X38827000Y-48423000D01*
X38847000Y-48423000D01*
X38847000Y-48677000D01*
X38827000Y-48677000D01*
X38827000Y-48697000D01*
X38573000Y-48697000D01*
X38573000Y-48677000D01*
X37773750Y-48677000D01*
X37689143Y-48761607D01*
X37680537Y-48745506D01*
X37601185Y-48648815D01*
X37504494Y-48569463D01*
X37394180Y-48510498D01*
X37274482Y-48474188D01*
X37150000Y-48461928D01*
X36250000Y-48461928D01*
X36125518Y-48474188D01*
X36006066Y-48510423D01*
X35989502Y-48455820D01*
X35930537Y-48345506D01*
X35851185Y-48248815D01*
X35754494Y-48169463D01*
X35718082Y-48150000D01*
X37611928Y-48150000D01*
X37615000Y-48264250D01*
X37773750Y-48423000D01*
X38573000Y-48423000D01*
X38573000Y-47673750D01*
X38414250Y-47515000D01*
X38250000Y-47511928D01*
X38125518Y-47524188D01*
X38005820Y-47560498D01*
X37895506Y-47619463D01*
X37798815Y-47698815D01*
X37719463Y-47795506D01*
X37660498Y-47905820D01*
X37624188Y-48025518D01*
X37611928Y-48150000D01*
X35718082Y-48150000D01*
X35644180Y-48110498D01*
X35524482Y-48074188D01*
X35400000Y-48061928D01*
X33434990Y-48061928D01*
X33434990Y-46191994D01*
X33643762Y-46052497D01*
X33832497Y-45863762D01*
X33980785Y-45641833D01*
X34082928Y-45395239D01*
X34135000Y-45133456D01*
X34135000Y-44866544D01*
X34082928Y-44604761D01*
X33980785Y-44358167D01*
X33832497Y-44136238D01*
X33665000Y-43968741D01*
X33665000Y-43338072D01*
X34150001Y-43338072D01*
X34323255Y-43321008D01*
X34489851Y-43270472D01*
X34643387Y-43188405D01*
X34777962Y-43077962D01*
X34800000Y-43051109D01*
X34822038Y-43077962D01*
X34956613Y-43188405D01*
X35110149Y-43270472D01*
X35276745Y-43321008D01*
X35449999Y-43338072D01*
X36100001Y-43338072D01*
X36273255Y-43321008D01*
X36439851Y-43270472D01*
X36593387Y-43188405D01*
X36727962Y-43077962D01*
X36733342Y-43071406D01*
X36798815Y-43151185D01*
X36895506Y-43230537D01*
X37005820Y-43289502D01*
X37125518Y-43325812D01*
X37250000Y-43338072D01*
X37539250Y-43335000D01*
X37698000Y-43176250D01*
X37698000Y-42127000D01*
X37952000Y-42127000D01*
X37952000Y-43176250D01*
X38110750Y-43335000D01*
X38400000Y-43338072D01*
X38524482Y-43325812D01*
X38644180Y-43289502D01*
X38754494Y-43230537D01*
X38851185Y-43151185D01*
X38930537Y-43054494D01*
X38989502Y-42944180D01*
X39025812Y-42824482D01*
X39038072Y-42700000D01*
X39035000Y-42285750D01*
X38876250Y-42127000D01*
X37952000Y-42127000D01*
X37698000Y-42127000D01*
X37678000Y-42127000D01*
X37678000Y-41873000D01*
X37698000Y-41873000D01*
X37698000Y-40823750D01*
X37952000Y-40823750D01*
X37952000Y-41873000D01*
X38876250Y-41873000D01*
X39035000Y-41714250D01*
X39038072Y-41300000D01*
X39025812Y-41175518D01*
X38989502Y-41055820D01*
X38930537Y-40945506D01*
X38851185Y-40848815D01*
X38754494Y-40769463D01*
X38644180Y-40710498D01*
X38524482Y-40674188D01*
X38400000Y-40661928D01*
X38110750Y-40665000D01*
X37952000Y-40823750D01*
X37698000Y-40823750D01*
X37539250Y-40665000D01*
X37250000Y-40661928D01*
X37125518Y-40674188D01*
X37005820Y-40710498D01*
X36895506Y-40769463D01*
X36798815Y-40848815D01*
X36733342Y-40928594D01*
X36727962Y-40922038D01*
X36593387Y-40811595D01*
X36439851Y-40729528D01*
X36273255Y-40678992D01*
X36100001Y-40661928D01*
X35449999Y-40661928D01*
X35276745Y-40678992D01*
X35110149Y-40729528D01*
X34956613Y-40811595D01*
X34822038Y-40922038D01*
X34800000Y-40948891D01*
X34777962Y-40922038D01*
X34643387Y-40811595D01*
X34489851Y-40729528D01*
X34323255Y-40678992D01*
X34150001Y-40661928D01*
X33665000Y-40661928D01*
X33665000Y-40031259D01*
X33832497Y-39863762D01*
X33980785Y-39641833D01*
X34082928Y-39395239D01*
X34135000Y-39133456D01*
X34135000Y-38866544D01*
X34082928Y-38604761D01*
X33980785Y-38358167D01*
X33832497Y-38136238D01*
X33665000Y-37968741D01*
X33665000Y-33598469D01*
X33669281Y-33555000D01*
X33665000Y-33511531D01*
X33665000Y-33511523D01*
X33652195Y-33381510D01*
X33601589Y-33214687D01*
X33519411Y-33060941D01*
X33408817Y-32926183D01*
X33378609Y-32901391D01*
X33353817Y-32871183D01*
X33320049Y-32843470D01*
X25781534Y-25304956D01*
X25753817Y-25271183D01*
X25619059Y-25160589D01*
X25465313Y-25078411D01*
X25298490Y-25027805D01*
X25168477Y-25015000D01*
X25168469Y-25015000D01*
X25125000Y-25010719D01*
X25081531Y-25015000D01*
X23294656Y-25015000D01*
X23253475Y-24953368D01*
X23046632Y-24746525D01*
X22864466Y-24624805D01*
X22981355Y-24555178D01*
X23197588Y-24360269D01*
X23371641Y-24126920D01*
X23496825Y-23864099D01*
X23541476Y-23716890D01*
X23420155Y-23487000D01*
X22227000Y-23487000D01*
X22227000Y-23507000D01*
X21973000Y-23507000D01*
X21973000Y-23487000D01*
X21953000Y-23487000D01*
X21953000Y-23233000D01*
X21973000Y-23233000D01*
X21973000Y-22039186D01*
X22227000Y-22039186D01*
X22227000Y-23233000D01*
X23420155Y-23233000D01*
X23541476Y-23003110D01*
X23496825Y-22855901D01*
X23371641Y-22593080D01*
X23197588Y-22359731D01*
X22981355Y-22164822D01*
X22731252Y-22015843D01*
X22456891Y-21918519D01*
X22227000Y-22039186D01*
X21973000Y-22039186D01*
X21743109Y-21918519D01*
X21468748Y-22015843D01*
X21218645Y-22164822D01*
X21002412Y-22359731D01*
X20828359Y-22593080D01*
X20760000Y-22736598D01*
X20760000Y-19660000D01*
X39440000Y-19660000D01*
X39440001Y-47584990D01*
G37*
X39440001Y-47584990D02*
X39394180Y-47560498D01*
X39274482Y-47524188D01*
X39150000Y-47511928D01*
X38985750Y-47515000D01*
X38827000Y-47673750D01*
X38827000Y-48423000D01*
X38847000Y-48423000D01*
X38847000Y-48677000D01*
X38827000Y-48677000D01*
X38827000Y-48697000D01*
X38573000Y-48697000D01*
X38573000Y-48677000D01*
X37773750Y-48677000D01*
X37689143Y-48761607D01*
X37680537Y-48745506D01*
X37601185Y-48648815D01*
X37504494Y-48569463D01*
X37394180Y-48510498D01*
X37274482Y-48474188D01*
X37150000Y-48461928D01*
X36250000Y-48461928D01*
X36125518Y-48474188D01*
X36006066Y-48510423D01*
X35989502Y-48455820D01*
X35930537Y-48345506D01*
X35851185Y-48248815D01*
X35754494Y-48169463D01*
X35718082Y-48150000D01*
X37611928Y-48150000D01*
X37615000Y-48264250D01*
X37773750Y-48423000D01*
X38573000Y-48423000D01*
X38573000Y-47673750D01*
X38414250Y-47515000D01*
X38250000Y-47511928D01*
X38125518Y-47524188D01*
X38005820Y-47560498D01*
X37895506Y-47619463D01*
X37798815Y-47698815D01*
X37719463Y-47795506D01*
X37660498Y-47905820D01*
X37624188Y-48025518D01*
X37611928Y-48150000D01*
X35718082Y-48150000D01*
X35644180Y-48110498D01*
X35524482Y-48074188D01*
X35400000Y-48061928D01*
X33434990Y-48061928D01*
X33434990Y-46191994D01*
X33643762Y-46052497D01*
X33832497Y-45863762D01*
X33980785Y-45641833D01*
X34082928Y-45395239D01*
X34135000Y-45133456D01*
X34135000Y-44866544D01*
X34082928Y-44604761D01*
X33980785Y-44358167D01*
X33832497Y-44136238D01*
X33665000Y-43968741D01*
X33665000Y-43338072D01*
X34150001Y-43338072D01*
X34323255Y-43321008D01*
X34489851Y-43270472D01*
X34643387Y-43188405D01*
X34777962Y-43077962D01*
X34800000Y-43051109D01*
X34822038Y-43077962D01*
X34956613Y-43188405D01*
X35110149Y-43270472D01*
X35276745Y-43321008D01*
X35449999Y-43338072D01*
X36100001Y-43338072D01*
X36273255Y-43321008D01*
X36439851Y-43270472D01*
X36593387Y-43188405D01*
X36727962Y-43077962D01*
X36733342Y-43071406D01*
X36798815Y-43151185D01*
X36895506Y-43230537D01*
X37005820Y-43289502D01*
X37125518Y-43325812D01*
X37250000Y-43338072D01*
X37539250Y-43335000D01*
X37698000Y-43176250D01*
X37698000Y-42127000D01*
X37952000Y-42127000D01*
X37952000Y-43176250D01*
X38110750Y-43335000D01*
X38400000Y-43338072D01*
X38524482Y-43325812D01*
X38644180Y-43289502D01*
X38754494Y-43230537D01*
X38851185Y-43151185D01*
X38930537Y-43054494D01*
X38989502Y-42944180D01*
X39025812Y-42824482D01*
X39038072Y-42700000D01*
X39035000Y-42285750D01*
X38876250Y-42127000D01*
X37952000Y-42127000D01*
X37698000Y-42127000D01*
X37678000Y-42127000D01*
X37678000Y-41873000D01*
X37698000Y-41873000D01*
X37698000Y-40823750D01*
X37952000Y-40823750D01*
X37952000Y-41873000D01*
X38876250Y-41873000D01*
X39035000Y-41714250D01*
X39038072Y-41300000D01*
X39025812Y-41175518D01*
X38989502Y-41055820D01*
X38930537Y-40945506D01*
X38851185Y-40848815D01*
X38754494Y-40769463D01*
X38644180Y-40710498D01*
X38524482Y-40674188D01*
X38400000Y-40661928D01*
X38110750Y-40665000D01*
X37952000Y-40823750D01*
X37698000Y-40823750D01*
X37539250Y-40665000D01*
X37250000Y-40661928D01*
X37125518Y-40674188D01*
X37005820Y-40710498D01*
X36895506Y-40769463D01*
X36798815Y-40848815D01*
X36733342Y-40928594D01*
X36727962Y-40922038D01*
X36593387Y-40811595D01*
X36439851Y-40729528D01*
X36273255Y-40678992D01*
X36100001Y-40661928D01*
X35449999Y-40661928D01*
X35276745Y-40678992D01*
X35110149Y-40729528D01*
X34956613Y-40811595D01*
X34822038Y-40922038D01*
X34800000Y-40948891D01*
X34777962Y-40922038D01*
X34643387Y-40811595D01*
X34489851Y-40729528D01*
X34323255Y-40678992D01*
X34150001Y-40661928D01*
X33665000Y-40661928D01*
X33665000Y-40031259D01*
X33832497Y-39863762D01*
X33980785Y-39641833D01*
X34082928Y-39395239D01*
X34135000Y-39133456D01*
X34135000Y-38866544D01*
X34082928Y-38604761D01*
X33980785Y-38358167D01*
X33832497Y-38136238D01*
X33665000Y-37968741D01*
X33665000Y-33598469D01*
X33669281Y-33555000D01*
X33665000Y-33511531D01*
X33665000Y-33511523D01*
X33652195Y-33381510D01*
X33601589Y-33214687D01*
X33519411Y-33060941D01*
X33408817Y-32926183D01*
X33378609Y-32901391D01*
X33353817Y-32871183D01*
X33320049Y-32843470D01*
X25781534Y-25304956D01*
X25753817Y-25271183D01*
X25619059Y-25160589D01*
X25465313Y-25078411D01*
X25298490Y-25027805D01*
X25168477Y-25015000D01*
X25168469Y-25015000D01*
X25125000Y-25010719D01*
X25081531Y-25015000D01*
X23294656Y-25015000D01*
X23253475Y-24953368D01*
X23046632Y-24746525D01*
X22864466Y-24624805D01*
X22981355Y-24555178D01*
X23197588Y-24360269D01*
X23371641Y-24126920D01*
X23496825Y-23864099D01*
X23541476Y-23716890D01*
X23420155Y-23487000D01*
X22227000Y-23487000D01*
X22227000Y-23507000D01*
X21973000Y-23507000D01*
X21973000Y-23487000D01*
X21953000Y-23487000D01*
X21953000Y-23233000D01*
X21973000Y-23233000D01*
X21973000Y-22039186D01*
X22227000Y-22039186D01*
X22227000Y-23233000D01*
X23420155Y-23233000D01*
X23541476Y-23003110D01*
X23496825Y-22855901D01*
X23371641Y-22593080D01*
X23197588Y-22359731D01*
X22981355Y-22164822D01*
X22731252Y-22015843D01*
X22456891Y-21918519D01*
X22227000Y-22039186D01*
X21973000Y-22039186D01*
X21743109Y-21918519D01*
X21468748Y-22015843D01*
X21218645Y-22164822D01*
X21002412Y-22359731D01*
X20828359Y-22593080D01*
X20760000Y-22736598D01*
X20760000Y-19660000D01*
X39440000Y-19660000D01*
X39440001Y-47584990D01*
G36*
X24611595Y-34443387D02*
G01*
X24722038Y-34577962D01*
X24856613Y-34688405D01*
X25010149Y-34770472D01*
X25176745Y-34821008D01*
X25349999Y-34838072D01*
X26000001Y-34838072D01*
X26173255Y-34821008D01*
X26339851Y-34770472D01*
X26493387Y-34688405D01*
X26627962Y-34577962D01*
X26700000Y-34490184D01*
X26772038Y-34577962D01*
X26906613Y-34688405D01*
X27060149Y-34770472D01*
X27226745Y-34821008D01*
X27399999Y-34838072D01*
X28050001Y-34838072D01*
X28223255Y-34821008D01*
X28389851Y-34770472D01*
X28543387Y-34688405D01*
X28677962Y-34577962D01*
X28788405Y-34443387D01*
X28819614Y-34385000D01*
X31895001Y-34385000D01*
X31895000Y-37968741D01*
X31727503Y-38136238D01*
X31579215Y-38358167D01*
X31510000Y-38525266D01*
X31440785Y-38358167D01*
X31292497Y-38136238D01*
X31103762Y-37947503D01*
X30881833Y-37799215D01*
X30635239Y-37697072D01*
X30373456Y-37645000D01*
X30106544Y-37645000D01*
X29844761Y-37697072D01*
X29598167Y-37799215D01*
X29376238Y-37947503D01*
X29187503Y-38136238D01*
X29039215Y-38358167D01*
X28970000Y-38525266D01*
X28900785Y-38358167D01*
X28752497Y-38136238D01*
X28563762Y-37947503D01*
X28341833Y-37799215D01*
X28095239Y-37697072D01*
X27833456Y-37645000D01*
X27566544Y-37645000D01*
X27304761Y-37697072D01*
X27058167Y-37799215D01*
X26836238Y-37947503D01*
X26647503Y-38136238D01*
X26499215Y-38358167D01*
X26397072Y-38604761D01*
X26345000Y-38866544D01*
X26345000Y-39133456D01*
X26397072Y-39395239D01*
X26488100Y-39615000D01*
X23563521Y-39615000D01*
X23575812Y-39574482D01*
X23588072Y-39450000D01*
X23585000Y-38885750D01*
X23426250Y-38727000D01*
X22227000Y-38727000D01*
X22227000Y-38747000D01*
X21973000Y-38747000D01*
X21973000Y-38727000D01*
X21953000Y-38727000D01*
X21953000Y-38473000D01*
X21973000Y-38473000D01*
X21973000Y-38453000D01*
X22227000Y-38453000D01*
X22227000Y-38473000D01*
X23426250Y-38473000D01*
X23585000Y-38314250D01*
X23588072Y-37750000D01*
X23575812Y-37625518D01*
X23539502Y-37505820D01*
X23480537Y-37395506D01*
X23401185Y-37298815D01*
X23304494Y-37219463D01*
X23194180Y-37160498D01*
X23121620Y-37138487D01*
X23253475Y-37006632D01*
X23415990Y-36763411D01*
X23527932Y-36493158D01*
X23585000Y-36206260D01*
X23585000Y-35913740D01*
X23527932Y-35626842D01*
X23415990Y-35356589D01*
X23253475Y-35113368D01*
X23046632Y-34906525D01*
X22872240Y-34790000D01*
X23046632Y-34673475D01*
X23253475Y-34466632D01*
X23361474Y-34305000D01*
X24537625Y-34305000D01*
X24611595Y-34443387D01*
G37*
X24611595Y-34443387D02*
X24722038Y-34577962D01*
X24856613Y-34688405D01*
X25010149Y-34770472D01*
X25176745Y-34821008D01*
X25349999Y-34838072D01*
X26000001Y-34838072D01*
X26173255Y-34821008D01*
X26339851Y-34770472D01*
X26493387Y-34688405D01*
X26627962Y-34577962D01*
X26700000Y-34490184D01*
X26772038Y-34577962D01*
X26906613Y-34688405D01*
X27060149Y-34770472D01*
X27226745Y-34821008D01*
X27399999Y-34838072D01*
X28050001Y-34838072D01*
X28223255Y-34821008D01*
X28389851Y-34770472D01*
X28543387Y-34688405D01*
X28677962Y-34577962D01*
X28788405Y-34443387D01*
X28819614Y-34385000D01*
X31895001Y-34385000D01*
X31895000Y-37968741D01*
X31727503Y-38136238D01*
X31579215Y-38358167D01*
X31510000Y-38525266D01*
X31440785Y-38358167D01*
X31292497Y-38136238D01*
X31103762Y-37947503D01*
X30881833Y-37799215D01*
X30635239Y-37697072D01*
X30373456Y-37645000D01*
X30106544Y-37645000D01*
X29844761Y-37697072D01*
X29598167Y-37799215D01*
X29376238Y-37947503D01*
X29187503Y-38136238D01*
X29039215Y-38358167D01*
X28970000Y-38525266D01*
X28900785Y-38358167D01*
X28752497Y-38136238D01*
X28563762Y-37947503D01*
X28341833Y-37799215D01*
X28095239Y-37697072D01*
X27833456Y-37645000D01*
X27566544Y-37645000D01*
X27304761Y-37697072D01*
X27058167Y-37799215D01*
X26836238Y-37947503D01*
X26647503Y-38136238D01*
X26499215Y-38358167D01*
X26397072Y-38604761D01*
X26345000Y-38866544D01*
X26345000Y-39133456D01*
X26397072Y-39395239D01*
X26488100Y-39615000D01*
X23563521Y-39615000D01*
X23575812Y-39574482D01*
X23588072Y-39450000D01*
X23585000Y-38885750D01*
X23426250Y-38727000D01*
X22227000Y-38727000D01*
X22227000Y-38747000D01*
X21973000Y-38747000D01*
X21973000Y-38727000D01*
X21953000Y-38727000D01*
X21953000Y-38473000D01*
X21973000Y-38473000D01*
X21973000Y-38453000D01*
X22227000Y-38453000D01*
X22227000Y-38473000D01*
X23426250Y-38473000D01*
X23585000Y-38314250D01*
X23588072Y-37750000D01*
X23575812Y-37625518D01*
X23539502Y-37505820D01*
X23480537Y-37395506D01*
X23401185Y-37298815D01*
X23304494Y-37219463D01*
X23194180Y-37160498D01*
X23121620Y-37138487D01*
X23253475Y-37006632D01*
X23415990Y-36763411D01*
X23527932Y-36493158D01*
X23585000Y-36206260D01*
X23585000Y-35913740D01*
X23527932Y-35626842D01*
X23415990Y-35356589D01*
X23253475Y-35113368D01*
X23046632Y-34906525D01*
X22872240Y-34790000D01*
X23046632Y-34673475D01*
X23253475Y-34466632D01*
X23361474Y-34305000D01*
X24537625Y-34305000D01*
X24611595Y-34443387D01*
%TD*%
M02*
