%TF.GenerationSoftware,KiCad,Pcbnew,5.1.6*%
%TF.CreationDate,2020-07-14T13:58:31+04:00*%
%TF.ProjectId,FC_more_vcas,46435f6d-6f72-4655-9f76-6361732e6b69,rev?*%
%TF.SameCoordinates,Original*%
%TF.FileFunction,Soldermask,Bot*%
%TF.FilePolarity,Negative*%
%FSLAX46Y46*%
G04 Gerber Fmt 4.6, Leading zero omitted, Abs format (unit mm)*
G04 Created by KiCad (PCBNEW 5.1.6) date 2020-07-14 13:58:31*
%MOMM*%
%LPD*%
G01*
G04 APERTURE LIST*
%ADD10C,1.540000*%
%ADD11C,1.700000*%
%ADD12R,1.700000X1.700000*%
%ADD13O,3.340000X2.820000*%
%ADD14C,1.900000*%
%ADD15R,1.900000X1.900000*%
%ADD16C,2.230000*%
%ADD17R,2.030000X1.930000*%
%ADD18R,1.800000X1.800000*%
%ADD19O,1.800000X1.800000*%
%ADD20R,2.500000X1.700000*%
%ADD21O,2.500000X1.700000*%
G04 APERTURE END LIST*
D10*
%TO.C,BIAS1*%
X27700000Y-39000000D03*
X30240000Y-39000000D03*
X32780000Y-39000000D03*
%TD*%
%TO.C,BIAS2*%
X32780000Y-45000000D03*
X30240000Y-45000000D03*
X27700000Y-45000000D03*
%TD*%
D11*
%TO.C,C1*%
X48500000Y-37500000D03*
D12*
X48500000Y-35000000D03*
%TD*%
%TO.C,C2*%
X54500000Y-37500000D03*
D11*
X54500000Y-35000000D03*
%TD*%
D12*
%TO.C,C3*%
X54500000Y-101000000D03*
D11*
X54500000Y-103500000D03*
%TD*%
%TO.C,C4*%
X48500000Y-101000000D03*
D12*
X48500000Y-103500000D03*
%TD*%
%TO.C,C5*%
X23200000Y-92500000D03*
D11*
X25700000Y-92500000D03*
%TD*%
%TO.C,C6*%
X33200000Y-92500000D03*
D12*
X30700000Y-92500000D03*
%TD*%
D13*
%TO.C,INITIAL_CV1*%
X51500000Y-50800000D03*
X51500000Y-41200000D03*
D14*
X59000000Y-43500000D03*
X59000000Y-46000000D03*
D15*
X59000000Y-48500000D03*
%TD*%
%TO.C,INITIAL_CV2*%
X44000000Y-89500000D03*
D14*
X44000000Y-92000000D03*
X44000000Y-94500000D03*
D13*
X51500000Y-96800000D03*
X51500000Y-87200000D03*
%TD*%
D16*
%TO.C,INPUT_1*%
X46500000Y-23600000D03*
D17*
X46500000Y-20500000D03*
D16*
X46500000Y-31900000D03*
%TD*%
%TO.C,INPUT_2*%
X46500000Y-106100000D03*
D17*
X46500000Y-117500000D03*
D16*
X46500000Y-114400000D03*
%TD*%
D18*
%TO.C,J1*%
X22100000Y-38600000D03*
D19*
X22100000Y-36060000D03*
X22100000Y-33520000D03*
X22100000Y-30980000D03*
X22100000Y-28440000D03*
X22100000Y-25900000D03*
X22100000Y-23360000D03*
%TD*%
%TO.C,J2*%
X38150000Y-73560000D03*
X38150000Y-76100000D03*
X38150000Y-78640000D03*
X38150000Y-81180000D03*
X38150000Y-83720000D03*
X38150000Y-86260000D03*
D18*
X38150000Y-88800000D03*
%TD*%
%TO.C,J3*%
X43500000Y-51500000D03*
D19*
X43500000Y-48960000D03*
X43500000Y-46420000D03*
X43500000Y-43880000D03*
X43500000Y-41340000D03*
X43500000Y-38800000D03*
X43500000Y-36260000D03*
%TD*%
D18*
%TO.C,J4*%
X59500000Y-86500000D03*
D19*
X59500000Y-89040000D03*
X59500000Y-91580000D03*
X59500000Y-94120000D03*
X59500000Y-96660000D03*
X59500000Y-99200000D03*
X59500000Y-101740000D03*
%TD*%
D18*
%TO.C,J5*%
X23200000Y-101000000D03*
D19*
X23200000Y-103540000D03*
X25740000Y-101000000D03*
X25740000Y-103540000D03*
X28280000Y-101000000D03*
X28280000Y-103540000D03*
X30820000Y-101000000D03*
X30820000Y-103540000D03*
X33360000Y-101000000D03*
X33360000Y-103540000D03*
%TD*%
D16*
%TO.C,IN_CV_1*%
X46500000Y-68400000D03*
D17*
X46500000Y-71500000D03*
D16*
X46500000Y-60100000D03*
%TD*%
%TO.C,IN_CV_2*%
X56500000Y-77900000D03*
D17*
X56500000Y-66500000D03*
D16*
X56500000Y-69600000D03*
%TD*%
%TO.C,OUTPUT_1*%
X56500000Y-23600000D03*
D17*
X56500000Y-20500000D03*
D16*
X56500000Y-31900000D03*
%TD*%
%TO.C,OUTPUT_2*%
X56500000Y-106100000D03*
D17*
X56500000Y-117500000D03*
D16*
X56500000Y-114400000D03*
%TD*%
%TO.C,R3*%
G36*
G01*
X47900000Y-27978262D02*
X47900000Y-27021738D01*
G75*
G02*
X48171738Y-26750000I271738J0D01*
G01*
X48878262Y-26750000D01*
G75*
G02*
X49150000Y-27021738I0J-271738D01*
G01*
X49150000Y-27978262D01*
G75*
G02*
X48878262Y-28250000I-271738J0D01*
G01*
X48171738Y-28250000D01*
G75*
G02*
X47900000Y-27978262I0J271738D01*
G01*
G37*
G36*
G01*
X45850000Y-27978262D02*
X45850000Y-27021738D01*
G75*
G02*
X46121738Y-26750000I271738J0D01*
G01*
X46828262Y-26750000D01*
G75*
G02*
X47100000Y-27021738I0J-271738D01*
G01*
X47100000Y-27978262D01*
G75*
G02*
X46828262Y-28250000I-271738J0D01*
G01*
X46121738Y-28250000D01*
G75*
G02*
X45850000Y-27978262I0J271738D01*
G01*
G37*
%TD*%
%TO.C,R4*%
G36*
G01*
X55100000Y-27021738D02*
X55100000Y-27978262D01*
G75*
G02*
X54828262Y-28250000I-271738J0D01*
G01*
X54121738Y-28250000D01*
G75*
G02*
X53850000Y-27978262I0J271738D01*
G01*
X53850000Y-27021738D01*
G75*
G02*
X54121738Y-26750000I271738J0D01*
G01*
X54828262Y-26750000D01*
G75*
G02*
X55100000Y-27021738I0J-271738D01*
G01*
G37*
G36*
G01*
X57150000Y-27021738D02*
X57150000Y-27978262D01*
G75*
G02*
X56878262Y-28250000I-271738J0D01*
G01*
X56171738Y-28250000D01*
G75*
G02*
X55900000Y-27978262I0J271738D01*
G01*
X55900000Y-27021738D01*
G75*
G02*
X56171738Y-26750000I271738J0D01*
G01*
X56878262Y-26750000D01*
G75*
G02*
X57150000Y-27021738I0J-271738D01*
G01*
G37*
%TD*%
%TO.C,R13*%
G36*
G01*
X57150000Y-110521738D02*
X57150000Y-111478262D01*
G75*
G02*
X56878262Y-111750000I-271738J0D01*
G01*
X56171738Y-111750000D01*
G75*
G02*
X55900000Y-111478262I0J271738D01*
G01*
X55900000Y-110521738D01*
G75*
G02*
X56171738Y-110250000I271738J0D01*
G01*
X56878262Y-110250000D01*
G75*
G02*
X57150000Y-110521738I0J-271738D01*
G01*
G37*
G36*
G01*
X55100000Y-110521738D02*
X55100000Y-111478262D01*
G75*
G02*
X54828262Y-111750000I-271738J0D01*
G01*
X54121738Y-111750000D01*
G75*
G02*
X53850000Y-111478262I0J271738D01*
G01*
X53850000Y-110521738D01*
G75*
G02*
X54121738Y-110250000I271738J0D01*
G01*
X54828262Y-110250000D01*
G75*
G02*
X55100000Y-110521738I0J-271738D01*
G01*
G37*
%TD*%
%TO.C,R14*%
G36*
G01*
X45850000Y-111478262D02*
X45850000Y-110521738D01*
G75*
G02*
X46121738Y-110250000I271738J0D01*
G01*
X46828262Y-110250000D01*
G75*
G02*
X47100000Y-110521738I0J-271738D01*
G01*
X47100000Y-111478262D01*
G75*
G02*
X46828262Y-111750000I-271738J0D01*
G01*
X46121738Y-111750000D01*
G75*
G02*
X45850000Y-111478262I0J271738D01*
G01*
G37*
G36*
G01*
X47900000Y-111478262D02*
X47900000Y-110521738D01*
G75*
G02*
X48171738Y-110250000I271738J0D01*
G01*
X48878262Y-110250000D01*
G75*
G02*
X49150000Y-110521738I0J-271738D01*
G01*
X49150000Y-111478262D01*
G75*
G02*
X48878262Y-111750000I-271738J0D01*
G01*
X48171738Y-111750000D01*
G75*
G02*
X47900000Y-111478262I0J271738D01*
G01*
G37*
%TD*%
%TO.C,R15*%
G36*
G01*
X49521738Y-44350000D02*
X50478262Y-44350000D01*
G75*
G02*
X50750000Y-44621738I0J-271738D01*
G01*
X50750000Y-45328262D01*
G75*
G02*
X50478262Y-45600000I-271738J0D01*
G01*
X49521738Y-45600000D01*
G75*
G02*
X49250000Y-45328262I0J271738D01*
G01*
X49250000Y-44621738D01*
G75*
G02*
X49521738Y-44350000I271738J0D01*
G01*
G37*
G36*
G01*
X49521738Y-46400000D02*
X50478262Y-46400000D01*
G75*
G02*
X50750000Y-46671738I0J-271738D01*
G01*
X50750000Y-47378262D01*
G75*
G02*
X50478262Y-47650000I-271738J0D01*
G01*
X49521738Y-47650000D01*
G75*
G02*
X49250000Y-47378262I0J271738D01*
G01*
X49250000Y-46671738D01*
G75*
G02*
X49521738Y-46400000I271738J0D01*
G01*
G37*
%TD*%
%TO.C,R16*%
G36*
G01*
X52521738Y-44350000D02*
X53478262Y-44350000D01*
G75*
G02*
X53750000Y-44621738I0J-271738D01*
G01*
X53750000Y-45328262D01*
G75*
G02*
X53478262Y-45600000I-271738J0D01*
G01*
X52521738Y-45600000D01*
G75*
G02*
X52250000Y-45328262I0J271738D01*
G01*
X52250000Y-44621738D01*
G75*
G02*
X52521738Y-44350000I271738J0D01*
G01*
G37*
G36*
G01*
X52521738Y-46400000D02*
X53478262Y-46400000D01*
G75*
G02*
X53750000Y-46671738I0J-271738D01*
G01*
X53750000Y-47378262D01*
G75*
G02*
X53478262Y-47650000I-271738J0D01*
G01*
X52521738Y-47650000D01*
G75*
G02*
X52250000Y-47378262I0J271738D01*
G01*
X52250000Y-46671738D01*
G75*
G02*
X52521738Y-46400000I271738J0D01*
G01*
G37*
%TD*%
%TO.C,R17*%
G36*
G01*
X53478262Y-91600000D02*
X52521738Y-91600000D01*
G75*
G02*
X52250000Y-91328262I0J271738D01*
G01*
X52250000Y-90621738D01*
G75*
G02*
X52521738Y-90350000I271738J0D01*
G01*
X53478262Y-90350000D01*
G75*
G02*
X53750000Y-90621738I0J-271738D01*
G01*
X53750000Y-91328262D01*
G75*
G02*
X53478262Y-91600000I-271738J0D01*
G01*
G37*
G36*
G01*
X53478262Y-93650000D02*
X52521738Y-93650000D01*
G75*
G02*
X52250000Y-93378262I0J271738D01*
G01*
X52250000Y-92671738D01*
G75*
G02*
X52521738Y-92400000I271738J0D01*
G01*
X53478262Y-92400000D01*
G75*
G02*
X53750000Y-92671738I0J-271738D01*
G01*
X53750000Y-93378262D01*
G75*
G02*
X53478262Y-93650000I-271738J0D01*
G01*
G37*
%TD*%
%TO.C,R18*%
G36*
G01*
X50478262Y-91600000D02*
X49521738Y-91600000D01*
G75*
G02*
X49250000Y-91328262I0J271738D01*
G01*
X49250000Y-90621738D01*
G75*
G02*
X49521738Y-90350000I271738J0D01*
G01*
X50478262Y-90350000D01*
G75*
G02*
X50750000Y-90621738I0J-271738D01*
G01*
X50750000Y-91328262D01*
G75*
G02*
X50478262Y-91600000I-271738J0D01*
G01*
G37*
G36*
G01*
X50478262Y-93650000D02*
X49521738Y-93650000D01*
G75*
G02*
X49250000Y-93378262I0J271738D01*
G01*
X49250000Y-92671738D01*
G75*
G02*
X49521738Y-92400000I271738J0D01*
G01*
X50478262Y-92400000D01*
G75*
G02*
X50750000Y-92671738I0J-271738D01*
G01*
X50750000Y-93378262D01*
G75*
G02*
X50478262Y-93650000I-271738J0D01*
G01*
G37*
%TD*%
D20*
%TO.C,U1*%
X34200000Y-49500000D03*
D21*
X26580000Y-67280000D03*
X34200000Y-52040000D03*
X26580000Y-64740000D03*
X34200000Y-54580000D03*
X26580000Y-62200000D03*
X34200000Y-57120000D03*
X26580000Y-59660000D03*
X34200000Y-59660000D03*
X26580000Y-57120000D03*
X34200000Y-62200000D03*
X26580000Y-54580000D03*
X34200000Y-64740000D03*
X26580000Y-52040000D03*
X34200000Y-67280000D03*
X26580000Y-49500000D03*
%TD*%
M02*
