%TF.GenerationSoftware,KiCad,Pcbnew,5.1.6*%
%TF.CreationDate,2020-07-14T13:58:31+04:00*%
%TF.ProjectId,FC_more_vcas,46435f6d-6f72-4655-9f76-6361732e6b69,rev?*%
%TF.SameCoordinates,Original*%
%TF.FileFunction,Legend,Bot*%
%TF.FilePolarity,Positive*%
%FSLAX46Y46*%
G04 Gerber Fmt 4.6, Leading zero omitted, Abs format (unit mm)*
G04 Created by KiCad (PCBNEW 5.1.6) date 2020-07-14 13:58:31*
%MOMM*%
%LPD*%
G01*
G04 APERTURE LIST*
%ADD10C,0.120000*%
%ADD11C,0.150000*%
G04 APERTURE END LIST*
D10*
%TO.C,BIAS1*%
X35125000Y-36470000D02*
X25355000Y-36470000D01*
X35125000Y-41540000D02*
X25355000Y-41540000D01*
X35125000Y-36470000D02*
X35125000Y-41540000D01*
X25355000Y-36470000D02*
X25355000Y-41540000D01*
%TO.C,BIAS2*%
X25355000Y-42470000D02*
X25355000Y-47540000D01*
X35125000Y-42470000D02*
X35125000Y-47540000D01*
X35125000Y-47540000D02*
X25355000Y-47540000D01*
X35125000Y-42470000D02*
X25355000Y-42470000D01*
%TO.C,C1*%
X46775000Y-33695225D02*
X47275000Y-33695225D01*
X47025000Y-33445225D02*
X47025000Y-33945225D01*
X48216000Y-38851000D02*
X48784000Y-38851000D01*
X47982000Y-38811000D02*
X49018000Y-38811000D01*
X47823000Y-38771000D02*
X49177000Y-38771000D01*
X47695000Y-38731000D02*
X49305000Y-38731000D01*
X47585000Y-38691000D02*
X49415000Y-38691000D01*
X47489000Y-38651000D02*
X49511000Y-38651000D01*
X47402000Y-38611000D02*
X49598000Y-38611000D01*
X47322000Y-38571000D02*
X49678000Y-38571000D01*
X49540000Y-38531000D02*
X49751000Y-38531000D01*
X47249000Y-38531000D02*
X47460000Y-38531000D01*
X49540000Y-38491000D02*
X49819000Y-38491000D01*
X47181000Y-38491000D02*
X47460000Y-38491000D01*
X49540000Y-38451000D02*
X49883000Y-38451000D01*
X47117000Y-38451000D02*
X47460000Y-38451000D01*
X49540000Y-38411000D02*
X49943000Y-38411000D01*
X47057000Y-38411000D02*
X47460000Y-38411000D01*
X49540000Y-38371000D02*
X50000000Y-38371000D01*
X47000000Y-38371000D02*
X47460000Y-38371000D01*
X49540000Y-38331000D02*
X50054000Y-38331000D01*
X46946000Y-38331000D02*
X47460000Y-38331000D01*
X49540000Y-38291000D02*
X50105000Y-38291000D01*
X46895000Y-38291000D02*
X47460000Y-38291000D01*
X49540000Y-38251000D02*
X50153000Y-38251000D01*
X46847000Y-38251000D02*
X47460000Y-38251000D01*
X49540000Y-38211000D02*
X50199000Y-38211000D01*
X46801000Y-38211000D02*
X47460000Y-38211000D01*
X49540000Y-38171000D02*
X50243000Y-38171000D01*
X46757000Y-38171000D02*
X47460000Y-38171000D01*
X49540000Y-38131000D02*
X50285000Y-38131000D01*
X46715000Y-38131000D02*
X47460000Y-38131000D01*
X49540000Y-38091000D02*
X50326000Y-38091000D01*
X46674000Y-38091000D02*
X47460000Y-38091000D01*
X49540000Y-38051000D02*
X50364000Y-38051000D01*
X46636000Y-38051000D02*
X47460000Y-38051000D01*
X49540000Y-38011000D02*
X50401000Y-38011000D01*
X46599000Y-38011000D02*
X47460000Y-38011000D01*
X49540000Y-37971000D02*
X50437000Y-37971000D01*
X46563000Y-37971000D02*
X47460000Y-37971000D01*
X49540000Y-37931000D02*
X50471000Y-37931000D01*
X46529000Y-37931000D02*
X47460000Y-37931000D01*
X49540000Y-37891000D02*
X50504000Y-37891000D01*
X46496000Y-37891000D02*
X47460000Y-37891000D01*
X49540000Y-37851000D02*
X50535000Y-37851000D01*
X46465000Y-37851000D02*
X47460000Y-37851000D01*
X49540000Y-37811000D02*
X50565000Y-37811000D01*
X46435000Y-37811000D02*
X47460000Y-37811000D01*
X49540000Y-37771000D02*
X50595000Y-37771000D01*
X46405000Y-37771000D02*
X47460000Y-37771000D01*
X49540000Y-37731000D02*
X50622000Y-37731000D01*
X46378000Y-37731000D02*
X47460000Y-37731000D01*
X49540000Y-37691000D02*
X50649000Y-37691000D01*
X46351000Y-37691000D02*
X47460000Y-37691000D01*
X49540000Y-37651000D02*
X50675000Y-37651000D01*
X46325000Y-37651000D02*
X47460000Y-37651000D01*
X49540000Y-37611000D02*
X50700000Y-37611000D01*
X46300000Y-37611000D02*
X47460000Y-37611000D01*
X49540000Y-37571000D02*
X50724000Y-37571000D01*
X46276000Y-37571000D02*
X47460000Y-37571000D01*
X49540000Y-37531000D02*
X50747000Y-37531000D01*
X46253000Y-37531000D02*
X47460000Y-37531000D01*
X49540000Y-37491000D02*
X50768000Y-37491000D01*
X46232000Y-37491000D02*
X47460000Y-37491000D01*
X49540000Y-37451000D02*
X50790000Y-37451000D01*
X46210000Y-37451000D02*
X47460000Y-37451000D01*
X49540000Y-37411000D02*
X50810000Y-37411000D01*
X46190000Y-37411000D02*
X47460000Y-37411000D01*
X49540000Y-37371000D02*
X50829000Y-37371000D01*
X46171000Y-37371000D02*
X47460000Y-37371000D01*
X49540000Y-37331000D02*
X50848000Y-37331000D01*
X46152000Y-37331000D02*
X47460000Y-37331000D01*
X49540000Y-37291000D02*
X50865000Y-37291000D01*
X46135000Y-37291000D02*
X47460000Y-37291000D01*
X49540000Y-37251000D02*
X50882000Y-37251000D01*
X46118000Y-37251000D02*
X47460000Y-37251000D01*
X49540000Y-37211000D02*
X50898000Y-37211000D01*
X46102000Y-37211000D02*
X47460000Y-37211000D01*
X49540000Y-37171000D02*
X50914000Y-37171000D01*
X46086000Y-37171000D02*
X47460000Y-37171000D01*
X49540000Y-37131000D02*
X50928000Y-37131000D01*
X46072000Y-37131000D02*
X47460000Y-37131000D01*
X49540000Y-37091000D02*
X50942000Y-37091000D01*
X46058000Y-37091000D02*
X47460000Y-37091000D01*
X49540000Y-37051000D02*
X50955000Y-37051000D01*
X46045000Y-37051000D02*
X47460000Y-37051000D01*
X49540000Y-37011000D02*
X50968000Y-37011000D01*
X46032000Y-37011000D02*
X47460000Y-37011000D01*
X49540000Y-36971000D02*
X50980000Y-36971000D01*
X46020000Y-36971000D02*
X47460000Y-36971000D01*
X49540000Y-36930000D02*
X50991000Y-36930000D01*
X46009000Y-36930000D02*
X47460000Y-36930000D01*
X49540000Y-36890000D02*
X51001000Y-36890000D01*
X45999000Y-36890000D02*
X47460000Y-36890000D01*
X49540000Y-36850000D02*
X51011000Y-36850000D01*
X45989000Y-36850000D02*
X47460000Y-36850000D01*
X49540000Y-36810000D02*
X51020000Y-36810000D01*
X45980000Y-36810000D02*
X47460000Y-36810000D01*
X49540000Y-36770000D02*
X51028000Y-36770000D01*
X45972000Y-36770000D02*
X47460000Y-36770000D01*
X49540000Y-36730000D02*
X51036000Y-36730000D01*
X45964000Y-36730000D02*
X47460000Y-36730000D01*
X49540000Y-36690000D02*
X51043000Y-36690000D01*
X45957000Y-36690000D02*
X47460000Y-36690000D01*
X49540000Y-36650000D02*
X51050000Y-36650000D01*
X45950000Y-36650000D02*
X47460000Y-36650000D01*
X49540000Y-36610000D02*
X51056000Y-36610000D01*
X45944000Y-36610000D02*
X47460000Y-36610000D01*
X49540000Y-36570000D02*
X51061000Y-36570000D01*
X45939000Y-36570000D02*
X47460000Y-36570000D01*
X49540000Y-36530000D02*
X51065000Y-36530000D01*
X45935000Y-36530000D02*
X47460000Y-36530000D01*
X49540000Y-36490000D02*
X51069000Y-36490000D01*
X45931000Y-36490000D02*
X47460000Y-36490000D01*
X45927000Y-36450000D02*
X51073000Y-36450000D01*
X45924000Y-36410000D02*
X51076000Y-36410000D01*
X45922000Y-36370000D02*
X51078000Y-36370000D01*
X45921000Y-36330000D02*
X51079000Y-36330000D01*
X45920000Y-36290000D02*
X51080000Y-36290000D01*
X45920000Y-36250000D02*
X51080000Y-36250000D01*
X51120000Y-36250000D02*
G75*
G03*
X51120000Y-36250000I-2620000J0D01*
G01*
%TO.C,C2*%
X57120000Y-36250000D02*
G75*
G03*
X57120000Y-36250000I-2620000J0D01*
G01*
X57080000Y-36250000D02*
X51920000Y-36250000D01*
X57080000Y-36210000D02*
X51920000Y-36210000D01*
X57079000Y-36170000D02*
X51921000Y-36170000D01*
X57078000Y-36130000D02*
X51922000Y-36130000D01*
X57076000Y-36090000D02*
X51924000Y-36090000D01*
X57073000Y-36050000D02*
X51927000Y-36050000D01*
X57069000Y-36010000D02*
X55540000Y-36010000D01*
X53460000Y-36010000D02*
X51931000Y-36010000D01*
X57065000Y-35970000D02*
X55540000Y-35970000D01*
X53460000Y-35970000D02*
X51935000Y-35970000D01*
X57061000Y-35930000D02*
X55540000Y-35930000D01*
X53460000Y-35930000D02*
X51939000Y-35930000D01*
X57056000Y-35890000D02*
X55540000Y-35890000D01*
X53460000Y-35890000D02*
X51944000Y-35890000D01*
X57050000Y-35850000D02*
X55540000Y-35850000D01*
X53460000Y-35850000D02*
X51950000Y-35850000D01*
X57043000Y-35810000D02*
X55540000Y-35810000D01*
X53460000Y-35810000D02*
X51957000Y-35810000D01*
X57036000Y-35770000D02*
X55540000Y-35770000D01*
X53460000Y-35770000D02*
X51964000Y-35770000D01*
X57028000Y-35730000D02*
X55540000Y-35730000D01*
X53460000Y-35730000D02*
X51972000Y-35730000D01*
X57020000Y-35690000D02*
X55540000Y-35690000D01*
X53460000Y-35690000D02*
X51980000Y-35690000D01*
X57011000Y-35650000D02*
X55540000Y-35650000D01*
X53460000Y-35650000D02*
X51989000Y-35650000D01*
X57001000Y-35610000D02*
X55540000Y-35610000D01*
X53460000Y-35610000D02*
X51999000Y-35610000D01*
X56991000Y-35570000D02*
X55540000Y-35570000D01*
X53460000Y-35570000D02*
X52009000Y-35570000D01*
X56980000Y-35529000D02*
X55540000Y-35529000D01*
X53460000Y-35529000D02*
X52020000Y-35529000D01*
X56968000Y-35489000D02*
X55540000Y-35489000D01*
X53460000Y-35489000D02*
X52032000Y-35489000D01*
X56955000Y-35449000D02*
X55540000Y-35449000D01*
X53460000Y-35449000D02*
X52045000Y-35449000D01*
X56942000Y-35409000D02*
X55540000Y-35409000D01*
X53460000Y-35409000D02*
X52058000Y-35409000D01*
X56928000Y-35369000D02*
X55540000Y-35369000D01*
X53460000Y-35369000D02*
X52072000Y-35369000D01*
X56914000Y-35329000D02*
X55540000Y-35329000D01*
X53460000Y-35329000D02*
X52086000Y-35329000D01*
X56898000Y-35289000D02*
X55540000Y-35289000D01*
X53460000Y-35289000D02*
X52102000Y-35289000D01*
X56882000Y-35249000D02*
X55540000Y-35249000D01*
X53460000Y-35249000D02*
X52118000Y-35249000D01*
X56865000Y-35209000D02*
X55540000Y-35209000D01*
X53460000Y-35209000D02*
X52135000Y-35209000D01*
X56848000Y-35169000D02*
X55540000Y-35169000D01*
X53460000Y-35169000D02*
X52152000Y-35169000D01*
X56829000Y-35129000D02*
X55540000Y-35129000D01*
X53460000Y-35129000D02*
X52171000Y-35129000D01*
X56810000Y-35089000D02*
X55540000Y-35089000D01*
X53460000Y-35089000D02*
X52190000Y-35089000D01*
X56790000Y-35049000D02*
X55540000Y-35049000D01*
X53460000Y-35049000D02*
X52210000Y-35049000D01*
X56768000Y-35009000D02*
X55540000Y-35009000D01*
X53460000Y-35009000D02*
X52232000Y-35009000D01*
X56747000Y-34969000D02*
X55540000Y-34969000D01*
X53460000Y-34969000D02*
X52253000Y-34969000D01*
X56724000Y-34929000D02*
X55540000Y-34929000D01*
X53460000Y-34929000D02*
X52276000Y-34929000D01*
X56700000Y-34889000D02*
X55540000Y-34889000D01*
X53460000Y-34889000D02*
X52300000Y-34889000D01*
X56675000Y-34849000D02*
X55540000Y-34849000D01*
X53460000Y-34849000D02*
X52325000Y-34849000D01*
X56649000Y-34809000D02*
X55540000Y-34809000D01*
X53460000Y-34809000D02*
X52351000Y-34809000D01*
X56622000Y-34769000D02*
X55540000Y-34769000D01*
X53460000Y-34769000D02*
X52378000Y-34769000D01*
X56595000Y-34729000D02*
X55540000Y-34729000D01*
X53460000Y-34729000D02*
X52405000Y-34729000D01*
X56565000Y-34689000D02*
X55540000Y-34689000D01*
X53460000Y-34689000D02*
X52435000Y-34689000D01*
X56535000Y-34649000D02*
X55540000Y-34649000D01*
X53460000Y-34649000D02*
X52465000Y-34649000D01*
X56504000Y-34609000D02*
X55540000Y-34609000D01*
X53460000Y-34609000D02*
X52496000Y-34609000D01*
X56471000Y-34569000D02*
X55540000Y-34569000D01*
X53460000Y-34569000D02*
X52529000Y-34569000D01*
X56437000Y-34529000D02*
X55540000Y-34529000D01*
X53460000Y-34529000D02*
X52563000Y-34529000D01*
X56401000Y-34489000D02*
X55540000Y-34489000D01*
X53460000Y-34489000D02*
X52599000Y-34489000D01*
X56364000Y-34449000D02*
X55540000Y-34449000D01*
X53460000Y-34449000D02*
X52636000Y-34449000D01*
X56326000Y-34409000D02*
X55540000Y-34409000D01*
X53460000Y-34409000D02*
X52674000Y-34409000D01*
X56285000Y-34369000D02*
X55540000Y-34369000D01*
X53460000Y-34369000D02*
X52715000Y-34369000D01*
X56243000Y-34329000D02*
X55540000Y-34329000D01*
X53460000Y-34329000D02*
X52757000Y-34329000D01*
X56199000Y-34289000D02*
X55540000Y-34289000D01*
X53460000Y-34289000D02*
X52801000Y-34289000D01*
X56153000Y-34249000D02*
X55540000Y-34249000D01*
X53460000Y-34249000D02*
X52847000Y-34249000D01*
X56105000Y-34209000D02*
X55540000Y-34209000D01*
X53460000Y-34209000D02*
X52895000Y-34209000D01*
X56054000Y-34169000D02*
X55540000Y-34169000D01*
X53460000Y-34169000D02*
X52946000Y-34169000D01*
X56000000Y-34129000D02*
X55540000Y-34129000D01*
X53460000Y-34129000D02*
X53000000Y-34129000D01*
X55943000Y-34089000D02*
X55540000Y-34089000D01*
X53460000Y-34089000D02*
X53057000Y-34089000D01*
X55883000Y-34049000D02*
X55540000Y-34049000D01*
X53460000Y-34049000D02*
X53117000Y-34049000D01*
X55819000Y-34009000D02*
X55540000Y-34009000D01*
X53460000Y-34009000D02*
X53181000Y-34009000D01*
X55751000Y-33969000D02*
X55540000Y-33969000D01*
X53460000Y-33969000D02*
X53249000Y-33969000D01*
X55678000Y-33929000D02*
X53322000Y-33929000D01*
X55598000Y-33889000D02*
X53402000Y-33889000D01*
X55511000Y-33849000D02*
X53489000Y-33849000D01*
X55415000Y-33809000D02*
X53585000Y-33809000D01*
X55305000Y-33769000D02*
X53695000Y-33769000D01*
X55177000Y-33729000D02*
X53823000Y-33729000D01*
X55018000Y-33689000D02*
X53982000Y-33689000D01*
X54784000Y-33649000D02*
X54216000Y-33649000D01*
X55975000Y-39054775D02*
X55975000Y-38554775D01*
X56225000Y-38804775D02*
X55725000Y-38804775D01*
%TO.C,C3*%
X57120000Y-102250000D02*
G75*
G03*
X57120000Y-102250000I-2620000J0D01*
G01*
X51920000Y-102250000D02*
X57080000Y-102250000D01*
X51920000Y-102290000D02*
X57080000Y-102290000D01*
X51921000Y-102330000D02*
X57079000Y-102330000D01*
X51922000Y-102370000D02*
X57078000Y-102370000D01*
X51924000Y-102410000D02*
X57076000Y-102410000D01*
X51927000Y-102450000D02*
X57073000Y-102450000D01*
X51931000Y-102490000D02*
X53460000Y-102490000D01*
X55540000Y-102490000D02*
X57069000Y-102490000D01*
X51935000Y-102530000D02*
X53460000Y-102530000D01*
X55540000Y-102530000D02*
X57065000Y-102530000D01*
X51939000Y-102570000D02*
X53460000Y-102570000D01*
X55540000Y-102570000D02*
X57061000Y-102570000D01*
X51944000Y-102610000D02*
X53460000Y-102610000D01*
X55540000Y-102610000D02*
X57056000Y-102610000D01*
X51950000Y-102650000D02*
X53460000Y-102650000D01*
X55540000Y-102650000D02*
X57050000Y-102650000D01*
X51957000Y-102690000D02*
X53460000Y-102690000D01*
X55540000Y-102690000D02*
X57043000Y-102690000D01*
X51964000Y-102730000D02*
X53460000Y-102730000D01*
X55540000Y-102730000D02*
X57036000Y-102730000D01*
X51972000Y-102770000D02*
X53460000Y-102770000D01*
X55540000Y-102770000D02*
X57028000Y-102770000D01*
X51980000Y-102810000D02*
X53460000Y-102810000D01*
X55540000Y-102810000D02*
X57020000Y-102810000D01*
X51989000Y-102850000D02*
X53460000Y-102850000D01*
X55540000Y-102850000D02*
X57011000Y-102850000D01*
X51999000Y-102890000D02*
X53460000Y-102890000D01*
X55540000Y-102890000D02*
X57001000Y-102890000D01*
X52009000Y-102930000D02*
X53460000Y-102930000D01*
X55540000Y-102930000D02*
X56991000Y-102930000D01*
X52020000Y-102971000D02*
X53460000Y-102971000D01*
X55540000Y-102971000D02*
X56980000Y-102971000D01*
X52032000Y-103011000D02*
X53460000Y-103011000D01*
X55540000Y-103011000D02*
X56968000Y-103011000D01*
X52045000Y-103051000D02*
X53460000Y-103051000D01*
X55540000Y-103051000D02*
X56955000Y-103051000D01*
X52058000Y-103091000D02*
X53460000Y-103091000D01*
X55540000Y-103091000D02*
X56942000Y-103091000D01*
X52072000Y-103131000D02*
X53460000Y-103131000D01*
X55540000Y-103131000D02*
X56928000Y-103131000D01*
X52086000Y-103171000D02*
X53460000Y-103171000D01*
X55540000Y-103171000D02*
X56914000Y-103171000D01*
X52102000Y-103211000D02*
X53460000Y-103211000D01*
X55540000Y-103211000D02*
X56898000Y-103211000D01*
X52118000Y-103251000D02*
X53460000Y-103251000D01*
X55540000Y-103251000D02*
X56882000Y-103251000D01*
X52135000Y-103291000D02*
X53460000Y-103291000D01*
X55540000Y-103291000D02*
X56865000Y-103291000D01*
X52152000Y-103331000D02*
X53460000Y-103331000D01*
X55540000Y-103331000D02*
X56848000Y-103331000D01*
X52171000Y-103371000D02*
X53460000Y-103371000D01*
X55540000Y-103371000D02*
X56829000Y-103371000D01*
X52190000Y-103411000D02*
X53460000Y-103411000D01*
X55540000Y-103411000D02*
X56810000Y-103411000D01*
X52210000Y-103451000D02*
X53460000Y-103451000D01*
X55540000Y-103451000D02*
X56790000Y-103451000D01*
X52232000Y-103491000D02*
X53460000Y-103491000D01*
X55540000Y-103491000D02*
X56768000Y-103491000D01*
X52253000Y-103531000D02*
X53460000Y-103531000D01*
X55540000Y-103531000D02*
X56747000Y-103531000D01*
X52276000Y-103571000D02*
X53460000Y-103571000D01*
X55540000Y-103571000D02*
X56724000Y-103571000D01*
X52300000Y-103611000D02*
X53460000Y-103611000D01*
X55540000Y-103611000D02*
X56700000Y-103611000D01*
X52325000Y-103651000D02*
X53460000Y-103651000D01*
X55540000Y-103651000D02*
X56675000Y-103651000D01*
X52351000Y-103691000D02*
X53460000Y-103691000D01*
X55540000Y-103691000D02*
X56649000Y-103691000D01*
X52378000Y-103731000D02*
X53460000Y-103731000D01*
X55540000Y-103731000D02*
X56622000Y-103731000D01*
X52405000Y-103771000D02*
X53460000Y-103771000D01*
X55540000Y-103771000D02*
X56595000Y-103771000D01*
X52435000Y-103811000D02*
X53460000Y-103811000D01*
X55540000Y-103811000D02*
X56565000Y-103811000D01*
X52465000Y-103851000D02*
X53460000Y-103851000D01*
X55540000Y-103851000D02*
X56535000Y-103851000D01*
X52496000Y-103891000D02*
X53460000Y-103891000D01*
X55540000Y-103891000D02*
X56504000Y-103891000D01*
X52529000Y-103931000D02*
X53460000Y-103931000D01*
X55540000Y-103931000D02*
X56471000Y-103931000D01*
X52563000Y-103971000D02*
X53460000Y-103971000D01*
X55540000Y-103971000D02*
X56437000Y-103971000D01*
X52599000Y-104011000D02*
X53460000Y-104011000D01*
X55540000Y-104011000D02*
X56401000Y-104011000D01*
X52636000Y-104051000D02*
X53460000Y-104051000D01*
X55540000Y-104051000D02*
X56364000Y-104051000D01*
X52674000Y-104091000D02*
X53460000Y-104091000D01*
X55540000Y-104091000D02*
X56326000Y-104091000D01*
X52715000Y-104131000D02*
X53460000Y-104131000D01*
X55540000Y-104131000D02*
X56285000Y-104131000D01*
X52757000Y-104171000D02*
X53460000Y-104171000D01*
X55540000Y-104171000D02*
X56243000Y-104171000D01*
X52801000Y-104211000D02*
X53460000Y-104211000D01*
X55540000Y-104211000D02*
X56199000Y-104211000D01*
X52847000Y-104251000D02*
X53460000Y-104251000D01*
X55540000Y-104251000D02*
X56153000Y-104251000D01*
X52895000Y-104291000D02*
X53460000Y-104291000D01*
X55540000Y-104291000D02*
X56105000Y-104291000D01*
X52946000Y-104331000D02*
X53460000Y-104331000D01*
X55540000Y-104331000D02*
X56054000Y-104331000D01*
X53000000Y-104371000D02*
X53460000Y-104371000D01*
X55540000Y-104371000D02*
X56000000Y-104371000D01*
X53057000Y-104411000D02*
X53460000Y-104411000D01*
X55540000Y-104411000D02*
X55943000Y-104411000D01*
X53117000Y-104451000D02*
X53460000Y-104451000D01*
X55540000Y-104451000D02*
X55883000Y-104451000D01*
X53181000Y-104491000D02*
X53460000Y-104491000D01*
X55540000Y-104491000D02*
X55819000Y-104491000D01*
X53249000Y-104531000D02*
X53460000Y-104531000D01*
X55540000Y-104531000D02*
X55751000Y-104531000D01*
X53322000Y-104571000D02*
X55678000Y-104571000D01*
X53402000Y-104611000D02*
X55598000Y-104611000D01*
X53489000Y-104651000D02*
X55511000Y-104651000D01*
X53585000Y-104691000D02*
X55415000Y-104691000D01*
X53695000Y-104731000D02*
X55305000Y-104731000D01*
X53823000Y-104771000D02*
X55177000Y-104771000D01*
X53982000Y-104811000D02*
X55018000Y-104811000D01*
X54216000Y-104851000D02*
X54784000Y-104851000D01*
X53025000Y-99445225D02*
X53025000Y-99945225D01*
X52775000Y-99695225D02*
X53275000Y-99695225D01*
%TO.C,C4*%
X50225000Y-104804775D02*
X49725000Y-104804775D01*
X49975000Y-105054775D02*
X49975000Y-104554775D01*
X48784000Y-99649000D02*
X48216000Y-99649000D01*
X49018000Y-99689000D02*
X47982000Y-99689000D01*
X49177000Y-99729000D02*
X47823000Y-99729000D01*
X49305000Y-99769000D02*
X47695000Y-99769000D01*
X49415000Y-99809000D02*
X47585000Y-99809000D01*
X49511000Y-99849000D02*
X47489000Y-99849000D01*
X49598000Y-99889000D02*
X47402000Y-99889000D01*
X49678000Y-99929000D02*
X47322000Y-99929000D01*
X47460000Y-99969000D02*
X47249000Y-99969000D01*
X49751000Y-99969000D02*
X49540000Y-99969000D01*
X47460000Y-100009000D02*
X47181000Y-100009000D01*
X49819000Y-100009000D02*
X49540000Y-100009000D01*
X47460000Y-100049000D02*
X47117000Y-100049000D01*
X49883000Y-100049000D02*
X49540000Y-100049000D01*
X47460000Y-100089000D02*
X47057000Y-100089000D01*
X49943000Y-100089000D02*
X49540000Y-100089000D01*
X47460000Y-100129000D02*
X47000000Y-100129000D01*
X50000000Y-100129000D02*
X49540000Y-100129000D01*
X47460000Y-100169000D02*
X46946000Y-100169000D01*
X50054000Y-100169000D02*
X49540000Y-100169000D01*
X47460000Y-100209000D02*
X46895000Y-100209000D01*
X50105000Y-100209000D02*
X49540000Y-100209000D01*
X47460000Y-100249000D02*
X46847000Y-100249000D01*
X50153000Y-100249000D02*
X49540000Y-100249000D01*
X47460000Y-100289000D02*
X46801000Y-100289000D01*
X50199000Y-100289000D02*
X49540000Y-100289000D01*
X47460000Y-100329000D02*
X46757000Y-100329000D01*
X50243000Y-100329000D02*
X49540000Y-100329000D01*
X47460000Y-100369000D02*
X46715000Y-100369000D01*
X50285000Y-100369000D02*
X49540000Y-100369000D01*
X47460000Y-100409000D02*
X46674000Y-100409000D01*
X50326000Y-100409000D02*
X49540000Y-100409000D01*
X47460000Y-100449000D02*
X46636000Y-100449000D01*
X50364000Y-100449000D02*
X49540000Y-100449000D01*
X47460000Y-100489000D02*
X46599000Y-100489000D01*
X50401000Y-100489000D02*
X49540000Y-100489000D01*
X47460000Y-100529000D02*
X46563000Y-100529000D01*
X50437000Y-100529000D02*
X49540000Y-100529000D01*
X47460000Y-100569000D02*
X46529000Y-100569000D01*
X50471000Y-100569000D02*
X49540000Y-100569000D01*
X47460000Y-100609000D02*
X46496000Y-100609000D01*
X50504000Y-100609000D02*
X49540000Y-100609000D01*
X47460000Y-100649000D02*
X46465000Y-100649000D01*
X50535000Y-100649000D02*
X49540000Y-100649000D01*
X47460000Y-100689000D02*
X46435000Y-100689000D01*
X50565000Y-100689000D02*
X49540000Y-100689000D01*
X47460000Y-100729000D02*
X46405000Y-100729000D01*
X50595000Y-100729000D02*
X49540000Y-100729000D01*
X47460000Y-100769000D02*
X46378000Y-100769000D01*
X50622000Y-100769000D02*
X49540000Y-100769000D01*
X47460000Y-100809000D02*
X46351000Y-100809000D01*
X50649000Y-100809000D02*
X49540000Y-100809000D01*
X47460000Y-100849000D02*
X46325000Y-100849000D01*
X50675000Y-100849000D02*
X49540000Y-100849000D01*
X47460000Y-100889000D02*
X46300000Y-100889000D01*
X50700000Y-100889000D02*
X49540000Y-100889000D01*
X47460000Y-100929000D02*
X46276000Y-100929000D01*
X50724000Y-100929000D02*
X49540000Y-100929000D01*
X47460000Y-100969000D02*
X46253000Y-100969000D01*
X50747000Y-100969000D02*
X49540000Y-100969000D01*
X47460000Y-101009000D02*
X46232000Y-101009000D01*
X50768000Y-101009000D02*
X49540000Y-101009000D01*
X47460000Y-101049000D02*
X46210000Y-101049000D01*
X50790000Y-101049000D02*
X49540000Y-101049000D01*
X47460000Y-101089000D02*
X46190000Y-101089000D01*
X50810000Y-101089000D02*
X49540000Y-101089000D01*
X47460000Y-101129000D02*
X46171000Y-101129000D01*
X50829000Y-101129000D02*
X49540000Y-101129000D01*
X47460000Y-101169000D02*
X46152000Y-101169000D01*
X50848000Y-101169000D02*
X49540000Y-101169000D01*
X47460000Y-101209000D02*
X46135000Y-101209000D01*
X50865000Y-101209000D02*
X49540000Y-101209000D01*
X47460000Y-101249000D02*
X46118000Y-101249000D01*
X50882000Y-101249000D02*
X49540000Y-101249000D01*
X47460000Y-101289000D02*
X46102000Y-101289000D01*
X50898000Y-101289000D02*
X49540000Y-101289000D01*
X47460000Y-101329000D02*
X46086000Y-101329000D01*
X50914000Y-101329000D02*
X49540000Y-101329000D01*
X47460000Y-101369000D02*
X46072000Y-101369000D01*
X50928000Y-101369000D02*
X49540000Y-101369000D01*
X47460000Y-101409000D02*
X46058000Y-101409000D01*
X50942000Y-101409000D02*
X49540000Y-101409000D01*
X47460000Y-101449000D02*
X46045000Y-101449000D01*
X50955000Y-101449000D02*
X49540000Y-101449000D01*
X47460000Y-101489000D02*
X46032000Y-101489000D01*
X50968000Y-101489000D02*
X49540000Y-101489000D01*
X47460000Y-101529000D02*
X46020000Y-101529000D01*
X50980000Y-101529000D02*
X49540000Y-101529000D01*
X47460000Y-101570000D02*
X46009000Y-101570000D01*
X50991000Y-101570000D02*
X49540000Y-101570000D01*
X47460000Y-101610000D02*
X45999000Y-101610000D01*
X51001000Y-101610000D02*
X49540000Y-101610000D01*
X47460000Y-101650000D02*
X45989000Y-101650000D01*
X51011000Y-101650000D02*
X49540000Y-101650000D01*
X47460000Y-101690000D02*
X45980000Y-101690000D01*
X51020000Y-101690000D02*
X49540000Y-101690000D01*
X47460000Y-101730000D02*
X45972000Y-101730000D01*
X51028000Y-101730000D02*
X49540000Y-101730000D01*
X47460000Y-101770000D02*
X45964000Y-101770000D01*
X51036000Y-101770000D02*
X49540000Y-101770000D01*
X47460000Y-101810000D02*
X45957000Y-101810000D01*
X51043000Y-101810000D02*
X49540000Y-101810000D01*
X47460000Y-101850000D02*
X45950000Y-101850000D01*
X51050000Y-101850000D02*
X49540000Y-101850000D01*
X47460000Y-101890000D02*
X45944000Y-101890000D01*
X51056000Y-101890000D02*
X49540000Y-101890000D01*
X47460000Y-101930000D02*
X45939000Y-101930000D01*
X51061000Y-101930000D02*
X49540000Y-101930000D01*
X47460000Y-101970000D02*
X45935000Y-101970000D01*
X51065000Y-101970000D02*
X49540000Y-101970000D01*
X47460000Y-102010000D02*
X45931000Y-102010000D01*
X51069000Y-102010000D02*
X49540000Y-102010000D01*
X51073000Y-102050000D02*
X45927000Y-102050000D01*
X51076000Y-102090000D02*
X45924000Y-102090000D01*
X51078000Y-102130000D02*
X45922000Y-102130000D01*
X51079000Y-102170000D02*
X45921000Y-102170000D01*
X51080000Y-102210000D02*
X45920000Y-102210000D01*
X51080000Y-102250000D02*
X45920000Y-102250000D01*
X51120000Y-102250000D02*
G75*
G03*
X51120000Y-102250000I-2620000J0D01*
G01*
%TO.C,C5*%
X27720000Y-92500000D02*
G75*
G03*
X27720000Y-92500000I-3270000J0D01*
G01*
X24450000Y-95730000D02*
X24450000Y-89270000D01*
X24490000Y-95730000D02*
X24490000Y-89270000D01*
X24530000Y-95730000D02*
X24530000Y-89270000D01*
X24570000Y-95728000D02*
X24570000Y-89272000D01*
X24610000Y-95727000D02*
X24610000Y-89273000D01*
X24650000Y-95724000D02*
X24650000Y-89276000D01*
X24690000Y-95722000D02*
X24690000Y-93540000D01*
X24690000Y-91460000D02*
X24690000Y-89278000D01*
X24730000Y-95718000D02*
X24730000Y-93540000D01*
X24730000Y-91460000D02*
X24730000Y-89282000D01*
X24770000Y-95715000D02*
X24770000Y-93540000D01*
X24770000Y-91460000D02*
X24770000Y-89285000D01*
X24810000Y-95711000D02*
X24810000Y-93540000D01*
X24810000Y-91460000D02*
X24810000Y-89289000D01*
X24850000Y-95706000D02*
X24850000Y-93540000D01*
X24850000Y-91460000D02*
X24850000Y-89294000D01*
X24890000Y-95701000D02*
X24890000Y-93540000D01*
X24890000Y-91460000D02*
X24890000Y-89299000D01*
X24930000Y-95695000D02*
X24930000Y-93540000D01*
X24930000Y-91460000D02*
X24930000Y-89305000D01*
X24970000Y-95689000D02*
X24970000Y-93540000D01*
X24970000Y-91460000D02*
X24970000Y-89311000D01*
X25010000Y-95682000D02*
X25010000Y-93540000D01*
X25010000Y-91460000D02*
X25010000Y-89318000D01*
X25050000Y-95675000D02*
X25050000Y-93540000D01*
X25050000Y-91460000D02*
X25050000Y-89325000D01*
X25090000Y-95667000D02*
X25090000Y-93540000D01*
X25090000Y-91460000D02*
X25090000Y-89333000D01*
X25130000Y-95659000D02*
X25130000Y-93540000D01*
X25130000Y-91460000D02*
X25130000Y-89341000D01*
X25171000Y-95650000D02*
X25171000Y-93540000D01*
X25171000Y-91460000D02*
X25171000Y-89350000D01*
X25211000Y-95641000D02*
X25211000Y-93540000D01*
X25211000Y-91460000D02*
X25211000Y-89359000D01*
X25251000Y-95631000D02*
X25251000Y-93540000D01*
X25251000Y-91460000D02*
X25251000Y-89369000D01*
X25291000Y-95621000D02*
X25291000Y-93540000D01*
X25291000Y-91460000D02*
X25291000Y-89379000D01*
X25331000Y-95610000D02*
X25331000Y-93540000D01*
X25331000Y-91460000D02*
X25331000Y-89390000D01*
X25371000Y-95598000D02*
X25371000Y-93540000D01*
X25371000Y-91460000D02*
X25371000Y-89402000D01*
X25411000Y-95586000D02*
X25411000Y-93540000D01*
X25411000Y-91460000D02*
X25411000Y-89414000D01*
X25451000Y-95574000D02*
X25451000Y-93540000D01*
X25451000Y-91460000D02*
X25451000Y-89426000D01*
X25491000Y-95561000D02*
X25491000Y-93540000D01*
X25491000Y-91460000D02*
X25491000Y-89439000D01*
X25531000Y-95547000D02*
X25531000Y-93540000D01*
X25531000Y-91460000D02*
X25531000Y-89453000D01*
X25571000Y-95533000D02*
X25571000Y-93540000D01*
X25571000Y-91460000D02*
X25571000Y-89467000D01*
X25611000Y-95518000D02*
X25611000Y-93540000D01*
X25611000Y-91460000D02*
X25611000Y-89482000D01*
X25651000Y-95502000D02*
X25651000Y-93540000D01*
X25651000Y-91460000D02*
X25651000Y-89498000D01*
X25691000Y-95486000D02*
X25691000Y-93540000D01*
X25691000Y-91460000D02*
X25691000Y-89514000D01*
X25731000Y-95470000D02*
X25731000Y-93540000D01*
X25731000Y-91460000D02*
X25731000Y-89530000D01*
X25771000Y-95452000D02*
X25771000Y-93540000D01*
X25771000Y-91460000D02*
X25771000Y-89548000D01*
X25811000Y-95434000D02*
X25811000Y-93540000D01*
X25811000Y-91460000D02*
X25811000Y-89566000D01*
X25851000Y-95416000D02*
X25851000Y-93540000D01*
X25851000Y-91460000D02*
X25851000Y-89584000D01*
X25891000Y-95396000D02*
X25891000Y-93540000D01*
X25891000Y-91460000D02*
X25891000Y-89604000D01*
X25931000Y-95376000D02*
X25931000Y-93540000D01*
X25931000Y-91460000D02*
X25931000Y-89624000D01*
X25971000Y-95356000D02*
X25971000Y-93540000D01*
X25971000Y-91460000D02*
X25971000Y-89644000D01*
X26011000Y-95334000D02*
X26011000Y-93540000D01*
X26011000Y-91460000D02*
X26011000Y-89666000D01*
X26051000Y-95312000D02*
X26051000Y-93540000D01*
X26051000Y-91460000D02*
X26051000Y-89688000D01*
X26091000Y-95290000D02*
X26091000Y-93540000D01*
X26091000Y-91460000D02*
X26091000Y-89710000D01*
X26131000Y-95266000D02*
X26131000Y-93540000D01*
X26131000Y-91460000D02*
X26131000Y-89734000D01*
X26171000Y-95242000D02*
X26171000Y-93540000D01*
X26171000Y-91460000D02*
X26171000Y-89758000D01*
X26211000Y-95216000D02*
X26211000Y-93540000D01*
X26211000Y-91460000D02*
X26211000Y-89784000D01*
X26251000Y-95190000D02*
X26251000Y-93540000D01*
X26251000Y-91460000D02*
X26251000Y-89810000D01*
X26291000Y-95164000D02*
X26291000Y-93540000D01*
X26291000Y-91460000D02*
X26291000Y-89836000D01*
X26331000Y-95136000D02*
X26331000Y-93540000D01*
X26331000Y-91460000D02*
X26331000Y-89864000D01*
X26371000Y-95107000D02*
X26371000Y-93540000D01*
X26371000Y-91460000D02*
X26371000Y-89893000D01*
X26411000Y-95078000D02*
X26411000Y-93540000D01*
X26411000Y-91460000D02*
X26411000Y-89922000D01*
X26451000Y-95048000D02*
X26451000Y-93540000D01*
X26451000Y-91460000D02*
X26451000Y-89952000D01*
X26491000Y-95016000D02*
X26491000Y-93540000D01*
X26491000Y-91460000D02*
X26491000Y-89984000D01*
X26531000Y-94984000D02*
X26531000Y-93540000D01*
X26531000Y-91460000D02*
X26531000Y-90016000D01*
X26571000Y-94950000D02*
X26571000Y-93540000D01*
X26571000Y-91460000D02*
X26571000Y-90050000D01*
X26611000Y-94916000D02*
X26611000Y-93540000D01*
X26611000Y-91460000D02*
X26611000Y-90084000D01*
X26651000Y-94880000D02*
X26651000Y-93540000D01*
X26651000Y-91460000D02*
X26651000Y-90120000D01*
X26691000Y-94843000D02*
X26691000Y-93540000D01*
X26691000Y-91460000D02*
X26691000Y-90157000D01*
X26731000Y-94805000D02*
X26731000Y-93540000D01*
X26731000Y-91460000D02*
X26731000Y-90195000D01*
X26771000Y-94765000D02*
X26771000Y-90235000D01*
X26811000Y-94724000D02*
X26811000Y-90276000D01*
X26851000Y-94682000D02*
X26851000Y-90318000D01*
X26891000Y-94637000D02*
X26891000Y-90363000D01*
X26931000Y-94592000D02*
X26931000Y-90408000D01*
X26971000Y-94544000D02*
X26971000Y-90456000D01*
X27011000Y-94495000D02*
X27011000Y-90505000D01*
X27051000Y-94444000D02*
X27051000Y-90556000D01*
X27091000Y-94390000D02*
X27091000Y-90610000D01*
X27131000Y-94334000D02*
X27131000Y-90666000D01*
X27171000Y-94276000D02*
X27171000Y-90724000D01*
X27211000Y-94214000D02*
X27211000Y-90786000D01*
X27251000Y-94150000D02*
X27251000Y-90850000D01*
X27291000Y-94081000D02*
X27291000Y-90919000D01*
X27331000Y-94009000D02*
X27331000Y-90991000D01*
X27371000Y-93932000D02*
X27371000Y-91068000D01*
X27411000Y-93850000D02*
X27411000Y-91150000D01*
X27451000Y-93762000D02*
X27451000Y-91238000D01*
X27491000Y-93665000D02*
X27491000Y-91335000D01*
X27531000Y-93559000D02*
X27531000Y-91441000D01*
X27571000Y-93440000D02*
X27571000Y-91560000D01*
X27611000Y-93302000D02*
X27611000Y-91698000D01*
X27651000Y-93133000D02*
X27651000Y-91867000D01*
X27691000Y-92902000D02*
X27691000Y-92098000D01*
X20949759Y-94339000D02*
X21579759Y-94339000D01*
X21264759Y-94654000D02*
X21264759Y-94024000D01*
%TO.C,C6*%
X28764759Y-94654000D02*
X28764759Y-94024000D01*
X28449759Y-94339000D02*
X29079759Y-94339000D01*
X35191000Y-92902000D02*
X35191000Y-92098000D01*
X35151000Y-93133000D02*
X35151000Y-91867000D01*
X35111000Y-93302000D02*
X35111000Y-91698000D01*
X35071000Y-93440000D02*
X35071000Y-91560000D01*
X35031000Y-93559000D02*
X35031000Y-91441000D01*
X34991000Y-93665000D02*
X34991000Y-91335000D01*
X34951000Y-93762000D02*
X34951000Y-91238000D01*
X34911000Y-93850000D02*
X34911000Y-91150000D01*
X34871000Y-93932000D02*
X34871000Y-91068000D01*
X34831000Y-94009000D02*
X34831000Y-90991000D01*
X34791000Y-94081000D02*
X34791000Y-90919000D01*
X34751000Y-94150000D02*
X34751000Y-90850000D01*
X34711000Y-94214000D02*
X34711000Y-90786000D01*
X34671000Y-94276000D02*
X34671000Y-90724000D01*
X34631000Y-94334000D02*
X34631000Y-90666000D01*
X34591000Y-94390000D02*
X34591000Y-90610000D01*
X34551000Y-94444000D02*
X34551000Y-90556000D01*
X34511000Y-94495000D02*
X34511000Y-90505000D01*
X34471000Y-94544000D02*
X34471000Y-90456000D01*
X34431000Y-94592000D02*
X34431000Y-90408000D01*
X34391000Y-94637000D02*
X34391000Y-90363000D01*
X34351000Y-94682000D02*
X34351000Y-90318000D01*
X34311000Y-94724000D02*
X34311000Y-90276000D01*
X34271000Y-94765000D02*
X34271000Y-90235000D01*
X34231000Y-91460000D02*
X34231000Y-90195000D01*
X34231000Y-94805000D02*
X34231000Y-93540000D01*
X34191000Y-91460000D02*
X34191000Y-90157000D01*
X34191000Y-94843000D02*
X34191000Y-93540000D01*
X34151000Y-91460000D02*
X34151000Y-90120000D01*
X34151000Y-94880000D02*
X34151000Y-93540000D01*
X34111000Y-91460000D02*
X34111000Y-90084000D01*
X34111000Y-94916000D02*
X34111000Y-93540000D01*
X34071000Y-91460000D02*
X34071000Y-90050000D01*
X34071000Y-94950000D02*
X34071000Y-93540000D01*
X34031000Y-91460000D02*
X34031000Y-90016000D01*
X34031000Y-94984000D02*
X34031000Y-93540000D01*
X33991000Y-91460000D02*
X33991000Y-89984000D01*
X33991000Y-95016000D02*
X33991000Y-93540000D01*
X33951000Y-91460000D02*
X33951000Y-89952000D01*
X33951000Y-95048000D02*
X33951000Y-93540000D01*
X33911000Y-91460000D02*
X33911000Y-89922000D01*
X33911000Y-95078000D02*
X33911000Y-93540000D01*
X33871000Y-91460000D02*
X33871000Y-89893000D01*
X33871000Y-95107000D02*
X33871000Y-93540000D01*
X33831000Y-91460000D02*
X33831000Y-89864000D01*
X33831000Y-95136000D02*
X33831000Y-93540000D01*
X33791000Y-91460000D02*
X33791000Y-89836000D01*
X33791000Y-95164000D02*
X33791000Y-93540000D01*
X33751000Y-91460000D02*
X33751000Y-89810000D01*
X33751000Y-95190000D02*
X33751000Y-93540000D01*
X33711000Y-91460000D02*
X33711000Y-89784000D01*
X33711000Y-95216000D02*
X33711000Y-93540000D01*
X33671000Y-91460000D02*
X33671000Y-89758000D01*
X33671000Y-95242000D02*
X33671000Y-93540000D01*
X33631000Y-91460000D02*
X33631000Y-89734000D01*
X33631000Y-95266000D02*
X33631000Y-93540000D01*
X33591000Y-91460000D02*
X33591000Y-89710000D01*
X33591000Y-95290000D02*
X33591000Y-93540000D01*
X33551000Y-91460000D02*
X33551000Y-89688000D01*
X33551000Y-95312000D02*
X33551000Y-93540000D01*
X33511000Y-91460000D02*
X33511000Y-89666000D01*
X33511000Y-95334000D02*
X33511000Y-93540000D01*
X33471000Y-91460000D02*
X33471000Y-89644000D01*
X33471000Y-95356000D02*
X33471000Y-93540000D01*
X33431000Y-91460000D02*
X33431000Y-89624000D01*
X33431000Y-95376000D02*
X33431000Y-93540000D01*
X33391000Y-91460000D02*
X33391000Y-89604000D01*
X33391000Y-95396000D02*
X33391000Y-93540000D01*
X33351000Y-91460000D02*
X33351000Y-89584000D01*
X33351000Y-95416000D02*
X33351000Y-93540000D01*
X33311000Y-91460000D02*
X33311000Y-89566000D01*
X33311000Y-95434000D02*
X33311000Y-93540000D01*
X33271000Y-91460000D02*
X33271000Y-89548000D01*
X33271000Y-95452000D02*
X33271000Y-93540000D01*
X33231000Y-91460000D02*
X33231000Y-89530000D01*
X33231000Y-95470000D02*
X33231000Y-93540000D01*
X33191000Y-91460000D02*
X33191000Y-89514000D01*
X33191000Y-95486000D02*
X33191000Y-93540000D01*
X33151000Y-91460000D02*
X33151000Y-89498000D01*
X33151000Y-95502000D02*
X33151000Y-93540000D01*
X33111000Y-91460000D02*
X33111000Y-89482000D01*
X33111000Y-95518000D02*
X33111000Y-93540000D01*
X33071000Y-91460000D02*
X33071000Y-89467000D01*
X33071000Y-95533000D02*
X33071000Y-93540000D01*
X33031000Y-91460000D02*
X33031000Y-89453000D01*
X33031000Y-95547000D02*
X33031000Y-93540000D01*
X32991000Y-91460000D02*
X32991000Y-89439000D01*
X32991000Y-95561000D02*
X32991000Y-93540000D01*
X32951000Y-91460000D02*
X32951000Y-89426000D01*
X32951000Y-95574000D02*
X32951000Y-93540000D01*
X32911000Y-91460000D02*
X32911000Y-89414000D01*
X32911000Y-95586000D02*
X32911000Y-93540000D01*
X32871000Y-91460000D02*
X32871000Y-89402000D01*
X32871000Y-95598000D02*
X32871000Y-93540000D01*
X32831000Y-91460000D02*
X32831000Y-89390000D01*
X32831000Y-95610000D02*
X32831000Y-93540000D01*
X32791000Y-91460000D02*
X32791000Y-89379000D01*
X32791000Y-95621000D02*
X32791000Y-93540000D01*
X32751000Y-91460000D02*
X32751000Y-89369000D01*
X32751000Y-95631000D02*
X32751000Y-93540000D01*
X32711000Y-91460000D02*
X32711000Y-89359000D01*
X32711000Y-95641000D02*
X32711000Y-93540000D01*
X32671000Y-91460000D02*
X32671000Y-89350000D01*
X32671000Y-95650000D02*
X32671000Y-93540000D01*
X32630000Y-91460000D02*
X32630000Y-89341000D01*
X32630000Y-95659000D02*
X32630000Y-93540000D01*
X32590000Y-91460000D02*
X32590000Y-89333000D01*
X32590000Y-95667000D02*
X32590000Y-93540000D01*
X32550000Y-91460000D02*
X32550000Y-89325000D01*
X32550000Y-95675000D02*
X32550000Y-93540000D01*
X32510000Y-91460000D02*
X32510000Y-89318000D01*
X32510000Y-95682000D02*
X32510000Y-93540000D01*
X32470000Y-91460000D02*
X32470000Y-89311000D01*
X32470000Y-95689000D02*
X32470000Y-93540000D01*
X32430000Y-91460000D02*
X32430000Y-89305000D01*
X32430000Y-95695000D02*
X32430000Y-93540000D01*
X32390000Y-91460000D02*
X32390000Y-89299000D01*
X32390000Y-95701000D02*
X32390000Y-93540000D01*
X32350000Y-91460000D02*
X32350000Y-89294000D01*
X32350000Y-95706000D02*
X32350000Y-93540000D01*
X32310000Y-91460000D02*
X32310000Y-89289000D01*
X32310000Y-95711000D02*
X32310000Y-93540000D01*
X32270000Y-91460000D02*
X32270000Y-89285000D01*
X32270000Y-95715000D02*
X32270000Y-93540000D01*
X32230000Y-91460000D02*
X32230000Y-89282000D01*
X32230000Y-95718000D02*
X32230000Y-93540000D01*
X32190000Y-91460000D02*
X32190000Y-89278000D01*
X32190000Y-95722000D02*
X32190000Y-93540000D01*
X32150000Y-95724000D02*
X32150000Y-89276000D01*
X32110000Y-95727000D02*
X32110000Y-89273000D01*
X32070000Y-95728000D02*
X32070000Y-89272000D01*
X32030000Y-95730000D02*
X32030000Y-89270000D01*
X31990000Y-95730000D02*
X31990000Y-89270000D01*
X31950000Y-95730000D02*
X31950000Y-89270000D01*
X35220000Y-92500000D02*
G75*
G03*
X35220000Y-92500000I-3270000J0D01*
G01*
%TO.C,J3*%
X42170000Y-50230000D02*
X44830000Y-50230000D01*
X42170000Y-50230000D02*
X42170000Y-34930000D01*
X42170000Y-34930000D02*
X44830000Y-34930000D01*
X44830000Y-50230000D02*
X44830000Y-34930000D01*
X44830000Y-52830000D02*
X44830000Y-51500000D01*
X43500000Y-52830000D02*
X44830000Y-52830000D01*
%TO.C,J4*%
X60830000Y-87770000D02*
X58170000Y-87770000D01*
X60830000Y-87770000D02*
X60830000Y-103070000D01*
X60830000Y-103070000D02*
X58170000Y-103070000D01*
X58170000Y-87770000D02*
X58170000Y-103070000D01*
X58170000Y-85170000D02*
X58170000Y-86500000D01*
X59500000Y-85170000D02*
X58170000Y-85170000D01*
%TO.C,J5*%
X34690000Y-99670000D02*
X34690000Y-104870000D01*
X24470000Y-99670000D02*
X34690000Y-99670000D01*
X21870000Y-104870000D02*
X34690000Y-104870000D01*
X24470000Y-99670000D02*
X24470000Y-102270000D01*
X24470000Y-102270000D02*
X21870000Y-102270000D01*
X21870000Y-102270000D02*
X21870000Y-104870000D01*
X23200000Y-99670000D02*
X21870000Y-99670000D01*
X21870000Y-99670000D02*
X21870000Y-101000000D01*
%TO.C,R3*%
X47238748Y-26790000D02*
X47761252Y-26790000D01*
X47238748Y-28210000D02*
X47761252Y-28210000D01*
%TO.C,R4*%
X55761252Y-28210000D02*
X55238748Y-28210000D01*
X55761252Y-26790000D02*
X55238748Y-26790000D01*
%TO.C,R13*%
X55761252Y-110290000D02*
X55238748Y-110290000D01*
X55761252Y-111710000D02*
X55238748Y-111710000D01*
%TO.C,R14*%
X47238748Y-111710000D02*
X47761252Y-111710000D01*
X47238748Y-110290000D02*
X47761252Y-110290000D01*
%TO.C,R15*%
X49290000Y-45738748D02*
X49290000Y-46261252D01*
X50710000Y-45738748D02*
X50710000Y-46261252D01*
%TO.C,R16*%
X52290000Y-45738748D02*
X52290000Y-46261252D01*
X53710000Y-45738748D02*
X53710000Y-46261252D01*
%TO.C,R17*%
X52290000Y-92261252D02*
X52290000Y-91738748D01*
X53710000Y-92261252D02*
X53710000Y-91738748D01*
%TO.C,R18*%
X49290000Y-92261252D02*
X49290000Y-91738748D01*
X50710000Y-92261252D02*
X50710000Y-91738748D01*
%TO.C,U1*%
X31390000Y-48170000D02*
X32640000Y-48170000D01*
X32640000Y-48170000D02*
X32640000Y-68610000D01*
X32640000Y-68610000D02*
X28140000Y-68610000D01*
X28140000Y-68610000D02*
X28140000Y-48170000D01*
X28140000Y-48170000D02*
X29390000Y-48170000D01*
X35640000Y-48110000D02*
X35640000Y-68670000D01*
X35640000Y-68670000D02*
X25140000Y-68670000D01*
X25140000Y-68670000D02*
X25140000Y-48110000D01*
X25140000Y-48110000D02*
X35640000Y-48110000D01*
X29390000Y-48170000D02*
G75*
G03*
X31390000Y-48170000I1000000J0D01*
G01*
%TO.C,BIAS1*%
D11*
X38947619Y-39028571D02*
X38804761Y-39076190D01*
X38757142Y-39123809D01*
X38709523Y-39219047D01*
X38709523Y-39361904D01*
X38757142Y-39457142D01*
X38804761Y-39504761D01*
X38900000Y-39552380D01*
X39280952Y-39552380D01*
X39280952Y-38552380D01*
X38947619Y-38552380D01*
X38852380Y-38600000D01*
X38804761Y-38647619D01*
X38757142Y-38742857D01*
X38757142Y-38838095D01*
X38804761Y-38933333D01*
X38852380Y-38980952D01*
X38947619Y-39028571D01*
X39280952Y-39028571D01*
X38280952Y-39552380D02*
X38280952Y-38552380D01*
X37852380Y-39266666D02*
X37376190Y-39266666D01*
X37947619Y-39552380D02*
X37614285Y-38552380D01*
X37280952Y-39552380D01*
X36995238Y-39504761D02*
X36852380Y-39552380D01*
X36614285Y-39552380D01*
X36519047Y-39504761D01*
X36471428Y-39457142D01*
X36423809Y-39361904D01*
X36423809Y-39266666D01*
X36471428Y-39171428D01*
X36519047Y-39123809D01*
X36614285Y-39076190D01*
X36804761Y-39028571D01*
X36900000Y-38980952D01*
X36947619Y-38933333D01*
X36995238Y-38838095D01*
X36995238Y-38742857D01*
X36947619Y-38647619D01*
X36900000Y-38600000D01*
X36804761Y-38552380D01*
X36566666Y-38552380D01*
X36423809Y-38600000D01*
X35471428Y-39552380D02*
X36042857Y-39552380D01*
X35757142Y-39552380D02*
X35757142Y-38552380D01*
X35852380Y-38695238D01*
X35947619Y-38790476D01*
X36042857Y-38838095D01*
%TO.C,BIAS2*%
X39047619Y-45528571D02*
X38904761Y-45576190D01*
X38857142Y-45623809D01*
X38809523Y-45719047D01*
X38809523Y-45861904D01*
X38857142Y-45957142D01*
X38904761Y-46004761D01*
X39000000Y-46052380D01*
X39380952Y-46052380D01*
X39380952Y-45052380D01*
X39047619Y-45052380D01*
X38952380Y-45100000D01*
X38904761Y-45147619D01*
X38857142Y-45242857D01*
X38857142Y-45338095D01*
X38904761Y-45433333D01*
X38952380Y-45480952D01*
X39047619Y-45528571D01*
X39380952Y-45528571D01*
X38380952Y-46052380D02*
X38380952Y-45052380D01*
X37952380Y-45766666D02*
X37476190Y-45766666D01*
X38047619Y-46052380D02*
X37714285Y-45052380D01*
X37380952Y-46052380D01*
X37095238Y-46004761D02*
X36952380Y-46052380D01*
X36714285Y-46052380D01*
X36619047Y-46004761D01*
X36571428Y-45957142D01*
X36523809Y-45861904D01*
X36523809Y-45766666D01*
X36571428Y-45671428D01*
X36619047Y-45623809D01*
X36714285Y-45576190D01*
X36904761Y-45528571D01*
X37000000Y-45480952D01*
X37047619Y-45433333D01*
X37095238Y-45338095D01*
X37095238Y-45242857D01*
X37047619Y-45147619D01*
X37000000Y-45100000D01*
X36904761Y-45052380D01*
X36666666Y-45052380D01*
X36523809Y-45100000D01*
X36142857Y-45147619D02*
X36095238Y-45100000D01*
X36000000Y-45052380D01*
X35761904Y-45052380D01*
X35666666Y-45100000D01*
X35619047Y-45147619D01*
X35571428Y-45242857D01*
X35571428Y-45338095D01*
X35619047Y-45480952D01*
X36190476Y-46052380D01*
X35571428Y-46052380D01*
%TO.C,C1*%
X51566666Y-38757142D02*
X51614285Y-38804761D01*
X51757142Y-38852380D01*
X51852380Y-38852380D01*
X51995238Y-38804761D01*
X52090476Y-38709523D01*
X52138095Y-38614285D01*
X52185714Y-38423809D01*
X52185714Y-38280952D01*
X52138095Y-38090476D01*
X52090476Y-37995238D01*
X51995238Y-37900000D01*
X51852380Y-37852380D01*
X51757142Y-37852380D01*
X51614285Y-37900000D01*
X51566666Y-37947619D01*
X50614285Y-38852380D02*
X51185714Y-38852380D01*
X50900000Y-38852380D02*
X50900000Y-37852380D01*
X50995238Y-37995238D01*
X51090476Y-38090476D01*
X51185714Y-38138095D01*
%TO.C,C2*%
X58266666Y-38757142D02*
X58314285Y-38804761D01*
X58457142Y-38852380D01*
X58552380Y-38852380D01*
X58695238Y-38804761D01*
X58790476Y-38709523D01*
X58838095Y-38614285D01*
X58885714Y-38423809D01*
X58885714Y-38280952D01*
X58838095Y-38090476D01*
X58790476Y-37995238D01*
X58695238Y-37900000D01*
X58552380Y-37852380D01*
X58457142Y-37852380D01*
X58314285Y-37900000D01*
X58266666Y-37947619D01*
X57885714Y-37947619D02*
X57838095Y-37900000D01*
X57742857Y-37852380D01*
X57504761Y-37852380D01*
X57409523Y-37900000D01*
X57361904Y-37947619D01*
X57314285Y-38042857D01*
X57314285Y-38138095D01*
X57361904Y-38280952D01*
X57933333Y-38852380D01*
X57314285Y-38852380D01*
%TO.C,C3*%
X51566666Y-99757142D02*
X51614285Y-99804761D01*
X51757142Y-99852380D01*
X51852380Y-99852380D01*
X51995238Y-99804761D01*
X52090476Y-99709523D01*
X52138095Y-99614285D01*
X52185714Y-99423809D01*
X52185714Y-99280952D01*
X52138095Y-99090476D01*
X52090476Y-98995238D01*
X51995238Y-98900000D01*
X51852380Y-98852380D01*
X51757142Y-98852380D01*
X51614285Y-98900000D01*
X51566666Y-98947619D01*
X51233333Y-98852380D02*
X50614285Y-98852380D01*
X50947619Y-99233333D01*
X50804761Y-99233333D01*
X50709523Y-99280952D01*
X50661904Y-99328571D01*
X50614285Y-99423809D01*
X50614285Y-99661904D01*
X50661904Y-99757142D01*
X50709523Y-99804761D01*
X50804761Y-99852380D01*
X51090476Y-99852380D01*
X51185714Y-99804761D01*
X51233333Y-99757142D01*
%TO.C,C4*%
X46166666Y-99657142D02*
X46214285Y-99704761D01*
X46357142Y-99752380D01*
X46452380Y-99752380D01*
X46595238Y-99704761D01*
X46690476Y-99609523D01*
X46738095Y-99514285D01*
X46785714Y-99323809D01*
X46785714Y-99180952D01*
X46738095Y-98990476D01*
X46690476Y-98895238D01*
X46595238Y-98800000D01*
X46452380Y-98752380D01*
X46357142Y-98752380D01*
X46214285Y-98800000D01*
X46166666Y-98847619D01*
X45309523Y-99085714D02*
X45309523Y-99752380D01*
X45547619Y-98704761D02*
X45785714Y-99419047D01*
X45166666Y-99419047D01*
%TO.C,C5*%
X24616666Y-97257142D02*
X24664285Y-97304761D01*
X24807142Y-97352380D01*
X24902380Y-97352380D01*
X25045238Y-97304761D01*
X25140476Y-97209523D01*
X25188095Y-97114285D01*
X25235714Y-96923809D01*
X25235714Y-96780952D01*
X25188095Y-96590476D01*
X25140476Y-96495238D01*
X25045238Y-96400000D01*
X24902380Y-96352380D01*
X24807142Y-96352380D01*
X24664285Y-96400000D01*
X24616666Y-96447619D01*
X23711904Y-96352380D02*
X24188095Y-96352380D01*
X24235714Y-96828571D01*
X24188095Y-96780952D01*
X24092857Y-96733333D01*
X23854761Y-96733333D01*
X23759523Y-96780952D01*
X23711904Y-96828571D01*
X23664285Y-96923809D01*
X23664285Y-97161904D01*
X23711904Y-97257142D01*
X23759523Y-97304761D01*
X23854761Y-97352380D01*
X24092857Y-97352380D01*
X24188095Y-97304761D01*
X24235714Y-97257142D01*
%TO.C,C6*%
X32116666Y-97257142D02*
X32164285Y-97304761D01*
X32307142Y-97352380D01*
X32402380Y-97352380D01*
X32545238Y-97304761D01*
X32640476Y-97209523D01*
X32688095Y-97114285D01*
X32735714Y-96923809D01*
X32735714Y-96780952D01*
X32688095Y-96590476D01*
X32640476Y-96495238D01*
X32545238Y-96400000D01*
X32402380Y-96352380D01*
X32307142Y-96352380D01*
X32164285Y-96400000D01*
X32116666Y-96447619D01*
X31259523Y-96352380D02*
X31450000Y-96352380D01*
X31545238Y-96400000D01*
X31592857Y-96447619D01*
X31688095Y-96590476D01*
X31735714Y-96780952D01*
X31735714Y-97161904D01*
X31688095Y-97257142D01*
X31640476Y-97304761D01*
X31545238Y-97352380D01*
X31354761Y-97352380D01*
X31259523Y-97304761D01*
X31211904Y-97257142D01*
X31164285Y-97161904D01*
X31164285Y-96923809D01*
X31211904Y-96828571D01*
X31259523Y-96780952D01*
X31354761Y-96733333D01*
X31545238Y-96733333D01*
X31640476Y-96780952D01*
X31688095Y-96828571D01*
X31735714Y-96923809D01*
%TO.C,J3*%
X43833333Y-53722380D02*
X43833333Y-54436666D01*
X43880952Y-54579523D01*
X43976190Y-54674761D01*
X44119047Y-54722380D01*
X44214285Y-54722380D01*
X43452380Y-53722380D02*
X42833333Y-53722380D01*
X43166666Y-54103333D01*
X43023809Y-54103333D01*
X42928571Y-54150952D01*
X42880952Y-54198571D01*
X42833333Y-54293809D01*
X42833333Y-54531904D01*
X42880952Y-54627142D01*
X42928571Y-54674761D01*
X43023809Y-54722380D01*
X43309523Y-54722380D01*
X43404761Y-54674761D01*
X43452380Y-54627142D01*
%TO.C,J4*%
X59833333Y-83182380D02*
X59833333Y-83896666D01*
X59880952Y-84039523D01*
X59976190Y-84134761D01*
X60119047Y-84182380D01*
X60214285Y-84182380D01*
X58928571Y-83515714D02*
X58928571Y-84182380D01*
X59166666Y-83134761D02*
X59404761Y-83849047D01*
X58785714Y-83849047D01*
%TO.C,J5*%
X37033333Y-101552380D02*
X37033333Y-102266666D01*
X37080952Y-102409523D01*
X37176190Y-102504761D01*
X37319047Y-102552380D01*
X37414285Y-102552380D01*
X36080952Y-101552380D02*
X36557142Y-101552380D01*
X36604761Y-102028571D01*
X36557142Y-101980952D01*
X36461904Y-101933333D01*
X36223809Y-101933333D01*
X36128571Y-101980952D01*
X36080952Y-102028571D01*
X36033333Y-102123809D01*
X36033333Y-102361904D01*
X36080952Y-102457142D01*
X36128571Y-102504761D01*
X36223809Y-102552380D01*
X36461904Y-102552380D01*
X36557142Y-102504761D01*
X36604761Y-102457142D01*
%TO.C,R3*%
X47666666Y-29952380D02*
X48000000Y-29476190D01*
X48238095Y-29952380D02*
X48238095Y-28952380D01*
X47857142Y-28952380D01*
X47761904Y-29000000D01*
X47714285Y-29047619D01*
X47666666Y-29142857D01*
X47666666Y-29285714D01*
X47714285Y-29380952D01*
X47761904Y-29428571D01*
X47857142Y-29476190D01*
X48238095Y-29476190D01*
X47333333Y-28952380D02*
X46714285Y-28952380D01*
X47047619Y-29333333D01*
X46904761Y-29333333D01*
X46809523Y-29380952D01*
X46761904Y-29428571D01*
X46714285Y-29523809D01*
X46714285Y-29761904D01*
X46761904Y-29857142D01*
X46809523Y-29904761D01*
X46904761Y-29952380D01*
X47190476Y-29952380D01*
X47285714Y-29904761D01*
X47333333Y-29857142D01*
%TO.C,R4*%
X56566666Y-29952380D02*
X56900000Y-29476190D01*
X57138095Y-29952380D02*
X57138095Y-28952380D01*
X56757142Y-28952380D01*
X56661904Y-29000000D01*
X56614285Y-29047619D01*
X56566666Y-29142857D01*
X56566666Y-29285714D01*
X56614285Y-29380952D01*
X56661904Y-29428571D01*
X56757142Y-29476190D01*
X57138095Y-29476190D01*
X55709523Y-29285714D02*
X55709523Y-29952380D01*
X55947619Y-28904761D02*
X56185714Y-29619047D01*
X55566666Y-29619047D01*
%TO.C,R13*%
X57342857Y-109352380D02*
X57676190Y-108876190D01*
X57914285Y-109352380D02*
X57914285Y-108352380D01*
X57533333Y-108352380D01*
X57438095Y-108400000D01*
X57390476Y-108447619D01*
X57342857Y-108542857D01*
X57342857Y-108685714D01*
X57390476Y-108780952D01*
X57438095Y-108828571D01*
X57533333Y-108876190D01*
X57914285Y-108876190D01*
X56390476Y-109352380D02*
X56961904Y-109352380D01*
X56676190Y-109352380D02*
X56676190Y-108352380D01*
X56771428Y-108495238D01*
X56866666Y-108590476D01*
X56961904Y-108638095D01*
X56057142Y-108352380D02*
X55438095Y-108352380D01*
X55771428Y-108733333D01*
X55628571Y-108733333D01*
X55533333Y-108780952D01*
X55485714Y-108828571D01*
X55438095Y-108923809D01*
X55438095Y-109161904D01*
X55485714Y-109257142D01*
X55533333Y-109304761D01*
X55628571Y-109352380D01*
X55914285Y-109352380D01*
X56009523Y-109304761D01*
X56057142Y-109257142D01*
%TO.C,R14*%
X47142857Y-109252380D02*
X47476190Y-108776190D01*
X47714285Y-109252380D02*
X47714285Y-108252380D01*
X47333333Y-108252380D01*
X47238095Y-108300000D01*
X47190476Y-108347619D01*
X47142857Y-108442857D01*
X47142857Y-108585714D01*
X47190476Y-108680952D01*
X47238095Y-108728571D01*
X47333333Y-108776190D01*
X47714285Y-108776190D01*
X46190476Y-109252380D02*
X46761904Y-109252380D01*
X46476190Y-109252380D02*
X46476190Y-108252380D01*
X46571428Y-108395238D01*
X46666666Y-108490476D01*
X46761904Y-108538095D01*
X45333333Y-108585714D02*
X45333333Y-109252380D01*
X45571428Y-108204761D02*
X45809523Y-108919047D01*
X45190476Y-108919047D01*
%TO.C,R15*%
X48042857Y-46652380D02*
X48376190Y-46176190D01*
X48614285Y-46652380D02*
X48614285Y-45652380D01*
X48233333Y-45652380D01*
X48138095Y-45700000D01*
X48090476Y-45747619D01*
X48042857Y-45842857D01*
X48042857Y-45985714D01*
X48090476Y-46080952D01*
X48138095Y-46128571D01*
X48233333Y-46176190D01*
X48614285Y-46176190D01*
X47090476Y-46652380D02*
X47661904Y-46652380D01*
X47376190Y-46652380D02*
X47376190Y-45652380D01*
X47471428Y-45795238D01*
X47566666Y-45890476D01*
X47661904Y-45938095D01*
X46185714Y-45652380D02*
X46661904Y-45652380D01*
X46709523Y-46128571D01*
X46661904Y-46080952D01*
X46566666Y-46033333D01*
X46328571Y-46033333D01*
X46233333Y-46080952D01*
X46185714Y-46128571D01*
X46138095Y-46223809D01*
X46138095Y-46461904D01*
X46185714Y-46557142D01*
X46233333Y-46604761D01*
X46328571Y-46652380D01*
X46566666Y-46652380D01*
X46661904Y-46604761D01*
X46709523Y-46557142D01*
%TO.C,R16*%
X56342857Y-46552380D02*
X56676190Y-46076190D01*
X56914285Y-46552380D02*
X56914285Y-45552380D01*
X56533333Y-45552380D01*
X56438095Y-45600000D01*
X56390476Y-45647619D01*
X56342857Y-45742857D01*
X56342857Y-45885714D01*
X56390476Y-45980952D01*
X56438095Y-46028571D01*
X56533333Y-46076190D01*
X56914285Y-46076190D01*
X55390476Y-46552380D02*
X55961904Y-46552380D01*
X55676190Y-46552380D02*
X55676190Y-45552380D01*
X55771428Y-45695238D01*
X55866666Y-45790476D01*
X55961904Y-45838095D01*
X54533333Y-45552380D02*
X54723809Y-45552380D01*
X54819047Y-45600000D01*
X54866666Y-45647619D01*
X54961904Y-45790476D01*
X55009523Y-45980952D01*
X55009523Y-46361904D01*
X54961904Y-46457142D01*
X54914285Y-46504761D01*
X54819047Y-46552380D01*
X54628571Y-46552380D01*
X54533333Y-46504761D01*
X54485714Y-46457142D01*
X54438095Y-46361904D01*
X54438095Y-46123809D01*
X54485714Y-46028571D01*
X54533333Y-45980952D01*
X54628571Y-45933333D01*
X54819047Y-45933333D01*
X54914285Y-45980952D01*
X54961904Y-46028571D01*
X55009523Y-46123809D01*
%TO.C,R17*%
X56142857Y-92452380D02*
X56476190Y-91976190D01*
X56714285Y-92452380D02*
X56714285Y-91452380D01*
X56333333Y-91452380D01*
X56238095Y-91500000D01*
X56190476Y-91547619D01*
X56142857Y-91642857D01*
X56142857Y-91785714D01*
X56190476Y-91880952D01*
X56238095Y-91928571D01*
X56333333Y-91976190D01*
X56714285Y-91976190D01*
X55190476Y-92452380D02*
X55761904Y-92452380D01*
X55476190Y-92452380D02*
X55476190Y-91452380D01*
X55571428Y-91595238D01*
X55666666Y-91690476D01*
X55761904Y-91738095D01*
X54857142Y-91452380D02*
X54190476Y-91452380D01*
X54619047Y-92452380D01*
%TO.C,R18*%
X47842857Y-92452380D02*
X48176190Y-91976190D01*
X48414285Y-92452380D02*
X48414285Y-91452380D01*
X48033333Y-91452380D01*
X47938095Y-91500000D01*
X47890476Y-91547619D01*
X47842857Y-91642857D01*
X47842857Y-91785714D01*
X47890476Y-91880952D01*
X47938095Y-91928571D01*
X48033333Y-91976190D01*
X48414285Y-91976190D01*
X46890476Y-92452380D02*
X47461904Y-92452380D01*
X47176190Y-92452380D02*
X47176190Y-91452380D01*
X47271428Y-91595238D01*
X47366666Y-91690476D01*
X47461904Y-91738095D01*
X46319047Y-91880952D02*
X46414285Y-91833333D01*
X46461904Y-91785714D01*
X46509523Y-91690476D01*
X46509523Y-91642857D01*
X46461904Y-91547619D01*
X46414285Y-91500000D01*
X46319047Y-91452380D01*
X46128571Y-91452380D01*
X46033333Y-91500000D01*
X45985714Y-91547619D01*
X45938095Y-91642857D01*
X45938095Y-91690476D01*
X45985714Y-91785714D01*
X46033333Y-91833333D01*
X46128571Y-91880952D01*
X46319047Y-91880952D01*
X46414285Y-91928571D01*
X46461904Y-91976190D01*
X46509523Y-92071428D01*
X46509523Y-92261904D01*
X46461904Y-92357142D01*
X46414285Y-92404761D01*
X46319047Y-92452380D01*
X46128571Y-92452380D01*
X46033333Y-92404761D01*
X45985714Y-92357142D01*
X45938095Y-92261904D01*
X45938095Y-92071428D01*
X45985714Y-91976190D01*
X46033333Y-91928571D01*
X46128571Y-91880952D01*
%TO.C,U1*%
X31151904Y-57052380D02*
X31151904Y-57861904D01*
X31104285Y-57957142D01*
X31056666Y-58004761D01*
X30961428Y-58052380D01*
X30770952Y-58052380D01*
X30675714Y-58004761D01*
X30628095Y-57957142D01*
X30580476Y-57861904D01*
X30580476Y-57052380D01*
X29580476Y-58052380D02*
X30151904Y-58052380D01*
X29866190Y-58052380D02*
X29866190Y-57052380D01*
X29961428Y-57195238D01*
X30056666Y-57290476D01*
X30151904Y-57338095D01*
%TD*%
M02*
