M48
; DRILL file {KiCad 5.1.6} date Tue Jul 14 13:58:34 2020
; FORMAT={-:-/ absolute / metric / decimal}
; #@! TF.CreationDate,2020-07-14T13:58:34+04:00
; #@! TF.GenerationSoftware,Kicad,Pcbnew,5.1.6
; #@! TF.FileFunction,Plated,1,2,PTH
FMAT,2
METRIC
T1C0.400
T2C0.800
T3C1.000
T4C1.100
T5C1.220
T6C1.420
T7C1.430
%
G90
G05
T1
X22.2Y-48.55
X24.7Y-45.0
X24.725Y-42.0
X31.1Y-62.3
X35.775Y-42.0
X37.7Y-45.0
X38.7Y-50.5
T2
X27.7Y-45.0
X30.24Y-45.0
X32.78Y-45.0
X54.5Y-101.0
X54.5Y-103.5
X48.5Y-35.0
X48.5Y-37.5
X26.58Y-49.5
X26.58Y-52.04
X26.58Y-54.58
X26.58Y-57.12
X26.58Y-59.66
X26.58Y-62.2
X26.58Y-64.74
X26.58Y-67.28
X34.2Y-49.5
X34.2Y-52.04
X34.2Y-54.58
X34.2Y-57.12
X34.2Y-59.66
X34.2Y-62.2
X34.2Y-64.74
X34.2Y-67.28
X30.7Y-92.5
X33.2Y-92.5
X27.7Y-39.0
X30.24Y-39.0
X32.78Y-39.0
X48.5Y-101.0
X48.5Y-103.5
X54.5Y-35.0
X54.5Y-37.5
X23.2Y-92.5
X25.7Y-92.5
T3
X43.5Y-36.26
X43.5Y-38.8
X43.5Y-41.34
X43.5Y-43.88
X43.5Y-46.42
X43.5Y-48.96
X43.5Y-51.5
X59.5Y-86.5
X59.5Y-89.04
X59.5Y-91.58
X59.5Y-94.12
X59.5Y-96.66
X59.5Y-99.2
X59.5Y-101.74
X44.0Y-89.5
X44.0Y-92.0
X44.0Y-94.5
X22.1Y-23.36
X22.1Y-25.9
X22.1Y-28.44
X22.1Y-30.98
X22.1Y-33.52
X22.1Y-36.06
X22.1Y-38.6
X23.2Y-101.0
X23.2Y-103.54
X25.74Y-101.0
X25.74Y-103.54
X28.28Y-101.0
X28.28Y-103.54
X30.82Y-101.0
X30.82Y-103.54
X33.36Y-101.0
X33.36Y-103.54
X38.15Y-73.56
X38.15Y-76.1
X38.15Y-78.64
X38.15Y-81.18
X38.15Y-83.72
X38.15Y-86.26
X38.15Y-88.8
X59.0Y-43.5
X59.0Y-46.0
X59.0Y-48.5
T5
X56.5Y-66.5
X46.5Y-117.5
X56.5Y-20.5
X56.5Y-117.5
X46.5Y-71.5
X46.5Y-20.5
T6
X56.5Y-23.6
X56.5Y-114.4
X46.5Y-68.4
X46.5Y-23.6
X56.5Y-69.6
X46.5Y-114.4
T7
X56.5Y-31.9
X56.5Y-106.1
X46.5Y-60.1
X46.5Y-31.9
X56.5Y-77.9
X46.5Y-106.1
T4
G00X51.15Y-87.2
M15
G01X51.85Y-87.2
M16
G05
G00X51.15Y-96.8
M15
G01X51.85Y-96.8
M16
G05
G00X51.85Y-41.2
M15
G01X51.15Y-41.2
M16
G05
G00X51.85Y-50.8
M15
G01X51.15Y-50.8
M16
G05
T0
M30
