<?xml version="1.0" encoding="UTF-8" standalone="no"?>
<svg
   xmlns:dc="http://purl.org/dc/elements/1.1/"
   xmlns:cc="http://creativecommons.org/ns#"
   xmlns:rdf="http://www.w3.org/1999/02/22-rdf-syntax-ns#"
   xmlns:svg="http://www.w3.org/2000/svg"
   xmlns="http://www.w3.org/2000/svg"
   xmlns:sodipodi="http://sodipodi.sourceforge.net/DTD/sodipodi-0.dtd"
   xmlns:inkscape="http://www.inkscape.org/namespaces/inkscape"
   inkscape:version="1.0 (4035a4fb49, 2020-05-01)"
   sodipodi:docname="wasp_black.svg"
   viewBox="0 0 621.14667 560.09332"
   height="560.09332"
   width="621.14667"
   xml:space="preserve"
   id="svg2"
   version="1.1"><metadata
     id="metadata8"><rdf:RDF><cc:Work
         rdf:about=""><dc:format>image/svg+xml</dc:format><dc:type
           rdf:resource="http://purl.org/dc/dcmitype/StillImage" /><dc:title></dc:title></cc:Work></rdf:RDF></metadata><defs
     id="defs6" /><sodipodi:namedview
     inkscape:current-layer="g10"
     inkscape:window-maximized="1"
     inkscape:window-y="0"
     inkscape:window-x="0"
     inkscape:cy="314.31019"
     inkscape:cx="204.15873"
     inkscape:zoom="1.0034042"
     showgrid="false"
     id="namedview4"
     inkscape:window-height="712"
     inkscape:window-width="1366"
     inkscape:pageshadow="2"
     inkscape:pageopacity="0"
     guidetolerance="10"
     gridtolerance="10"
     objecttolerance="10"
     borderopacity="1"
     bordercolor="#666666"
     pagecolor="#ffffff" /><g
     transform="matrix(1.3333333,0,0,-1.3333333,0,560.09333)"
     inkscape:label="ink_ext_XXXXXX"
     inkscape:groupmode="layer"
     id="g10"><path
       d="m 206.968,113.105 h 2.775 l -2.775,2.269 z"
       style="fill:#f9a727;fill-opacity:1;fill-rule:nonzero;stroke:none;stroke-width:0.1"
       id="path70" /><path
       d="m 260.902,113.105 v 2.683 l -2.746,-2.683 z"
       style="fill:#f9a727;fill-opacity:1;fill-rule:nonzero;stroke:none;stroke-width:0.1"
       id="path72" /><path
       d="m 443.693,309.102 -34.162,25.769 0.641,29.084 43.204,-11.984 z m -34.455,-9.493 -3.377,-0.512 0.017,0.203 -52.15,4.515 51.348,24.522 32.396,-24.437 z m -8.746,-8.356 -6.668,-33.493 -0.996,-0.095 0.41,0.855 -86.227,41.41 93.596,-8.102 z m -50.588,-37.682 -43.752,38.009 73.279,-35.192 z m 52.309,107.81 -0.569,-25.929 -63.434,-30.294 -46.46,4.022 -0.083,1.875 z m -198.889,-50.8 14.965,25.921 h 29.931 l 14.965,-25.921 z m 75.652,-116.292 h -91.262 l -0.521,21.065 h 91.262 z m 0.938,-37.833 -1.026,-1.003 h -90.211 l -0.522,21.064 h 91.262 z m -45.221,-43.351 -25.748,21.064 h 48.164 l -21.555,-21.064 z m 43.023,132.065 0.315,-12.702 h -91.263 l -0.171,6.897 14.498,14.168 h 66.399 z m -157.336,8.564 -32.3784,1.695 78.0264,41.522 z m -52.2788,35.992 89.3198,11.593 -81.5593,-43.402 -7.6375,31.301 z m -39.1067,10.734 28.9758,25.033 56.5217,-21.781 -52.5705,-6.823 -2.793,0.303 z m -16.2019,47.158 38.4793,12.469 1.841,-28.355 -29.1731,-25.201 z M 176.103,313.656 v -1.948 l -45.178,-5.863 -69.9664,26.96 -1.8281,28.174 z m 231.762,61.868 -126.426,-57.553 -5.148,8.917 38.878,19.353 3.625,1.804 -1.685,3.146 -31.848,59.445 23.658,-58.721 -39.714,-12.756 -9.014,15.61 h -7.563 c 0.006,0.156 0.03,0.307 0.03,0.463 0,4.138 -2.049,7.886 -5.367,10.661 l 32.965,54.177 -37.251,-51.477 c -2.867,1.332 -6.192,2.109 -9.75,2.109 -2.863,0 -5.572,-0.508 -8.019,-1.395 l -36.735,50.763 32.258,-53.013 c -4.22,-2.837 -6.906,-7.079 -6.906,-11.825 0,-0.156 0.023,-0.307 0.029,-0.463 h -7.565 l -8.276,-14.335 -35.915,11.536 20.538,58.666 -28.622,-59.596 -1.473,-3.067 3.479,-1.732 35.222,-17.534 -4.636,-8.028 v 0.077 L 57.2555,373.097 -3.90625e-4,354.544 17.2016,291.145 l 40.791,-4.423 9.9523,-40.791 56.3961,-2.95 59.9,56.711 3.1,-5.37 -48.029,-50.524 -2.113,-2.222 0.532,-2.459 21.455,-99.133 -10.694,97.778 47.9,40.882 2.813,-4.871 -28.573,-27.921 2.549,-102.84 33.787,-27.638 2.775,-2.269 26.354,-21.5581 22.059,21.5581 2.746,2.683 34.974,34.18 -2.546,102.839 -25.899,21.186 3.309,5.731 50.386,-38.977 -13.613,-92.974 24.303,94.197 0.688,2.673 -2.391,2.299 -50.358,48.396 2.008,3.478 64.643,-56.159 56.219,5.362 8.197,41.178 40.564,6.164 14.477,64.077 -57.998,16.086"
       style="fill:#100f0d;fill-opacity:1;fill-rule:nonzero;stroke:none;stroke-width:0.1"
       id="path78" /></g></svg>
