M48
; DRILL file {KiCad 5.1.4} date Sun 13 Oct 2019 12:51:27 AM +04
; FORMAT={-:-/ absolute / inch / decimal}
; #@! TF.CreationDate,2019-10-13T00:51:27+04:00
; #@! TF.GenerationSoftware,Kicad,Pcbnew,5.1.4
; #@! TF.FileFunction,Plated,1,2,PTH
FMAT,2
INCH
T1C0.0276
T2C0.0315
T3C0.0354
T4C0.0433
T5C0.0472
%
G90
G05
T1
X1.55Y-2.7484
X5.0Y-1.49
X5.2Y-1.49
X4.95Y-2.6
X5.15Y-2.6
X4.95Y-2.03
X5.15Y-2.03
X1.55Y-1.65
X1.55Y-1.7484
X1.55Y-2.65
T2
X4.6Y-1.54
X4.6Y-1.6384
X4.8Y-2.08
X4.8Y-2.1784
X4.8Y-2.7
X4.8Y-2.7984
T3
X1.55Y-2.45
X5.35Y-2.05
X5.15Y-2.13
X5.15Y-2.23
X5.35Y-1.95
X5.35Y-2.25
X5.1Y-1.64
X5.2Y-1.64
X1.55Y-1.95
X5.15Y-2.7
X5.15Y-2.8
X5.35Y-2.15
T4
X1.35Y-2.45
X1.35Y-2.75
X3.9Y-2.1
X3.9Y-2.4
X4.55Y-2.03
X4.55Y-2.18
X3.9Y-2.7
X3.9Y-2.85
X4.15Y-2.65
X4.15Y-2.75
X4.15Y-2.85
X4.15Y-2.15
X4.15Y-2.25
X4.15Y-2.35
X4.55Y-2.65
X4.55Y-2.8
X1.35Y-1.65
X1.35Y-1.95
X4.2303Y-1.54
X4.2303Y-1.64
X4.2303Y-1.74
T5
X2.7Y-1.65
X2.7Y-1.9453
X3.4Y-2.45
X3.4Y-2.7453
X2.0Y-2.45
X2.0Y-2.7453
X3.4Y-1.65
X3.4Y-1.9453
X2.7Y-2.4547
X2.7Y-2.75
X2.0Y-1.65
X2.0Y-1.9453
T0
M30
