<?xml version="1.0" encoding="UTF-8" standalone="no"?>
<!-- Created with Inkscape (http://www.inkscape.org/) -->

<svg
   xmlns:dc="http://purl.org/dc/elements/1.1/"
   xmlns:cc="http://creativecommons.org/ns#"
   xmlns:rdf="http://www.w3.org/1999/02/22-rdf-syntax-ns#"
   xmlns:svg="http://www.w3.org/2000/svg"
   xmlns="http://www.w3.org/2000/svg"
   xmlns:sodipodi="http://sodipodi.sourceforge.net/DTD/sodipodi-0.dtd"
   xmlns:inkscape="http://www.inkscape.org/namespaces/inkscape"
   width="210mm"
   height="297mm"
   viewBox="0 0 210 297"
   version="1.1"
   id="svg114160"
   inkscape:version="0.92.4 5da689c313, 2019-01-14"
   sodipodi:docname="panel.svg">
  <defs
     id="defs114154" />
  <sodipodi:namedview
     id="base"
     pagecolor="#ffffff"
     bordercolor="#666666"
     borderopacity="1.0"
     inkscape:pageopacity="0.0"
     inkscape:pageshadow="2"
     inkscape:zoom="0.82"
     inkscape:cx="40.602831"
     inkscape:cy="-8.3838611"
     inkscape:document-units="mm"
     inkscape:current-layer="layer1"
     showgrid="false"
     inkscape:window-width="1366"
     inkscape:window-height="712"
     inkscape:window-x="0"
     inkscape:window-y="0"
     inkscape:window-maximized="1" />
  <metadata
     id="metadata114157">
    <rdf:RDF>
      <cc:Work
         rdf:about="">
        <dc:format>image/svg+xml</dc:format>
        <dc:type
           rdf:resource="http://purl.org/dc/dcmitype/StillImage" />
        <dc:title />
      </cc:Work>
    </rdf:RDF>
  </metadata>
  <g
     inkscape:label="Layer 1"
     inkscape:groupmode="layer"
     id="layer1">
    <path
       inkscape:connector-curvature="0"
       id="path979"
       style="fill:none;stroke:#000000;stroke-width:0.1;stroke-linecap:round;stroke-linejoin:round;stroke-miterlimit:10;stroke-dasharray:none;stroke-opacity:1"
       d="M 30.037836,356.94929 H 0.05071213" />
    <path
       inkscape:connector-curvature="0"
       id="path993"
       style="fill:none;stroke:#000000;stroke-width:0.1;stroke-linecap:round;stroke-linejoin:round;stroke-miterlimit:10;stroke-dasharray:none;stroke-opacity:1"
       d="M 0.05071213,228.4355 H 30.037836" />
    <path
       inkscape:connector-curvature="0"
       id="path997"
       style="fill:none;stroke:#000000;stroke-width:0.1;stroke-linecap:round;stroke-linejoin:round;stroke-miterlimit:10;stroke-dasharray:none;stroke-opacity:1"
       d="M 0.05071213,356.94929 V 228.4355" />
    <path
       inkscape:connector-curvature="0"
       id="path999"
       style="fill:none;stroke:#000000;stroke-width:0.1;stroke-linecap:round;stroke-linejoin:round;stroke-miterlimit:10;stroke-dasharray:none;stroke-opacity:1"
       d="M 30.037836,356.94929 V 228.4355" />
    <path
       inkscape:connector-curvature="0"
       id="path1019"
       style="fill:none;stroke:#000000;stroke-width:0.1;stroke-linecap:round;stroke-linejoin:round;stroke-miterlimit:10;stroke-dasharray:none;stroke-opacity:1"
       d="m 7.6923951,236.18864 h -2.34739 l -0.0093,1e-5 -0.0092,1e-5 -0.0092,2e-5 -0.0092,2e-5 -0.0092,4e-5 -0.0091,4e-5 -0.0091,5e-5 -0.0091,6e-5 -0.0091,7e-5 -0.009,7e-5 -0.009,8e-5 -0.009,9e-5 -0.009,1e-4 -0.0089,1e-4 -0.0089,1.2e-4 -0.0089,1.2e-4 -0.0089,1.2e-4 -0.0088,1.4e-4 -0.0088,1.4e-4 -0.0088,1.5e-4 -0.0088,1.6e-4 -0.0087,1.7e-4 -0.0087,1.8e-4 -0.0087,1.8e-4 -0.0087,1.9e-4 -0.0086,2e-4 -0.0086,2e-4 -0.0086,2.1e-4 -0.0086,2.3e-4 -0.0085,2.2e-4 -0.0085,2.4e-4 -0.0085,2.5e-4 -0.0085,2.5e-4 -0.0084,2.6e-4 -0.0084,2.7e-4 -0.0084,2.7e-4 -0.0083,2.9e-4 -0.0083,2.9e-4 -0.0083,2.9e-4 -0.0083,3.1e-4 -0.0082,3.2e-4 -0.0082,3.2e-4 -0.0082,3.3e-4 -0.0082,3.3e-4 -0.0081,3.5e-4 -0.0081,3.5e-4 -0.0081,3.6e-4 -0.0081,3.7e-4 -0.008,3.8e-4 -0.008,3.8e-4 -0.008,3.9e-4 -0.008,4e-4 -0.0079,4.1e-4 -0.0079,4.2e-4 -0.0079,4.3e-4 -0.0079,4.3e-4 -0.0078,4.4e-4 -0.0078,4.5e-4 -0.0078,4.5e-4 -0.0078,4.6e-4 -0.0077,4.7e-4 -0.0077,4.8e-4 -0.0077,4.8e-4 -0.0077,5e-4 -0.0076,5e-4 -0.0076,5.1e-4 -0.0076,5.1e-4 -0.0076,5.3e-4 -0.0075,5.3e-4 -0.0075,5.4e-4 -0.0075,5.4e-4 -0.0075,5.6e-4 -0.0074,5.6e-4 -0.0074,5.7e-4 -0.0074,5.8e-4 -0.0074,5.9e-4 -0.0073,5.9e-4 -0.0073,6e-4 -0.0073,6.1e-4 -0.0073,6.2e-4 -0.0072,6.2e-4 -0.0072,6.3e-4 -0.0072,6.4e-4 -0.0072,6.5e-4 -0.0071,6.6e-4 -0.0071,6.6e-4 -0.0071,6.7e-4 -0.0071,6.8e-4 -0.007,6.9e-4 -0.007,6.9e-4 -0.007,7e-4 -0.0069,7.1e-4 -0.0069,7.2e-4 -0.0069,7.3e-4 -0.0069,7.3e-4 -0.0068,7.4e-4 -0.0068,7.5e-4 -0.0068,7.6e-4 -0.0068,7.6e-4 -0.0067,7.7e-4 -0.0067,7.8e-4 -0.0067,7.9e-4 -0.0067,8e-4 -0.0066,8e-4 -0.0066,8.1e-4 -0.0066,8.2e-4 -0.0066,8.3e-4 -0.0065,8.3e-4 -0.0065,8.4e-4 -0.0065,8.5e-4 -0.0065,8.6e-4 -0.0064,8.6e-4 -0.0064,8.8e-4 -0.0064,8.8e-4 -0.0064,8.9e-4 -0.0063,8.9e-4 -0.0063,9.1e-4 -0.0063,9.1e-4 -0.0063,9.2e-4 -0.0062,9.3e-4 -0.0062,9.3e-4 -0.0062,9.4e-4 -0.0062,9.6e-4 -0.0061,9.5e-4 -0.0061,9.7e-4 -0.0061,9.7e-4 -0.0061,9.9e-4 -0.006,9.8e-4 -0.006,0.001 -0.006,0.001 -0.006,0.001 -0.0059,0.001 -0.0059,10e-4 -0.0059,0.001 -0.0059,0.001 -0.0058,0.001 -0.0058,0.001 -0.0058,0.001 -0.0058,10e-4 -0.0057,0.001 -0.0057,0.001 -0.0057,0.001 -0.0057,0.001 -0.0056,0.001 -0.0056,10e-4 -0.0056,0.001 -0.0055,0.001 -0.0055,0.001 -0.0055,0.001 -0.0055,0.001 -0.0054,10e-4 -0.0054,0.001 -0.0054,0.001 -0.0054,0.001 -0.0053,0.001 -0.0053,0.001 -0.0053,10e-4 -0.0053,0.001 -0.0052,0.001 -0.0052,0.001 -0.0052,0.001 -0.0052,10e-4 -0.0051,0.001 -0.0051,0.001 -0.0051,0.001 -0.0051,0.001 -0.005,0.001 -0.005,10e-4 -0.005,0.001 -0.005,0.001 -0.0049,0.001 -0.0049,0.001 -0.0049,0.001 -0.0049,10e-4 -0.0048,0.001 -0.0048,0.001 -0.0048,0.001 -0.0048,0.001 -0.0047,0.001 -0.0047,10e-4 -0.0047,0.001 -0.0047,0.001 -0.0046,0.001 -0.0046,0.001 -0.0046,0.001 -0.0046,10e-4 -0.0045,0.001 -0.0045,0.001 -0.0045,0.001 -0.0045,0.001 -0.0044,0.001 -0.0044,10e-4 -0.0044,0.001 -0.0044,0.002 -0.0043,0.002 -0.0043,0.002 -0.0043,0.002 -0.0043,0.002 -0.0042,0.002 -0.0042,0.002 -0.0042,0.002 -0.0041,0.002 -0.0041,0.002 -0.0041,0.002 -0.0041,0.002 -0.004,0.002 -0.004,0.002 -0.004,0.002 -0.004,0.002 -0.0039,0.002 -0.0039,0.002 -0.0039,0.002 -0.0039,0.002 -0.0038,0.002 -0.0038,0.002 -0.0038,0.002 -0.0038,0.002 -0.0037,0.002 -0.0037,0.002 -0.0037,0.002 -0.0037,0.002 -0.0036,0.002 -0.0036,0.002 -0.0036,0.002 -0.0036,0.002 -0.0035,0.002 -0.0035,0.002 -0.0035,0.002 -0.0035,0.002 -0.0034,0.002 -0.0034,0.002 -0.0034,0.002 -0.0034,0.002 -0.0033,0.002 -0.0033,0.002 -0.0033,0.002 -0.0033,0.002 -0.0032,0.002 -0.0032,0.002 -0.0032,0.002 -0.0032,0.002 -0.0031,0.002 -0.0031,0.002 -0.0031,0.002 -0.0031,0.002 -0.003,0.002 -0.003,0.002 -0.003,0.002 -0.003,0.002 -0.0029,0.002 -0.0029,0.002 -0.0029,0.002 -0.0028,0.002 -0.0028,0.002 -0.0028,0.002 -0.0028,0.002 -0.03255,0.0271 -0.03149,0.0283 -0.03038,0.0295 -0.02923,0.0306 -0.02803,0.0317 -0.02679,0.0328 -0.02552,0.0338 -0.0242,0.0347 -0.0156,0.024 -0.02192,0.0362 -0.02014,0.0373 -0.01831,0.0382 -0.01643,0.039 -0.01452,0.0398 -0.01257,0.0404 -0.01059,0.041 -0.0086,0.0415 -2.86e-4,0.002 h 4.256202 v -0.84189 z" />
    <path
       inkscape:connector-curvature="0"
       id="path1021"
       style="fill:none;stroke:#000000;stroke-width:0.1;stroke-linecap:round;stroke-linejoin:round;stroke-miterlimit:10;stroke-dasharray:none;stroke-opacity:1"
       d="m 8.9931781,240.27011 h -1.300783 v -2.06525 h -4.341758 v 2.06525 h -1.300783 v -2.68109 l -3.84e-4,-0.0423 1.64e-4,-0.0423 7.11e-4,-0.0423 0.0013,-0.0423 0.0018,-0.0423 0.0023,-0.0423 0.0029,-0.0423 0.0034,-0.0422 0.004,-0.0422 0.0045,-0.0421 0.0051,-0.042 0.0056,-0.042 0.0062,-0.0419 0.0067,-0.0418 0.0072,-0.0417 0.0078,-0.0416 0.0083,-0.0415 0.0089,-0.0414 0.0094,-0.0413 0.0099,-0.0412 0.01046,-0.041 0.01099,-0.0409 0.01152,-0.0407 0.01204,-0.0406 0.01257,-0.0404 0.01309,-0.0403 0.01038,-0.0307 0.01429,-0.0399 0.01505,-0.0396 0.01579,-0.0393 0.01654,-0.039 0.01727,-0.0387 0.018,-0.0383 0.01873,-0.038 0.01944,-0.0376 0.02015,-0.0373 0.02085,-0.0369 0.02155,-0.0365 0.02224,-0.036 0.02292,-0.0356 0.02359,-0.0352 0.02425,-0.0347 0.0249,-0.0342 0.02555,-0.0338 0.02618,-0.0333 0.02681,-0.0328 0.02743,-0.0323 0.02803,-0.0317 0.02863,-0.0312 0.02922,-0.0307 0.01216,-0.0124 0.0304,-0.0295 0.03094,-0.0289 0.03148,-0.0283 0.03201,-0.0277 0.03252,-0.0271 0.03303,-0.0265 0.03352,-0.0259 0.034,-0.0252 0.03446,-0.0246 0.03492,-0.0239 0.03536,-0.0233 0.03579,-0.0226 0.03621,-0.0219 0.03661,-0.0212 0.03701,-0.0206 0.03739,-0.0199 0.03775,-0.0191 0.03811,-0.0185 0.03845,-0.0177 0.03877,-0.017 0.03908,-0.0163 0.03938,-0.0155 0.03967,-0.0148 0.02084,-0.007 0.0401,-0.0136 0.04027,-0.0131 0.04044,-0.0125 0.04059,-0.012 0.04074,-0.0115 0.04089,-0.011 0.04102,-0.0104 0.04116,-0.01 0.04128,-0.009 0.0414,-0.009 0.04151,-0.008 0.04161,-0.008 0.04171,-0.007 0.0418,-0.007 0.04188,-0.006 0.04196,-0.006 0.04203,-0.005 0.04209,-0.005 0.04214,-0.004 0.04219,-0.003 0.04223,-0.003 0.04227,-0.002 0.04229,-0.002 0.04231,-0.001 0.04233,-7.6e-4 0.04233,-2.2e-4 0.04233,3.3e-4 0.0084,1.3e-4 h 4.277799 v 5.33391 z" />
    <path
       inkscape:connector-curvature="0"
       id="path1023"
       style="fill:none;stroke:#000000;stroke-width:0.1;stroke-linecap:round;stroke-linejoin:round;stroke-miterlimit:10;stroke-dasharray:none;stroke-opacity:1"
       d="m 7.4794051,260.19114 h -5.429551 v -1.25237 h 6.730251 v 2.68092 l 3.83e-4,0.0423 -1.64e-4,0.0424 -7.11e-4,0.0423 -0.0013,0.0423 -0.0018,0.0423 -0.0023,0.0423 -0.0029,0.0423 -0.0034,0.0422 -0.004,0.0422 -0.0045,0.0421 -0.0051,0.0421 -0.0056,0.042 -0.0062,0.0419 -0.0067,0.0418 -0.0072,0.0417 -0.0078,0.0416 -0.0083,0.0415 -0.0089,0.0414 -0.0094,0.0413 -0.0099,0.0412 -0.01046,0.041 -0.01099,0.0409 -0.01152,0.0408 -0.01204,0.0406 -0.01257,0.0404 -0.01309,0.0403 -0.01035,0.0307 -0.01429,0.0399 -0.01505,0.0396 -0.01579,0.0393 -0.01654,0.039 -0.01727,0.0387 -0.018,0.0383 -0.01873,0.038 -0.01944,0.0376 -0.02015,0.0373 -0.02085,0.0369 -0.02155,0.0365 -0.02224,0.036 -0.02292,0.0356 -0.02359,0.0352 -0.02425,0.0347 -0.0249,0.0342 -0.02555,0.0338 -0.02618,0.0333 -0.02681,0.0328 -0.02743,0.0323 -0.02803,0.0317 -0.02863,0.0312 -0.02922,0.0307 -0.01212,0.0124 -0.0304,0.0295 -0.03095,0.0289 -0.03148,0.0283 -0.03201,0.0277 -0.03252,0.0271 -0.03303,0.0265 -0.03352,0.0259 -0.034,0.0252 -0.03446,0.0246 -0.03492,0.0239 -0.03536,0.0233 -0.03579,0.0226 -0.03621,0.0219 -0.03662,0.0213 -0.03701,0.0206 -0.03739,0.0199 -0.03775,0.0192 -0.03811,0.0184 -0.03844,0.0177 -0.03877,0.017 -0.03909,0.0163 -0.03938,0.0155 -0.03967,0.0148 -0.02078,0.007 -0.0401,0.0136 -0.04027,0.0131 -0.04043,0.0125 -0.04059,0.012 -0.04074,0.0115 -0.04089,0.011 -0.04103,0.0105 -0.04116,0.01 -0.04128,0.009 -0.0414,0.009 -0.04151,0.008 -0.04161,0.008 -0.04171,0.007 -0.0418,0.007 -0.04188,0.006 -0.04196,0.006 -0.04203,0.005 -0.04209,0.005 -0.04214,0.004 -0.04219,0.003 -0.04223,0.003 -0.04227,0.002 -0.04229,0.002 -0.04231,0.001 -0.04233,7.6e-4 -0.04233,2.2e-4 -0.04233,-3.3e-4 -0.0084,-1.3e-4 h -4.064896 v -3.26763 h 1.3007 v 2.00113 h 2.735956 l 0.01086,-2e-5 0.01082,-6e-5 0.01078,-1.1e-4 0.01073,-1.5e-4 0.01069,-2e-4 0.01065,-2.3e-4 0.01061,-2.8e-4 0.01056,-3.3e-4 0.01052,-3.7e-4 0.01048,-4.1e-4 0.01044,-4.5e-4 0.01039,-5e-4 0.01035,-5.3e-4 0.01031,-5.9e-4 0.01027,-6.2e-4 0.01022,-6.7e-4 0.01018,-7.1e-4 0.01014,-7.6e-4 0.01009,-8e-4 0.01005,-8.4e-4 0.01001,-8.9e-4 0.01,-9.2e-4 0.0099,-9.7e-4 0.0099,-10e-4 0.0098,-0.001 0.0098,-10e-4 0.0098,-10e-4 0.0097,-0.001 0.0097,-10e-4 0.0096,-0.001 0.0096,-10e-4 0.0095,-10e-4 0.0095,-0.001 0.0095,-10e-4 0.0094,-0.002 0.0094,-0.001 0.0093,-0.002 0.0093,-0.002 0.0092,-0.002 0.0092,-0.002 0.0092,-0.002 0.0091,-0.002 0.0091,-0.002 0.009,-0.002 0.009,-0.002 0.0089,-0.002 0.0089,-0.002 0.0089,-0.002 0.0088,-0.002 0.0088,-0.002 0.0087,-0.002 0.0087,-0.002 0.0086,-0.002 0.0086,-0.002 0.0086,-0.002 0.0085,-0.002 0.0085,-0.002 0.0084,-0.002 0.0084,-0.002 0.0084,-0.003 0.0083,-0.003 0.0083,-0.003 0.0082,-0.003 0.0082,-0.003 0.0081,-0.003 0.0081,-0.003 0.0081,-0.003 0.008,-0.003 0.008,-0.003 0.0079,-0.003 0.0079,-0.003 0.0078,-0.003 0.0078,-0.003 0.0078,-0.003 0.0077,-0.003 0.0077,-0.003 0.0076,-0.003 0.0076,-0.003 0.0075,-0.003 0.0075,-0.003 0.0075,-0.003 0.0074,-0.004 0.0074,-0.004 0.0073,-0.004 0.0073,-0.004 0.0072,-0.004 0.0072,-0.004 0.0072,-0.004 0.0071,-0.004 0.0071,-0.004 0.007,-0.004 0.007,-0.004 0.0069,-0.004 0.0069,-0.004 0.0069,-0.004 0.0068,-0.004 0.0068,-0.004 0.0067,-0.004 0.0067,-0.004 0.0067,-0.004 0.0066,-0.004 0.0066,-0.004 0.0065,-0.004 0.0065,-0.005 0.0064,-0.005 0.0064,-0.005 0.0064,-0.005 0.0063,-0.005 0.0063,-0.005 0.0062,-0.005 0.0062,-0.005 0.0061,-0.005 0.0061,-0.005 0.0061,-0.005 0.006,-0.005 0.006,-0.005 0.0059,-0.005 0.0059,-0.005 0.0058,-0.005 0.0058,-0.005 0.0058,-0.005 0.0057,-0.005 0.0057,-0.005 0.0056,-0.005 0.0056,-0.005 0.0055,-0.005 0.0055,-0.005 0.0055,-0.005 0.0054,-0.006 0.0054,-0.006 0.0053,-0.006 0.0053,-0.006 0.0052,-0.006 0.0052,-0.006 0.0052,-0.006 0.0051,-0.006 0.0051,-0.006 0.005,-0.006 0.005,-0.006 0.0049,-0.006 0.0049,-0.006 0.0049,-0.006 0.0048,-0.006 0.0048,-0.006 0.0047,-0.006 0.0047,-0.006 0.0047,-0.006 0.0046,-0.006 0.0046,-0.006 0.0045,-0.007 0.0045,-0.007 0.0044,-0.006 0.0044,-0.007 0.0044,-0.007 0.0043,-0.007 0.0043,-0.007 0.0042,-0.007 0.0042,-0.007 0.0041,-0.007 0.0041,-0.007 0.0041,-0.007 0.004,-0.007 0.004,-0.007 0.0039,-0.007 0.0039,-0.007 0.0038,-0.007 0.0038,-0.007 0.0038,-0.007 0.0037,-0.007 0.0037,-0.007 0.0036,-0.007 0.0036,-0.007 0.0035,-0.007 0.0035,-0.007 0.0035,-0.007 0.0034,-0.008 0.0034,-0.008 0.0033,-0.008 0.0033,-0.008 0.0032,-0.008 0.0032,-0.008 0.0032,-0.008 0.0031,-0.008 0.0031,-0.008 0.003,-0.008 0.003,-0.008 0.003,-0.008 0.0029,-0.008 0.0029,-0.008 0.0028,-0.008 0.0028,-0.008 0.0027,-0.008 0.0027,-0.008 0.0027,-0.008 0.0026,-0.008 0.0026,-0.008 0.0025,-0.008 0.0025,-0.009 0.0024,-0.009 0.0024,-0.009 0.0024,-0.009 0.0023,-0.009 0.0023,-0.009 0.0022,-0.009 0.0022,-0.009 0.0021,-0.009 0.0021,-0.009 0.0021,-0.009 0.002,-0.009 0.002,-0.009 0.0019,-0.009 0.0019,-0.009 0.0018,-0.009 0.0018,-0.009 0.0018,-0.009 0.0017,-0.009 0.0017,-0.009 0.0016,-0.009 0.0016,-0.009 0.0016,-0.01 0.0015,-0.01 0.0015,-0.01 0.0014,-0.01 0.0014,-0.01 0.0013,-0.01 0.0013,-0.01 0.0012,-0.01 0.0012,-0.01 0.0012,-0.01 0.0011,-0.01 0.0011,-0.01 10e-4,-0.01 9.99e-4,-0.01 9.56e-4,-0.0101 9.14e-4,-0.0101 8.72e-4,-0.0102 8.29e-4,-0.0102 7.86e-4,-0.0102 7.44e-4,-0.0103 7.01e-4,-0.0103 6.59e-4,-0.0104 6.17e-4,-0.0104 5.73e-4,-0.0105 5.32e-4,-0.0105 4.89e-4,-0.0106 4.46e-4,-0.0106 4.04e-4,-0.0106 3.61e-4,-0.0107 3.19e-4,-0.0107 2.76e-4,-0.0108 2.34e-4,-0.0108 1.91e-4,-0.0109 1.49e-4,-0.0109 1.06e-4,-0.0109 6.4e-5,-0.011 2.1e-5,-0.011 v -1.4003 z" />
    <path
       inkscape:connector-curvature="0"
       id="path1025"
       style="fill:none;stroke:#000000;stroke-width:0.1;stroke-linecap:round;stroke-linejoin:round;stroke-miterlimit:10;stroke-dasharray:none;stroke-opacity:1"
       d="m 8.5683051,284.19372 h -4.362246 l -0.0063,1e-5 -0.0063,4e-5 -0.0063,6e-5 -0.0063,9e-5 -0.0063,1.1e-4 -0.0062,1.3e-4 -0.0062,1.7e-4 -0.0062,1.8e-4 -0.0062,2.1e-4 -0.0061,2.4e-4 -0.0061,2.6e-4 -0.0061,2.8e-4 -0.0061,3.2e-4 -0.0061,3.3e-4 -0.006,3.6e-4 -0.006,3.9e-4 -0.006,4e-4 -0.006,4.4e-4 -0.006,4.6e-4 -0.0059,4.8e-4 -0.0059,5.1e-4 -0.0059,5.4e-4 -0.0059,5.5e-4 -0.0058,5.9e-4 -0.0058,6.1e-4 -0.0058,6.3e-4 -0.0058,6.6e-4 -0.0058,6.8e-4 -0.0057,7.1e-4 -0.0057,7.3e-4 -0.0057,7.6e-4 -0.0057,7.8e-4 -0.0056,8.1e-4 -0.0056,8.3e-4 -0.0056,8.5e-4 -0.0056,8.9e-4 -0.0056,9e-4 -0.0055,9.3e-4 -0.0055,9.6e-4 -0.0055,9.8e-4 -0.0055,0.001 -0.0055,10e-4 -0.0054,0.001 -0.0054,10e-4 -0.0054,10e-4 -0.0054,0.001 -0.0053,10e-4 -0.0053,0.001 -0.0053,10e-4 -0.0053,0.001 -0.0053,10e-4 -0.0052,10e-4 -0.0052,0.001 -0.0052,10e-4 -0.0052,0.001 -0.0052,10e-4 -0.0051,10e-4 -0.0051,0.001 -0.0051,10e-4 -0.0051,0.002 -0.005,0.001 -0.005,0.002 -0.005,0.002 -0.005,0.002 -0.005,0.002 -0.0049,0.002 -0.0049,0.002 -0.0049,0.002 -0.0049,0.002 -0.0048,0.002 -0.0048,0.002 -0.0048,0.002 -0.0048,0.002 -0.0048,0.002 -0.0047,0.002 -0.0047,0.002 -0.0047,0.002 -0.0047,0.002 -0.0047,0.002 -0.0046,0.002 -0.0046,0.002 -0.0046,0.002 -0.0046,0.002 -0.0045,0.002 -0.0045,0.002 -0.0045,0.002 -0.0045,0.002 -0.0045,0.002 -0.0044,0.002 -0.0044,0.002 -0.0044,0.002 -0.0044,0.002 -0.0044,0.002 -0.0043,0.002 -0.0043,0.002 -0.0043,0.002 -0.0043,0.002 -0.0042,0.002 -0.0042,0.002 -0.0042,0.002 -0.0042,0.002 -0.0042,0.002 -0.0041,0.002 -0.0041,0.003 -0.0041,0.003 -0.0041,0.003 -0.004,0.003 -0.004,0.003 -0.004,0.003 -0.004,0.003 -0.004,0.003 -0.0039,0.003 -0.0039,0.003 -0.0039,0.003 -0.0039,0.003 -0.0039,0.003 -0.0038,0.003 -0.0038,0.003 -0.0038,0.003 -0.0038,0.003 -0.0037,0.003 -0.0037,0.003 -0.0037,0.003 -0.0037,0.003 -0.0037,0.003 -0.0036,0.003 -0.0036,0.003 -0.0036,0.003 -0.0036,0.003 -0.0036,0.003 -0.0035,0.003 -0.0035,0.003 -0.0035,0.003 -0.0035,0.003 -0.0034,0.003 -0.0034,0.003 -0.0034,0.003 -0.0034,0.003 -0.0034,0.003 -0.0033,0.004 -0.0033,0.003 -0.0033,0.004 -0.0033,0.004 -0.0032,0.004 -0.0032,0.004 -0.0032,0.004 -0.0032,0.004 -0.0032,0.004 -0.0031,0.004 -0.0031,0.004 -0.0031,0.004 -0.0031,0.004 -0.0031,0.004 -0.003,0.004 -0.003,0.004 -0.003,0.004 -0.003,0.004 -0.0029,0.004 -0.0029,0.004 -0.0029,0.004 -0.0029,0.004 -0.0029,0.004 -0.0028,0.004 -0.0028,0.004 -0.0028,0.004 -0.0028,0.004 -0.0028,0.004 -0.0027,0.004 -0.0027,0.004 -0.0027,0.004 -0.0027,0.004 -0.0026,0.004 -0.0026,0.004 -0.0026,0.004 -0.0026,0.004 -0.0026,0.004 -0.0025,0.004 -0.0025,0.004 -0.0025,0.004 -0.0025,0.005 -0.0025,0.005 -0.0024,0.005 -0.0024,0.005 -0.0024,0.005 -0.0024,0.005 -0.0023,0.005 -0.0023,0.005 -0.0023,0.005 -0.0023,0.005 -0.0023,0.005 -0.0022,0.005 -0.0022,0.005 -0.0022,0.005 -0.0022,0.005 -0.0021,0.005 -0.0021,0.005 -0.0021,0.005 -0.0021,0.005 -0.0021,0.005 -0.002,0.005 -0.002,0.005 -0.002,0.005 -0.002,0.005 -0.002,0.005 -0.0019,0.005 -0.0019,0.005 -0.0019,0.005 -0.0019,0.005 -0.0018,0.005 -0.0018,0.005 -0.0018,0.005 -0.0018,0.005 -0.0018,0.005 -0.0017,0.005 -0.0017,0.005 -0.0017,0.005 -0.0017,0.005 -0.0017,0.005 -0.0016,0.005 -0.0016,0.005 -0.0016,0.005 -0.0016,0.006 -0.0015,0.005 -0.0015,0.006 -0.0015,0.006 -0.0015,0.006 -0.0015,0.006 -0.0014,0.006 -0.0014,0.006 -0.0014,0.006 -0.0014,0.006 -0.0013,0.006 -0.0013,0.006 -0.0013,0.006 -0.0013,0.006 -0.0013,0.006 -0.0012,0.006 -0.0012,0.006 -0.0012,0.006 -0.0012,0.006 -0.0012,0.006 -0.0011,0.006 -0.0011,0.006 -0.0011,0.006 -0.0011,0.006 -10e-4,0.006 -0.001,0.006 -10e-4,0.006 -9.86e-4,0.006 -9.64e-4,0.006 -9.43e-4,0.006 -9.21e-4,0.006 -9e-4,0.006 -8.78e-4,0.006 -8.57e-4,0.006 -8.35e-4,0.006 h 5.309116 v 1.01801 l -3.7e-5,0.0175 -1.11e-4,0.0175 -1.86e-4,0.0174 -2.6e-4,0.0173 -3.34e-4,0.0173 -4.08e-4,0.0172 -4.82e-4,0.0171 -5.57e-4,0.0171 -6.31e-4,0.017 -7.05e-4,0.0169 -7.79e-4,0.0169 -8.53e-4,0.0168 -9.28e-4,0.0167 -10e-4,0.0166 -0.0011,0.0166 -0.0011,0.0165 -0.0012,0.0164 -0.0013,0.0164 -0.0014,0.0163 -0.0014,0.0162 -0.0015,0.0162 -0.0016,0.0161 -0.0017,0.016 -0.0017,0.016 -0.0018,0.0159 -0.0019,0.0158 -0.002,0.0157 -0.002,0.0157 -0.0021,0.0156 -0.0022,0.0156 -0.0023,0.0155 -0.0023,0.0154 -0.0024,0.0153 -0.0025,0.0153 -0.0026,0.0152 -0.0026,0.0151 -0.0027,0.0151 -0.0028,0.015 -0.0029,0.0149 -0.0029,0.0149 -0.003,0.0148 -0.0031,0.0147 -0.0032,0.0147 -0.0032,0.0146 -0.0033,0.0145 -0.0034,0.0145 -0.0034,0.0144 -0.0035,0.0143 -0.0036,0.0143 -0.0037,0.0142 -0.0037,0.0141 -0.0038,0.014 -0.0039,0.014 -0.004,0.0139 -0.004,0.0138 -0.0041,0.0138 -0.0042,0.0137 -0.0043,0.0136 -0.0043,0.0136 -0.0044,0.0135 -0.0045,0.0134 -0.0046,0.0134 -0.0046,0.0133 -0.0047,0.0132 -0.0048,0.0131 -0.0049,0.0131 -0.0049,0.013 -0.005,0.0129 -0.0051,0.0129 -0.0052,0.0128 -0.0052,0.0127 -0.0053,0.0127 -0.0054,0.0126 -0.0055,0.0125 -0.0055,0.0125 -0.0056,0.0124 -0.0057,0.0123 -0.0057,0.0122 -0.0058,0.0122 -0.0059,0.0121 -0.006,0.012 -0.006,0.012 -0.0061,0.0119 -0.0062,0.0118 -0.0063,0.0118 -0.0063,0.0117 -0.0064,0.0116 -0.0065,0.0116 -0.0066,0.0115 -0.0066,0.0114 -0.0067,0.0114 -0.0068,0.0113 -0.0069,0.0112 -0.0069,0.0112 -0.007,0.0111 -0.0071,0.011 -0.0072,0.0109 -0.0072,0.0109 -0.0073,0.0108 -0.0074,0.0107 -0.0075,0.0107 -0.0075,0.0106 -0.0076,0.0105 -0.0077,0.0105 -0.0078,0.0104 -0.0078,0.0103 -0.0079,0.0103 -0.008,0.0102 -0.0081,0.0101 -0.0081,0.0101 -0.0082,0.01 -0.0083,0.01 -0.0083,0.01 -0.0084,0.01 -0.0085,0.01 -0.0086,0.01 -0.0086,0.01 -0.0087,0.01 -0.0088,0.009 -0.0089,0.009 -0.0089,0.009 -0.009,0.009 -0.0091,0.009 -0.0092,0.009 -0.0092,0.009 -0.0093,0.009 -0.0094,0.009 -0.0095,0.009 -0.0095,0.009 -0.0096,0.009 -0.0097,0.009 -0.0098,0.009 -0.0098,0.008 -0.0099,0.008 -0.01,0.008 -0.01006,0.008 -0.01013,0.008 -0.0102,0.008 -0.01028,0.008 -0.01035,0.008 -0.01043,0.008 -0.0105,0.008 -0.01058,0.008 -0.01065,0.008 -0.01072,0.008 -0.0108,0.008 -0.01087,0.007 -0.01095,0.007 -0.01102,0.007 -0.01109,0.007 -0.01117,0.007 -0.01124,0.007 -0.01132,0.007 -0.01139,0.007 -0.01147,0.007 -0.01154,0.007 -0.01161,0.007 -0.01169,0.007 -0.01176,0.007 -0.01184,0.007 -0.01191,0.007 -0.01199,0.007 -0.01206,0.006 -0.01213,0.006 -0.01221,0.006 -0.01228,0.006 -0.01236,0.006 -0.01243,0.006 -0.01251,0.006 -0.01258,0.006 -0.01266,0.006 -0.01273,0.006 -0.0128,0.006 -0.01288,0.006 -0.01295,0.006 -0.01302,0.006 -0.0131,0.005 -0.01317,0.005 -0.01325,0.005 -0.01332,0.005 -0.0134,0.005 -0.01347,0.005 -0.01355,0.005 -0.01362,0.005 -0.01369,0.005 -0.01377,0.005 -0.01384,0.005 -0.01392,0.005 -0.01399,0.005 -0.01406,0.005 -0.01414,0.005 -0.01421,0.004 -0.01429,0.004 -0.01436,0.004 -0.01444,0.004 -0.01451,0.004 -0.01458,0.004 -0.01466,0.004 -0.01473,0.004 -0.01481,0.004 -0.01488,0.004 -0.01496,0.004 -0.01503,0.004 -0.0151,0.004 -0.01518,0.004 -0.01525,0.003 -0.01533,0.003 -0.0154,0.003 -0.01548,0.003 -0.01555,0.003 -0.01562,0.003 -0.0157,0.003 -0.01577,0.003 -0.01584,0.003 -0.01592,0.003 -0.01599,0.003 -0.01607,0.003 -0.01614,0.003 -0.01622,0.003 -0.01629,0.002 -0.01637,0.002 -0.01644,0.002 -0.01651,0.002 -0.01659,0.002 -0.01666,0.002 -0.01674,0.002 -0.01681,0.002 -0.01688,0.002 -0.01696,0.002 -0.01703,0.002 -0.01711,0.002 -0.01718,0.002 -0.01726,0.002 -0.01733,10e-4 -0.01741,0.002 -0.01748,10e-4 -0.01755,0.001 -0.01763,10e-4 -0.0177,0.001 -0.01778,10e-4 -0.01785,0.001 -0.01792,10e-4 -0.018,9.2e-4 -0.01807,8.6e-4 -0.01815,7.9e-4 -0.01822,7.2e-4 -0.01829,6.5e-4 -0.01837,5.9e-4 -0.01844,5.1e-4 -0.01852,4.5e-4 -0.01859,3.8e-4 -0.01867,3.1e-4 -0.01874,2.4e-4 -0.01881,1.7e-4 -0.01889,10e-5 -0.01897,-1.2e-4 h -4.11473 v -1.26649 h 4.390485 l 0.0423,0.001 0.04233,-5.2e-4 0.04225,-0.003 0.04208,-0.005 0.04181,-0.007 0.04144,-0.009 0.04098,-0.0106 0.04043,-0.0126 0.03978,-0.0145 0.03903,-0.0164 0.0382,-0.0182 0.03728,-0.0201 0.03627,-0.0218 0.03518,-0.0236 0.03401,-0.0252 0.02541,-0.0206 0.02933,-0.0306 0.028,-0.0318 0.02663,-0.0329 0.02521,-0.034 0.02375,-0.0351 0.02224,-0.036 0.02069,-0.037 0.0191,-0.0378 0.01748,-0.0386 0.01583,-0.0393 0.01415,-0.0399 0.01244,-0.0405 0.01072,-0.041 0.009,-0.0414 0.0072,-0.0417 0.0048,-0.0363 h -5.295827 v -1.01884 l 3.7e-5,-0.0175 1.12e-4,-0.0175 1.85e-4,-0.0174 2.6e-4,-0.0173 3.34e-4,-0.0173 4.08e-4,-0.0172 4.83e-4,-0.0171 5.56e-4,-0.0171 6.31e-4,-0.017 7.05e-4,-0.0169 7.8e-4,-0.0168 8.53e-4,-0.0168 9.28e-4,-0.0167 9.99e-4,-0.0166 0.0011,-0.0166 0.0011,-0.0165 0.0012,-0.0164 0.0013,-0.0164 0.0014,-0.0163 0.0014,-0.0162 0.0015,-0.0162 0.0016,-0.0161 0.0017,-0.016 0.0017,-0.016 0.0018,-0.0159 0.0019,-0.0158 0.002,-0.0157 0.002,-0.0157 0.0021,-0.0156 0.0022,-0.0156 0.0023,-0.0155 0.0023,-0.0154 0.0024,-0.0153 0.0025,-0.0153 0.0026,-0.0152 0.0026,-0.0151 0.0027,-0.0151 0.0028,-0.015 0.0029,-0.0149 0.0029,-0.0149 0.003,-0.0148 0.0031,-0.0147 0.0032,-0.0147 0.0032,-0.0146 0.0033,-0.0145 0.0034,-0.0144 0.0034,-0.0144 0.0035,-0.0143 0.0036,-0.0142 0.0037,-0.0142 0.0037,-0.0141 0.0038,-0.014 0.0039,-0.014 0.004,-0.0139 0.004,-0.0138 0.0041,-0.0138 0.0042,-0.0137 0.0043,-0.0136 0.0043,-0.0136 0.0044,-0.0135 0.0045,-0.0134 0.0046,-0.0134 0.0046,-0.0133 0.0047,-0.0132 0.0048,-0.0131 0.0049,-0.0131 0.0049,-0.013 0.005,-0.0129 0.0051,-0.0129 0.0052,-0.0128 0.0052,-0.0127 0.0053,-0.0127 0.0054,-0.0126 0.0055,-0.0125 0.0055,-0.0125 0.0056,-0.0124 0.0057,-0.0123 0.0057,-0.0122 0.0058,-0.0122 0.0059,-0.0121 0.006,-0.012 0.006,-0.012 0.0061,-0.0119 0.0062,-0.0119 0.0063,-0.0118 0.0063,-0.0117 0.0064,-0.0116 0.0065,-0.0116 0.0066,-0.0115 0.0066,-0.0114 0.0067,-0.0114 0.0068,-0.0113 0.0069,-0.0112 0.0069,-0.0112 0.007,-0.0111 0.0071,-0.011 0.0072,-0.011 0.0072,-0.0109 0.0073,-0.0108 0.0074,-0.0108 0.0075,-0.0107 0.0075,-0.0106 0.0076,-0.0105 0.0077,-0.0105 0.0078,-0.0104 0.0078,-0.0103 0.0079,-0.0103 0.008,-0.0102 0.0081,-0.0101 0.0081,-0.0101 0.0082,-0.01 0.0083,-0.01 0.0083,-0.01 0.0084,-0.01 0.0085,-0.01 0.0086,-0.01 0.0086,-0.01 0.0087,-0.01 0.0088,-0.009 0.0089,-0.009 0.0089,-0.009 0.009,-0.009 0.0091,-0.009 0.0092,-0.009 0.0092,-0.009 0.0093,-0.009 0.0094,-0.009 0.0095,-0.009 0.0095,-0.009 0.0096,-0.009 0.0097,-0.009 0.0098,-0.009 0.0098,-0.008 0.0099,-0.008 0.01,-0.008 0.01006,-0.008 0.01013,-0.008 0.0102,-0.008 0.01028,-0.008 0.01035,-0.008 0.01043,-0.008 0.0105,-0.008 0.01058,-0.008 0.01065,-0.008 0.01072,-0.008 0.0108,-0.008 0.01087,-0.007 0.01095,-0.007 0.01102,-0.007 0.0111,-0.007 0.01117,-0.007 0.01124,-0.007 0.01132,-0.007 0.01139,-0.007 0.01147,-0.007 0.01154,-0.007 0.01161,-0.007 0.01169,-0.007 0.01176,-0.007 0.01184,-0.007 0.01191,-0.007 0.01199,-0.007 0.01206,-0.006 0.01214,-0.006 0.01221,-0.006 0.01228,-0.006 0.01236,-0.006 0.01243,-0.006 0.0125,-0.006 0.01258,-0.006 0.01265,-0.006 0.01273,-0.006 0.0128,-0.006 0.01288,-0.006 0.01295,-0.006 0.01303,-0.005 0.0131,-0.006 0.01317,-0.005 0.01325,-0.005 0.01332,-0.005 0.0134,-0.005 0.01347,-0.005 0.01355,-0.005 0.01362,-0.005 0.01369,-0.005 0.01377,-0.005 0.01384,-0.005 0.01392,-0.005 0.01399,-0.005 0.01406,-0.005 0.01414,-0.005 0.01421,-0.004 0.01429,-0.004 0.01436,-0.004 0.01444,-0.004 0.01451,-0.004 0.01458,-0.004 0.01466,-0.004 0.01473,-0.004 0.01481,-0.004 0.01488,-0.004 0.01495,-0.004 0.01503,-0.004 0.0151,-0.004 0.01518,-0.003 0.01525,-0.004 0.01533,-0.003 0.0154,-0.003 0.01547,-0.003 0.01555,-0.003 0.01562,-0.003 0.0157,-0.003 0.01577,-0.003 0.01584,-0.003 0.01592,-0.003 0.01599,-0.003 0.01607,-0.003 0.01614,-0.003 0.01622,-0.003 0.01629,-0.002 0.01637,-0.002 0.01644,-0.002 0.01651,-0.002 0.01659,-0.002 0.01666,-0.002 0.01674,-0.002 0.01681,-0.002 0.01689,-0.002 0.01696,-0.002 0.01703,-0.002 0.01711,-0.002 0.01718,-0.002 0.01725,-0.002 0.01733,-10e-4 0.0174,-0.002 0.01748,-10e-4 0.01755,-0.001 0.01763,-10e-4 0.0177,-10e-4 0.01778,-0.001 0.01785,-10e-4 0.01792,-0.001 0.018,-9.3e-4 0.01807,-8.6e-4 0.01815,-7.8e-4 0.01822,-7.3e-4 0.01829,-6.5e-4 0.01837,-5.8e-4 0.01844,-5.2e-4 0.01852,-4.4e-4 0.01859,-3.8e-4 0.01867,-3.1e-4 0.01874,-2.4e-4 0.01881,-1.7e-4 0.01889,-1e-4 0.01896,-4e-5 h 4.086491 v 1.25237 z" />
    <path
       inkscape:connector-curvature="0"
       id="path1027"
       style="fill:none;stroke:#000000;stroke-width:0.1;stroke-linecap:round;stroke-linejoin:round;stroke-miterlimit:10;stroke-dasharray:none;stroke-opacity:1"
       d="m 3.9510691,309.00987 h 3.02583 l 0.0423,0.002 0.04233,-5.6e-4 0.04225,-0.003 0.04207,-0.005 0.04179,-0.007 0.04141,-0.009 0.04094,-0.0108 0.04037,-0.0128 0.0397,-0.0147 0.03893,-0.0166 0.03808,-0.0185 0.03713,-0.0203 0.0361,-0.0221 0.03498,-0.0238 0.03378,-0.0255 0.02662,-0.022 0.029,-0.0309 0.0277,-0.032 0.02636,-0.0331 0.02496,-0.0342 0.02353,-0.0352 0.02205,-0.0362 0.02054,-0.037 0.019,-0.0378 0.01742,-0.0386 0.01581,-0.0393 0.01417,-0.0399 0.01251,-0.0405 0.01083,-0.0409 0.0091,-0.0414 0.0074,-0.0417 0.0057,-0.042 4.37e-4,-0.004 h -4.531686 v 4.08121 l -1.300698,-1e-5 v -5.33357 h 7.084081 v 1.01884 l -3e-5,0.0158 -9e-5,0.0157 -1.5e-4,0.0157 -2.1e-4,0.0156 -2.7e-4,0.0156 -3.3e-4,0.0155 -3.9e-4,0.0154 -4.5e-4,0.0154 -5.1e-4,0.0153 -5.7e-4,0.0153 -6.3e-4,0.0152 -6.9e-4,0.0152 -7.5e-4,0.0151 -8.1e-4,0.0151 -8.7e-4,0.015 -9.3e-4,0.0149 -9.9e-4,0.0149 -10e-4,0.0148 -0.0011,0.0148 -0.0012,0.0147 -0.0012,0.0147 -0.0013,0.0146 -0.0013,0.0145 -0.0014,0.0145 -0.0015,0.0144 -0.0015,0.0144 -0.0016,0.0143 -0.0016,0.0143 -0.0017,0.0142 -0.0018,0.0142 -0.0018,0.0141 -0.0019,0.014 -0.0019,0.014 -0.002,0.0139 -0.0021,0.0139 -0.0021,0.0138 -0.0022,0.0138 -0.0022,0.0137 -0.0023,0.0137 -0.0024,0.0136 -0.0024,0.0136 -0.0025,0.0135 -0.0025,0.0134 -0.0026,0.0134 -0.0027,0.0133 -0.0027,0.0133 -0.0028,0.0132 -0.0028,0.0132 -0.0029,0.0131 -0.003,0.0131 -0.003,0.013 -0.0031,0.0129 -0.0031,0.0129 -0.0032,0.0128 -0.0033,0.0128 -0.0033,0.0127 -0.0034,0.0127 -0.0034,0.0126 -0.0035,0.0126 -0.0036,0.0125 -0.0036,0.0125 -0.0037,0.0124 -0.0037,0.0123 -0.0038,0.0123 -0.0039,0.0122 -0.0039,0.0122 -0.004,0.0121 -0.004,0.0121 -0.0041,0.012 -0.0042,0.012 -0.0042,0.0119 -0.0043,0.0118 -0.0043,0.0118 -0.0044,0.0117 -0.0045,0.0117 -0.0045,0.0116 -0.0046,0.0116 -0.0046,0.0115 -0.0047,0.0114 -0.0048,0.0114 -0.0048,0.0113 -0.0049,0.0113 -0.0049,0.0112 -0.005,0.0112 -0.0051,0.0111 -0.0051,0.0111 -0.0052,0.011 -0.0052,0.011 -0.0053,0.0109 -0.0054,0.0108 -0.0054,0.0108 -0.0055,0.0107 -0.0055,0.0107 -0.0056,0.0106 -0.0057,0.0106 -0.0057,0.0105 -0.0058,0.0105 -0.0058,0.0104 -0.0059,0.0103 -0.006,0.0103 -0.006,0.0102 -0.0061,0.0102 -0.0061,0.0101 -0.0062,0.0101 -0.0063,0.01 -0.0063,0.01 -0.0064,0.01 -0.0064,0.01 -0.0065,0.01 -0.0066,0.01 -0.0066,0.01 -0.0067,0.01 -0.0067,0.01 -0.0068,0.01 -0.0069,0.01 -0.0069,0.009 -0.007,0.009 -0.007,0.009 -0.0071,0.009 -0.0072,0.009 -0.0072,0.009 -0.0073,0.009 -0.0073,0.009 -0.0074,0.009 -0.0075,0.009 -0.0075,0.009 -0.0076,0.009 -0.0076,0.009 -0.0077,0.009 -0.0078,0.009 -0.0078,0.009 -0.0079,0.009 -0.0079,0.009 -0.008,0.008 -0.0081,0.008 -0.0081,0.008 -0.0082,0.008 -0.0082,0.008 -0.0083,0.008 -0.0084,0.008 -0.0084,0.008 -0.0085,0.008 -0.0085,0.008 -0.0086,0.008 -0.0087,0.008 -0.0087,0.008 -0.0088,0.008 -0.0088,0.008 -0.0089,0.008 -0.009,0.007 -0.009,0.007 -0.0091,0.007 -0.0091,0.007 -0.0092,0.007 -0.0093,0.007 -0.0093,0.007 -0.0094,0.007 -0.0094,0.007 -0.0095,0.007 -0.0096,0.007 -0.0096,0.007 -0.0097,0.007 -0.0097,0.007 -0.0098,0.007 -0.0099,0.007 -0.0099,0.007 -0.01,0.007 -0.01005,0.007 -0.01011,0.006 -0.01017,0.006 -0.01023,0.006 -0.01029,0.006 -0.01035,0.006 -0.01041,0.006 -0.01047,0.006 -0.01053,0.006 -0.01059,0.006 -0.01065,0.006 -0.01071,0.006 -0.01077,0.006 -0.01083,0.006 -0.01089,0.006 -0.01095,0.006 -0.01101,0.006 -0.01107,0.006 -0.01113,0.006 -0.01119,0.006 -0.01125,0.005 -0.01131,0.005 -0.01137,0.005 -0.01143,0.005 -0.01149,0.005 -0.01155,0.005 -0.01161,0.005 -0.01167,0.005 -0.01173,0.005 -0.01179,0.005 -0.01185,0.005 -0.01191,0.005 -0.01197,0.005 -0.01203,0.005 -0.01209,0.005 -0.01215,0.005 -0.01221,0.005 -0.01227,0.005 -0.01233,0.004 -0.01239,0.004 -0.01245,0.004 -0.01251,0.004 -0.01257,0.004 -0.01263,0.004 -0.01269,0.004 -0.01275,0.004 -0.01281,0.004 -0.01287,0.004 -0.01293,0.004 -0.01299,0.004 -0.01305,0.004 -0.01311,0.004 -0.01317,0.004 -0.01323,0.004 -0.01329,0.003 -0.01335,0.004 -0.01341,0.003 -0.01347,0.003 -0.01353,0.003 -0.01359,0.003 -0.01365,0.003 -0.01371,0.003 -0.01377,0.003 -0.01383,0.003 -0.01389,0.003 -0.01395,0.003 -0.01401,0.003 -0.01407,0.003 -0.01413,0.003 -0.01419,0.003 -0.01425,0.003 -0.01431,0.003 -0.01437,0.002 -0.01443,0.002 -0.01449,0.002 -0.01455,0.002 -0.01461,0.002 -0.01467,0.002 -0.01473,0.002 -0.01479,0.002 -0.01485,0.002 -0.01491,0.002 -0.01497,0.002 -0.01503,0.002 -0.01509,0.002 -0.01515,0.002 -0.01521,0.002 -0.01527,0.002 -0.01533,0.002 2.029125,2.08673 h -1.56898 l -2.057365,-2.06512 h -1.619646 v -1.20251 z" />
    <path
       inkscape:connector-curvature="0"
       id="path1029"
       style="fill:none;stroke:#000000;stroke-width:0.1;stroke-linecap:round;stroke-linejoin:round;stroke-miterlimit:10;stroke-dasharray:none;stroke-opacity:1"
       d="m 2.7815431,335.94704 h -0.731689 v -3.00033 h 0.731689 z" />
    <path
       inkscape:connector-curvature="0"
       id="path1031"
       style="fill:none;stroke:#000000;stroke-width:0.1;stroke-linecap:round;stroke-linejoin:round;stroke-miterlimit:10;stroke-dasharray:none;stroke-opacity:1"
       d="m 7.4146431,335.94704 h -0.771405 l -0.02447,-0.0346 -0.02464,-0.0344 -0.0248,-0.0343 -0.02497,-0.0342 -0.02513,-0.0341 -0.02529,-0.034 -0.02546,-0.0338 -0.02562,-0.0337 -0.02578,-0.0336 -0.02594,-0.0335 -0.0261,-0.0333 -0.02627,-0.0332 -0.02642,-0.0331 -0.02658,-0.033 -0.02674,-0.0328 -0.0269,-0.0327 -0.02706,-0.0326 -0.02721,-0.0324 -0.02737,-0.0323 -0.02753,-0.0322 -0.02768,-0.0321 -0.02783,-0.0319 -0.02799,-0.0318 -0.02814,-0.0316 -0.02829,-0.0315 -0.02844,-0.0314 -0.0286,-0.0312 -0.02875,-0.0311 -0.02889,-0.031 -0.02904,-0.0308 -0.02919,-0.0307 -0.02934,-0.0305 -0.02949,-0.0304 -0.02963,-0.0303 -0.02978,-0.0301 -0.02992,-0.03 -0.03007,-0.0298 -0.03021,-0.0297 -0.03035,-0.0295 -0.03049,-0.0294 -0.03063,-0.0292 -0.03077,-0.0291 -0.03092,-0.0289 -0.02055,-0.0191 -0.03103,-0.0288 -0.03134,-0.0285 -0.03164,-0.0281 -0.03194,-0.0278 -0.03224,-0.0275 -0.03253,-0.0271 -0.03282,-0.0267 -0.0331,-0.0264 -0.03339,-0.026 -0.03366,-0.0257 -0.03394,-0.0253 -0.0342,-0.025 -0.03447,-0.0246 -0.03473,-0.0242 -0.03499,-0.0238 -0.03524,-0.0235 -0.03549,-0.0231 -0.03574,-0.0227 -0.03598,-0.0223 -0.03621,-0.0219 -0.03645,-0.0215 -0.03668,-0.0211 -0.0369,-0.0208 -0.03712,-0.0204 -0.03734,-0.02 -0.03755,-0.0196 -0.03776,-0.0192 -0.03796,-0.0188 -0.03816,-0.0183 -0.03835,-0.0179 -0.03854,-0.0175 -0.03873,-0.0171 -0.03891,-0.0167 -0.01417,-0.006 -0.04198,-0.0153 -0.04203,-0.0151 -0.0092,-0.003 -0.09174,-0.0329 -0.01362,-0.005 0.0033,0.0422 0.0028,0.0423 0.0023,0.0423 0.0019,0.0423 0.0014,0.0417 v 2.01346 h -0.711599 v -3.00032 h 0.628431 l 0.0402,0.0133 0.04007,0.0137 0.03993,0.014 0.0398,0.0144 0.03965,0.0148 0.0395,0.0152 0.03936,0.0156 0.0392,0.016 0.03904,0.0164 0.03888,0.0168 0.03872,0.0171 0.03855,0.0175 0.03837,0.0179 0.0382,0.0183 0.03802,0.0186 0.03783,0.019 0.03765,0.0194 0.03746,0.0197 0.0053,0.003 0.03729,0.02 0.03715,0.0203 0.03701,0.0206 0.03686,0.0208 0.03672,0.0211 0.03657,0.0213 0.03642,0.0216 0.03626,0.0219 0.03611,0.0221 0.03595,0.0224 0.0358,0.0226 0.03564,0.0229 0.03548,0.0231 0.03532,0.0233 0.03515,0.0236 0.03498,0.0238 0.03482,0.0241 0.03465,0.0243 0.02793,0.0199 0.03435,0.0247 0.0342,0.025 0.03405,0.0252 0.03389,0.0254 0.03374,0.0256 0.03358,0.0258 0.03342,0.026 0.03326,0.0262 0.0331,0.0264 0.03294,0.0266 0.03278,0.0268 0.03262,0.027 0.03245,0.0272 0.03228,0.0274 0.03212,0.0276 0.03195,0.0278 0.03178,0.028 0.03161,0.0282 0.03144,0.0284 0.0089,0.008 0.03126,0.0286 0.03113,0.0287 0.031,0.0288 0.03087,0.029 0.03073,0.0291 0.0306,0.0293 0.03046,0.0294 0.03033,0.0296 0.03019,0.0297 0.03006,0.0298 0.02992,0.03 0.02978,0.0301 0.02964,0.0302 0.0295,0.0304 0.02936,0.0305 0.02922,0.0306 0.02908,0.0308 0.02894,0.0309 0.0288,0.031 0.01339,0.0145 0.131293,0.14305 -0.0039,-0.0422 -0.0031,-0.0422 -0.0024,-0.0423 -0.0016,-0.0423 -6.48e-4,-0.0259 v -1.76289 h 0.715803 v 3.00033 z" />
    <path
       inkscape:connector-curvature="0"
       id="path1033"
       style="fill:none;stroke:#000000;stroke-width:0.1;stroke-linecap:round;stroke-linejoin:round;stroke-miterlimit:10;stroke-dasharray:none;stroke-opacity:1"
       d="m 22.330332,296.94285 v 0.5133 h -0.191098 l -0.04233,-9e-5 -0.0423,0.002 -0.04221,0.003 -0.04206,0.005 -0.04184,0.006 -0.04156,0.008 -0.01798,0.004 -0.04059,0.0119 -0.03891,0.0166 -0.0367,0.0211 -0.03397,0.0252 -0.02271,0.0207 -0.02698,0.0326 -0.02324,0.0354 -0.01922,0.0377 -0.01497,0.0396 -0.009,0.0337 -0.0085,0.0415 -0.007,0.0418 -0.0054,0.042 -0.0039,0.0422 -0.0024,0.0423 -8.68e-4,0.0423 2.35e-4,0.0265 v 1.83815 l -9e-5,0.0423 0.0014,0.0423 0.003,0.0422 0.0045,0.0421 0.006,0.0419 0.0075,0.0417 0.0055,0.026 0.01133,0.0408 0.01573,0.0393 0.01994,0.0373 0.02391,0.0349 0.02252,0.0267 0.03171,0.028 0.03476,0.0241 0.03735,0.0199 0.03942,0.0154 0.02963,0.008 0.04142,0.009 0.04173,0.007 0.04197,0.006 0.04215,0.004 0.04227,0.002 0.04232,6.2e-4 0.01841,-2.4e-4 h 0.191098 v 0.5133 H 22.12754 l -0.04233,-2e-5 -0.04231,-0.001 -0.04224,-0.003 -0.04212,-0.004 -0.04196,-0.006 -0.04176,-0.007 -0.04151,-0.008 -0.04121,-0.01 -0.04087,-0.011 -0.04049,-0.0124 -0.03874,-0.0132 -0.03944,-0.0154 -0.03871,-0.0171 -0.0379,-0.0188 -0.03702,-0.0205 -0.03607,-0.0222 -0.03505,-0.0238 -0.03395,-0.0253 -0.03279,-0.0268 -0.03156,-0.0282 -0.01952,-0.0188 -0.02906,-0.0308 -0.02763,-0.0321 -0.02614,-0.0333 -0.0246,-0.0345 -0.02301,-0.0356 -0.02136,-0.0366 -0.01968,-0.0375 -0.01795,-0.0384 -0.01619,-0.0391 -0.0091,-0.0245 -0.01344,-0.0402 -0.01212,-0.0406 -0.01078,-0.041 -0.0094,-0.0413 -0.0081,-0.0416 -0.0067,-0.0418 -0.0053,-0.042 -0.004,-0.0422 -0.0026,-0.0423 -0.0012,-0.0423 2.7e-5,-0.0324 v -1.86246 l 1.37e-4,-0.0424 0.0015,-0.0423 0.0029,-0.0423 0.0043,-0.0421 0.0057,-0.042 0.007,-0.0418 0.0084,-0.0415 0.0098,-0.0412 0.01111,-0.0409 0.01243,-0.0405 0.01033,-0.0305 0.01506,-0.0396 0.01685,-0.0389 0.01861,-0.038 0.02032,-0.0371 0.022,-0.0362 0.02363,-0.0351 0.02521,-0.034 0.02673,-0.0328 0.0282,-0.0316 0.01808,-0.0188 0.03076,-0.0291 0.03203,-0.0277 0.03323,-0.0262 0.03435,-0.0247 0.03543,-0.0232 0.03642,-0.0216 0.03734,-0.0199 0.03819,-0.0183 0.03897,-0.0165 0.02529,-0.01 0.04006,-0.0137 0.04049,-0.0124 0.04087,-0.011 0.04121,-0.01 0.04151,-0.008 0.04176,-0.007 0.04197,-0.006 0.04213,-0.004 0.04224,-0.003 0.04231,-10e-4 h 0.04098 0.20278 z" />
    <path
       inkscape:connector-curvature="0"
       id="path1035"
       style="fill:none;stroke:#000000;stroke-width:0.1;stroke-linecap:round;stroke-linejoin:round;stroke-miterlimit:10;stroke-dasharray:none;stroke-opacity:1"
       d="m 26.247161,299.29477 h -2.692206 v 1.1617 h -0.73169 v -1.5081 l -8.7e-5,-0.0424 9.16e-4,-0.0423 0.0019,-0.0423 0.0029,-0.0422 0.0039,-0.0422 0.0049,-0.0421 0.0059,-0.0419 0.0069,-0.0418 0.0079,-0.0416 0.0089,-0.0414 0.0099,-0.0412 0.01084,-0.041 0.01181,-0.0407 0.01276,-0.0404 0.01202,-0.0353 0.01483,-0.0397 0.01615,-0.0391 0.01746,-0.0386 0.01874,-0.038 0.02,-0.0373 0.02125,-0.0366 0.02246,-0.0359 0.02365,-0.0351 0.02482,-0.0343 0.02596,-0.0335 0.02706,-0.0326 0.02814,-0.0317 0.02919,-0.0307 0.0065,-0.007 0.03072,-0.0291 0.03163,-0.0282 0.03251,-0.0271 0.03335,-0.0261 0.03415,-0.025 0.03493,-0.0239 0.03566,-0.0228 0.03637,-0.0217 0.03704,-0.0205 0.03767,-0.0193 0.03826,-0.0181 0.03881,-0.0169 0.03933,-0.0157 0.01078,-0.004 0.03996,-0.014 0.04029,-0.013 0.04059,-0.012 0.04086,-0.0111 0.04112,-0.0101 0.04135,-0.009 0.04155,-0.008 0.04174,-0.007 0.04189,-0.006 0.04203,-0.005 0.04214,-0.004 0.04222,-0.003 0.04228,-0.002 0.04232,-10e-4 0.04233,2e-5 0.0078,1.1e-4 h 2.167501 v 0.7045 H 24.3384 l -0.04229,-0.002 -0.04233,2.6e-4 -0.04227,0.002 -0.04211,0.004 -0.04186,0.006 -0.04152,0.008 -0.04109,0.0102 -0.04056,0.0121 -0.03994,0.014 -0.03923,0.0159 -0.03843,0.0177 -0.03755,0.0195 -0.01798,0.0102 -0.03387,0.0254 -0.03199,0.0277 -0.02995,0.0299 -0.02776,0.032 -0.02542,0.0339 -0.02296,0.0356 -0.02039,0.0371 -0.01771,0.0385 -0.01494,0.0396 -0.01165,0.0388 h 2.652491 v 0.67645 z" />
    <path
       inkscape:connector-curvature="0"
       id="path1037"
       style="fill:none;stroke:#000000;stroke-width:0.1;stroke-linecap:round;stroke-linejoin:round;stroke-miterlimit:10;stroke-dasharray:none;stroke-opacity:1"
       d="m 26.97885,296.94285 0.04233,2e-5 0.04231,10e-4 0.04224,0.003 0.04212,0.004 0.04196,0.006 0.04175,0.007 0.0415,0.008 0.0412,0.01 0.04086,0.0111 0.04047,0.0124 0.03856,0.0132 0.03942,0.0154 0.03868,0.0172 0.03786,0.0189 0.03696,0.0206 0.03599,0.0223 0.03494,0.0239 0.03383,0.0255 0.03264,0.027 0.03138,0.0284 0.01818,0.0177 0.02887,0.031 0.02748,0.0322 0.02604,0.0334 0.02454,0.0345 0.023,0.0356 0.02142,0.0365 0.01979,0.0374 0.01813,0.0383 0.01643,0.039 0.0092,0.0243 0.01379,0.04 0.01243,0.0405 0.01108,0.0409 0.0097,0.0412 0.0083,0.0415 0.0069,0.0418 0.0055,0.042 0.0041,0.0422 0.0027,0.0423 0.0012,0.0423 -1.1e-5,0.0327 v 1.86246 l -1.38e-4,0.0423 -0.0016,0.0423 -0.003,0.0422 -0.0044,0.0421 -0.0058,0.0419 -0.0072,0.0417 -0.0086,0.0415 -0.01001,0.0412 -0.01139,0.0408 -0.01274,0.0404 -0.01084,0.0311 -0.0154,0.0394 -0.01711,0.0387 -0.01879,0.038 -0.02043,0.0371 -0.02204,0.0362 -0.0236,0.0352 -0.02512,0.0341 -0.02659,0.033 -0.02801,0.0317 -0.01784,0.0188 -0.03057,0.0293 -0.03188,0.0279 -0.03311,0.0264 -0.03428,0.0249 -0.03538,0.0233 -0.03639,0.0216 -0.03734,0.0199 -0.03821,0.0182 -0.039,0.0164 -0.02375,0.009 -0.04007,0.0136 -0.0405,0.0123 -0.04088,0.011 -0.04122,0.01 -0.04151,0.008 -0.04176,0.007 -0.04197,0.006 -0.04213,0.004 -0.04224,0.003 -0.04231,0.001 h -0.0407 -0.20278 v -0.5133 h 0.190631 l 0.04233,8e-5 0.0423,-0.002 0.04221,-0.003 0.04206,-0.005 0.04184,-0.006 0.04157,-0.008 0.0182,-0.004 0.0406,-0.0119 0.03892,-0.0166 0.03672,-0.021 0.034,-0.0252 0.02287,-0.0209 0.02698,-0.0326 0.02324,-0.0354 0.01922,-0.0377 0.01497,-0.0396 0.009,-0.0337 0.0085,-0.0415 0.007,-0.0418 0.0054,-0.042 0.0039,-0.0422 0.0024,-0.0423 8.69e-4,-0.0423 -2.35e-4,-0.0265 v -1.83816 l 8.9e-5,-0.0423 -0.0014,-0.0423 -0.003,-0.0423 -0.0045,-0.0421 -0.006,-0.0419 -0.0075,-0.0417 -0.0055,-0.026 -0.01134,-0.0408 -0.01573,-0.0393 -0.01994,-0.0373 -0.02391,-0.0349 -0.02252,-0.0267 -0.03171,-0.028 -0.03477,-0.0241 -0.03736,-0.0199 -0.03943,-0.0154 -0.02984,-0.008 -0.04143,-0.009 -0.04173,-0.007 -0.04197,-0.006 -0.04215,-0.004 -0.04227,-0.002 -0.04232,-6.3e-4 -0.01864,2.4e-4 h -0.190631 v -0.5133 h 0.20278 z" />
    <path
       inkscape:connector-curvature="0"
       id="path1039"
       style="fill:none;stroke:#000000;stroke-width:0.1;stroke-linecap:round;stroke-linejoin:round;stroke-miterlimit:10;stroke-dasharray:none;stroke-opacity:1"
       d="m 22.330332,313.94468 v 0.5133 h -0.191098 l -0.04233,-9e-5 -0.0423,10e-4 -0.04221,0.003 -0.04206,0.005 -0.04184,0.006 -0.04156,0.008 -0.01798,0.004 -0.04059,0.0119 -0.03891,0.0166 -0.0367,0.0211 -0.03397,0.0252 -0.02271,0.0207 -0.02698,0.0326 -0.02324,0.0354 -0.01922,0.0377 -0.01497,0.0396 -0.009,0.0337 -0.0085,0.0415 -0.007,0.0418 -0.0054,0.042 -0.0039,0.0422 -0.0024,0.0423 -8.68e-4,0.0423 2.35e-4,0.0265 v 1.83815 l -9e-5,0.0424 0.0014,0.0423 0.003,0.0423 0.0045,0.0421 0.006,0.0419 0.0075,0.0417 0.0055,0.026 0.01133,0.0408 0.01573,0.0393 0.01994,0.0373 0.02391,0.0349 0.02252,0.0267 0.03171,0.028 0.03476,0.0241 0.03735,0.0199 0.03942,0.0154 0.02963,0.008 0.04142,0.009 0.04173,0.007 0.04197,0.005 0.04215,0.004 0.04227,0.002 0.04232,6.2e-4 0.01841,-2.4e-4 h 0.191098 v 0.5133 H 22.12754 l -0.04233,-2e-5 -0.04231,-10e-4 -0.04224,-0.003 -0.04212,-0.004 -0.04196,-0.006 -0.04176,-0.007 -0.04151,-0.008 -0.04121,-0.01 -0.04087,-0.011 -0.04049,-0.0124 -0.03874,-0.0132 -0.03944,-0.0154 -0.03871,-0.0171 -0.0379,-0.0188 -0.03702,-0.0205 -0.03607,-0.0222 -0.03505,-0.0238 -0.03395,-0.0253 -0.03279,-0.0268 -0.03156,-0.0282 -0.01952,-0.0188 -0.02906,-0.0308 -0.02763,-0.0321 -0.02614,-0.0333 -0.0246,-0.0345 -0.02301,-0.0356 -0.02136,-0.0366 -0.01968,-0.0375 -0.01795,-0.0383 -0.01619,-0.0391 -0.0091,-0.0244 -0.01344,-0.0402 -0.01212,-0.0406 -0.01078,-0.041 -0.0094,-0.0413 -0.0081,-0.0416 -0.0067,-0.0418 -0.0053,-0.042 -0.004,-0.0422 -0.0026,-0.0423 -0.0012,-0.0423 2.7e-5,-0.0324 v -1.86246 l 1.37e-4,-0.0424 0.0015,-0.0423 0.0029,-0.0423 0.0043,-0.0421 0.0057,-0.042 0.007,-0.0418 0.0084,-0.0415 0.0098,-0.0412 0.01111,-0.0409 0.01243,-0.0405 0.01033,-0.0305 0.01506,-0.0396 0.01685,-0.0389 0.01861,-0.038 0.02032,-0.0372 0.022,-0.0362 0.02363,-0.0351 0.02521,-0.034 0.02673,-0.0328 0.0282,-0.0316 0.01808,-0.0188 0.03076,-0.0291 0.03203,-0.0277 0.03323,-0.0262 0.03435,-0.0247 0.03543,-0.0232 0.03642,-0.0216 0.03734,-0.0199 0.03819,-0.0183 0.03897,-0.0165 0.02529,-0.01 0.04006,-0.0137 0.04049,-0.0124 0.04087,-0.011 0.04121,-0.01 0.04151,-0.008 0.04176,-0.007 0.04197,-0.006 0.04213,-0.004 0.04224,-0.003 0.04231,-10e-4 h 0.04098 0.20278 z" />
    <path
       inkscape:connector-curvature="0"
       id="path1041"
       style="fill:none;stroke:#000000;stroke-width:0.1;stroke-linecap:round;stroke-linejoin:round;stroke-miterlimit:10;stroke-dasharray:none;stroke-opacity:1"
       d="m 26.493861,315.16248 h -2.453918 l -0.04224,-0.002 -0.0423,10e-4 -0.042,0.005 -0.04136,0.009 -0.04038,0.0126 -0.03908,0.0162 -0.03745,0.0197 -0.03552,0.023 -0.03331,0.0261 -0.03082,0.029 -0.02808,0.0317 -0.0251,0.0341 -0.02193,0.0362 -0.01857,0.038 -0.01506,0.0396 -0.01144,0.0408 -0.0077,0.0416 -0.0039,0.0422 -4.55e-4,0.0137 h 2.986565 v 0.57268 l -2.1e-5,0.01 -6.3e-5,0.01 -1.04e-4,0.01 -1.46e-4,0.01 -1.88e-4,0.01 -2.3e-4,0.01 -2.72e-4,0.01 -3.13e-4,0.01 -3.54e-4,0.01 -3.97e-4,0.01 -4.38e-4,0.01 -4.81e-4,0.009 -5.22e-4,0.009 -5.63e-4,0.009 -6.05e-4,0.009 -6.48e-4,0.009 -6.89e-4,0.009 -7.3e-4,0.009 -7.72e-4,0.009 -8.15e-4,0.009 -8.55e-4,0.009 -8.98e-4,0.009 -9.39e-4,0.009 -9.81e-4,0.009 -0.001,0.009 -0.0011,0.009 -0.0011,0.009 -0.0011,0.009 -0.0012,0.009 -0.0012,0.009 -0.0013,0.009 -0.0013,0.009 -0.0014,0.009 -0.0014,0.009 -0.0014,0.009 -0.0015,0.008 -0.0015,0.009 -0.0016,0.008 -0.0016,0.008 -0.0017,0.008 -0.0017,0.008 -0.0017,0.008 -0.0018,0.008 -0.0018,0.008 -0.0019,0.008 -0.0019,0.008 -0.0019,0.008 -0.002,0.008 -0.002,0.008 -0.0021,0.008 -0.0021,0.008 -0.0022,0.008 -0.0022,0.008 -0.0022,0.008 -0.0023,0.008 -0.0023,0.008 -0.0024,0.008 -0.0024,0.008 -0.0024,0.008 -0.0025,0.008 -0.0025,0.008 -0.0026,0.007 -0.0026,0.007 -0.0027,0.007 -0.0027,0.007 -0.0027,0.007 -0.0028,0.007 -0.0028,0.007 -0.0029,0.007 -0.0029,0.007 -0.0029,0.007 -0.003,0.007 -0.003,0.007 -0.0031,0.007 -0.0031,0.007 -0.0032,0.007 -0.0032,0.007 -0.0032,0.007 -0.0033,0.007 -0.0033,0.007 -0.0034,0.007 -0.0034,0.007 -0.0034,0.007 -0.0035,0.007 -0.0035,0.007 -0.0036,0.007 -0.0036,0.006 -0.0037,0.007 -0.0037,0.007 -0.0037,0.006 -0.0038,0.006 -0.0038,0.006 -0.0039,0.006 -0.0039,0.006 -0.0039,0.006 -0.004,0.006 -0.004,0.006 -0.0041,0.006 -0.0041,0.006 -0.0042,0.006 -0.0042,0.006 -0.0042,0.006 -0.0043,0.006 -0.0043,0.006 -0.0044,0.006 -0.0044,0.006 -0.0044,0.006 -0.0045,0.006 -0.0045,0.006 -0.0046,0.006 -0.0046,0.006 -0.0047,0.006 -0.0047,0.006 -0.0047,0.005 -0.0048,0.005 -0.0048,0.005 -0.0049,0.005 -0.0049,0.005 -0.005,0.005 -0.005,0.005 -0.005,0.005 -0.0051,0.005 -0.0051,0.005 -0.0052,0.005 -0.0052,0.005 -0.0052,0.005 -0.0053,0.005 -0.0053,0.005 -0.0054,0.005 -0.0054,0.005 -0.0055,0.005 -0.0055,0.005 -0.0055,0.005 -0.0056,0.005 -0.0056,0.005 -0.0057,0.005 -0.0057,0.005 -0.0057,0.005 -0.0058,0.004 -0.0058,0.005 -0.0059,0.005 -0.0059,0.004 -0.006,0.004 -0.006,0.004 -0.006,0.004 -0.0061,0.004 -0.0061,0.004 -0.0062,0.004 -0.0062,0.004 -0.0062,0.004 -0.0063,0.004 -0.0063,0.004 -0.0064,0.004 -0.0064,0.004 -0.0065,0.004 -0.0065,0.004 -0.0065,0.004 -0.0066,0.004 -0.0066,0.004 -0.0067,0.004 -0.0067,0.004 -0.0067,0.004 -0.0068,0.004 -0.0068,0.004 -0.0069,0.003 -0.0069,0.004 -0.007,0.003 -0.007,0.003 -0.007,0.003 -0.0071,0.003 -0.0071,0.003 -0.0072,0.003 -0.0072,0.003 -0.0072,0.003 -0.0073,0.003 -0.0073,0.003 -0.0074,0.003 -0.0074,0.003 -0.0075,0.003 -0.0075,0.003 -0.0075,0.003 -0.0076,0.003 -0.0076,0.003 -0.0077,0.003 -0.0077,0.003 -0.0077,0.003 -0.0078,0.003 -0.0078,0.003 -0.0079,0.003 -0.0079,0.003 -0.008,0.002 -0.008,0.002 -0.008,0.002 -0.0081,0.002 -0.0081,0.002 -0.0082,0.002 -0.0082,0.002 -0.0082,0.002 -0.0083,0.002 -0.0083,0.002 -0.0084,0.002 -0.0084,0.002 -0.0085,0.002 -0.0085,0.002 -0.0085,0.002 -0.0086,0.002 -0.0086,0.002 -0.0087,0.002 -0.0087,0.002 -0.0088,0.002 -0.0088,0.002 -0.0088,0.002 -0.0089,0.002 -0.0089,0.002 -0.009,0.002 -0.009,0.002 -0.009,0.002 -0.0091,0.002 -0.0091,10e-4 -0.0092,0.001 -0.0092,10e-4 -0.0093,0.001 -0.0093,10e-4 -0.0093,0.001 -0.0094,10e-4 -0.0094,10e-4 -0.0095,0.001 -0.0095,10e-4 -0.0095,0.001 -0.0096,10e-4 -0.0096,9.8e-4 -0.0097,9.5e-4 -0.0097,9.1e-4 -0.0098,8.7e-4 -0.0098,8.3e-4 -0.0098,7.9e-4 -0.0099,7.5e-4 -0.0099,7.2e-4 -0.01,6.7e-4 -0.01,6.4e-4 -0.01003,6e-4 -0.01009,5.6e-4 -0.01013,5.2e-4 -0.01017,4.8e-4 -0.01021,4.5e-4 -0.01025,4e-4 -0.01028,3.7e-4 -0.01034,3.3e-4 -0.01038,2.9e-4 -0.01042,2.5e-4 -0.01046,2.1e-4 -0.01051,1.7e-4 -0.01055,1.4e-4 -0.01059,1e-4 -0.01062,5e-5 -0.01067,2e-5 h -2.314681 v -0.71244 h 2.469804 l 0.04231,7.2e-4 0.04222,-0.003 0.04182,-0.007 0.04111,-0.01 0.0401,-0.0135 0.0388,-0.0169 0.03722,-0.0202 0.03536,-0.0233 0.02913,-0.0227 0.02881,-0.031 0.0264,-0.0331 0.02383,-0.035 0.02112,-0.0367 0.01829,-0.0382 0.01536,-0.0395 0.01235,-0.0405 0.0093,-0.0413 0.0058,-0.0387 h -2.979089 v -0.57313 l 2.1e-5,-0.01 6.3e-5,-0.01 1.04e-4,-0.01 1.46e-4,-0.01 1.88e-4,-0.01 2.3e-4,-0.01 2.72e-4,-0.01 3.13e-4,-0.01 3.55e-4,-0.01 3.96e-4,-0.01 4.38e-4,-0.01 4.81e-4,-0.009 5.22e-4,-0.009 5.64e-4,-0.009 6.04e-4,-0.009 6.48e-4,-0.009 6.89e-4,-0.009 7.3e-4,-0.009 7.72e-4,-0.009 8.15e-4,-0.009 8.55e-4,-0.009 8.98e-4,-0.009 9.4e-4,-0.009 9.8e-4,-0.009 10e-4,-0.009 0.0011,-0.009 0.0011,-0.009 0.0011,-0.009 0.0012,-0.009 0.0012,-0.009 0.0013,-0.009 0.0013,-0.009 0.0014,-0.009 0.0014,-0.009 0.0014,-0.009 0.0015,-0.009 0.0015,-0.008 0.0016,-0.008 0.0016,-0.008 0.0017,-0.008 0.0017,-0.008 0.0017,-0.008 0.0018,-0.008 0.0018,-0.008 0.0019,-0.008 0.0019,-0.008 0.0019,-0.008 0.002,-0.008 0.002,-0.008 0.0021,-0.008 0.0021,-0.008 0.0022,-0.008 0.0022,-0.008 0.0022,-0.008 0.0023,-0.008 0.0023,-0.008 0.0024,-0.008 0.0024,-0.008 0.0024,-0.008 0.0025,-0.008 0.0025,-0.007 0.0026,-0.007 0.0026,-0.007 0.0027,-0.007 0.0027,-0.007 0.0027,-0.007 0.0028,-0.007 0.0028,-0.007 0.0029,-0.007 0.0029,-0.007 0.0029,-0.007 0.003,-0.007 0.003,-0.007 0.0031,-0.007 0.0031,-0.007 0.0032,-0.007 0.0032,-0.007 0.0032,-0.007 0.0033,-0.007 0.0033,-0.007 0.0034,-0.007 0.0034,-0.007 0.0034,-0.007 0.0035,-0.007 0.0035,-0.007 0.0036,-0.007 0.0036,-0.007 0.0037,-0.006 0.0037,-0.007 0.0037,-0.006 0.0038,-0.006 0.0038,-0.006 0.0039,-0.006 0.0039,-0.006 0.0039,-0.006 0.004,-0.006 0.004,-0.006 0.0041,-0.006 0.0041,-0.006 0.0042,-0.006 0.0042,-0.006 0.0042,-0.006 0.0043,-0.006 0.0043,-0.006 0.0044,-0.006 0.0044,-0.006 0.0044,-0.006 0.0045,-0.006 0.0045,-0.006 0.0046,-0.006 0.0046,-0.006 0.0047,-0.006 0.0047,-0.006 0.0047,-0.005 0.0048,-0.005 0.0048,-0.005 0.0049,-0.005 0.0049,-0.005 0.0049,-0.005 0.005,-0.005 0.005,-0.005 0.0051,-0.005 0.0051,-0.005 0.0052,-0.005 0.0052,-0.005 0.0052,-0.005 0.0053,-0.005 0.0053,-0.005 0.0054,-0.005 0.0054,-0.005 0.0055,-0.005 0.0055,-0.005 0.0055,-0.005 0.0056,-0.005 0.0056,-0.005 0.0057,-0.005 0.0057,-0.005 0.0057,-0.005 0.0058,-0.005 0.0058,-0.005 0.0059,-0.005 0.0059,-0.004 0.006,-0.004 0.006,-0.004 0.006,-0.004 0.0061,-0.004 0.0061,-0.004 0.0062,-0.004 0.0062,-0.004 0.0062,-0.004 0.0063,-0.004 0.0063,-0.004 0.0064,-0.004 0.0064,-0.004 0.0065,-0.004 0.0065,-0.004 0.0065,-0.004 0.0066,-0.004 0.0066,-0.004 0.0067,-0.004 0.0067,-0.004 0.0067,-0.004 0.0068,-0.004 0.0068,-0.004 0.0069,-0.004 0.0069,-0.003 0.007,-0.004 0.007,-0.003 0.007,-0.003 0.0071,-0.003 0.0071,-0.003 0.0072,-0.003 0.0072,-0.003 0.0072,-0.003 0.0073,-0.003 0.0073,-0.003 0.0074,-0.003 0.0074,-0.003 0.0075,-0.003 0.0075,-0.003 0.0075,-0.003 0.0076,-0.003 0.0076,-0.003 0.0077,-0.003 0.0077,-0.003 0.0077,-0.003 0.0078,-0.003 0.0078,-0.003 0.0079,-0.003 0.0079,-0.003 0.008,-0.002 0.008,-0.002 0.008,-0.002 0.0081,-0.002 0.0081,-0.002 0.0082,-0.002 0.0082,-0.002 0.0082,-0.002 0.0083,-0.002 0.0083,-0.002 0.0084,-0.002 0.0084,-0.002 0.0085,-0.002 0.0085,-0.002 0.0085,-0.002 0.0086,-0.002 0.0086,-0.002 0.0087,-0.002 0.0087,-0.002 0.0088,-0.002 0.0088,-0.002 0.0088,-0.002 0.0089,-0.002 0.0089,-0.002 0.009,-0.002 0.009,-0.002 0.009,-10e-4 0.0091,-0.002 0.0091,-10e-4 0.0092,-0.001 0.0092,-10e-4 0.0093,-0.001 0.0093,-10e-4 0.0093,-10e-4 0.0094,-0.001 0.0094,-10e-4 0.0095,-0.001 0.0095,-10e-4 0.0095,-0.001 0.0096,-10e-4 0.0096,-9.8e-4 0.0097,-9.5e-4 0.0097,-9.1e-4 0.0098,-8.7e-4 0.0098,-8.3e-4 0.0098,-7.9e-4 0.0099,-7.5e-4 0.0099,-7.2e-4 0.01,-6.7e-4 0.01,-6.4e-4 0.01004,-6e-4 0.01008,-5.6e-4 0.01013,-5.2e-4 0.01017,-4.8e-4 0.0102,-4.5e-4 0.01025,-4e-4 0.01029,-3.7e-4 0.01034,-3.3e-4 0.01038,-2.9e-4 0.01042,-2.5e-4 0.01046,-2.1e-4 0.01049,-1.7e-4 0.01055,-1.4e-4 0.01059,-9e-5 0.01062,-6e-5 0.01067,-2e-5 h 2.298795 v 0.7045 z" />
    <path
       inkscape:connector-curvature="0"
       id="path1043"
       style="fill:none;stroke:#000000;stroke-width:0.1;stroke-linecap:round;stroke-linejoin:round;stroke-miterlimit:10;stroke-dasharray:none;stroke-opacity:1"
       d="m 27.201721,313.94468 0.04233,10e-6 0.04231,0.001 0.04224,0.003 0.04212,0.004 0.04196,0.006 0.04175,0.007 0.0415,0.008 0.0412,0.01 0.04086,0.0111 0.04047,0.0124 0.03856,0.0132 0.03942,0.0154 0.03868,0.0172 0.03786,0.0189 0.03697,0.0206 0.03599,0.0223 0.03494,0.0239 0.03383,0.0255 0.03264,0.027 0.03138,0.0284 0.01818,0.0177 0.02887,0.031 0.02748,0.0322 0.02604,0.0334 0.02454,0.0345 0.023,0.0356 0.02142,0.0365 0.01979,0.0374 0.01813,0.0383 0.01643,0.039 0.0092,0.0243 0.01379,0.0401 0.01243,0.0405 0.01108,0.0409 0.0097,0.0412 0.0083,0.0415 0.0069,0.0418 0.0055,0.042 0.0041,0.0422 0.0027,0.0423 0.0012,0.0423 -1.1e-5,0.0327 v 1.86246 l -1.38e-4,0.0424 -0.0016,0.0423 -0.003,0.0423 -0.0044,0.0421 -0.0058,0.0419 -0.0072,0.0417 -0.0086,0.0415 -0.01001,0.0412 -0.01139,0.0408 -0.01274,0.0404 -0.01084,0.0311 -0.01539,0.0394 -0.01711,0.0387 -0.01879,0.038 -0.02043,0.0371 -0.02204,0.0362 -0.0236,0.0352 -0.02512,0.0341 -0.02659,0.033 -0.02801,0.0317 -0.01784,0.0188 -0.03057,0.0293 -0.03187,0.0279 -0.03311,0.0264 -0.03427,0.0249 -0.03538,0.0233 -0.03639,0.0216 -0.03734,0.0199 -0.03821,0.0182 -0.039,0.0165 -0.02375,0.009 -0.04007,0.0137 -0.0405,0.0123 -0.04088,0.011 -0.04122,0.01 -0.04151,0.008 -0.04176,0.007 -0.04197,0.005 -0.04213,0.004 -0.04224,0.003 -0.04231,10e-4 -0.0407,-10e-6 h -0.20278 v -0.5133 h 0.190632 l 0.04233,8e-5 0.0423,-0.001 0.04221,-0.003 0.04206,-0.005 0.04184,-0.006 0.04157,-0.008 0.0182,-0.004 0.0406,-0.0119 0.03892,-0.0166 0.03671,-0.021 0.034,-0.0252 0.02287,-0.0209 0.02698,-0.0326 0.02324,-0.0354 0.01922,-0.0377 0.01497,-0.0396 0.009,-0.0337 0.0085,-0.0415 0.007,-0.0418 0.0054,-0.042 0.0039,-0.0422 0.0024,-0.0423 8.68e-4,-0.0423 -2.36e-4,-0.0265 v -1.83815 l 9e-5,-0.0424 -0.0014,-0.0423 -0.003,-0.0423 -0.0045,-0.0421 -0.006,-0.0419 -0.0075,-0.0417 -0.0055,-0.026 -0.01133,-0.0408 -0.01573,-0.0393 -0.01994,-0.0373 -0.02392,-0.0349 -0.02252,-0.0267 -0.03172,-0.028 -0.03477,-0.0241 -0.03736,-0.0199 -0.03942,-0.0154 -0.02984,-0.008 -0.04143,-0.009 -0.04173,-0.007 -0.04197,-0.005 -0.04215,-0.004 -0.04227,-0.002 -0.04232,-6.3e-4 -0.01864,2.3e-4 h -0.190632 v -0.5133 h 0.20278 z" />
    <path
       inkscape:connector-curvature="0"
       id="path1045"
       style="fill:none;stroke:#000000;stroke-width:0.1;stroke-linecap:round;stroke-linejoin:round;stroke-miterlimit:10;stroke-dasharray:none;stroke-opacity:1"
       d="m 15.177748,328.6446 2.956816,1.67126 -2.956816,1.63075 v -1.00743 h -1.133045 v -1.32688 h 1.133045 z" />
    <path
       inkscape:connector-curvature="0"
       id="path1047"
       style="fill:none;stroke:#000000;stroke-width:0.1;stroke-linecap:round;stroke-linejoin:round;stroke-miterlimit:10;stroke-dasharray:none;stroke-opacity:1"
       d="m 18.188608,327.94618 h -5.143476 v -0.76979 h 5.143476 z" />
    <path
       inkscape:connector-curvature="0"
       id="path1049"
       style="fill:none;stroke:#000000;stroke-width:0.1;stroke-linecap:round;stroke-linejoin:round;stroke-miterlimit:10;stroke-dasharray:none;stroke-opacity:1"
       d="m 15.177748,340.64589 2.956816,1.67126 -2.956816,1.63075 v -1.00744 h -1.133045 v -1.32688 h 1.133045 z" />
    <path
       inkscape:connector-curvature="0"
       id="path1075"
       style="fill:none;stroke:#000000;stroke-width:0.1;stroke-linecap:round;stroke-linejoin:round;stroke-miterlimit:10;stroke-dasharray:none;stroke-opacity:1"
       d="m 8.9934291,347.94832 v 1.50811 l 1.71e-4,0.0424 -8.01e-4,0.0423 -0.0018,0.0423 -0.0027,0.0423 -0.0037,0.0422 -0.0047,0.0421 -0.0056,0.042 -0.0066,0.0418 -0.0076,0.0417 -0.0085,0.0415 -0.0095,0.0413 -0.01041,0.041 -0.01135,0.0408 -0.01228,0.0405 -0.0132,0.0403 -7.48e-4,0.002 -0.01456,0.0398 -0.0159,0.0393 -0.01721,0.0387 -0.01851,0.0381 -0.01979,0.0374 -0.02104,0.0367 -0.02227,0.036 -0.02348,0.0352 -0.02466,0.0344 -0.02581,0.0336 -0.02692,0.0327 -0.02801,0.0317 -0.02907,0.0308 -0.005,0.005 -0.03062,0.0292 -0.03158,0.0282 -0.0325,0.0271 -0.03338,0.026 -0.03424,0.0249 -0.03504,0.0238 -0.03581,0.0226 -0.03655,0.0214 -0.03724,0.0201 -0.03789,0.0189 -0.0385,0.0176 -0.03906,0.0163 -0.03958,0.015 -0.0092,0.003 -0.04016,0.0134 -0.04046,0.0125 -0.04073,0.0115 -0.04099,0.0106 -0.04122,0.01 -0.04143,0.009 -0.04162,0.008 -0.04178,0.007 -0.04193,0.006 -0.04205,0.005 -0.04215,0.004 -0.04223,0.003 -0.04229,0.002 -0.04232,0.001 -0.04234,4e-5 -0.01246,-1.6e-4 h -2.445974 v -0.71245 h 2.429621 l 0.04229,0.002 0.04233,-2.2e-4 0.04228,-0.002 0.04214,-0.004 0.04191,-0.006 0.04159,-0.008 0.04119,-0.01 0.04071,-0.0116 0.04013,-0.0135 0.03948,-0.0153 0.03875,-0.017 0.03793,-0.0188 0.01646,-0.009 0.03436,-0.0247 0.03243,-0.0272 0.03033,-0.0295 0.02806,-0.0317 0.02564,-0.0337 0.02307,-0.0355 0.02038,-0.0371 0.01758,-0.0385 0.01468,-0.0397 0.01011,-0.0344 -3.173459,-1e-5 v -1.84236 h 0.73169 v 1.16217 h 2.481483 v -1.16217 z" />
    <path
       inkscape:connector-curvature="0"
       id="path1077"
       style="fill:none;stroke:#000000;stroke-width:0.1;stroke-linecap:round;stroke-linejoin:round;stroke-miterlimit:10;stroke-dasharray:none;stroke-opacity:1"
       d="m 13.161163,348.65282 h -2.453918 l -0.04225,-0.002 -0.04229,10e-4 -0.042,0.005 -0.04136,0.009 -0.04038,0.0126 -0.03908,0.0162 -0.03745,0.0197 -0.03552,0.023 -0.03331,0.0261 -0.03082,0.029 -0.02808,0.0317 -0.0251,0.0341 -0.02193,0.0362 -0.01857,0.038 -0.01506,0.0396 -0.01143,0.0408 -0.0077,0.0416 -0.0039,0.0422 -4.54e-4,0.0138 h 2.986564 v 0.57267 l -2e-5,0.01 -6.3e-5,0.01 -1.04e-4,0.01 -1.47e-4,0.01 -1.88e-4,0.01 -2.29e-4,0.01 -2.72e-4,0.01 -3.13e-4,0.01 -3.55e-4,0.01 -3.96e-4,0.01 -4.38e-4,0.009 -4.81e-4,0.009 -5.22e-4,0.009 -5.64e-4,0.009 -6.04e-4,0.009 -6.48e-4,0.009 -6.89e-4,0.009 -7.3e-4,0.009 -7.73e-4,0.009 -8.14e-4,0.009 -8.55e-4,0.009 -8.98e-4,0.009 -9.4e-4,0.009 -9.81e-4,0.009 -10e-4,0.009 -0.0011,0.009 -0.0011,0.009 -0.0011,0.009 -0.0012,0.009 -0.0012,0.009 -0.0013,0.009 -0.0013,0.009 -0.0014,0.009 -0.0014,0.009 -0.0014,0.009 -0.0015,0.009 -0.0015,0.008 -0.0016,0.008 -0.0016,0.008 -0.0016,0.008 -0.0017,0.008 -0.0017,0.008 -0.0018,0.008 -0.0018,0.008 -0.0019,0.008 -0.0019,0.008 -0.0019,0.008 -0.002,0.008 -0.002,0.008 -0.0021,0.008 -0.0021,0.008 -0.0022,0.008 -0.0022,0.008 -0.0022,0.008 -0.0023,0.008 -0.0023,0.008 -0.0024,0.008 -0.0024,0.008 -0.0024,0.008 -0.0025,0.008 -0.0025,0.008 -0.0026,0.008 -0.0026,0.007 -0.0027,0.007 -0.0027,0.007 -0.0027,0.007 -0.0028,0.007 -0.0028,0.007 -0.0029,0.007 -0.0029,0.007 -0.0029,0.007 -0.003,0.007 -0.003,0.007 -0.0031,0.007 -0.0031,0.007 -0.0032,0.007 -0.0032,0.007 -0.0032,0.007 -0.0033,0.007 -0.0033,0.007 -0.0034,0.007 -0.0034,0.007 -0.0034,0.007 -0.0035,0.007 -0.0035,0.007 -0.0036,0.007 -0.0036,0.007 -0.0037,0.007 -0.0037,0.006 -0.0037,0.006 -0.0038,0.006 -0.0038,0.006 -0.0039,0.006 -0.0039,0.006 -0.0039,0.006 -0.004,0.006 -0.004,0.006 -0.0041,0.006 -0.0041,0.006 -0.0042,0.006 -0.0042,0.006 -0.0042,0.006 -0.0043,0.006 -0.0043,0.006 -0.0044,0.006 -0.0044,0.006 -0.0044,0.006 -0.0045,0.006 -0.0045,0.006 -0.0046,0.006 -0.0046,0.006 -0.0047,0.006 -0.0047,0.006 -0.0047,0.005 -0.0048,0.005 -0.0048,0.005 -0.0049,0.005 -0.0049,0.005 -0.0049,0.005 -0.005,0.005 -0.005,0.005 -0.0051,0.005 -0.0051,0.005 -0.0052,0.005 -0.0052,0.005 -0.0052,0.005 -0.0053,0.005 -0.0053,0.005 -0.0054,0.005 -0.0054,0.005 -0.0055,0.005 -0.0055,0.005 -0.0055,0.005 -0.0056,0.005 -0.0056,0.005 -0.0057,0.005 -0.0057,0.005 -0.0057,0.005 -0.0058,0.005 -0.0058,0.005 -0.0059,0.004 -0.0059,0.004 -0.006,0.004 -0.006,0.004 -0.006,0.004 -0.0061,0.004 -0.0061,0.004 -0.0062,0.004 -0.0062,0.004 -0.0062,0.004 -0.0063,0.004 -0.0063,0.004 -0.0064,0.004 -0.0064,0.004 -0.0065,0.004 -0.0065,0.004 -0.0065,0.004 -0.0066,0.004 -0.0066,0.004 -0.0067,0.004 -0.0067,0.004 -0.0067,0.004 -0.0068,0.004 -0.0068,0.004 -0.0069,0.004 -0.0069,0.003 -0.007,0.003 -0.007,0.003 -0.007,0.003 -0.0071,0.003 -0.0071,0.003 -0.0072,0.003 -0.0072,0.003 -0.0072,0.003 -0.0073,0.003 -0.0073,0.003 -0.0074,0.003 -0.0074,0.003 -0.0075,0.003 -0.0075,0.003 -0.0075,0.003 -0.0076,0.003 -0.0076,0.003 -0.0077,0.003 -0.0077,0.003 -0.0077,0.003 -0.0078,0.003 -0.0078,0.003 -0.0079,0.003 -0.0079,0.003 -0.008,0.003 -0.008,0.002 -0.008,0.002 -0.0081,0.002 -0.0081,0.002 -0.0082,0.002 -0.0082,0.002 -0.0082,0.002 -0.0083,0.002 -0.0083,0.002 -0.0084,0.002 -0.0084,0.002 -0.0085,0.002 -0.0085,0.002 -0.0085,0.002 -0.0086,0.002 -0.0086,0.002 -0.0087,0.002 -0.0087,0.002 -0.0088,0.002 -0.0088,0.002 -0.0088,0.002 -0.0089,0.002 -0.0089,0.002 -0.009,0.002 -0.009,0.002 -0.009,0.002 -0.0091,10e-4 -0.0091,10e-4 -0.0092,0.001 -0.0092,10e-4 -0.0093,0.001 -0.0093,10e-4 -0.0093,10e-4 -0.0094,0.001 -0.0094,10e-4 -0.0095,0.001 -0.0095,10e-4 -0.0095,0.001 -0.0096,10e-4 -0.0096,9.9e-4 -0.0097,9.4e-4 -0.0097,9.1e-4 -0.0098,8.7e-4 -0.0098,8.3e-4 -0.0098,7.9e-4 -0.0099,7.5e-4 -0.0099,7.2e-4 -0.01,6.7e-4 -0.01,6.4e-4 -0.01004,6e-4 -0.01008,5.6e-4 -0.01013,5.2e-4 -0.01017,4.8e-4 -0.0102,4.5e-4 -0.01025,4e-4 -0.01029,3.7e-4 -0.01034,3.3e-4 -0.01038,2.9e-4 -0.01042,2.5e-4 -0.01046,2.1e-4 -0.01049,1.8e-4 -0.01055,1.3e-4 -0.01058,10e-5 -0.01062,6e-5 h -0.01072 -2.3146809 v -0.71245 h 2.4698029 l 0.04231,7.3e-4 0.04222,-0.003 0.04182,-0.006 0.04111,-0.01 0.0401,-0.0135 0.0388,-0.0169 0.03722,-0.0202 0.03536,-0.0233 0.02913,-0.0227 0.02881,-0.031 0.0264,-0.0331 0.02383,-0.035 0.02112,-0.0367 0.01829,-0.0382 0.01536,-0.0395 0.01234,-0.0405 0.0093,-0.0413 0.0058,-0.0387 H 9.4938341 v -0.57314 l 2.1e-5,-0.01 6.3e-5,-0.01 1.04e-4,-0.01 1.46e-4,-0.01 1.88e-4,-0.01 2.3e-4,-0.01 2.71e-4,-0.01 3.13e-4,-0.01 3.55e-4,-0.01 3.97e-4,-0.01 4.38e-4,-0.009 4.8e-4,-0.009 5.22e-4,-0.009 5.64e-4,-0.009 6.05e-4,-0.009 6.47e-4,-0.009 6.89e-4,-0.009 7.31e-4,-0.009 7.72e-4,-0.009 8.14e-4,-0.009 8.56e-4,-0.009 8.98e-4,-0.009 9.39e-4,-0.009 9.81e-4,-0.009 0.001,-0.009 0.0011,-0.009 0.0011,-0.009 0.0011,-0.009 0.0012,-0.009 0.0012,-0.009 0.0013,-0.009 0.0013,-0.009 0.0014,-0.009 0.0014,-0.009 0.0014,-0.009 0.0015,-0.009 0.0015,-0.008 0.0016,-0.008 0.0016,-0.008 0.0016,-0.008 0.0017,-0.008 0.0017,-0.008 0.0018,-0.008 0.0018,-0.008 0.0019,-0.008 0.0019,-0.008 0.0019,-0.008 0.002,-0.008 0.002,-0.008 0.0021,-0.008 0.0021,-0.008 0.0021,-0.008 0.0022,-0.008 0.0022,-0.008 0.0023,-0.008 0.0023,-0.008 0.0024,-0.008 0.0024,-0.008 0.0024,-0.008 0.0025,-0.008 0.0025,-0.008 0.0026,-0.008 0.0026,-0.007 0.0026,-0.007 0.0027,-0.007 0.0027,-0.007 0.0028,-0.007 0.0028,-0.007 0.0029,-0.007 0.0029,-0.007 0.0029,-0.007 0.003,-0.007 0.003,-0.007 0.0031,-0.007 0.0031,-0.007 0.0031,-0.007 0.0032,-0.007 0.0032,-0.007 0.0033,-0.007 0.0033,-0.007 0.0034,-0.007 0.0034,-0.007 0.0034,-0.007 0.0035,-0.007 0.0035,-0.007 0.0036,-0.007 0.0036,-0.007 0.0036,-0.007 0.0037,-0.006 0.0037,-0.006 0.0038,-0.006 0.0038,-0.006 0.0039,-0.006 0.0039,-0.006 0.0039,-0.006 0.004,-0.006 0.004,-0.006 0.0041,-0.006 0.0041,-0.006 0.0042,-0.006 0.0042,-0.006 0.0042,-0.006 0.0043,-0.006 0.0043,-0.006 0.0044,-0.006 0.0044,-0.006 0.0044,-0.006 0.0045,-0.006 0.0045,-0.006 0.0046,-0.006 0.0046,-0.006 0.0047,-0.006 0.0047,-0.006 0.0047,-0.005 0.0048,-0.005 0.0048,-0.005 0.0049,-0.005 0.0049,-0.005 0.0049,-0.005 0.005,-0.005 0.005,-0.005 0.0051,-0.005 0.0051,-0.005 0.0052,-0.005 0.0052,-0.005 0.0052,-0.005 0.0053,-0.005 0.0053,-0.005 0.0054,-0.005 0.0054,-0.005 0.0054,-0.005 0.0055,-0.005 0.0055,-0.005 0.0056,-0.005 0.0056,-0.005 0.0057,-0.005 0.0057,-0.005 0.0057,-0.005 0.0058,-0.005 0.0058,-0.005 0.0059,-0.004 0.0059,-0.004 0.0059,-0.004 0.006,-0.004 0.006,-0.004 0.0061,-0.004 0.0061,-0.004 0.0062,-0.004 0.0062,-0.004 0.0062,-0.004 0.0063,-0.004 0.0063,-0.004 0.0064,-0.004 0.0064,-0.004 0.0064,-0.004 0.0065,-0.004 0.0065,-0.004 0.0066,-0.004 0.0066,-0.004 0.0067,-0.004 0.0067,-0.004 0.0067,-0.004 0.0068,-0.004 0.0068,-0.004 0.0069,-0.004 0.0069,-0.003 0.007,-0.003 0.007,-0.003 0.007,-0.003 0.0071,-0.003 0.0071,-0.003 0.0072,-0.003 0.0072,-0.003 0.0072,-0.003 0.0073,-0.003 0.0073,-0.003 0.0074,-0.003 0.0074,-0.003 0.0075,-0.003 0.0075,-0.003 0.0075,-0.003 0.0076,-0.003 0.0076,-0.003 0.0077,-0.003 0.0077,-0.003 0.0077,-0.003 0.0078,-0.003 0.0078,-0.003 0.0079,-0.003 0.0079,-0.003 0.008,-0.003 0.008,-0.002 0.008,-0.002 0.0081,-0.002 0.0081,-0.002 0.0082,-0.002 0.0082,-0.002 0.0082,-0.002 0.0083,-0.002 0.0083,-0.002 0.0084,-0.002 0.0084,-0.002 0.0085,-0.002 0.0085,-0.002 0.0085,-0.002 0.0086,-0.002 0.0086,-0.002 0.0087,-0.002 0.0087,-0.002 0.0088,-0.002 0.0088,-0.002 0.0088,-0.002 0.0089,-0.002 0.0089,-0.002 0.009,-0.002 0.009,-0.002 0.009,-0.002 0.0091,-10e-4 0.0091,-0.001 0.0092,-10e-4 0.0092,-0.001 0.0093,-10e-4 0.0093,-0.001 0.0093,-10e-4 0.0094,-10e-4 0.0094,-0.001 0.0095,-10e-4 0.0095,-0.001 0.0095,-10e-4 0.0096,-10e-4 0.0096,-9.9e-4 0.0097,-9.4e-4 0.0097,-9.1e-4 0.0098,-8.7e-4 0.0098,-8.3e-4 0.0098,-7.9e-4 0.0099,-7.5e-4 0.0099,-7.2e-4 0.01,-6.7e-4 0.01,-6.4e-4 0.01004,-6e-4 0.01008,-5.6e-4 0.01013,-5.2e-4 0.01017,-4.8e-4 0.0102,-4.5e-4 0.01025,-4e-4 0.0103,-3.7e-4 0.01033,-3.3e-4 0.01038,-2.9e-4 0.01042,-2.5e-4 0.01046,-2.1e-4 0.01051,-1.8e-4 0.01055,-1.3e-4 0.01058,-10e-5 0.01063,-6e-5 0.01067,-2e-5 h 2.298795 v 0.70451 z" />
    <path
       inkscape:connector-curvature="0"
       id="path1079"
       style="fill:none;stroke:#000000;stroke-width:0.1;stroke-linecap:round;stroke-linejoin:round;stroke-miterlimit:10;stroke-dasharray:none;stroke-opacity:1"
       d="m 17.770432,350.94865 h -0.771403 l -0.02447,-0.0346 -0.02464,-0.0344 -0.0248,-0.0343 -0.02497,-0.0342 -0.02513,-0.0341 -0.02529,-0.034 -0.02546,-0.0338 -0.02562,-0.0337 -0.02578,-0.0336 -0.02594,-0.0335 -0.02611,-0.0333 -0.02627,-0.0332 -0.02643,-0.0331 -0.02658,-0.033 -0.02674,-0.0328 -0.0269,-0.0327 -0.02706,-0.0326 -0.02722,-0.0324 -0.02737,-0.0323 -0.02753,-0.0322 -0.02768,-0.032 -0.02784,-0.0319 -0.02799,-0.0318 -0.02814,-0.0316 -0.02829,-0.0315 -0.02845,-0.0314 -0.0286,-0.0312 -0.02875,-0.0311 -0.0289,-0.0309 -0.02904,-0.0308 -0.02919,-0.0307 -0.02934,-0.0305 -0.02949,-0.0304 -0.02963,-0.0302 -0.02978,-0.0301 -0.02993,-0.03 -0.03007,-0.0298 -0.03021,-0.0297 -0.03035,-0.0295 -0.0305,-0.0294 -0.03064,-0.0292 -0.03078,-0.0291 -0.03092,-0.0289 -0.02055,-0.0191 -0.03104,-0.0288 -0.03134,-0.0285 -0.03165,-0.0281 -0.03195,-0.0278 -0.03224,-0.0274 -0.03254,-0.0271 -0.03282,-0.0268 -0.0331,-0.0264 -0.03339,-0.026 -0.03367,-0.0257 -0.03393,-0.0253 -0.03421,-0.0249 -0.03446,-0.0246 -0.03474,-0.0242 -0.03499,-0.0238 -0.03524,-0.0235 -0.03549,-0.0231 -0.03574,-0.0227 -0.03597,-0.0223 -0.03621,-0.0219 -0.03644,-0.0215 -0.03667,-0.0211 -0.03691,-0.0208 -0.03712,-0.0204 -0.03733,-0.02 -0.03755,-0.0196 -0.03775,-0.0192 -0.03796,-0.0187 -0.03815,-0.0183 -0.03835,-0.0179 -0.03854,-0.0175 -0.03872,-0.0171 -0.03891,-0.0167 -0.01417,-0.006 -0.04198,-0.0153 -0.04203,-0.0151 -0.0092,-0.003 -0.09174,-0.0329 -0.01362,-0.005 0.0033,0.0422 0.0028,0.0423 0.0023,0.0423 0.0019,0.0423 0.0014,0.0417 v 2.01346 h -0.711598 v -3.00032 h 0.628431 l 0.0402,0.0133 0.04007,0.0137 0.03993,0.014 0.03979,0.0145 0.03965,0.0148 0.0395,0.0152 0.03935,0.0156 0.0392,0.016 0.03904,0.0164 0.03888,0.0168 0.03871,0.0171 0.03854,0.0175 0.03837,0.0179 0.03819,0.0183 0.03801,0.0186 0.03783,0.019 0.03764,0.0194 0.03745,0.0197 0.0053,0.003 0.03729,0.02 0.03715,0.0203 0.037,0.0206 0.03686,0.0208 0.03671,0.0211 0.03656,0.0213 0.03641,0.0216 0.03626,0.0218 0.03612,0.0221 0.03595,0.0224 0.0358,0.0226 0.03563,0.0229 0.03547,0.0231 0.03531,0.0233 0.03515,0.0236 0.03499,0.0238 0.03481,0.0241 0.03464,0.0243 0.02793,0.0199 0.03435,0.0248 0.03419,0.025 0.03405,0.0252 0.0339,0.0254 0.03374,0.0256 0.03359,0.0258 0.03343,0.026 0.03327,0.0262 0.03311,0.0264 0.03295,0.0266 0.03278,0.0268 0.03262,0.027 0.03245,0.0272 0.03229,0.0274 0.03212,0.0276 0.03195,0.0278 0.03178,0.028 0.03161,0.0282 0.03144,0.0284 0.009,0.008 0.03127,0.0286 0.03113,0.0287 0.031,0.0288 0.03087,0.029 0.03074,0.0291 0.0306,0.0293 0.03047,0.0294 0.03033,0.0295 0.03019,0.0297 0.03006,0.0298 0.02992,0.03 0.02978,0.0301 0.02964,0.0302 0.02951,0.0304 0.02937,0.0305 0.02923,0.0306 0.02908,0.0308 0.02894,0.0309 0.0288,0.031 0.01339,0.0145 0.131293,0.14305 -0.0039,-0.0422 -0.0031,-0.0422 -0.0024,-0.0423 -0.0017,-0.0423 -6.49e-4,-0.0259 v -1.76289 h 0.715803 v 3.00032 z" />
    <path
       inkscape:connector-curvature="0"
       id="path1081"
       style="fill:none;stroke:#000000;stroke-width:0.1;stroke-linecap:round;stroke-linejoin:round;stroke-miterlimit:10;stroke-dasharray:none;stroke-opacity:1"
       d="m 21.496629,348.65282 h -1.308724 v 2.29583 h -0.727484 v -2.29583 h -1.316668 v -0.7045 h 3.352876 z" />
    <path
       inkscape:connector-curvature="0"
       id="path1083"
       style="fill:none;stroke:#000000;stroke-width:0.1;stroke-linecap:round;stroke-linejoin:round;stroke-miterlimit:10;stroke-dasharray:none;stroke-opacity:1"
       d="m 25.648478,350.94865 h -0.73169 v -1.16171 h -2.322624 v 1.16171 h -0.73169 v -3.00033 h 0.73169 v 1.16217 h 2.322624 v -1.16217 h 0.73169 z" />
    <path
       style="color:#000000;font-style:normal;font-variant:normal;font-weight:normal;font-stretch:normal;font-size:medium;line-height:normal;font-family:sans-serif;font-variant-ligatures:normal;font-variant-position:normal;font-variant-caps:normal;font-variant-numeric:normal;font-variant-alternates:normal;font-feature-settings:normal;text-indent:0;text-align:start;text-decoration:none;text-decoration-line:none;text-decoration-style:solid;text-decoration-color:#000000;letter-spacing:normal;word-spacing:normal;text-transform:none;writing-mode:lr-tb;direction:ltr;text-orientation:mixed;dominant-baseline:auto;baseline-shift:baseline;text-anchor:start;white-space:normal;shape-padding:0;clip-rule:nonzero;display:inline;overflow:visible;visibility:visible;opacity:1;isolation:auto;mix-blend-mode:normal;color-interpolation:sRGB;color-interpolation-filters:linearRGB;solid-color:#000000;solid-opacity:1;vector-effect:none;fill:#000000;fill-opacity:1;fill-rule:nonzero;stroke:none;stroke-width:0.6999982;stroke-linecap:butt;stroke-linejoin:miter;stroke-miterlimit:4;stroke-dasharray:none;stroke-dashoffset:0;stroke-opacity:1;color-rendering:auto;image-rendering:auto;shape-rendering:auto;text-rendering:auto;enable-background:accumulate"
       d="m 9.621118,261.46682 v 8.27701 l -2.6385986,-4.57026 -0.6056479,0.35191 2.4851199,4.30258 -6.8600465,-3.961 -0.3498494,0.60565 7.0171427,4.05092 H 0.56637369 v 0.69918 H 8.6682047 l -7.0161092,4.05039 0.3498494,0.60566 7.0150756,-4.04989 -4.0503988,7.01457 0.605648,0.34983 4.3992145,-7.61968 4.3997318,7.61968 0.607198,-0.34983 -4.048849,-7.01302 7.011975,4.04834 0.3514,-0.60566 -7.015592,-4.05039 h 8.099764 v -0.69918 h -8.100798 l 7.016626,-4.05092 -0.3514,-0.60565 -7.012491,4.04885 4.049365,-7.01352 -0.607198,-0.34985 -4.048849,7.01249 v -8.09821 z"
       id="path2785-6"
       inkscape:connector-curvature="0" />
    <path
       style="color:#000000;font-style:normal;font-variant:normal;font-weight:normal;font-stretch:normal;font-size:medium;line-height:normal;font-family:sans-serif;font-variant-ligatures:normal;font-variant-position:normal;font-variant-caps:normal;font-variant-numeric:normal;font-variant-alternates:normal;font-feature-settings:normal;text-indent:0;text-align:start;text-decoration:none;text-decoration-line:none;text-decoration-style:solid;text-decoration-color:#000000;letter-spacing:normal;word-spacing:normal;text-transform:none;writing-mode:lr-tb;direction:ltr;text-orientation:mixed;dominant-baseline:auto;baseline-shift:baseline;text-anchor:start;white-space:normal;shape-padding:0;clip-rule:nonzero;display:inline;overflow:visible;visibility:visible;opacity:1;isolation:auto;mix-blend-mode:normal;color-interpolation:sRGB;color-interpolation-filters:linearRGB;solid-color:#000000;solid-opacity:1;vector-effect:none;fill:#000000;fill-opacity:1;fill-rule:nonzero;stroke:none;stroke-width:0.6999982;stroke-linecap:butt;stroke-linejoin:miter;stroke-miterlimit:4;stroke-dasharray:none;stroke-dashoffset:0;stroke-opacity:1;color-rendering:auto;image-rendering:auto;shape-rendering:auto;text-rendering:auto;enable-background:accumulate"
       d="m 9.8087036,285.58782 v 8.27599 l -2.6385988,-4.56872 -0.6056477,0.34933 2.4835694,4.30207 -6.8584961,-3.95997 -0.3498494,0.60719 7.0124917,4.04887 H 0.75395914 v 0.69916 H 8.8557901 l -7.0161091,4.05093 0.3498494,0.60513 7.0150755,-4.0499 -4.0503985,7.01509 0.6056476,0.34933 4.399732,-7.61969 4.399214,7.61969 0.607198,-0.34933 -4.048848,-7.013 7.011975,4.04781 0.351399,-0.60513 -7.016109,-4.05093 h 8.100281 v -0.69916 h -8.09718 l 7.013008,-4.04887 -0.351399,-0.60719 -7.012492,4.04834 4.049365,-7.01352 -0.607198,-0.34933 -4.048848,7.01249 v -8.09668 z"
       id="path2785-6-0"
       inkscape:connector-curvature="0" />
    <path
       style="color:#000000;font-style:normal;font-variant:normal;font-weight:normal;font-stretch:normal;font-size:medium;line-height:normal;font-family:sans-serif;font-variant-ligatures:normal;font-variant-position:normal;font-variant-caps:normal;font-variant-numeric:normal;font-variant-alternates:normal;font-feature-settings:normal;text-indent:0;text-align:start;text-decoration:none;text-decoration-line:none;text-decoration-style:solid;text-decoration-color:#000000;letter-spacing:normal;word-spacing:normal;text-transform:none;writing-mode:lr-tb;direction:ltr;text-orientation:mixed;dominant-baseline:auto;baseline-shift:baseline;text-anchor:start;white-space:normal;shape-padding:0;clip-rule:nonzero;display:inline;overflow:visible;visibility:visible;opacity:1;isolation:auto;mix-blend-mode:normal;color-interpolation:sRGB;color-interpolation-filters:linearRGB;solid-color:#000000;solid-opacity:1;vector-effect:none;fill:#000000;fill-opacity:1;fill-rule:nonzero;stroke:none;stroke-width:0.6999982;stroke-linecap:butt;stroke-linejoin:miter;stroke-miterlimit:4;stroke-dasharray:none;stroke-dashoffset:0;stroke-opacity:1;color-rendering:auto;image-rendering:auto;shape-rendering:auto;text-rendering:auto;enable-background:accumulate"
       d="m 9.6815795,309.24218 v 8.27755 L 7.042981,312.94947 6.4357829,313.2988 8.919869,317.60241 2.0603393,313.64244 1.7110067,314.2481 8.726599,318.299 H 0.62476805 v 0.69919 H 8.7229817 l -7.011975,4.04884 0.3493326,0.60719 7.0135254,-4.04884 -4.0483316,7.01352 0.6051309,0.34986 4.400248,-7.62124 4.400765,7.62124 0.605648,-0.34986 -4.048849,-7.01352 7.013526,4.04884 0.349332,-0.60719 -7.012491,-4.04884 h 8.09873 V 318.299 h -8.102348 l 7.016109,-4.0509 -0.349332,-0.60566 -7.015593,4.0504 4.050916,-7.01508 -0.605648,-0.34983 -4.050915,7.01609 v -8.10184 z"
       id="path2785-6-6"
       inkscape:connector-curvature="0" />
    <path
       style="color:#000000;font-style:normal;font-variant:normal;font-weight:normal;font-stretch:normal;font-size:medium;line-height:normal;font-family:sans-serif;font-variant-ligatures:normal;font-variant-position:normal;font-variant-caps:normal;font-variant-numeric:normal;font-variant-alternates:normal;font-feature-settings:normal;text-indent:0;text-align:start;text-decoration:none;text-decoration-line:none;text-decoration-style:solid;text-decoration-color:#000000;letter-spacing:normal;word-spacing:normal;text-transform:none;writing-mode:lr-tb;direction:ltr;text-orientation:mixed;dominant-baseline:auto;baseline-shift:baseline;text-anchor:start;white-space:normal;shape-padding:0;clip-rule:nonzero;display:inline;overflow:visible;visibility:visible;opacity:1;isolation:auto;mix-blend-mode:normal;color-interpolation:sRGB;color-interpolation-filters:linearRGB;solid-color:#000000;solid-opacity:1;vector-effect:none;fill:#000000;fill-opacity:1;fill-rule:nonzero;stroke:none;stroke-width:0.6999982;stroke-linecap:butt;stroke-linejoin:miter;stroke-miterlimit:4;stroke-dasharray:none;stroke-dashoffset:0;stroke-opacity:1;color-rendering:auto;image-rendering:auto;shape-rendering:auto;text-rendering:auto;enable-background:accumulate"
       d="m 9.6252521,237.60161 v 8.27804 l -2.6391153,-4.57129 -0.6051309,0.34985 2.4830524,4.30154 -6.8579792,-3.95996 -0.3519165,0.60771 7.0135254,4.04885 H 0.57050781 v 0.70125 H 8.6666543 l -7.0124917,4.04885 0.3519165,0.60513 7.0119749,-4.04833 -4.0493651,7.01352 0.6077149,0.34934 4.3992146,-7.61969 4.3992146,7.61969 0.605648,-0.34934 -4.050399,-7.01507 7.015076,4.04988 0.349849,-0.60513 -7.012492,-4.04885 h 8.098214 v -0.70125 h -8.09873 l 7.013008,-4.04885 -0.349849,-0.60771 -7.013526,4.04936 4.048849,-7.01197 -0.605648,-0.3514 -4.048848,7.01301 v -8.09718 z"
       id="path2785-6-03"
       inkscape:connector-curvature="0" />
  </g>
</svg>
