999
dxflib 3.17.0.0
  0
SECTION
  2
HEADER
  9
$ACADVER
  1
AC1015
  9
$HANDSEED
  5
FFFF
  9
$DIMADEC
 70
0
  9
$DIMASZ
 40
2.5
  9
$DIMAUNIT
 70
0
  9
$DIMAZIN
 70
2
  9
$DIMDEC
 70
4
  9
$DIMDLI
 40
5.0
  9
$DIMDSEP
 70
46
  9
$DIMEXE
 40
1.25
  9
$DIMEXO
 40
0.625
  9
$DIMGAP
 40
0.625
  9
$DIMLUNIT
 70
2
  9
$DIMSCALE
 40
1.0
  9
$DIMTSZ
 40
0.0
  9
$DIMTXT
 40
2.5
  9
$DIMZIN
 70
8
  9
$DWGCODEPAGE
  3
ANSI_1252
  9
$INSUNITS
 70
4
  9
$LTSCALE
 40
1.0
  9
$MAXACTVP
 70
64
  9
$MEASUREMENT
 70
1
  9
$PDMODE
 70
0
  9
$PDSIZE
 40
0.0
  0
ENDSEC
  0
SECTION
  2
TABLES
  0
TABLE
  2
VPORT
  5
8
100
AcDbSymbolTable
 70
1
  0
VPORT
  5
30
100
AcDbSymbolTableRecord
100
AcDbViewportTableRecord
  2
*Active
 70
0
 10
0.0
 20
0.0
 11
1.0
 21
1.0
 12
286.3055555555554861
 22
148.5
 13
0.0
 23
0.0
 14
10.0
 24
10.0
 15
10.0
 25
10.0
 16
0.0
 26
0.0
 36
1.0
 17
0.0
 27
0.0
 37
0.0
 40
297.0
 41
1.92798353909465
 42
50.0
 43
0.0
 44
0.0
 50
0.0
 51
0.0
 71
0
 72
100
 73
1
 74
3
 75
1
 76
1
 77
0
 78
0
281
0
 65
1
110
0.0
120
0.0
130
0.0
111
1.0
121
0.0
131
0.0
112
0.0
122
1.0
132
0.0
 79
0
146
0.0
  0
ENDTAB
  0
TABLE
  2
LTYPE
  5
5
100
AcDbSymbolTable
 70
41
  0
LTYPE
  5
16
100
AcDbSymbolTableRecord
100
AcDbLinetypeTableRecord
  2
Continuous
 70
0
  3
Solid line
 72
65
 73
0
 40
0.0
  0
LTYPE
  5
31
100
AcDbSymbolTableRecord
100
AcDbLinetypeTableRecord
  2
ACAD_ISO05W100
 70
0
  3
ISO long-dash double-dot ____ .. ____ .. ____ . 
 72
65
 73
6
 40
33.0000000000000071
 49
24.0
 74
0
 49
-2.9500000000000002
 74
0
 49
0.1
 74
0
 49
-2.9000000000000004
 74
0
 49
0.1
 74
0
 49
-2.9500000000000002
 74
0
  0
LTYPE
  5
32
100
AcDbSymbolTableRecord
100
AcDbLinetypeTableRecord
  2
DASHEDX2
 70
0
  3
Dashed (2x) ____  ____  ____  ____  ____  ___
 72
65
 73
2
 40
38.0999999999999943
 49
25.3999999999999986
 74
0
 49
-12.6999999999999993
 74
0
  0
LTYPE
  5
33
100
AcDbSymbolTableRecord
100
AcDbLinetypeTableRecord
  2
CENTER2
 70
0
  3
Center (.5x) ___ _ ___ _ ___ _ ___ _ ___ _ ___
 72
65
 73
4
 40
28.5750000000000028
 49
19.0500000000000007
 74
0
 49
-3.1749999999999998
 74
0
 49
3.1749999999999998
 74
0
 49
-3.1749999999999998
 74
0
  0
LTYPE
  5
34
100
AcDbSymbolTableRecord
100
AcDbLinetypeTableRecord
  2
DOT2
 70
0
  3
Dot (.5x) ........................................
 72
65
 73
2
 40
3.1749999999999998
 49
0.1
 74
0
 49
-3.0749999999999997
 74
0
  0
LTYPE
  5
35
100
AcDbSymbolTableRecord
100
AcDbLinetypeTableRecord
  2
DASHDOTX2
 70
0
  3
Dash dot (2x) ____  .  ____  .  ____  .  ___
 72
65
 73
4
 40
50.7999999999999972
 49
25.3999999999999986
 74
0
 49
-12.6499999999999986
 74
0
 49
0.1
 74
0
 49
-12.6499999999999986
 74
0
  0
LTYPE
  5
36
100
AcDbSymbolTableRecord
100
AcDbLinetypeTableRecord
  2
ACAD_ISO10W100
 70
0
  3
ISO dash dot __ . __ . __ . __ . __ . __ . __ . 
 72
65
 73
4
 40
18.0
 49
12.0
 74
0
 49
-2.9500000000000002
 74
0
 49
0.1
 74
0
 49
-2.9500000000000002
 74
0
  0
LTYPE
  5
37
100
AcDbSymbolTableRecord
100
AcDbLinetypeTableRecord
  2
ACAD_ISO14W100
 70
0
  3
ISO dash triple-dot __ . . . __ . . . __ . . . _
 72
65
 73
8
 40
24.0000000000000036
 49
12.0
 74
0
 49
-2.9500000000000002
 74
0
 49
0.1
 74
0
 49
-2.9000000000000004
 74
0
 49
0.1
 74
0
 49
-2.9000000000000004
 74
0
 49
0.1
 74
0
 49
-2.9500000000000002
 74
0
  0
LTYPE
  5
15
100
AcDbSymbolTableRecord
100
AcDbLinetypeTableRecord
  2
BYLAYER
 70
0
  3

 72
65
 73
0
 40
0.0
  0
LTYPE
  5
38
100
AcDbSymbolTableRecord
100
AcDbLinetypeTableRecord
  2
HIDDENX2
 70
0
  3
Hidden (2x) ____ ____ ____ ____ ____ ____ ____ 
 72
65
 73
2
 40
19.0499999999999972
 49
12.6999999999999993
 74
0
 49
-6.3499999999999996
 74
0
  0
LTYPE
  5
39
100
AcDbSymbolTableRecord
100
AcDbLinetypeTableRecord
  2
DASHED
 70
0
  3
Dashed __ __ __ __ __ __ __ __ __ __ __ __ __ _
 72
65
 73
2
 40
19.0499999999999972
 49
12.6999999999999993
 74
0
 49
-6.3499999999999996
 74
0
  0
LTYPE
  5
3A
100
AcDbSymbolTableRecord
100
AcDbLinetypeTableRecord
  2
PHANTOM2
 70
0
  3
Phantom (.5x) ___ _ _ ___ _ _ ___ _ _ ___ _ _
 72
65
 73
6
 40
31.7500000000000036
 49
15.875
 74
0
 49
-3.1749999999999998
 74
0
 49
3.1749999999999998
 74
0
 49
-3.1749999999999998
 74
0
 49
3.1749999999999998
 74
0
 49
-3.1749999999999998
 74
0
  0
LTYPE
  5
3B
100
AcDbSymbolTableRecord
100
AcDbLinetypeTableRecord
  2
ACAD_ISO07W100
 70
0
  3
ISO dot . . . . . . . . . . . . . . . . . . . . 
 72
65
 73
2
 40
3.0
 49
0.1
 74
0
 49
-2.8999999999999999
 74
0
  0
LTYPE
  5
3C
100
AcDbSymbolTableRecord
100
AcDbLinetypeTableRecord
  2
CENTERX2
 70
0
  3
Center (2x) ________  __  ________  __  _____
 72
65
 73
4
 40
101.6000000000000085
 49
63.5
 74
0
 49
-12.6999999999999993
 74
0
 49
12.6999999999999993
 74
0
 49
-12.6999999999999993
 74
0
  0
LTYPE
  5
3D
100
AcDbSymbolTableRecord
100
AcDbLinetypeTableRecord
  2
BORDER2
 70
0
  3
Border (.5x) __.__.__.__.__.__.__.__.__.__.__.
 72
65
 73
6
 40
22.2250000000000014
 49
6.3499999999999996
 74
0
 49
-3.1749999999999998
 74
0
 49
6.3499999999999996
 74
0
 49
-3.125
 74
0
 49
0.1
 74
0
 49
-3.125
 74
0
  0
LTYPE
  5
3E
100
AcDbSymbolTableRecord
100
AcDbLinetypeTableRecord
  2
DASHDOT2
 70
0
  3
Dash dot (.5x) _._._._._._._._._._._._._._._.
 72
65
 73
4
 40
12.6999999999999993
 49
6.3499999999999996
 74
0
 49
-3.125
 74
0
 49
0.1
 74
0
 49
-3.125
 74
0
  0
LTYPE
  5
3F
100
AcDbSymbolTableRecord
100
AcDbLinetypeTableRecord
  2
ACAD_ISO09W100
 70
0
  3
ISO long-dash double-short-dash ____ __ __ ____
 72
65
 73
6
 40
45.0
 49
24.0
 74
0
 49
-3.0
 74
0
 49
6.0
 74
0
 49
-3.0
 74
0
 49
6.0
 74
0
 49
-3.0
 74
0
  0
LTYPE
  5
40
100
AcDbSymbolTableRecord
100
AcDbLinetypeTableRecord
  2
CENTER
 70
0
  3
Center ____ _ ____ _ ____ _ ____ _ ____ _ ____
 72
65
 73
4
 40
50.8000000000000043
 49
31.75
 74
0
 49
-6.3499999999999996
 74
0
 49
6.3499999999999996
 74
0
 49
-6.3499999999999996
 74
0
  0
LTYPE
  5
14
100
AcDbSymbolTableRecord
100
AcDbLinetypeTableRecord
  2
BYBLOCK
 70
0
  3

 72
65
 73
0
 40
0.0
  0
LTYPE
  5
41
100
AcDbSymbolTableRecord
100
AcDbLinetypeTableRecord
  2
DASHDOT
 70
0
  3
Dash dot __ . __ . __ . __ . __ . __ . __ . __
 72
65
 73
4
 40
25.4000000000000021
 49
12.6999999999999993
 74
0
 49
-6.2999999999999998
 74
0
 49
0.1
 74
0
 49
-6.2999999999999998
 74
0
  0
LTYPE
  5
42
100
AcDbSymbolTableRecord
100
AcDbLinetypeTableRecord
  2
DOT
 70
0
  3
Dot . . . . . . . . . . . . . . . . . . . . . . . .
 72
65
 73
2
 40
6.3499999999999996
 49
0.1
 74
0
 49
-6.25
 74
0
  0
LTYPE
  5
43
100
AcDbSymbolTableRecord
100
AcDbLinetypeTableRecord
  2
DIVIDE
 70
0
  3
Divide ____ . . ____ . . ____ . . ____ . . ____
 72
65
 73
6
 40
31.7500000000000036
 49
12.6999999999999993
 74
0
 49
-6.2999999999999998
 74
0
 49
0.1
 74
0
 49
-6.25
 74
0
 49
0.1
 74
0
 49
-6.2999999999999998
 74
0
  0
LTYPE
  5
44
100
AcDbSymbolTableRecord
100
AcDbLinetypeTableRecord
  2
ACAD_ISO12W100
 70
0
  3
ISO dash double-dot __ . . __ . . __ . . __ . . 
 72
65
 73
6
 40
21.0
 49
12.0
 74
0
 49
-2.9500000000000002
 74
0
 49
0.1
 74
0
 49
-2.9000000000000004
 74
0
 49
0.1
 74
0
 49
-2.9500000000000002
 74
0
  0
LTYPE
  5
45
100
AcDbSymbolTableRecord
100
AcDbLinetypeTableRecord
  2
HIDDEN
 70
0
  3
Hidden __ __ __ __ __ __ __ __ __ __ __ __ __ __
 72
65
 73
2
 40
9.5249999999999986
 49
6.3499999999999996
 74
0
 49
-3.1749999999999998
 74
0
  0
LTYPE
  5
46
100
AcDbSymbolTableRecord
100
AcDbLinetypeTableRecord
  2
ACAD_ISO15W100
 70
0
  3
ISO double-dash triple-dot __ __ . . . __ __ . .
 72
65
 73
10
 40
39.0000000000000071
 49
12.0
 74
0
 49
-3.0
 74
0
 49
12.0
 74
0
 49
-2.9500000000000002
 74
0
 49
0.1
 74
0
 49
-2.9000000000000004
 74
0
 49
0.1
 74
0
 49
-2.9000000000000004
 74
0
 49
0.1
 74
0
 49
-2.9500000000000002
 74
0
  0
LTYPE
  5
47
100
AcDbSymbolTableRecord
100
AcDbLinetypeTableRecord
  2
ACAD_ISO08W100
 70
0
  3
ISO long-dash short-dash ____ __ ____ __ ____ _
 72
65
 73
4
 40
36.0
 49
24.0
 74
0
 49
-3.0
 74
0
 49
6.0
 74
0
 49
-3.0
 74
0
  0
LTYPE
  5
48
100
AcDbSymbolTableRecord
100
AcDbLinetypeTableRecord
  2
ACAD_ISO06W100
 70
0
  3
ISO long-dash triple-dot ____ ... ____ ... ____
 72
65
 73
8
 40
36.0000000000000071
 49
24.0
 74
0
 49
-2.9500000000000002
 74
0
 49
0.1
 74
0
 49
-2.9000000000000004
 74
0
 49
0.1
 74
0
 49
-2.9000000000000004
 74
0
 49
0.1
 74
0
 49
-2.9500000000000002
 74
0
  0
LTYPE
  5
49
100
AcDbSymbolTableRecord
100
AcDbLinetypeTableRecord
  2
PHANTOMX2
 70
0
  3
Phantom (2x) ____________    ____    ____   _
 72
65
 73
6
 40
127.0000000000000142
 49
63.5
 74
0
 49
-12.6999999999999993
 74
0
 49
12.6999999999999993
 74
0
 49
-12.6999999999999993
 74
0
 49
12.6999999999999993
 74
0
 49
-12.6999999999999993
 74
0
  0
LTYPE
  5
4A
100
AcDbSymbolTableRecord
100
AcDbLinetypeTableRecord
  2
ACAD_ISO02W100
 70
0
  3
ISO dash __ __ __ __ __ __ __ __ __ __ __ __ __
 72
65
 73
2
 40
15.0
 49
12.0
 74
0
 49
-3.0
 74
0
  0
LTYPE
  5
4B
100
AcDbSymbolTableRecord
100
AcDbLinetypeTableRecord
  2
ACAD_ISO04W100
 70
0
  3
ISO long-dash dot ____ . ____ . ____ . ____ . _
 72
65
 73
4
 40
30.0
 49
24.0
 74
0
 49
-2.9500000000000002
 74
0
 49
0.1
 74
0
 49
-2.9500000000000002
 74
0
  0
LTYPE
  5
4C
100
AcDbSymbolTableRecord
100
AcDbLinetypeTableRecord
  2
ACAD_ISO03W100
 70
0
  3
ISO dash space __    __    __    __    __    __
 72
65
 73
2
 40
30.0
 49
12.0
 74
0
 49
-18.0
 74
0
  0
LTYPE
  5
4D
100
AcDbSymbolTableRecord
100
AcDbLinetypeTableRecord
  2
DOTX2
 70
0
  3
Dot (2x) .  .  .  .  .  .  .  .  .  .  .  .  .  .
 72
65
 73
2
 40
12.6999999999999993
 49
0.1
 74
0
 49
-12.5999999999999996
 74
0
  0
LTYPE
  5
4E
100
AcDbSymbolTableRecord
100
AcDbLinetypeTableRecord
  2
DASHED2
 70
0
  3
Dashed (.5x) _ _ _ _ _ _ _ _ _ _ _ _ _ _ _ _ _ 
 72
65
 73
2
 40
9.5249999999999986
 49
6.3499999999999996
 74
0
 49
-3.1749999999999998
 74
0
  0
LTYPE
  5
4F
100
AcDbSymbolTableRecord
100
AcDbLinetypeTableRecord
  2
DIVIDEX2
 70
0
  3
Divide (2x) ________  .  .  ________  .  .  _
 72
65
 73
6
 40
63.5
 49
25.3999999999999986
 74
0
 49
-12.6499999999999986
 74
0
 49
0.1
 74
0
 49
-12.5999999999999979
 74
0
 49
0.1
 74
0
 49
-12.6499999999999986
 74
0
  0
LTYPE
  5
50
100
AcDbSymbolTableRecord
100
AcDbLinetypeTableRecord
  2
BORDERX2
 70
0
  3
Border (2x) ____  ____  .  ____  ____  .  ___
 72
65
 73
6
 40
88.8999999999999773
 49
25.3999999999999986
 74
0
 49
-12.6999999999999993
 74
0
 49
25.3999999999999986
 74
0
 49
-12.6499999999999986
 74
0
 49
0.1
 74
0
 49
-12.6499999999999986
 74
0
  0
LTYPE
  5
51
100
AcDbSymbolTableRecord
100
AcDbLinetypeTableRecord
  2
HIDDEN2
 70
0
  3
Hidden (.5x) _ _ _ _ _ _ _ _ _ _ _ _ _ _ _ _ _ 
 72
65
 73
2
 40
4.7624999999999993
 49
3.1749999999999998
 74
0
 49
-1.5874999999999999
 74
0
  0
LTYPE
  5
52
100
AcDbSymbolTableRecord
100
AcDbLinetypeTableRecord
  2
ACAD_ISO13W100
 70
0
  3
ISO double-dash double-dot __ __ . . __ __ . . _
 72
65
 73
8
 40
36.0000000000000071
 49
12.0
 74
0
 49
-3.0
 74
0
 49
12.0
 74
0
 49
-2.9500000000000002
 74
0
 49
0.1
 74
0
 49
-2.9000000000000004
 74
0
 49
0.1
 74
0
 49
-2.9500000000000002
 74
0
  0
LTYPE
  5
53
100
AcDbSymbolTableRecord
100
AcDbLinetypeTableRecord
  2
PHANTOM
 70
0
  3
Phantom ______  __  __  ______  __  __  ______ 
 72
65
 73
6
 40
63.5000000000000071
 49
31.75
 74
0
 49
-6.3499999999999996
 74
0
 49
6.3499999999999996
 74
0
 49
-6.3499999999999996
 74
0
 49
6.3499999999999996
 74
0
 49
-6.3499999999999996
 74
0
  0
LTYPE
  5
54
100
AcDbSymbolTableRecord
100
AcDbLinetypeTableRecord
  2
ACAD_ISO11W100
 70
0
  3
ISO double-dash dot __ __ . __ __ . __ __ . __ _
 72
65
 73
6
 40
33.0
 49
12.0
 74
0
 49
-3.0
 74
0
 49
12.0
 74
0
 49
-2.9500000000000002
 74
0
 49
0.1
 74
0
 49
-2.9500000000000002
 74
0
  0
LTYPE
  5
55
100
AcDbSymbolTableRecord
100
AcDbLinetypeTableRecord
  2
BORDER
 70
0
  3
Border __ __ . __ __ . __ __ . __ __ . __ __ .
 72
65
 73
6
 40
44.4499999999999957
 49
12.6999999999999993
 74
0
 49
-6.3499999999999996
 74
0
 49
12.6999999999999993
 74
0
 49
-6.2999999999999998
 74
0
 49
0.1
 74
0
 49
-6.2999999999999998
 74
0
  0
LTYPE
  5
56
100
AcDbSymbolTableRecord
100
AcDbLinetypeTableRecord
  2
DIVIDE2
 70
0
  3
Divide (.5x) __..__..__..__..__..__..__..__.._
 72
65
 73
6
 40
15.8749999999999982
 49
6.3499999999999996
 74
0
 49
-3.125
 74
0
 49
0.1
 74
0
 49
-3.0750000000000002
 74
0
 49
0.1
 74
0
 49
-3.125
 74
0
  0
ENDTAB
  0
TABLE
  2
LAYER
  5
2
100
AcDbSymbolTable
 70
4
  0
LAYER
  5
57
100
AcDbSymbolTableRecord
100
AcDbLayerTableRecord
  2
panel
 70
0
 62
3
420
65280
  6
Continuous
370
0
390
F
  0
LAYER
  5
58
100
AcDbSymbolTableRecord
100
AcDbLayerTableRecord
  2
example
 70
5
 62
1
420
16711680
  6
Continuous
370
0
390
F
  0
LAYER
  5
10
100
AcDbSymbolTableRecord
100
AcDbLayerTableRecord
  2
0
 70
1
 62
7
420
16777215
  6
Continuous
370
25
390
F
  0
LAYER
  5
59
100
AcDbSymbolTableRecord
100
AcDbLayerTableRecord
  2
components
 70
5
 62
30
420
16744192
  6
Continuous
370
0
390
F
  0
ENDTAB
  0
TABLE
  2
STYLE
  5
3
100
AcDbSymbolTable
 70
7
  0
STYLE
  5
5A
100
AcDbSymbolTableRecord
100
AcDbTextStyleTableRecord
  2
Standard
 70
0
 40
0.0
 41
1.0
 50
0.0
 71
0
 42
2.5
  3

  4

1001
ACAD
1000
txt
1071
0
  0
STYLE
  5
5B
100
AcDbSymbolTableRecord
100
AcDbTextStyleTableRecord
  2
textstyle0
 70
0
 40
0.0
 41
1.0
 50
0.0
 71
0
 42
4.0
  3

  4

1001
ACAD
1000
Mandroid BB
1071
50331648
  0
STYLE
  5
5C
100
AcDbSymbolTableRecord
100
AcDbTextStyleTableRecord
  2
textstyle1
 70
0
 40
0.0
 41
1.0
 50
0.0
 71
0
 42
3.0
  3

  4

1001
ACAD
1000
Mandroid BB
1071
50331648
  0
STYLE
  5
5D
100
AcDbSymbolTableRecord
100
AcDbTextStyleTableRecord
  2
textstyle2
 70
0
 40
0.0
 41
1.0
 50
0.0
 71
0
 42
3.0
  3

  4

1001
ACAD
1000
Mandroid BB
1071
50331648
  0
STYLE
  5
5E
100
AcDbSymbolTableRecord
100
AcDbTextStyleTableRecord
  2
textstyle3
 70
0
 40
0.0
 41
1.0
 50
0.0
 71
0
 42
3.0
  3

  4

1001
ACAD
1000
Mandroid BB
1071
50331648
  0
STYLE
  5
5F
100
AcDbSymbolTableRecord
100
AcDbTextStyleTableRecord
  2
textstyle4
 70
0
 40
0.0
 41
1.0
 50
0.0
 71
0
 42
4.0
  3

  4

1001
ACAD
1000
Mandroid BB
1071
50331648
  0
STYLE
  5
60
100
AcDbSymbolTableRecord
100
AcDbTextStyleTableRecord
  2
textstyle5
 70
0
 40
0.0
 41
1.0
 50
0.0
 71
0
 42
4.0
  3

  4

1001
ACAD
1000
Mandroid BB
1071
50331648
  0
ENDTAB
  0
TABLE
  2
VIEW
  5
6
100
AcDbSymbolTable
 70
0
  0
ENDTAB
  0
TABLE
  2
UCS
  5
7
100
AcDbSymbolTable
 70
0
  0
ENDTAB
  0
TABLE
  2
APPID
  5
9
100
AcDbSymbolTable
 70
1
  0
APPID
  5
12
100
AcDbSymbolTableRecord
100
AcDbRegAppTableRecord
  2
ACAD
 70
0
  0
APPID
  5
61
100
AcDbSymbolTableRecord
100
AcDbRegAppTableRecord
  2
QCAD
 70
0
  0
ENDTAB
  0
TABLE
  2
DIMSTYLE
  5
A
100
AcDbSymbolTable
 70
1
100
AcDbDimStyleTable
 71
0
  0
DIMSTYLE
105
27
100
AcDbSymbolTableRecord
100
AcDbDimStyleTableRecord
  2
Standard
 41
2.5
 42
0.625
 43
3.75
 44
1.25
 70
0
 73
0
 74
0
 77
1
 78
8
140
2.5
141
2.5
143
0.03937007874016
147
0.625
171
3
172
1
271
2
272
2
274
3
278
44
283
0
284
8
340
5A
  0
ENDTAB
  0
TABLE
  2
BLOCK_RECORD
  5
1
100
AcDbSymbolTable
 70
1
  0
BLOCK_RECORD
  5
1F
100
AcDbSymbolTableRecord
100
AcDbBlockTableRecord
  2
*Model_Space
340
22
  0
BLOCK_RECORD
  5
1B
100
AcDbSymbolTableRecord
100
AcDbBlockTableRecord
  2
*Paper_Space
340
1E
  0
BLOCK_RECORD
  5
23
100
AcDbSymbolTableRecord
100
AcDbBlockTableRecord
  2
*Paper_Space0
340
26
  0
BLOCK_RECORD
  5
62
100
AcDbSymbolTableRecord
100
AcDbBlockTableRecord
  2
jack
340
0
  0
BLOCK_RECORD
  5
63
100
AcDbSymbolTableRecord
100
AcDbBlockTableRecord
  2
pcb
340
0
  0
BLOCK_RECORD
  5
64
100
AcDbSymbolTableRecord
100
AcDbBlockTableRecord
  2
spdt
340
0
  0
BLOCK_RECORD
  5
65
100
AcDbSymbolTableRecord
100
AcDbBlockTableRecord
  2
pot
340
0
  0
ENDTAB
  0
ENDSEC
  0
SECTION
  2
BLOCKS
  0
BLOCK
  5
20
100
AcDbEntity
  8
0
100
AcDbBlockBegin
  2
*Model_Space
 70
0
 10
0.0
 20
0.0
 30
0.0
  3
*Model_Space
  1

  0
ENDBLK
  5
21
100
AcDbEntity
  8
0
100
AcDbBlockEnd
  0
BLOCK
  5
1C
100
AcDbEntity
 67
1
  8
0
100
AcDbBlockBegin
  2
*Paper_Space
 70
0
 10
0.0
 20
0.0
 30
0.0
  3
*Paper_Space
  1

  0
ENDBLK
  5
1D
100
AcDbEntity
 67
1
  8
0
100
AcDbBlockEnd
  0
BLOCK
  5
24
100
AcDbEntity
  8
0
100
AcDbBlockBegin
  2
*Paper_Space0
 70
0
 10
0.0
 20
0.0
 30
0.0
  3
*Paper_Space0
  1

  0
ENDBLK
  5
25
100
AcDbEntity
  8
0
100
AcDbBlockEnd
  0
BLOCK
  5
66
100
AcDbEntity
  8
0
100
AcDbBlockBegin
  2
jack
 70
0
 10
0.0
 20
0.0
 30
0.0
  3
jack
  1

  0
CIRCLE
  5
67
100
AcDbEntity
  8
components
 62
256
370
-1
 48
1.0
  6
BYLAYER
100
AcDbCircle
 10
0.0378034986015905
 20
-0.0474670184697175
 30
0.0
 40
4.0
  0
CIRCLE
  5
68
100
AcDbEntity
  8
components
 62
256
370
-1
 48
1.0
  6
BYLAYER
100
AcDbCircle
 10
0.0
 20
0.0
 30
0.0
 40
4.0
  0
CIRCLE
  5
69
100
AcDbEntity
  8
components
 62
256
370
-1
 48
1.0
  6
BYLAYER
100
AcDbCircle
 10
0.0378034986015905
 20
-0.0474670184697175
 30
0.0
 40
3.0
  0
CIRCLE
  5
6A
100
AcDbEntity
  8
components
 62
256
370
-1
 48
1.0
  6
BYLAYER
100
AcDbCircle
 10
0.0
 20
0.0
 30
0.0
 40
3.0
  0
ENDBLK
  5
6B
100
AcDbEntity
  8
0
100
AcDbBlockEnd
  0
BLOCK
  5
6C
100
AcDbEntity
  8
0
100
AcDbBlockBegin
  2
pcb
 70
0
 10
0.0
 20
0.0
 30
0.0
  3
pcb
  1

  0
CIRCLE
  5
6D
100
AcDbEntity
  8
components
 62
256
370
-1
 48
1.0
  6
BYLAYER
100
AcDbCircle
 10
0.0
 20
0.0
 30
0.0
 40
1.5
  0
CIRCLE
  5
6E
100
AcDbEntity
  8
components
 62
256
370
-1
 48
1.0
  6
BYLAYER
100
AcDbCircle
 10
0.0000000000000036
 20
55.0
 30
0.0
 40
1.5
  0
LINE
  5
6F
100
AcDbEntity
  8
components
 62
256
370
-1
 48
1.0
  6
BYLAYER
100
AcDbLine
 10
0.0
 20
0.0
 30
0.0
 11
0.0000000000000036
 21
55.0
 31
0.0
  0
ENDBLK
  5
70
100
AcDbEntity
  8
0
100
AcDbBlockEnd
  0
BLOCK
  5
71
100
AcDbEntity
  8
0
100
AcDbBlockBegin
  2
spdt
 70
0
 10
0.0
 20
0.0
 30
0.0
  3
spdt
  1

  0
LINE
  5
72
100
AcDbEntity
  8
components
 62
256
370
-1
 48
1.0
  6
BYLAYER
100
AcDbLine
 10
-6.5
 20
4.0
 30
0.0
 11
6.5
 21
4.0
 31
0.0
  0
LINE
  5
73
100
AcDbEntity
  8
components
 62
256
370
-1
 48
1.0
  6
BYLAYER
100
AcDbLine
 10
-6.5
 20
-4.0
 30
0.0
 11
6.5
 21
-4.0
 31
0.0
  0
LINE
  5
74
100
AcDbEntity
  8
components
 62
256
370
-1
 48
1.0
  6
BYLAYER
100
AcDbLine
 10
-6.5
 20
4.0
 30
0.0
 11
-6.5
 21
-4.0
 31
0.0
  0
LINE
  5
75
100
AcDbEntity
  8
components
 62
256
370
-1
 48
1.0
  6
BYLAYER
100
AcDbLine
 10
6.5
 20
4.0
 30
0.0
 11
6.5
 21
-4.0
 31
0.0
  0
CIRCLE
  5
76
100
AcDbEntity
  8
components
 62
256
370
-1
 48
1.0
  6
BYLAYER
100
AcDbCircle
 10
0.0
 20
0.0
 30
0.0
 40
3.0
  0
ENDBLK
  5
77
100
AcDbEntity
  8
0
100
AcDbBlockEnd
  0
BLOCK
  5
78
100
AcDbEntity
  8
0
100
AcDbBlockBegin
  2
pot
 70
0
 10
0.0
 20
0.0
 30
0.0
  3
pot
  1

  0
CIRCLE
  5
79
100
AcDbEntity
  8
components
 62
256
370
-1
 48
1.0
  6
BYLAYER
100
AcDbCircle
 10
0.0
 20
0.0
 30
0.0
 40
8.5
  0
LINE
  5
7A
100
AcDbEntity
  8
components
 62
256
370
-1
 48
1.0
  6
BYLAYER
100
AcDbLine
 10
-8.5
 20
0.0
 30
0.0
 11
8.5
 21
0.0
 31
0.0
  0
LINE
  5
7B
100
AcDbEntity
  8
components
 62
256
370
-1
 48
1.0
  6
BYLAYER
100
AcDbLine
 10
-8.5
 20
-17.0
 30
0.0
 11
8.5
 21
-17.0
 31
0.0
  0
LINE
  5
7C
100
AcDbEntity
  8
components
 62
256
370
-1
 48
1.0
  6
BYLAYER
100
AcDbLine
 10
-8.5
 20
-17.0
 30
0.0
 11
-8.5
 21
0.0
 31
0.0
  0
LINE
  5
7D
100
AcDbEntity
  8
components
 62
256
370
-1
 48
1.0
  6
BYLAYER
100
AcDbLine
 10
8.5
 20
-17.0
 30
0.0
 11
8.5
 21
0.0
 31
0.0
  0
ENDBLK
  5
7E
100
AcDbEntity
  8
0
100
AcDbBlockEnd
  0
ENDSEC
  0
SECTION
  2
ENTITIES
  0
LINE
  5
7F
100
AcDbEntity
  8
example
 62
256
370
-1
 48
1.0
  6
BYLAYER
100
AcDbLine
 10
80.0
 20
-0.0000000000000302
 30
0.0
 11
78.0
 21
-0.0000000000000302
 31
0.0
  0
LINE
  5
80
100
AcDbEntity
  8
example
 62
256
370
-1
 48
1.0
  6
BYLAYER
100
AcDbLine
 10
2.0
 20
-0.000000000000016
 30
0.0
 11
78.0
 21
-0.0000000000000302
 31
0.0
  0
LINE
  5
81
100
AcDbEntity
  8
example
 62
256
370
-1
 48
1.0
  6
BYLAYER
100
AcDbLine
 10
2.0
 20
-0.000000000000016
 30
0.0
 11
0.0
 21
-0.0000000000000018
 31
0.0
  0
LINE
  5
82
100
AcDbEntity
  8
example
 62
256
370
-1
 48
1.0
  6
BYLAYER
100
AcDbLine
 10
1.9621965013983953
 20
0.0474670184697032
 30
0.0
 11
-0.0378034986016047
 21
0.0474670184697175
 31
0.0
  0
LINE
  5
83
100
AcDbEntity
  8
panel
 62
256
370
-1
 48
1.0
  6
BYLAYER
100
AcDbLine
 10
20.0
 20
0.0474670184697147
 30
0.0
 11
0.0
 21
0.0474670184697172
 31
0.0
  0
LINE
  5
84
100
AcDbEntity
  8
panel
 62
256
370
-1
 48
1.0
  6
BYLAYER
100
AcDbLine
 10
1.9621965013984095
 20
0.0474670184697032
 30
0.0
 11
-0.0378034986015905
 21
0.0474670184697175
 31
0.0
  0
LINE
  5
85
100
AcDbEntity
  8
example
 62
256
370
-1
 48
1.0
  6
BYLAYER
100
AcDbLine
 10
80.0
 20
128.5
 30
0.0
 11
80.0
 21
-0.0000000000000302
 31
0.0
  0
LINE
  5
86
100
AcDbEntity
  8
example
 62
256
370
-1
 48
1.0
  6
BYLAYER
100
AcDbLine
 10
78.0000000000004263
 20
128.5
 30
0.0
 11
80.0
 21
128.5
 31
0.0
  0
LINE
  5
87
100
AcDbEntity
  8
example
 62
256
370
-1
 48
1.0
  6
BYLAYER
100
AcDbLine
 10
78.0
 20
-0.0000000000000302
 30
0.0
 11
78.0000000000004263
 21
128.5
 31
0.0
  0
LINE
  5
88
100
AcDbEntity
  8
example
 62
256
370
-1
 48
1.0
  6
BYLAYER
100
AcDbLine
 10
1.9999999999999716
 20
128.5
 30
0.0
 11
2.0
 21
-0.000000000000016
 31
0.0
  0
LINE
  5
89
100
AcDbEntity
  8
example
 62
256
370
-1
 48
1.0
  6
BYLAYER
100
AcDbLine
 10
1.9621965013983669
 20
128.5474670184697175
 30
0.0
 11
1.9621965013983953
 21
0.0474670184697032
 31
0.0
  0
LINE
  5
8A
100
AcDbEntity
  8
example
 62
256
370
-1
 48
1.0
  6
BYLAYER
100
AcDbLine
 10
78.0000000000004263
 20
128.5
 30
0.0
 11
1.9999999999999716
 21
128.5
 31
0.0
  0
CIRCLE
  5
8B
100
AcDbEntity
  8
example
 62
256
370
-1
 48
1.0
  6
BYLAYER
100
AcDbCircle
 10
55.0
 20
100.9999999999999716
 30
0.0
 40
4.0
  0
CIRCLE
  5
8C
100
AcDbEntity
  8
example
 62
256
370
-1
 48
1.0
  6
BYLAYER
100
AcDbCircle
 10
54.9999999999999716
 20
112.9999999999999716
 30
0.0
 40
4.0
  0
CIRCLE
  5
8D
100
AcDbEntity
  8
example
 62
256
370
-1
 48
1.0
  6
BYLAYER
100
AcDbCircle
 10
55.0
 20
88.9999999999999716
 30
0.0
 40
4.0
  0
CIRCLE
  5
8E
100
AcDbEntity
  8
example
 62
256
370
-1
 48
1.0
  6
BYLAYER
100
AcDbCircle
 10
35.0000000000000568
 20
88.9999999999999858
 30
0.0
 40
4.0
  0
CIRCLE
  5
8F
100
AcDbEntity
  8
example
 62
256
370
-1
 48
1.0
  6
BYLAYER
100
AcDbCircle
 10
35.0000000000000568
 20
100.9999999999999858
 30
0.0
 40
4.0
  0
CIRCLE
  5
90
100
AcDbEntity
  8
example
 62
256
370
-1
 48
1.0
  6
BYLAYER
100
AcDbCircle
 10
35.0
 20
112.9999999999999716
 30
0.0
 40
4.0
  0
CIRCLE
  5
91
100
AcDbEntity
  8
example
 62
256
370
-1
 48
1.0
  6
BYLAYER
100
AcDbCircle
 10
55.0000000000000284
 20
76.9999999999999716
 30
0.0
 40
4.0
  0
CIRCLE
  5
92
100
AcDbEntity
  8
example
 62
256
370
-1
 48
1.0
  6
BYLAYER
100
AcDbCircle
 10
35.0
 20
76.9999999999999858
 30
0.0
 40
4.0
  0
CIRCLE
  5
93
100
AcDbEntity
  8
example
 62
256
370
-1
 48
1.0
  6
BYLAYER
100
AcDbCircle
 10
35.0
 20
64.9999999999999716
 30
0.0
 40
4.0
  0
CIRCLE
  5
94
100
AcDbEntity
  8
example
 62
256
370
-1
 48
1.0
  6
BYLAYER
100
AcDbCircle
 10
55.0
 20
64.9999999999999716
 30
0.0
 40
4.0
  0
CIRCLE
  5
95
100
AcDbEntity
  8
example
 62
256
370
-1
 48
1.0
  6
BYLAYER
100
AcDbCircle
 10
35.0
 20
16.9999999999999858
 30
0.0
 40
4.0
  0
CIRCLE
  5
96
100
AcDbEntity
  8
example
 62
256
370
-1
 48
1.0
  6
BYLAYER
100
AcDbCircle
 10
35.0
 20
28.9999999999999858
 30
0.0
 40
4.0
  0
CIRCLE
  5
97
100
AcDbEntity
  8
example
 62
256
370
-1
 48
1.0
  6
BYLAYER
100
AcDbCircle
 10
35.0
 20
52.9999999999999787
 30
0.0
 40
4.0
  0
CIRCLE
  5
98
100
AcDbEntity
  8
example
 62
256
370
-1
 48
1.0
  6
BYLAYER
100
AcDbCircle
 10
35.0
 20
40.9999999999999858
 30
0.0
 40
4.0
  0
CIRCLE
  5
99
100
AcDbEntity
  8
example
 62
256
370
-1
 48
1.0
  6
BYLAYER
100
AcDbCircle
 10
55.0
 20
52.9999999999999787
 30
0.0
 40
4.0
  0
CIRCLE
  5
9A
100
AcDbEntity
  8
example
 62
256
370
-1
 48
1.0
  6
BYLAYER
100
AcDbCircle
 10
55.0
 20
40.9999999999999787
 30
0.0
 40
4.0
  0
CIRCLE
  5
9B
100
AcDbEntity
  8
example
 62
256
370
-1
 48
1.0
  6
BYLAYER
100
AcDbCircle
 10
55.0
 20
16.9999999999999858
 30
0.0
 40
4.0
  0
CIRCLE
  5
9C
100
AcDbEntity
  8
example
 62
256
370
-1
 48
1.0
  6
BYLAYER
100
AcDbCircle
 10
55.0
 20
28.9999999999999787
 30
0.0
 40
4.0
  0
CIRCLE
  5
9D
100
AcDbEntity
  8
example
 62
256
370
-1
 48
1.0
  6
BYLAYER
100
AcDbCircle
 10
7.5000000000000284
 20
106.0
 30
0.0
 40
1.5
  0
CIRCLE
  5
9E
100
AcDbEntity
  8
example
 62
256
370
-1
 48
1.0
  6
BYLAYER
100
AcDbCircle
 10
7.4621965013984237
 20
106.0474670184697175
 30
0.0
 40
1.5
  0
CIRCLE
  5
9F
100
AcDbEntity
  8
example
 62
256
370
-1
 48
1.0
  6
BYLAYER
100
AcDbCircle
 10
7.5
 20
26.0
 30
0.0
 40
1.5
  0
CIRCLE
  5
A0
100
AcDbEntity
  8
example
 62
256
370
-1
 48
1.0
  6
BYLAYER
100
AcDbCircle
 10
7.4621965013983953
 20
26.0474670184697175
 30
0.0
 40
1.5
  0
CIRCLE
  5
A1
100
AcDbEntity
  8
example
 62
256
370
-1
 48
1.0
  6
BYLAYER
100
AcDbCircle
 10
15.0
 20
64.9999999999999858
 30
0.0
 40
4.0
  0
CIRCLE
  5
A2
100
AcDbEntity
  8
example
 62
256
370
-1
 48
1.0
  6
BYLAYER
100
AcDbCircle
 10
14.9621965013983953
 20
65.0474670184697032
 30
0.0
 40
4.0
  0
CIRCLE
  5
A3
100
AcDbEntity
  8
example
 62
256
370
-1
 48
1.0
  6
BYLAYER
100
AcDbCircle
 10
7.5
 20
2.9999999999999627
 30
0.0
 40
1.5
  0
CIRCLE
  5
A4
100
AcDbEntity
  8
example
 62
256
370
-1
 48
1.0
  6
BYLAYER
100
AcDbCircle
 10
7.4621965013983953
 20
3.0474670184696819
 30
0.0
 40
1.5
  0
CIRCLE
  5
A5
100
AcDbEntity
  8
panel
 62
256
370
-1
 48
1.0
  6
BYLAYER
100
AcDbCircle
 10
7.5
 20
2.9999999999999645
 30
0.0
 40
1.5
  0
CIRCLE
  5
A6
100
AcDbEntity
  8
panel
 62
256
370
-1
 48
1.0
  6
BYLAYER
100
AcDbCircle
 10
7.4621965013984095
 20
3.0474670184696819
 30
0.0
 40
1.5
  0
CIRCLE
  5
A7
100
AcDbEntity
  8
example
 62
256
370
-1
 48
1.0
  6
BYLAYER
100
AcDbCircle
 10
7.5000000000000284
 20
125.4999999999999716
 30
0.0
 40
1.5
  0
CIRCLE
  5
A8
100
AcDbEntity
  8
example
 62
256
370
-1
 48
1.0
  6
BYLAYER
100
AcDbCircle
 10
7.4621965013984237
 20
125.547467018469689
 30
0.0
 40
1.5
  0
CIRCLE
  5
A9
100
AcDbEntity
  8
panel
 62
256
370
-1
 48
1.0
  6
BYLAYER
100
AcDbCircle
 10
7.5000000000000284
 20
125.4999999999999716
 30
0.0
 40
1.5
  0
CIRCLE
  5
AA
100
AcDbEntity
  8
panel
 62
256
370
-1
 48
1.0
  6
BYLAYER
100
AcDbCircle
 10
7.4621965013984379
 20
125.547467018469689
 30
0.0
 40
1.5
  0
CIRCLE
  5
AB
100
AcDbEntity
  8
example
 62
256
370
-1
 48
1.0
  6
BYLAYER
100
AcDbCircle
 10
68.5
 20
2.9999999999999769
 30
0.0
 40
1.5
  0
CIRCLE
  5
AC
100
AcDbEntity
  8
example
 62
256
370
-1
 48
1.0
  6
BYLAYER
100
AcDbCircle
 10
68.5
 20
25.9999999999999787
 30
0.0
 40
1.5
  0
CIRCLE
  5
AD
100
AcDbEntity
  8
example
 62
256
370
-1
 48
1.0
  6
BYLAYER
100
AcDbCircle
 10
68.5
 20
105.9999999999999716
 30
0.0
 40
1.5
  0
CIRCLE
  5
AE
100
AcDbEntity
  8
example
 62
256
370
-1
 48
1.0
  6
BYLAYER
100
AcDbCircle
 10
68.4999999999998579
 20
125.4999999999999716
 30
0.0
 40
1.5
  0
LINE
  5
AF
100
AcDbEntity
  8
example
 62
256
370
-1
 48
1.0
  6
BYLAYER
100
AcDbLine
 10
0.0
 20
128.5
 30
0.0
 11
1.9999999999999716
 21
128.5
 31
0.0
  0
LINE
  5
B0
100
AcDbEntity
  8
example
 62
256
370
-1
 48
1.0
  6
BYLAYER
100
AcDbLine
 10
-0.0378034986016047
 20
128.5474670184697175
 30
0.0
 11
1.9621965013983669
 21
128.5474670184697175
 31
0.0
  0
LINE
  5
B1
100
AcDbEntity
  8
panel
 62
256
370
-1
 48
1.0
  6
BYLAYER
100
AcDbLine
 10
0.0
 20
128.5
 30
0.0
 11
20.0
 21
128.5
 31
0.0
  0
LINE
  5
B2
100
AcDbEntity
  8
panel
 62
256
370
-1
 48
1.0
  6
BYLAYER
100
AcDbLine
 10
-0.0378034986015905
 20
128.5474670184697175
 30
0.0
 11
1.9621965013983811
 21
128.5474670184697175
 31
0.0
  0
LINE
  5
B3
100
AcDbEntity
  8
example
 62
256
370
-1
 48
1.0
  6
BYLAYER
100
AcDbLine
 10
0.0
 20
-0.0000000000000018
 30
0.0
 11
0.0
 21
128.5
 31
0.0
  0
LINE
  5
B4
100
AcDbEntity
  8
example
 62
256
370
-1
 48
1.0
  6
BYLAYER
100
AcDbLine
 10
-0.0378034986016047
 20
0.0474670184697175
 30
0.0
 11
-0.0378034986016047
 21
128.5474670184697175
 31
0.0
  0
LINE
  5
B5
100
AcDbEntity
  8
panel
 62
256
370
-1
 48
1.0
  6
BYLAYER
100
AcDbLine
 10
0.0
 20
0.0
 30
0.0
 11
0.0
 21
128.5
 31
0.0
  0
LINE
  5
B6
100
AcDbEntity
  8
panel
 62
256
370
-1
 48
1.0
  6
BYLAYER
100
AcDbLine
 10
-0.0378034986015905
 20
0.0474670184697175
 30
0.0
 11
-0.0378034986015905
 21
128.5474670184697175
 31
0.0
  0
CIRCLE
  5
B7
100
AcDbEntity
  8
example
 62
256
370
-1
 48
1.0
  6
BYLAYER
100
AcDbCircle
 10
15.0
 20
64.9999999999999858
 30
0.0
 40
3.0
  0
CIRCLE
  5
B8
100
AcDbEntity
  8
example
 62
256
370
-1
 48
1.0
  6
BYLAYER
100
AcDbCircle
 10
14.9621965013983953
 20
65.0474670184697032
 30
0.0
 40
3.0
  0
CIRCLE
  5
B9
100
AcDbEntity
  8
example
 62
256
370
-1
 48
1.0
  6
BYLAYER
100
AcDbCircle
 10
35.0
 20
16.9999999999999858
 30
0.0
 40
3.0
  0
CIRCLE
  5
BA
100
AcDbEntity
  8
example
 62
256
370
-1
 48
1.0
  6
BYLAYER
100
AcDbCircle
 10
35.0
 20
28.9999999999999858
 30
0.0
 40
3.0
  0
CIRCLE
  5
BB
100
AcDbEntity
  8
example
 62
256
370
-1
 48
1.0
  6
BYLAYER
100
AcDbCircle
 10
35.0
 20
40.9999999999999858
 30
0.0
 40
3.0
  0
CIRCLE
  5
BC
100
AcDbEntity
  8
example
 62
256
370
-1
 48
1.0
  6
BYLAYER
100
AcDbCircle
 10
35.0
 20
52.9999999999999787
 30
0.0
 40
3.0
  0
CIRCLE
  5
BD
100
AcDbEntity
  8
example
 62
256
370
-1
 48
1.0
  6
BYLAYER
100
AcDbCircle
 10
35.0
 20
64.9999999999999716
 30
0.0
 40
3.0
  0
CIRCLE
  5
BE
100
AcDbEntity
  8
example
 62
256
370
-1
 48
1.0
  6
BYLAYER
100
AcDbCircle
 10
35.0
 20
76.9999999999999858
 30
0.0
 40
3.0
  0
CIRCLE
  5
BF
100
AcDbEntity
  8
example
 62
256
370
-1
 48
1.0
  6
BYLAYER
100
AcDbCircle
 10
35.0000000000000568
 20
88.9999999999999858
 30
0.0
 40
3.0
  0
CIRCLE
  5
C0
100
AcDbEntity
  8
example
 62
256
370
-1
 48
1.0
  6
BYLAYER
100
AcDbCircle
 10
35.0000000000000568
 20
100.9999999999999858
 30
0.0
 40
3.0
  0
CIRCLE
  5
C1
100
AcDbEntity
  8
example
 62
256
370
-1
 48
1.0
  6
BYLAYER
100
AcDbCircle
 10
35.0
 20
112.9999999999999716
 30
0.0
 40
3.0
  0
CIRCLE
  5
C2
100
AcDbEntity
  8
example
 62
256
370
-1
 48
1.0
  6
BYLAYER
100
AcDbCircle
 10
55.0
 20
16.9999999999999858
 30
0.0
 40
3.0
  0
CIRCLE
  5
C3
100
AcDbEntity
  8
example
 62
256
370
-1
 48
1.0
  6
BYLAYER
100
AcDbCircle
 10
55.0
 20
28.9999999999999787
 30
0.0
 40
3.0
  0
CIRCLE
  5
C4
100
AcDbEntity
  8
example
 62
256
370
-1
 48
1.0
  6
BYLAYER
100
AcDbCircle
 10
55.0
 20
40.9999999999999787
 30
0.0
 40
3.0
  0
CIRCLE
  5
C5
100
AcDbEntity
  8
example
 62
256
370
-1
 48
1.0
  6
BYLAYER
100
AcDbCircle
 10
55.0
 20
100.9999999999999716
 30
0.0
 40
3.0
  0
CIRCLE
  5
C6
100
AcDbEntity
  8
example
 62
256
370
-1
 48
1.0
  6
BYLAYER
100
AcDbCircle
 10
55.0
 20
88.9999999999999716
 30
0.0
 40
3.0
  0
CIRCLE
  5
C7
100
AcDbEntity
  8
example
 62
256
370
-1
 48
1.0
  6
BYLAYER
100
AcDbCircle
 10
55.0000000000000284
 20
76.9999999999999716
 30
0.0
 40
3.0
  0
CIRCLE
  5
C8
100
AcDbEntity
  8
example
 62
256
370
-1
 48
1.0
  6
BYLAYER
100
AcDbCircle
 10
55.0
 20
64.9999999999999716
 30
0.0
 40
3.0
  0
CIRCLE
  5
C9
100
AcDbEntity
  8
example
 62
256
370
-1
 48
1.0
  6
BYLAYER
100
AcDbCircle
 10
54.9999999999999716
 20
112.9999999999999716
 30
0.0
 40
3.0
  0
CIRCLE
  5
CA
100
AcDbEntity
  8
example
 62
256
370
-1
 48
1.0
  6
BYLAYER
100
AcDbCircle
 10
55.0
 20
52.9999999999999787
 30
0.0
 40
3.0
  0
LWPOLYLINE
  5
CB
100
AcDbEntity
  8
example
 62
256
370
-1
 48
1.0
  6
BYLAYER
100
AcDbPolyline
 90
9
 70
128
 10
41.0
 20
113.5581799070656785
 10
42.2999999999999972
 20
113.5581799070656785
 42
-0.4142000000027636
 10
43.5000000000000071
 20
112.3581799070543497
 10
43.5
 20
112.2581799070656814
 42
-0.4142000000027292
 10
42.2999999999999972
 20
111.0581799070656785
 10
41.0
 20
111.0581799070656785
 10
41.0
 20
115.5581799070656785
 10
42.25
 20
115.5581799070656785
 42
-0.9999999999999999
 10
42.25
 20
113.5581799070656785
  0
LWPOLYLINE
  5
CC
100
AcDbEntity
  8
example
 62
256
370
-1
 48
1.0
  6
BYLAYER
100
AcDbPolyline
 90
3
 70
128
 10
45.0
 20
114.5581799070656785
 10
46.0
 20
115.5581799070656785
 10
46.0
 20
111.0581799070656785
  0
LWPOLYLINE
  5
CD
100
AcDbEntity
  8
example
 62
256
370
-1
 48
1.0
  6
BYLAYER
100
AcDbPolyline
 90
5
 70
128
 10
9.9344833961483801
 20
71.2126195199999756
 10
9.9344833961483801
 20
75.7126195199999756
 10
11.4344833961483801
 20
73.2126195199999756
 10
12.9344833961483801
 20
75.7126195199999756
 10
12.9344833961483801
 20
71.2126195199999756
  0
LWPOLYLINE
  5
CE
100
AcDbEntity
  8
example
 62
256
370
-1
 48
1.0
  6
BYLAYER
100
AcDbPolyline
 90
5
 70
128
 10
9.8966798975467754
 20
71.2600865384696931
 10
9.8966798975467754
 20
75.7600865384696931
 10
11.3966798975467754
 20
73.2600865384696931
 10
12.8966798975467754
 20
75.7600865384696931
 10
12.8966798975467754
 20
71.2600865384696931
  0
LWPOLYLINE
  5
CF
100
AcDbEntity
  8
example
 62
256
370
-1
 48
1.0
  6
BYLAYER
100
AcDbPolyline
 90
2
 70
128
 10
14.4344833961483801
 20
75.7126195199999756
 10
14.4344833961483801
 20
71.2126195199999756
  0
LWPOLYLINE
  5
D0
100
AcDbEntity
  8
example
 62
256
370
-1
 48
1.0
  6
BYLAYER
100
AcDbPolyline
 90
2
 70
128
 10
14.3966798975467754
 20
75.7600865384696931
 10
14.3966798975467754
 20
71.2600865384696931
  0
LWPOLYLINE
  5
D1
100
AcDbEntity
  8
example
 62
256
370
-1
 48
1.0
  6
BYLAYER
100
AcDbPolyline
 90
6
 70
129
 10
17.4344833961483801
 20
71.2126195199999756
 42
0.4141999999999537
 10
18.4344833961483801
 20
72.2126195199998193
 10
18.4344833961483801
 20
74.7126195199999756
 42
0.4142000000016746
 10
17.4344833961483801
 20
75.7126195199999756
 10
15.9344833961483801
 20
75.7126195199999756
 10
15.9344833961483801
 20
71.2126195199999756
  0
LWPOLYLINE
  5
D2
100
AcDbEntity
  8
example
 62
256
370
-1
 48
1.0
  6
BYLAYER
100
AcDbPolyline
 90
6
 70
129
 10
17.3966798975467754
 20
71.2600865384696931
 42
0.4141999999999537
 10
18.3966798975467754
 20
72.2600865384695368
 10
18.3966798975467754
 20
74.7600865384696931
 42
0.4142000000016746
 10
17.3966798975467754
 20
75.7600865384696931
 10
15.8966798975467754
 20
75.7600865384696931
 10
15.8966798975467754
 20
71.2600865384696931
  0
LWPOLYLINE
  5
D3
100
AcDbEntity
  8
example
 62
256
370
-1
 48
1.0
  6
BYLAYER
100
AcDbPolyline
 90
2
 70
128
 10
19.9344833961483801
 20
75.7126195199999756
 10
19.9344833961483801
 20
71.2126195199999756
  0
LWPOLYLINE
  5
D4
100
AcDbEntity
  8
example
 62
256
370
-1
 48
1.0
  6
BYLAYER
100
AcDbPolyline
 90
2
 70
128
 10
19.8966798975467754
 20
75.7600865384696931
 10
19.8966798975467754
 20
71.2600865384696931
  0
LWPOLYLINE
  5
D5
100
AcDbEntity
  8
example
 62
256
370
-1
 48
1.0
  6
BYLAYER
100
AcDbPolyline
 90
5
 70
128
 10
20.0
 20
121.0
 10
20.0
 20
125.0
 10
21.3333333333333321
 20
122.7777777777777715
 10
22.6666666666666679
 20
125.0
 10
22.6666666666666679
 20
121.0
  0
LWPOLYLINE
  5
D6
100
AcDbEntity
  8
example
 62
256
370
-1
 48
1.0
  6
BYLAYER
100
AcDbPolyline
 90
2
 70
128
 10
24.0
 20
121.0
 10
24.0
 20
123.6666666666666714
  0
LWPOLYLINE
  5
D7
100
AcDbEntity
  8
example
 62
256
370
-1
 48
1.0
  6
BYLAYER
100
AcDbPolyline
 90
2
 70
128
 10
24.0
 20
124.7777777777777715
 10
24.0
 20
125.0
  0
LWPOLYLINE
  5
D8
100
AcDbEntity
  8
example
 62
256
370
-1
 48
1.0
  6
BYLAYER
100
AcDbPolyline
 90
7
 70
128
 10
27.1111111111111107
 20
125.0
 10
27.1111111111111107
 20
121.0
 10
26.0
 20
121.0
 42
-0.4142000000013565
 10
25.3333333333333286
 20
121.6666666666697694
 10
25.3333333333333321
 20
123.0
 42
-0.4142000000023771
 10
26.0
 20
123.6666666666666856
 10
27.1111111111111107
 20
123.6666666666666714
  0
LWPOLYLINE
  5
D9
100
AcDbEntity
  8
example
 62
256
370
-1
 48
1.0
  6
BYLAYER
100
AcDbPolyline
 90
2
 70
128
 10
28.4444444444444429
 20
121.0
 10
28.4444444444444429
 20
123.6666666666666714
  0
LWPOLYLINE
  5
DA
100
AcDbEntity
  8
example
 62
256
370
-1
 48
1.0
  6
BYLAYER
100
AcDbPolyline
 90
2
 70
128
 10
28.4444444444444429
 20
124.7777777777777715
 10
28.4444444444444429
 20
125.0
  0
LWPOLYLINE
  5
DB
100
AcDbEntity
  8
example
 62
256
370
-1
 48
1.0
  6
BYLAYER
100
AcDbPolyline
 90
5
 70
128
 10
29.7777777777777786
 20
121.0
 10
29.7777777777777786
 20
123.6666666666666714
 10
31.7777777777777786
 20
123.6666666666666714
 42
-0.4142000000013565
 10
32.44444444444445
 20
122.9999999999968878
 10
32.4444444444444429
 20
121.0
  0
LWPOLYLINE
  5
DC
100
AcDbEntity
  8
example
 62
256
370
-1
 48
1.0
  6
BYLAYER
100
AcDbPolyline
 90
2
 70
128
 10
31.1111111111111143
 20
123.6666666666666714
 10
31.1111111111111143
 20
121.0
  0
LWPOLYLINE
  5
DD
100
AcDbEntity
  8
example
 62
256
370
-1
 48
1.0
  6
BYLAYER
100
AcDbPolyline
 90
5
 70
128
 10
33.7777777777777786
 20
123.6666666666666714
 10
33.7777777777777786
 20
121.6666666666666714
 42
0.4142000000023755
 10
34.4444444444444429
 20
121.0000000000000142
 10
35.5555555555555571
 20
121.0
 10
35.5555555555555571
 20
123.6666666666666714
  0
LWPOLYLINE
  5
DE
100
AcDbEntity
  8
example
 62
256
370
-1
 48
1.0
  6
BYLAYER
100
AcDbPolyline
 90
6
 70
128
 10
38.6664444444444442
 20
123.4173333333333318
 42
0.1998000000000007
 10
37.2844888888888875
 20
123.5212444444444344
 42
0.6969999999999962
 10
37.2509333333333288
 20
122.5213333333333168
 10
38.3044444444444423
 20
122.091111111111104
 42
-0.69690000000001
 10
38.270577777777774
 20
121.0909777777777663
 42
-0.1997999999999997
 10
36.8891111111111059
 20
121.1951111111111175
  0
LWPOLYLINE
  5
DF
100
AcDbEntity
  8
example
 62
256
370
-1
 48
1.0
  6
BYLAYER
100
AcDbPolyline
 90
4
 70
129
 10
39.9995555555555597
 20
121.8888888888888857
 42
0.9999999999999999
 10
41.7773333333333312
 20
121.8888888888888857
 10
41.7773333333333312
 20
122.7777777777777715
 42
0.9999999999999999
 10
39.9995555555555597
 20
122.7777777777777715
  0
LWPOLYLINE
  5
E0
100
AcDbEntity
  8
example
 62
256
370
-1
 48
1.0
  6
BYLAYER
100
AcDbPolyline
 90
6
 70
128
 10
46.5551111111111169
 20
125.0
 10
45.666222222222224
 20
125.0
 42
0.4142000000027625
 10
44.7773333333333383
 20
124.1111111111027299
 10
44.7773333333333312
 20
121.8888888888888857
 42
0.4142000000023786
 10
45.666222222222224
 20
121.0
 10
46.5551111111111169
 20
121.0
  0
LWPOLYLINE
  5
E1
100
AcDbEntity
  8
example
 62
256
370
-1
 48
1.0
  6
BYLAYER
100
AcDbPolyline
 90
3
 70
128
 10
47.8884444444444455
 20
125.0
 10
49.2217777777777741
 20
121.0
 10
50.5551111111111169
 20
125.0
  0
LWPOLYLINE
  5
E2
100
AcDbEntity
  8
example
 62
256
370
-1
 48
1.0
  6
BYLAYER
100
AcDbPolyline
 90
2
 70
128
 10
51.8884444444444455
 20
122.7777777777777715
 10
53.666222222222224
 20
122.7777777777777715
  0
LWPOLYLINE
  5
E3
100
AcDbEntity
  8
example
 62
256
370
-1
 48
1.0
  6
BYLAYER
100
AcDbPolyline
 90
3
 70
128
 10
54.9995555555555597
 20
124.1111111111111143
 10
55.8884444444444455
 20
125.0
 10
55.8884444444444455
 20
121.0
  0
LWPOLYLINE
  5
E4
100
AcDbEntity
  8
example
 62
256
370
-1
 48
1.0
  6
BYLAYER
100
AcDbPolyline
 90
5
 70
128
 10
58.9995555555555597
 20
121.0
 10
57.2217777777777812
 20
121.0
 10
58.9395555555555575
 20
123.9542222222222279
 42
0.2249999999999979
 10
58.9713333333333267
 20
124.333200000000005
 42
0.7743999999999798
 10
57.2500888888889463
 20
124.3336888888888723
  0
LWPOLYLINE
  5
E5
100
AcDbEntity
  8
example
 62
256
370
-1
 48
1.0
  6
BYLAYER
100
AcDbPolyline
 90
9
 70
128
 10
41.0
 20
101.5581799070656928
 10
42.2999999999999972
 20
101.5581799070656928
 42
-0.4142000000027636
 10
43.5000000000000071
 20
100.3581799070543639
 10
43.5
 20
100.2581799070656956
 42
-0.4142000000027292
 10
42.2999999999999972
 20
99.0581799070656785
 10
41.0
 20
99.0581799070656928
 10
41.0
 20
103.5581799070656928
 10
42.25
 20
103.5581799070656928
 42
-0.9999999999999999
 10
42.25
 20
101.5581799070656928
  0
LWPOLYLINE
  5
E6
100
AcDbEntity
  8
example
 62
256
370
-1
 48
1.0
  6
BYLAYER
100
AcDbPolyline
 90
5
 70
128
 10
47.0
 20
99.0581799070656928
 10
45.0
 20
99.0581799070656928
 10
46.9324999999999974
 20
102.3816799070656884
 42
0.2249999999999977
 10
46.9682500000000047
 20
102.8080299070656878
 42
0.7743999999999934
 10
45.0318499999998849
 20
102.8085799070657202
  0
LWPOLYLINE
  5
E7
100
AcDbEntity
  8
example
 62
256
370
-1
 48
1.0
  6
BYLAYER
100
AcDbPolyline
 90
9
 70
128
 10
41.0
 20
89.5584799070656743
 10
42.2999999999999972
 20
89.5584799070656743
 42
-0.4142000000027636
 10
43.5000000000000071
 20
88.3584799070543454
 10
43.5
 20
88.2584799070656771
 42
-0.4142000000027292
 10
42.2999999999999972
 20
87.0584799070656601
 10
41.0
 20
87.0584799070656743
 10
41.0
 20
91.5584799070656743
 10
42.25
 20
91.5584799070656743
 42
-0.9999999999999999
 10
42.25
 20
89.5584799070656743
  0
LWPOLYLINE
  5
E8
100
AcDbEntity
  8
example
 62
256
370
-1
 48
1.0
  6
BYLAYER
100
AcDbPolyline
 90
7
 70
128
 10
45.0
 20
91.5584799070656743
 10
46.0
 20
91.5584799070656743
 42
-0.9999999999999999
 10
46.0
 20
89.5584799070656743
 42
-0.4141999999999536
 10
47.0
 20
88.5584799070658306
 10
47.0
 20
88.0584799070656743
 42
-0.4142000000016748
 10
46.0
 20
87.0584799070656743
 10
45.0
 20
87.0584799070656743
  0
LWPOLYLINE
  5
E9
100
AcDbEntity
  8
example
 62
256
370
-1
 48
1.0
  6
BYLAYER
100
AcDbPolyline
 90
2
 70
128
 10
46.0
 20
89.5584799070656743
 10
45.5
 20
89.5584799070656743
  0
LWPOLYLINE
  5
EA
100
AcDbEntity
  8
example
 62
256
370
-1
 48
1.0
  6
BYLAYER
100
AcDbPolyline
 90
9
 70
128
 10
41.0
 20
77.5584799070656743
 10
42.2999999999999972
 20
77.5584799070656743
 42
-0.4142000000027636
 10
43.5000000000000071
 20
76.3584799070543454
 10
43.5
 20
76.2584799070656771
 42
-0.4142000000027292
 10
42.2999999999999972
 20
75.0584799070656601
 10
41.0
 20
75.0584799070656743
 10
41.0
 20
79.5584799070656743
 10
42.25
 20
79.5584799070656743
 42
-0.9999999999999999
 10
42.25
 20
77.5584799070656743
  0
LWPOLYLINE
  5
EB
100
AcDbEntity
  8
example
 62
256
370
-1
 48
1.0
  6
BYLAYER
100
AcDbPolyline
 90
2
 70
128
 10
46.75
 20
75.0584799070656743
 10
46.75
 20
77.0584799070656743
  0
LWPOLYLINE
  5
EC
100
AcDbEntity
  8
example
 62
256
370
-1
 48
1.0
  6
BYLAYER
100
AcDbPolyline
 90
3
 70
128
 10
47.5
 20
76.0584799070656743
 10
45.0
 20
76.0584799070656743
 10
46.0
 20
79.5584799070656743
  0
LWPOLYLINE
  5
ED
100
AcDbEntity
  8
example
 62
256
370
-1
 48
1.0
  6
BYLAYER
100
AcDbPolyline
 90
9
 70
128
 10
41.0
 20
65.5584799070656743
 10
42.2999999999999972
 20
65.5584799070656743
 42
-0.4142000000027636
 10
43.5000000000000071
 20
64.3584799070543454
 10
43.5
 20
64.2584799070656771
 42
-0.4142000000027292
 10
42.2999999999999972
 20
63.0584799070656814
 10
41.0
 20
63.0584799070656743
 10
41.0
 20
67.5584799070656743
 10
42.25
 20
67.5584799070656743
 42
-0.9999999999999999
 10
42.25
 20
65.5584799070656743
  0
LWPOLYLINE
  5
EE
100
AcDbEntity
  8
example
 62
256
370
-1
 48
1.0
  6
BYLAYER
100
AcDbPolyline
 90
8
 70
128
 10
47.0
 20
67.5584799070656743
 10
45.0
 20
67.5584799070656743
 10
45.0
 20
65.5584799070656743
 10
46.0
 20
65.5584799070656743
 42
-0.4141999999999536
 10
47.0
 20
64.5584799070658306
 10
47.0
 20
64.0584799070656743
 42
-0.4142000000016748
 10
46.0
 20
63.0584799070656814
 10
45.0
 20
63.0584799070656743
  0
LWPOLYLINE
  5
EF
100
AcDbEntity
  8
example
 62
256
370
-1
 48
1.0
  6
BYLAYER
100
AcDbPolyline
 90
9
 70
128
 10
41.0
 20
53.5584799070656743
 10
42.2999999999999972
 20
53.5584799070656743
 42
-0.4142000000027636
 10
43.5
 20
52.3584799070543454
 10
43.5
 20
52.2584799070656771
 42
-0.4142000000027292
 10
42.2999999999999972
 20
51.0584799070656814
 10
41.0
 20
51.0584799070656743
 10
41.0
 20
55.5584799070656743
 10
42.25
 20
55.5584799070656743
 42
-0.9999999999999999
 10
42.25
 20
53.5584799070656743
  0
LWPOLYLINE
  5
F0
100
AcDbEntity
  8
example
 62
256
370
-1
 48
1.0
  6
BYLAYER
100
AcDbPolyline
 90
7
 70
128
 10
46.5
 20
55.5585799070656705
 42
0.2678999999996173
 10
45.0
 20
52.9604799070699599
 10
45.0
 20
52.0584799070656743
 42
0.9999999999999999
 10
47.0
 20
52.0584799070656743
 10
47.0
 20
52.5584799070656743
 42
0.4142000000016746
 10
46.0
 20
53.5584799070656743
 10
45.0602000000000018
 20
53.5584799070656743
  0
LWPOLYLINE
  5
F1
100
AcDbEntity
  8
example
 62
256
370
-1
 48
1.0
  6
BYLAYER
100
AcDbPolyline
 90
6
 70
129
 10
42.5
 20
39.0584799070656672
 42
0.4141999999999537
 10
43.5
 20
40.0584799070655109
 10
43.5
 20
42.5584799070656672
 42
0.4142000000016746
 10
42.5
 20
43.5584799070656672
 10
41.0
 20
43.5584799070656672
 10
41.0
 20
39.0584799070656672
  0
LWPOLYLINE
  5
F2
100
AcDbEntity
  8
example
 62
256
370
-1
 48
1.0
  6
BYLAYER
100
AcDbPolyline
 90
3
 70
128
 10
45.0
 20
42.5584799070656672
 10
46.0
 20
43.5584799070656672
 10
46.0
 20
39.0584799070656672
  0
LWPOLYLINE
  5
F3
100
AcDbEntity
  8
example
 62
256
370
-1
 48
1.0
  6
BYLAYER
100
AcDbPolyline
 90
6
 70
129
 10
42.5
 20
27.0584799070656707
 42
0.4141999999999537
 10
43.5
 20
28.0584799070655144
 10
43.5
 20
30.5584799070656707
 42
0.4142000000016746
 10
42.5
 20
31.5584799070656778
 10
41.0
 20
31.5584799070656707
 10
41.0
 20
27.0584799070656707
  0
LWPOLYLINE
  5
F4
100
AcDbEntity
  8
example
 62
256
370
-1
 48
1.0
  6
BYLAYER
100
AcDbPolyline
 90
5
 70
128
 10
47.0
 20
27.0584799070656707
 10
45.0
 20
27.0584799070656707
 10
46.9324999999999974
 20
30.38197990706567
 42
0.2249999999999967
 10
46.9682499999999905
 20
30.8083299070656658
 42
0.774399999999997
 10
45.0318499999998849
 20
30.8088799070656982
  0
LWPOLYLINE
  5
F5
100
AcDbEntity
  8
example
 62
256
370
-1
 48
1.0
  6
BYLAYER
100
AcDbPolyline
 90
6
 70
129
 10
42.5
 20
15.0584799070656672
 42
0.4141999999999537
 10
43.5
 20
16.0584799070655109
 10
43.5
 20
18.5584799070656672
 42
0.4142000000016746
 10
42.5
 20
19.5584799070656707
 10
41.0
 20
19.5584799070656672
 10
41.0
 20
15.0584799070656672
  0
LWPOLYLINE
  5
F6
100
AcDbEntity
  8
example
 62
256
370
-1
 48
1.0
  6
BYLAYER
100
AcDbPolyline
 90
7
 70
128
 10
45.0
 20
19.5584799070656672
 10
46.0
 20
19.5584799070656672
 42
-0.9999999999999999
 10
46.0
 20
17.5584799070656672
 42
-0.4141999999999536
 10
47.0
 20
16.5584799070658235
 10
47.0
 20
16.0584799070656672
 42
-0.4142000000016748
 10
46.0
 20
15.0584799070656636
 10
45.0
 20
15.0584799070656672
  0
LWPOLYLINE
  5
F7
100
AcDbEntity
  8
example
 62
256
370
-1
 48
1.0
  6
BYLAYER
100
AcDbPolyline
 90
2
 70
128
 10
46.0
 20
17.5584799070656672
 10
45.5
 20
17.5584799070656672
  0
LWPOLYLINE
  5
F8
100
AcDbEntity
  8
example
 62
256
370
-1
 48
1.0
  6
BYLAYER
100
AcDbPolyline
 90
6
 70
129
 10
62.0
 20
15.0584799070656743
 42
0.4141999999999537
 10
63.0
 20
16.058479907065518
 10
63.0
 20
18.5584799070656743
 42
0.4142000000016746
 10
62.0
 20
19.5584799070656778
 10
60.5
 20
19.5584799070656743
 10
60.5
 20
15.0584799070656743
  0
LWPOLYLINE
  5
F9
100
AcDbEntity
  8
example
 62
256
370
-1
 48
1.0
  6
BYLAYER
100
AcDbPolyline
 90
7
 70
128
 10
66.0
 20
19.558579907065667
 42
0.267899999999617
 10
64.5
 20
16.9604799070699563
 10
64.5
 20
16.0584799070656743
 42
0.9999999999999999
 10
66.5
 20
16.0584799070656743
 10
66.5
 20
16.5584799070656743
 42
0.4142000000016725
 10
65.5
 20
17.5584799070656778
 10
64.5601999999999947
 20
17.5584799070656743
  0
LWPOLYLINE
  5
FA
100
AcDbEntity
  8
example
 62
256
370
-1
 48
1.0
  6
BYLAYER
100
AcDbPolyline
 90
6
 70
129
 10
62.0
 20
27.0584799070656743
 42
0.4141999999999537
 10
63.0
 20
28.058479907065518
 10
63.0
 20
30.5584799070656743
 42
0.4142000000016746
 10
62.0
 20
31.5584799070656778
 10
60.5
 20
31.5584799070656743
 10
60.5
 20
27.0584799070656743
  0
LWPOLYLINE
  5
FB
100
AcDbEntity
  8
example
 62
256
370
-1
 48
1.0
  6
BYLAYER
100
AcDbPolyline
 90
8
 70
128
 10
66.5
 20
31.5584799070656743
 10
64.5
 20
31.5584799070656743
 10
64.5
 20
29.5584799070656743
 10
65.5
 20
29.5584799070656743
 42
-0.4141999999999536
 10
66.5
 20
28.5584799070658306
 10
66.5
 20
28.0584799070656743
 42
-0.4142000000016727
 10
65.5
 20
27.0584799070656707
 10
64.5
 20
27.0584799070656743
  0
LWPOLYLINE
  5
FC
100
AcDbEntity
  8
example
 62
256
370
-1
 48
1.0
  6
BYLAYER
100
AcDbPolyline
 90
6
 70
129
 10
62.0
 20
39.0584799070656672
 42
0.4141999999999537
 10
63.0
 20
40.0584799070655109
 10
63.0
 20
42.5584799070656672
 42
0.4142000000016746
 10
62.0
 20
43.5584799070656672
 10
60.5
 20
43.5584799070656672
 10
60.5
 20
39.0584799070656672
  0
LWPOLYLINE
  5
FD
100
AcDbEntity
  8
example
 62
256
370
-1
 48
1.0
  6
BYLAYER
100
AcDbPolyline
 90
2
 70
128
 10
66.25
 20
39.0584799070656672
 10
66.25
 20
41.0584799070656672
  0
LWPOLYLINE
  5
FE
100
AcDbEntity
  8
example
 62
256
370
-1
 48
1.0
  6
BYLAYER
100
AcDbPolyline
 90
3
 70
128
 10
67.0
 20
40.0584799070656672
 10
64.5
 20
40.0584799070656672
 10
65.5
 20
43.5584799070656672
  0
LWPOLYLINE
  5
FF
100
AcDbEntity
  8
example
 62
256
370
-1
 48
1.0
  6
BYLAYER
100
AcDbPolyline
 90
6
 70
128
 10
62.5
 20
55.5649679765146089
 10
61.5
 20
55.5649679765146089
 42
0.4141999999999536
 10
60.5
 20
54.5649679765147653
 10
60.5
 20
52.0649679765146089
 42
0.4142000000016746
 10
61.5
 20
51.0649679765146089
 10
62.5
 20
51.0649679765146089
  0
LWPOLYLINE
  5
100
100
AcDbEntity
  8
example
 62
256
370
-1
 48
1.0
  6
BYLAYER
100
AcDbPolyline
 90
7
 70
128
 10
65.5
 20
55.5650679765146052
 42
0.2678999999999555
 10
64.0
 20
52.9669679765151002
 10
64.0
 20
52.0649679765146089
 42
0.9999999999999999
 10
66.0
 20
52.0649679765146089
 10
66.0
 20
52.5649679765146089
 42
0.4142000000016725
 10
65.0
 20
53.5649679765146089
 10
64.0601999999999947
 20
53.5649679765146089
  0
LWPOLYLINE
  5
101
100
AcDbEntity
  8
example
 62
256
370
-1
 48
1.0
  6
BYLAYER
100
AcDbPolyline
 90
6
 70
128
 10
62.5
 20
67.5453094165306567
 10
61.5
 20
67.5453094165306567
 42
0.4141999999999536
 10
60.5
 20
66.5453094165307988
 10
60.5
 20
64.0453094165306567
 42
0.4142000000016746
 10
61.5
 20
63.0453094165306638
 10
62.5
 20
63.0453094165306567
  0
LWPOLYLINE
  5
102
100
AcDbEntity
  8
example
 62
256
370
-1
 48
1.0
  6
BYLAYER
100
AcDbPolyline
 90
8
 70
128
 10
66.0
 20
67.5453094165306567
 10
64.0
 20
67.5453094165306567
 10
64.0
 20
65.5453094165306567
 10
65.0
 20
65.5453094165306567
 42
-0.4141999999999536
 10
66.0
 20
64.5453094165307988
 10
66.0
 20
64.0453094165306567
 42
-0.4142000000016727
 10
65.0
 20
63.0453094165306638
 10
64.0
 20
63.0453094165306567
  0
LWPOLYLINE
  5
103
100
AcDbEntity
  8
example
 62
256
370
-1
 48
1.0
  6
BYLAYER
100
AcDbPolyline
 90
6
 70
128
 10
62.5
 20
79.6639187616610371
 10
61.5
 20
79.6639187616610371
 42
0.4141999999999536
 10
60.5
 20
78.6639187616611792
 10
60.5
 20
76.1639187616610371
 42
0.4142000000016746
 10
61.5
 20
75.1639187616610371
 10
62.5
 20
75.1639187616610371
  0
LWPOLYLINE
  5
104
100
AcDbEntity
  8
example
 62
256
370
-1
 48
1.0
  6
BYLAYER
100
AcDbPolyline
 90
2
 70
128
 10
65.75
 20
75.1639187616610371
 10
65.75
 20
77.1639187616610371
  0
LWPOLYLINE
  5
105
100
AcDbEntity
  8
example
 62
256
370
-1
 48
1.0
  6
BYLAYER
100
AcDbPolyline
 90
3
 70
128
 10
66.5
 20
76.1639187616610371
 10
64.0
 20
76.1639187616610371
 10
65.0
 20
79.6639187616610371
  0
LWPOLYLINE
  5
106
100
AcDbEntity
  8
example
 62
256
370
-1
 48
1.0
  6
BYLAYER
100
AcDbPolyline
 90
6
 70
128
 10
62.5
 20
91.5081016348759704
 10
61.5
 20
91.5081016348759704
 42
0.4141999999999536
 10
60.5
 20
90.5081016348761267
 10
60.5
 20
88.0081016348759704
 42
0.4142000000016746
 10
61.5
 20
87.0081016348759704
 10
62.5
 20
87.0081016348759704
  0
LWPOLYLINE
  5
107
100
AcDbEntity
  8
example
 62
256
370
-1
 48
1.0
  6
BYLAYER
100
AcDbPolyline
 90
7
 70
128
 10
64.0
 20
91.5081016348759704
 10
65.0
 20
91.5081016348759704
 42
-0.9999999999999999
 10
65.0
 20
89.5081016348759704
 42
-0.4141999999999536
 10
66.0
 20
88.5081016348761267
 10
66.0
 20
88.0081016348759704
 42
-0.4142000000016727
 10
65.0
 20
87.0081016348759704
 10
64.0
 20
87.0081016348759704
  0
LWPOLYLINE
  5
108
100
AcDbEntity
  8
example
 62
256
370
-1
 48
1.0
  6
BYLAYER
100
AcDbPolyline
 90
2
 70
128
 10
65.0
 20
89.5081016348759704
 10
64.5
 20
89.5081016348759704
  0
LWPOLYLINE
  5
109
100
AcDbEntity
  8
example
 62
256
370
-1
 48
1.0
  6
BYLAYER
100
AcDbPolyline
 90
6
 70
128
 10
62.5
 20
103.5756342966404588
 10
61.5
 20
103.5756342966404588
 42
0.4141999999999536
 10
60.5
 20
102.5756342966406152
 10
60.5
 20
100.0756342966404588
 42
0.4142000000016746
 10
61.5
 20
99.0756342966404588
 10
62.5
 20
99.0756342966404588
  0
LWPOLYLINE
  5
10A
100
AcDbEntity
  8
example
 62
256
370
-1
 48
1.0
  6
BYLAYER
100
AcDbPolyline
 90
5
 70
128
 10
66.0
 20
99.0756342966404588
 10
64.0
 20
99.0756342966404588
 10
65.9325000000000045
 20
102.3991342966404545
 42
0.2249999999999977
 10
65.9682500000000118
 20
102.8254842966404539
 42
0.7743999999999942
 10
64.031849999999892
 20
102.8260342966404863
  0
LWPOLYLINE
  5
10B
100
AcDbEntity
  8
example
 62
256
370
-1
 48
1.0
  6
BYLAYER
100
AcDbPolyline
 90
6
 70
128
 10
62.5
 20
115.5984716594662416
 10
61.5
 20
115.5984716594662416
 42
0.4141999999999536
 10
60.5
 20
114.5984716594663979
 10
60.5
 20
112.0984716594662416
 42
0.4142000000016746
 10
61.5
 20
111.0984716594662416
 10
62.5
 20
111.0984716594662416
  0
LWPOLYLINE
  5
10C
100
AcDbEntity
  8
example
 62
256
370
-1
 48
1.0
  6
BYLAYER
100
AcDbPolyline
 90
3
 70
128
 10
64.0
 20
114.5984716594662416
 10
65.0
 20
115.5984716594662416
 10
65.0
 20
111.0984716594662416
  0
LINE
  5
10D
100
AcDbEntity
  8
panel
 62
256
370
-1
 48
1.0
  6
BYLAYER
100
AcDbLine
 10
20.0
 20
0.0
 30
0.0
 11
20.0
 21
128.5
 31
0.0
  0
INSERT
  5
10E
100
AcDbEntity
  8
components
 62
256
370
-1
 48
1.0
  6
BYLAYER
100
AcDbBlockReference
  2
spdt
 10
10.0
 20
70.0
 30
0.0
 50
90.0
  0
INSERT
  5
10F
100
AcDbEntity
  8
components
 62
256
370
-1
 48
1.0
  6
BYLAYER
100
AcDbBlockReference
  2
pot
 10
10.0
 20
105.0
 30
0.0
 50
360.0
  0
INSERT
  5
110
100
AcDbEntity
  8
components
 62
256
370
-1
 48
1.0
  6
BYLAYER
100
AcDbBlockReference
  2
pot
 10
10.0
 20
45.0
 30
0.0
 50
180.0
  0
INSERT
  5
111
100
AcDbEntity
  8
components
 62
256
370
-1
 48
1.0
  6
BYLAYER
100
AcDbBlockReference
  2
jack
 10
14.0
 20
30.0
 30
0.0
  0
INSERT
  5
112
100
AcDbEntity
  8
components
 62
256
370
-1
 48
1.0
  6
BYLAYER
100
AcDbBlockReference
  2
jack
 10
6.0
 20
20.0
 30
0.0
  0
INSERT
  5
113
100
AcDbEntity
  8
components
 62
256
370
-1
 48
1.0
  6
BYLAYER
100
AcDbBlockReference
  2
pcb
 10
5.0
 20
30.0
 30
0.0
  0
CIRCLE
  5
114
100
AcDbEntity
  8
panel
 62
256
370
-1
 48
1.0
  6
BYLAYER
100
AcDbCircle
 10
10.0
 20
105.0
 30
0.0
 40
3.5
  0
CIRCLE
  5
115
100
AcDbEntity
  8
panel
 62
256
370
-1
 48
1.0
  6
BYLAYER
100
AcDbCircle
 10
10.0
 20
45.0
 30
0.0
 40
3.5
  0
CIRCLE
  5
116
100
AcDbEntity
  8
panel
 62
256
370
-1
 48
1.0
  6
BYLAYER
100
AcDbCircle
 10
10.0
 20
70.0
 30
0.0
 40
3.0
  0
TEXT
  5
117
100
AcDbEntity
  8
panel
 62
256
370
-1
 48
1.0
  6
BYLAYER
100
AcDbText
 10
0.6537138744874655
 20
-111.954147570409873
 30
0.0
 40
4.0
  1
LMNC
 50
0.0
 41
1.0
  7
textstyle4
 71
0
 72
0
 11
1.9999999999999998
 21
122.0
 31
0.0
100
AcDbText
 73
3
  0
TEXT
  5
118
100
AcDbEntity
  8
panel
 62
256
370
-1
 48
1.0
  6
BYLAYER
100
AcDbText
 10
0.0473056309493014
 20
-23.7401896570638087
 30
0.0
 40
3.0
  1
ATTACK
 50
0.0
 41
1.0
  7
textstyle3
 71
0
 72
0
 11
2.0000000000000022
 21
95.0
 31
0.0
100
AcDbText
 73
3
  0
TEXT
  5
119
100
AcDbEntity
  8
panel
 62
256
370
-1
 48
1.0
  6
BYLAYER
100
AcDbText
 10
-1.5013251207541223
 20
-38.2739669466422896
 30
0.0
 40
3.0
  1
RELEASE
 50
0.0
 41
1.0
  7
textstyle2
 71
0
 72
0
 11
0.798499712682367
 21
81.0000000000000142
 31
0.0
100
AcDbText
 73
3
  0
TEXT
  5
11A
100
AcDbEntity
  8
panel
 62
256
370
-1
 48
1.0
  6
BYLAYER
100
AcDbText
 10
-0.866621714573112
 20
-55.2739669466422825
 30
0.0
 40
3.0
  1
DECAY
 50
0.0
 41
1.0
  7
textstyle1
 71
0
 72
0
 11
3.0000000000000053
 21
61.9999999999999929
 31
0.0
100
AcDbText
 73
3
  0
TEXT
  5
11B
100
AcDbEntity
  8
panel
 62
256
370
-1
 48
1.0
  6
BYLAYER
100
AcDbText
 10
4.1333782854266081
 20
-102.2739669466422754
 30
0.0
 40
4.0
  1
G
 50
0.0
 41
1.0
  7
textstyle0
 71
0
 72
0
 11
7.9999999999999982
 21
15.0000000000000018
 31
0.0
100
AcDbText
 73
3
  0
TEXT
  5
11C
100
AcDbEntity
  8
panel
 62
256
370
-1
 48
1.0
  6
BYLAYER
100
AcDbText
 10
11.3823303673190015
 20
-92.7310588043932
 30
0.0
 40
4.0
  1
E
 50
0.0
 41
1.0
  7
textstyle5
 71
0
 72
0
 11
15.2489520818924014
 21
24.5429081422490718
 31
0.0
100
AcDbText
 73
3
  0
CIRCLE
  5
11D
100
AcDbEntity
  8
panel
 62
256
370
-1
 48
1.0
  6
BYLAYER
100
AcDbCircle
 10
5.0000000000000036
 20
85.0
 30
0.0
 40
1.5
  0
CIRCLE
  5
11E
100
AcDbEntity
  8
panel
 62
256
370
-1
 48
1.0
  6
BYLAYER
100
AcDbCircle
 10
5.0
 20
30.0
 30
0.0
 40
1.5
  0
CIRCLE
  5
11F
100
AcDbEntity
  8
panel
 62
256
370
-1
 48
1.0
  6
BYLAYER
100
AcDbCircle
 10
6.0
 20
20.0
 30
0.0
 40
3.0381743225098963
  0
CIRCLE
  5
120
100
AcDbEntity
  8
panel
 62
256
370
-1
 48
1.0
  6
BYLAYER
100
AcDbCircle
 10
14.0
 20
30.0
 30
0.0
 40
3.0
  0
ENDSEC
  0
SECTION
  2
OBJECTS
  0
DICTIONARY
  5
C
100
AcDbDictionary
280
0
281
1
  3
ACAD_GROUP
350
D
  3
ACAD_LAYOUT
350
1A
  3
ACAD_MLINESTYLE
350
17
  3
ACAD_PLOTSETTINGS
350
19
  3
ACAD_PLOTSTYLENAME
350
E
  3
AcDbVariableDictionary
350
121
  3
QCAD_OBJECTS
350
122
  0
DICTIONARY
  5
D
100
AcDbDictionary
280
0
281
1
  0
ACDBDICTIONARYWDFLT
  5
E
100
AcDbDictionary
281
1
  3
Normal
350
F
100
AcDbDictionaryWithDefault
340
F
  0
ACDBPLACEHOLDER
  5
F
  0
DICTIONARY
  5
17
100
AcDbDictionary
280
0
281
1
  3
Standard
350
18
  0
MLINESTYLE
  5
18
100
AcDbMlineStyle
  2
STANDARD
 70
0
  3

 62
256
 51
90.0
 52
90.0
 71
2
 49
0.5
 62
256
  6
BYLAYER
 49
-0.5
 62
256
  6
BYLAYER
  0
DICTIONARY
  5
19
100
AcDbDictionary
280
0
281
1
  0
DICTIONARY
  5
1A
100
AcDbDictionary
281
1
  3
Layout1
350
1E
  3
Layout2
350
26
  3
Model
350
22
  0
LAYOUT
  5
1E
100
AcDbPlotSettings
  1

  2
none_device
  4

  6

 40
0.0
 41
0.0
 42
0.0
 43
0.0
 44
0.0
 45
0.0
 46
0.0
 47
0.0
 48
0.0
 49
0.0
140
0.0
141
0.0
142
1.0
143
1.0
 70
688
 72
0
 73
0
 74
5
  7

 75
16
147
1.0
148
0.0
149
0.0
100
AcDbLayout
  1
Layout1
 70
1
 71
1
 10
0.0
 20
0.0
 11
420.0
 21
297.0
 12
0.0
 22
0.0
 32
0.0
 14
100000000000000000000.0
 24
100000000000000000000.0
 34
100000000000000000000.0
 15
-100000000000000000000.0
 25
-100000000000000000000.0
 35
-100000000000000000000.0
146
0.0
 13
0.0
 23
0.0
 33
0.0
 16
1.0
 26
0.0
 36
0.0
 17
0.0
 27
1.0
 37
0.0
 76
0
330
1B
  0
LAYOUT
  5
22
100
AcDbPlotSettings
  1

  2
none_device
  4

  6

 40
0.0
 41
0.0
 42
0.0
 43
0.0
 44
0.0
 45
0.0
 46
0.0
 47
0.0
 48
0.0
 49
0.0
140
0.0
141
0.0
142
1.0
143
1.0
 70
1712
 72
0
 73
0
 74
0
  7

 75
0
147
1.0
148
0.0
149
0.0
100
AcDbLayout
  1
Model
 70
1
 71
0
 10
0.0
 20
0.0
 11
12.0
 21
9.0
 12
0.0
 22
0.0
 32
0.0
 14
0.0
 24
0.0
 34
0.0
 15
0.0
 25
0.0
 35
0.0
146
0.0
 13
0.0
 23
0.0
 33
0.0
 16
1.0
 26
0.0
 36
0.0
 17
0.0
 27
1.0
 37
0.0
 76
0
330
1F
  0
LAYOUT
  5
26
100
AcDbPlotSettings
  1

  2
none_device
  4

  6

 40
0.0
 41
0.0
 42
0.0
 43
0.0
 44
0.0
 45
0.0
 46
0.0
 47
0.0
 48
0.0
 49
0.0
140
0.0
141
0.0
142
1.0
143
1.0
 70
688
 72
0
 73
0
 74
5
  7

 75
16
147
1.0
148
0.0
149
0.0
100
AcDbLayout
  1
Layout2
 70
1
 71
2
 10
0.0
 20
0.0
 11
12.0
 21
9.0
 12
0.0
 22
0.0
 32
0.0
 14
0.0
 24
0.0
 34
0.0
 15
0.0
 25
0.0
 35
0.0
146
0.0
 13
0.0
 23
0.0
 33
0.0
 16
1.0
 26
0.0
 36
0.0
 17
0.0
 27
1.0
 37
0.0
 76
0
330
23
  0
DICTIONARY
  5
121
100
AcDbDictionary
281
1
  3
DIMASSOC
350
124
  3
HIDETEXT
350
123
  0
DICTIONARYVAR
  5
123
100
DictionaryVariables
280
0
  1
2
  0
DICTIONARYVAR
  5
124
100
DictionaryVariables
280
0
  1
1
  0
DICTIONARY
  5
122
100
AcDbDictionary
281
1
  3
ColorSettings/BackgroundColor
350
125
  3
ColorSettings/ColorMode
350
126
  3
Grid/DisplayGrid00
350
127
  3
Grid/DisplayGrid01
350
128
  3
Grid/DisplayGrid02
350
129
  3
Grid/DisplayGrid03
350
12A
  3
Grid/GridSpacingX00
350
12B
  3
Grid/GridSpacingX01
350
12C
  3
Grid/GridSpacingX02
350
12D
  3
Grid/GridSpacingX03
350
12E
  3
Grid/GridSpacingY00
350
12F
  3
Grid/GridSpacingY01
350
130
  3
Grid/GridSpacingY02
350
131
  3
Grid/GridSpacingY03
350
132
  3
Grid/IsometricGrid00
350
133
  3
Grid/IsometricGrid01
350
134
  3
Grid/IsometricGrid02
350
135
  3
Grid/IsometricGrid03
350
136
  3
Grid/IsometricProjection00
350
137
  3
Grid/IsometricProjection01
350
138
  3
Grid/IsometricProjection02
350
139
  3
Grid/IsometricProjection03
350
13A
  3
Grid/MetaGridSpacingX00
350
13B
  3
Grid/MetaGridSpacingX01
350
13C
  3
Grid/MetaGridSpacingX02
350
13D
  3
Grid/MetaGridSpacingX03
350
13E
  3
Grid/MetaGridSpacingY00
350
13F
  3
Grid/MetaGridSpacingY01
350
140
  3
Grid/MetaGridSpacingY02
350
141
  3
Grid/MetaGridSpacingY03
350
142
  3
MultiPageSettings/Columns
350
143
  3
MultiPageSettings/GlueMarginsBottom
350
144
  3
MultiPageSettings/GlueMarginsLeft
350
145
  3
MultiPageSettings/GlueMarginsRight
350
146
  3
MultiPageSettings/GlueMarginsTop
350
147
  3
MultiPageSettings/PrintCropMarks
350
148
  3
MultiPageSettings/Rows
350
149
  3
PageSettings/OffsetX
350
14A
  3
PageSettings/OffsetY
350
14B
  3
PageSettings/PageOrientation
350
14C
  3
PageSettings/PaperHeight
350
14D
  3
PageSettings/PaperWidth
350
14E
  3
PageSettings/Scale
350
14F
  3
PageSettings/ShowPaperBorders
350
150
  3
PageTagSettings/EnablePageTags
350
151
  3
PageTagSettings/TagAlignment
350
152
  3
PageTagSettings/TagFont
350
153
  3
PageTagSettings/TagPosition
350
154
  3
QCADVersion
350
155
  3
UnitSettings/PaperUnit
350
156
  3
ViewportCenter
350
157
  3
ViewportHeight
350
158
  3
ViewportWidth
350
159
  0
XRECORD
  5
125
330
122
100
AcDbXrecord
280
1
1000
White
  0
XRECORD
  5
126
330
122
100
AcDbXrecord
280
1
1000
FullColor
  0
XRECORD
  5
127
330
122
100
AcDbXrecord
280
1
290
1
  0
XRECORD
  5
128
330
122
100
AcDbXrecord
280
1
290
1
  0
XRECORD
  5
129
330
122
100
AcDbXrecord
280
1
290
1
  0
XRECORD
  5
12A
330
122
100
AcDbXrecord
280
1
290
1
  0
XRECORD
  5
12B
330
122
100
AcDbXrecord
280
1
1000
auto
  0
XRECORD
  5
12C
330
122
100
AcDbXrecord
280
1
1000
auto
  0
XRECORD
  5
12D
330
122
100
AcDbXrecord
280
1
1000
auto
  0
XRECORD
  5
12E
330
122
100
AcDbXrecord
280
1
1000
auto
  0
XRECORD
  5
12F
330
122
100
AcDbXrecord
280
1
1000
auto
  0
XRECORD
  5
130
330
122
100
AcDbXrecord
280
1
1000
auto
  0
XRECORD
  5
131
330
122
100
AcDbXrecord
280
1
1000
auto
  0
XRECORD
  5
132
330
122
100
AcDbXrecord
280
1
1000
auto
  0
XRECORD
  5
133
330
122
100
AcDbXrecord
280
1
290
0
  0
XRECORD
  5
134
330
122
100
AcDbXrecord
280
1
290
0
  0
XRECORD
  5
135
330
122
100
AcDbXrecord
280
1
290
0
  0
XRECORD
  5
136
330
122
100
AcDbXrecord
280
1
290
0
  0
XRECORD
  5
137
330
122
100
AcDbXrecord
280
1
 90
65537
  0
XRECORD
  5
138
330
122
100
AcDbXrecord
280
1
 90
65537
  0
XRECORD
  5
139
330
122
100
AcDbXrecord
280
1
 90
65537
  0
XRECORD
  5
13A
330
122
100
AcDbXrecord
280
1
 90
65537
  0
XRECORD
  5
13B
330
122
100
AcDbXrecord
280
1
1000
auto
  0
XRECORD
  5
13C
330
122
100
AcDbXrecord
280
1
1000
auto
  0
XRECORD
  5
13D
330
122
100
AcDbXrecord
280
1
1000
auto
  0
XRECORD
  5
13E
330
122
100
AcDbXrecord
280
1
1000
auto
  0
XRECORD
  5
13F
330
122
100
AcDbXrecord
280
1
1000
auto
  0
XRECORD
  5
140
330
122
100
AcDbXrecord
280
1
1000
auto
  0
XRECORD
  5
141
330
122
100
AcDbXrecord
280
1
1000
auto
  0
XRECORD
  5
142
330
122
100
AcDbXrecord
280
1
1000
auto
  0
XRECORD
  5
143
330
122
100
AcDbXrecord
280
1
 90
1
  0
XRECORD
  5
144
330
122
100
AcDbXrecord
280
1
 40
10.0
  0
XRECORD
  5
145
330
122
100
AcDbXrecord
280
1
 40
10.0
  0
XRECORD
  5
146
330
122
100
AcDbXrecord
280
1
 40
10.0
  0
XRECORD
  5
147
330
122
100
AcDbXrecord
280
1
 40
10.0
  0
XRECORD
  5
148
330
122
100
AcDbXrecord
280
1
290
0
  0
XRECORD
  5
149
330
122
100
AcDbXrecord
280
1
 90
1
  0
XRECORD
  5
14A
330
122
100
AcDbXrecord
280
1
 40
0.0
  0
XRECORD
  5
14B
330
122
100
AcDbXrecord
280
1
 40
0.0
  0
XRECORD
  5
14C
330
122
100
AcDbXrecord
280
1
1000
Portrait
  0
XRECORD
  5
14D
330
122
100
AcDbXrecord
280
1
 40
297.0
  0
XRECORD
  5
14E
330
122
100
AcDbXrecord
280
1
 40
210.0
  0
XRECORD
  5
14F
330
122
100
AcDbXrecord
280
1
1000
1:1
  0
XRECORD
  5
150
330
122
100
AcDbXrecord
280
1
290
1
  0
XRECORD
  5
151
330
122
100
AcDbXrecord
280
1
290
0
  0
XRECORD
  5
152
330
122
100
AcDbXrecord
280
1
1000
Inside
  0
XRECORD
  5
153
330
122
100
AcDbXrecord
280
1
1000
Arial,10,-1,5,50,0,0,0,0,0
  0
XRECORD
  5
154
330
122
100
AcDbXrecord
280
1
1000
TopLeft
  0
XRECORD
  5
155
330
122
100
AcDbXrecord
280
1
1000
3.24.0
  0
XRECORD
  5
156
330
122
100
AcDbXrecord
280
1
 90
4
  0
XRECORD
  5
158
330
122
100
AcDbXrecord
280
1
 40
58.475692738239303
  0
XRECORD
  5
159
330
122
100
AcDbXrecord
280
1
 40
126.9017947303048857
  0
ENDSEC
  0
EOF
